<svg width="24" height="25" viewBox="0 0 24 25" fill="none" xmlns="http://www.w3.org/2000/svg">
<path d="M12 7.98938L12.97 10.2794L13.44 11.3894L14.64 11.4894L17.11 11.6994L15.23 13.3294L14.32 14.1194L14.59 15.2994L15.15 17.7094L13.03 16.4294L12 15.7894L10.97 16.4094L8.85 17.6894L9.41 15.2794L9.68 14.0994L8.77 13.3094L6.89 11.6794L9.36 11.4694L10.56 11.3694L11.03 10.2594L12 7.98938ZM12 2.85938L9.19 9.48938L2 10.0994L7.46 14.8294L5.82 21.8594L12 18.1294L18.18 21.8594L16.54 14.8294L22 10.0994L14.81 9.48938L12 2.85938Z" fill="#374656"/>
</svg>
