<svg width="25" height="24" viewBox="0 0 25 24" fill="none" xmlns="http://www.w3.org/2000/svg">
<path fill-rule="evenodd" clip-rule="evenodd" d="M4.80005 8.7C4.80005 4.443 8.24305 1 12.5 1C16.757 1 20.2 4.443 20.2 8.7C20.2 14.475 12.5 23 12.5 23C12.5 23 4.80005 14.475 4.80005 8.7ZM12.5 3.2C9.46405 3.2 7.00005 5.664 7.00005 8.7C7.00005 11.835 10.212 16.631 12.5 19.568C14.832 16.609 18 11.868 18 8.7C18 5.664 15.536 3.2 12.5 3.2ZM15.25 8.7C15.25 10.2188 14.0188 11.45 12.5 11.45C10.9813 11.45 9.75005 10.2188 9.75005 8.7C9.75005 7.18122 10.9813 5.95 12.5 5.95C14.0188 5.95 15.25 7.18122 15.25 8.7Z" fill="#374656"/>
</svg>
