<svg width="25" height="24" viewBox="0 0 25 24" fill="none" xmlns="http://www.w3.org/2000/svg">
<path fill-rule="evenodd" clip-rule="evenodd" d="M20.248 14C20.4125 13.3608 20.5 12.6906 20.5 12C20.5 11.3094 20.4125 10.6392 20.248 10H17.4057C17.4677 10.6479 17.5 11.3171 17.5 12C17.5 12.6829 17.4677 13.3521 17.4057 14H20.248ZM15.3955 14H9.60446C9.53652 13.3624 9.5 12.6928 9.5 12C9.5 11.3072 9.53652 10.6376 9.60446 10H15.3955C15.4635 10.6376 15.5 11.3072 15.5 12C15.5 12.6928 15.4635 13.3624 15.3955 14ZM17.1068 8H19.4297C18.6429 6.63979 17.4671 5.53275 16.0544 4.83099C16.1194 4.96122 16.182 5.09431 16.2422 5.2299C16.6024 6.04022 16.8949 6.9765 17.1068 8ZM12.5 4C12.2731 4 11.9816 4.0993 11.6324 4.43166C11.278 4.76892 10.9134 5.30422 10.5854 6.04218C10.3338 6.60826 10.1153 7.26765 9.94164 8H15.0584C14.8847 7.26765 14.6662 6.60826 14.4146 6.04218C14.0866 5.30422 13.722 4.76892 13.3676 4.43166C13.0184 4.0993 12.7269 4 12.5 4ZM12.5 2C18.0228 2 22.5 6.47715 22.5 12C22.5 17.5228 18.0228 22 12.5 22C6.97715 22 2.5 17.5228 2.5 12C2.5 6.47715 6.97715 2 12.5 2ZM12.5 20C12.2731 20 11.9816 19.9007 11.6324 19.5683C11.278 19.2311 10.9134 18.6958 10.5854 17.9578C10.3338 17.3917 10.1153 16.7324 9.94164 16H15.0584C14.8847 16.7324 14.6662 17.3917 14.4146 17.9578C14.0866 18.6958 13.722 19.2311 13.3676 19.5683C13.0184 19.9007 12.7269 20 12.5 20ZM16.0544 19.169C16.1194 19.0388 16.182 18.9057 16.2422 18.7701C16.6024 17.9598 16.8949 17.0235 17.1068 16H19.4297C18.6429 17.3602 17.4671 18.4672 16.0544 19.169ZM7.5 12C7.5 11.3171 7.53228 10.6479 7.59432 10H4.75203C4.58751 10.6392 4.5 11.3094 4.5 12C4.5 12.6906 4.58751 13.3608 4.75203 14H7.59432C7.53228 13.3521 7.5 12.6829 7.5 12ZM8.75776 5.2299C8.81802 5.09431 8.88064 4.96122 8.94561 4.83099C7.53292 5.53275 6.3571 6.63979 5.57026 8H7.89317C8.10515 6.9765 8.39762 6.04022 8.75776 5.2299ZM8.75776 18.7701C8.39762 17.9598 8.10515 17.0235 7.89317 16H5.57026C6.3571 17.3602 7.53292 18.4672 8.94561 19.169C8.88064 19.0388 8.81802 18.9057 8.75776 18.7701Z" fill="#374656"/>
</svg>
