<svg width="24" height="25" viewBox="0 0 24 25" fill="none" xmlns="http://www.w3.org/2000/svg">
<path d="M12.0234 3.06641C13.6834 3.06641 15.0234 4.40641 15.0234 6.06641C15.0234 7.72641 13.6834 9.06641 12.0234 9.06641C10.3634 9.06641 9.02344 7.72641 9.02344 6.06641C9.02344 4.40641 10.3634 3.06641 12.0234 3.06641ZM18.1556 18.8682C18.5938 17.7031 20.0234 13.8633 20.0234 13.8633C20.0234 13.067 19.3516 12.391 17.0044 11.1917C15.6344 10.4917 13.9838 9.84436 12.0039 9.84436C10.024 9.84436 8.37709 10.4716 6.98709 11.1716C5.22213 12.0605 4.02344 12.9673 4.02344 13.8789C4.02344 13.8789 5.49548 17.9281 5.8431 18.8699C6.19073 19.8116 6.60787 21.2843 7.99201 21.8531C9.20201 22.3831 10.0568 22.8581 12.0234 22.8581C13.9901 22.8581 14.78 22.4021 16 21.8721C17.3323 21.2933 17.7174 20.0334 18.1556 18.8682ZM15.4434 18.5664L12.0234 22.0664L8.60344 18.5664C8.24344 18.1864 8.02344 17.6764 8.02344 17.1164C8.02344 15.9864 8.92344 15.0664 10.0234 15.0664C10.5734 15.0664 11.0834 15.2964 11.4434 15.6764L12.0234 16.2664L12.6034 15.6664C12.9634 15.2964 13.4734 15.0664 14.0234 15.0664C15.1334 15.0664 16.0234 15.9864 16.0234 17.1164C16.0234 17.6764 15.8034 18.1964 15.4434 18.5664Z" fill="#788392"/>
</svg>
