<svg width="310" height="291" viewBox="0 0 310 291" fill="none" xmlns="http://www.w3.org/2000/svg">
<circle cx="154.56" cy="134.428" r="122.739" stroke="#CCD4DE" stroke-width="0.649412" stroke-dasharray="6.49 6.49"/>
<path d="M89.5524 255.294C89.1895 254.857 88.9198 254.35 88.76 253.805C88.6001 253.26 88.5536 252.688 88.6231 252.124L101.984 142.797L103.092 133.716C103.216 132.706 103.704 131.775 104.464 131.098C105.223 130.421 106.203 130.043 107.221 130.035L146.358 129.775C146.915 129.771 147.466 129.657 147.978 129.438C148.491 129.218 148.954 128.899 149.342 128.499C149.729 128.098 150.032 127.624 150.234 127.105C150.436 126.585 150.532 126.031 150.517 125.473L150.502 125.059C150.483 124.497 150.577 123.937 150.779 123.412C150.98 122.888 151.286 122.409 151.676 122.005C152.067 121.601 152.535 121.279 153.052 121.06C153.57 120.84 154.126 120.727 154.688 120.727H195.813C196.922 120.727 197.986 121.167 198.77 121.95C199.555 122.733 199.997 123.796 200 124.904C199.999 125.093 199.987 125.281 199.963 125.467C199.885 126.05 199.931 126.642 200.097 127.206C200.263 127.77 200.546 128.293 200.928 128.74C201.309 129.187 201.781 129.549 202.311 129.802C202.842 130.055 203.42 130.193 204.007 130.208L243.504 131.216C244.105 131.23 244.695 131.374 245.235 131.638C245.775 131.901 246.252 132.278 246.633 132.742C247.015 133.206 247.292 133.747 247.445 134.328C247.599 134.908 247.626 135.515 247.524 136.107L227.779 251.437L227.406 253.617C227.314 254.174 227.108 254.705 226.801 255.179L89.5524 255.294Z" fill="#B2BAC4"/>
<g filter="url(#filter0_d)">
<path d="M179.733 100.631C176.489 103.547 181.883 123.54 196.731 133.761C200.8 136.562 204.359 135.293 207.095 130.874C209.621 126.793 209.629 123.312 210.695 118.633C211.694 114.252 221.496 108.192 220.056 106.391C218.616 104.591 211.775 104.231 207.095 107.832C202.415 111.432 199.174 118.633 199.174 118.633C194.854 117.552 187.293 95.2308 179.733 100.631Z" fill="#231F20"/>
<path d="M126.981 101.739C130.066 104.304 125.367 123.423 111.651 133.871C107.892 136.734 104.54 135.737 101.903 131.73C99.4684 128.029 99.4003 124.752 98.321 120.407C97.3105 116.339 88.0325 111.18 89.3488 109.405C90.665 107.631 97.0597 106.911 101.502 110.04C105.944 113.168 109.102 119.766 109.102 119.766C113.125 118.509 119.812 97.0765 126.981 101.739Z" fill="#231F20"/>
<path d="M125.565 104.66C126.39 102.118 127.695 100.538 128.588 97.9278C127.008 94.3557 125.565 89.341 125.565 85.1506C125.561 77.7468 128.43 70.63 133.568 65.2994C138.706 59.9689 145.713 56.8407 153.112 56.5737C153.249 56.5737 153.455 56.505 153.593 56.505L154.211 56.505C159.114 56.4918 163.938 57.7407 168.219 60.1317C172.5 62.5227 176.093 65.9751 178.653 70.1569C181.213 74.3387 182.654 79.109 182.837 84.0089C183.02 88.9087 181.938 93.7731 179.697 98.1339C188.902 117.231 194.81 141.618 194.81 152.059C194.81 170.401 176.537 185.307 154.074 185.307C131.611 185.307 113.338 170.401 113.338 152.059C113.406 142.785 118.078 122.452 125.565 104.66Z" fill="#231F20"/>
<path d="M155.928 57.192C155.928 57.192 150.432 48.88 144.937 48.0557C150.913 53.9634 149.951 55.1999 149.951 55.1999C149.951 55.1999 146.997 50.6661 144.044 49.9104C148.234 54.4443 147.204 57.192 147.204 57.192C146.978 56.2479 146.564 55.3593 145.985 54.5799C145.407 53.8006 144.676 53.1468 143.837 52.6582C145.237 54.6106 146.047 56.9229 146.173 59.3216" fill="#231F20"/>
<path d="M131.061 107.752C131.748 105.691 132.847 104.66 133.534 102.531C132.037 99.1962 131.198 95.6043 131.061 91.9518C131.063 85.9723 133.383 80.2265 137.534 75.9222C141.685 71.6179 147.342 69.0902 153.318 68.8705C153.455 68.8705 153.593 68.8018 153.73 68.8018L154.28 68.8018C160.411 68.8461 166.277 71.311 170.6 75.6597C174.923 80.0084 177.353 85.8887 177.361 92.0205C177.342 95.6739 176.472 99.2727 174.819 102.531C182.238 117.987 187.047 137.702 187.047 146.152C187.047 160.99 172.278 173.011 154.142 173.011C135.938 173.011 121.237 160.99 121.237 146.152C121.169 138.595 124.947 122.177 131.061 107.752Z" fill="white"/>
<path d="M154.141 110.431C141.203 110.431 130.716 100.835 130.716 88.9982C130.716 77.1612 141.203 67.5654 154.141 67.5654C167.078 67.5654 177.565 77.1612 177.565 88.9982C177.565 100.835 167.078 110.431 154.141 110.431Z" fill="url(#paint0_linear)"/>
<path d="M154.142 109.537C141.395 109.537 131.061 99.2034 131.061 86.4559C131.061 73.7084 141.395 63.3745 154.142 63.3745C166.89 63.3745 177.224 73.7084 177.224 86.4559C177.224 99.2034 166.89 109.537 154.142 109.537Z" fill="#231F20"/>
<path d="M178.225 175.953C180.619 175.315 183.167 175.651 185.313 176.89C187.458 178.128 189.024 180.167 189.668 182.559L171.553 187.413C170.94 185.009 171.295 182.461 172.544 180.317C173.792 178.174 175.832 176.606 178.225 175.953Z" fill="url(#paint1_linear)"/>
<path d="M130.294 176.118C132.594 177.038 134.435 178.833 135.413 181.108C136.391 183.384 136.426 185.955 135.51 188.257L118.091 181.309C119.038 179.016 120.848 177.187 123.13 176.216C125.413 175.245 127.986 175.209 130.294 176.118Z" fill="url(#paint2_linear)"/>
<path d="M167.879 89.6161C162.72 89.6161 158.537 85.4333 158.537 80.2736C158.537 75.1139 162.72 70.9312 167.879 70.9312C173.039 70.9312 177.222 75.1139 177.222 80.2736C177.222 85.4333 173.039 89.6161 167.879 89.6161Z" fill="white"/>
<path d="M165.957 74.9155C167.003 74.9155 168.025 75.2258 168.895 75.807C169.765 76.3882 170.443 77.2143 170.843 78.1808C171.244 79.1473 171.349 80.2109 171.144 81.2369C170.94 82.263 170.437 83.2055 169.697 83.9452C168.957 84.685 168.015 85.1888 166.989 85.3929C165.962 85.597 164.899 85.4922 163.932 85.0919C162.966 84.6915 162.14 84.0135 161.559 83.1437C160.977 82.2738 160.667 81.2512 160.667 80.205C160.667 78.8022 161.224 77.4568 162.216 76.4648C163.208 75.4728 164.554 74.9155 165.957 74.9155Z" fill="#231F20"/>
<path d="M162.316 78.075C162.316 78.3739 162.405 78.666 162.571 78.9145C162.737 79.163 162.973 79.3567 163.249 79.4711C163.526 79.5854 163.83 79.6154 164.123 79.5571C164.416 79.4988 164.685 79.3548 164.897 79.1435C165.108 78.9322 165.252 78.6629 165.31 78.3698C165.369 78.0767 165.339 77.7729 165.224 77.4968C165.11 77.2207 164.916 76.9847 164.668 76.8186C164.419 76.6526 164.127 76.564 163.828 76.564C163.432 76.5791 163.056 76.7431 162.776 77.0233C162.496 77.3035 162.331 77.6791 162.316 78.075Z" fill="white"/>
<path d="M161.903 81.029C161.524 81.029 161.216 80.7215 161.216 80.3421C161.216 79.9628 161.524 79.6553 161.903 79.6553C162.283 79.6553 162.59 79.9628 162.59 80.3421C162.59 80.7215 162.283 81.029 161.903 81.029Z" fill="white"/>
<path d="M164.239 82.8156C163.86 82.8156 163.552 82.5081 163.552 82.1287C163.552 81.7494 163.86 81.4419 164.239 81.4419C164.619 81.4419 164.926 81.7494 164.926 82.1287C164.926 82.5081 164.619 82.8156 164.239 82.8156Z" fill="white"/>
<path d="M140.403 89.5477C135.243 89.5477 131.06 85.365 131.06 80.2053C131.06 75.0456 135.243 70.8628 140.403 70.8628C145.562 70.8628 149.745 75.0456 149.745 80.2053C149.745 85.365 145.562 89.5477 140.403 89.5477Z" fill="white"/>
<path d="M142.326 74.9155C141.28 74.9155 140.257 75.2258 139.387 75.807C138.517 76.3882 137.839 77.2143 137.439 78.1808C137.039 79.1473 136.934 80.2109 137.138 81.2369C137.342 82.263 137.846 83.2055 138.586 83.9452C139.325 84.685 140.268 85.1888 141.294 85.3929C142.32 85.597 143.383 85.4922 144.35 85.0919C145.316 84.6915 146.143 84.0135 146.724 83.1437C147.305 82.2738 147.615 81.2512 147.615 80.205C147.615 78.8022 147.058 77.4568 146.066 76.4648C145.074 75.4728 143.729 74.9155 142.326 74.9155Z" fill="#231F20"/>
<path d="M140.334 79.5861C139.499 79.5861 138.822 78.9096 138.822 78.075C138.822 77.2405 139.499 76.564 140.334 76.564C141.168 76.564 141.845 77.2405 141.845 78.075C141.845 78.9096 141.168 79.5861 140.334 79.5861Z" fill="white"/>
<path d="M138.341 81.029C137.961 81.029 137.654 80.7215 137.654 80.3421C137.654 79.9628 137.961 79.6553 138.341 79.6553C138.72 79.6553 139.028 79.9628 139.028 80.3421C139.028 80.7215 138.72 81.029 138.341 81.029Z" fill="white"/>
<path d="M140.676 82.8156C140.297 82.8156 139.989 82.5081 139.989 82.1287C139.989 81.7494 140.297 81.4419 140.676 81.4419C141.056 81.4419 141.363 81.7494 141.363 82.1287C141.363 82.5081 141.056 82.8156 140.676 82.8156Z" fill="white"/>
<path d="M149.195 90.0287L151.118 92.9825C151.943 94.2877 153.042 96.0738 154.21 96.0738C155.309 96.0738 156.408 94.2877 157.301 92.9825L159.224 90.0287C160.392 88.3113 160.117 86.8 158.812 85.9757L155.515 85.3574L152.355 85.3574C148.851 85.3574 147.478 87.4183 149.195 90.0287Z" fill="#FFD8F4"/>
<path d="M152.218 87.5557L156.065 87.5557C159.431 87.5557 160.805 89.1356 159.156 91.1278L157.233 93.3947C156.408 94.3564 155.309 95.7303 154.141 95.7303C153.042 95.7303 151.943 94.3564 151.05 93.3947L149.127 91.1278C147.409 89.1356 148.852 87.5557 152.218 87.5557Z" fill="url(#paint3_radial)"/>
<path d="M167.742 91.1961C161.672 91.1961 156.751 86.2752 156.751 80.205C156.751 74.1348 161.672 69.2139 167.742 69.2139C173.812 69.2139 178.733 74.1348 178.733 80.205C178.733 86.2752 173.813 91.1961 167.742 91.1961Z" fill="#94D6D6" fill-opacity="0.14" stroke="#F78632" stroke-width="1.40728" stroke-miterlimit="10"/>
<path d="M140.196 91.1952C134.126 91.1952 129.205 86.2743 129.205 80.204C129.205 74.1338 134.126 69.2129 140.196 69.2129C146.267 69.2129 151.188 74.1338 151.188 80.204C151.188 86.2743 146.267 91.1952 140.196 91.1952Z" fill="#94D6D6" fill-opacity="0.14" stroke="#F78632" stroke-width="1.40728" stroke-miterlimit="10"/>
<path d="M178.597 78.5557L181.551 75.4648" stroke="#F78632" stroke-width="1.40728" stroke-miterlimit="10" stroke-linecap="round"/>
<path d="M129.206 78.5552L126.252 75.4644" stroke="#F78632" stroke-width="1.40728" stroke-miterlimit="10" stroke-linecap="round"/>
<path d="M151.53 80.2724C152.244 79.8714 153.048 79.6587 153.866 79.6544C154.773 79.649 155.668 79.8609 156.477 80.2724" stroke="#F78632" stroke-width="1.40728" stroke-miterlimit="10"/>
<path opacity="0.76" d="M163.415 70.9307C168.086 75.121 172.757 79.3801 177.497 83.5705C177.361 84.0238 177.176 84.4613 176.948 84.8757C176.727 85.306 176.474 85.7193 176.192 86.1122C171.177 81.5096 166.231 76.9071 161.216 72.3733C161.532 72.0655 161.877 71.7894 162.247 71.5489C162.622 71.3175 163.012 71.111 163.415 70.9307Z" fill="white"/>
<path opacity="0.76" d="M160.254 73.3345C165.132 78.0744 170.078 82.8143 174.955 87.4856C174.652 87.7584 174.33 88.0109 173.993 88.2412C169.253 83.4326 164.513 78.5553 159.842 73.7466C159.997 73.6276 160.135 73.4891 160.254 73.3345Z" fill="white"/>
<path opacity="0.76" d="M135.868 70.9312C140.54 75.1215 145.211 79.3806 149.951 83.571C149.814 84.0243 149.63 84.4618 149.401 84.8762C149.126 85.357 148.852 85.7692 148.645 86.1127C143.631 81.5101 138.685 76.9076 133.67 72.3737C133.986 72.066 134.331 71.7899 134.7 71.5494C135.068 71.3042 135.459 71.097 135.868 70.9312Z" fill="white"/>
<path opacity="0.76" d="M132.709 73.335C137.586 78.0749 142.532 82.8148 147.409 87.4861C147.106 87.7589 146.784 88.0113 146.447 88.2417C141.708 83.4331 136.968 78.5558 132.296 73.7471L132.709 73.335Z" fill="white"/>
</g>
<path opacity="0.5" d="M226.795 255.16C226.23 255.623 225.521 255.874 224.791 255.869L89.5524 255.293C89.1895 254.856 88.9198 254.35 88.76 253.805C88.6001 253.26 88.5536 252.688 88.6231 252.124L101.984 142.797L110.363 142.706C111.064 142.699 111.747 142.925 112.306 143.347C112.865 143.77 113.267 144.367 113.451 145.043L115.016 150.818C115.201 151.502 115.61 152.103 116.177 152.527C116.745 152.951 117.438 153.172 118.146 153.155L151.585 152.353C152.412 152.333 153.198 151.991 153.775 151.399C154.353 150.808 154.676 150.014 154.676 149.187V145.361C154.676 144.527 155.005 143.727 155.591 143.134C156.177 142.542 156.973 142.204 157.806 142.194L204.144 141.695C204.885 141.688 205.605 141.942 206.179 142.411C206.753 142.881 207.143 143.537 207.283 144.265L227.776 251.422L227.909 252.112C228.018 252.673 227.971 253.254 227.775 253.791C227.579 254.328 227.24 254.801 226.795 255.16Z" fill="#374656"/>
<path d="M202.63 143.52L156.292 144.019C155.459 144.028 154.662 144.365 154.076 144.957C153.489 145.549 153.16 146.349 153.159 147.182V151.012C153.159 151.837 152.836 152.63 152.259 153.221C151.682 153.812 150.897 154.154 150.072 154.175L116.635 154.977C115.927 154.995 115.233 154.774 114.665 154.35C114.096 153.927 113.687 153.324 113.502 152.64L111.931 146.868C111.748 146.191 111.345 145.594 110.786 145.171C110.226 144.748 109.542 144.522 108.841 144.531L64.1767 145.012C63.7191 145.016 63.2679 145.12 62.8543 145.316C62.4406 145.512 62.0744 145.795 61.7809 146.146C61.4873 146.497 61.2735 146.908 61.154 147.35C61.0346 147.791 61.0125 148.254 61.0891 148.705L79.0576 254.457C79.1823 255.193 79.5626 255.86 80.1313 256.342C80.7 256.825 81.4207 257.091 82.1663 257.094L223.268 257.699C223.735 257.701 224.197 257.599 224.62 257.401C225.043 257.204 225.417 256.915 225.715 256.555C226.014 256.196 226.229 255.775 226.345 255.323C226.462 254.871 226.477 254.398 226.389 253.94L205.769 146.09C205.63 145.361 205.24 144.705 204.666 144.235C204.092 143.765 203.372 143.512 202.63 143.52Z" fill="#CCD4DE"/>
<path d="M151.567 181.229C149.391 178.978 146.785 177.183 143.901 175.949C141.017 174.714 137.915 174.067 134.776 174.043C131.637 174.02 128.524 174.621 125.622 175.812C122.72 177.002 120.087 178.758 117.878 180.976C108.969 189.91 108.818 204.457 117.532 213.58C121.36 217.588 126.491 220.119 132.015 220.725C137.54 221.331 143.102 219.973 147.716 216.892L164.731 234.498C164.942 234.716 165.231 234.842 165.534 234.848C165.838 234.854 166.132 234.739 166.351 234.53L170.591 230.474C170.81 230.265 170.936 229.977 170.942 229.675C170.948 229.373 170.833 229.081 170.623 228.863L153.607 211.258C156.869 206.812 158.453 201.366 158.08 195.874C157.706 190.383 155.401 185.198 151.567 181.229ZM146.267 209.522C143.866 211.817 140.835 213.353 137.557 213.935C134.279 214.517 130.901 214.119 127.851 212.792C124.8 211.465 122.213 209.267 120.418 206.477C118.623 203.688 117.7 200.431 117.765 197.12C117.831 193.808 118.882 190.59 120.786 187.873C122.69 185.155 125.361 183.061 128.462 181.854C131.563 180.646 134.954 180.381 138.207 181.091C141.459 181.801 144.427 183.454 146.735 185.841C148.267 187.427 149.471 189.297 150.277 191.345C151.083 193.393 151.475 195.579 151.432 197.778C151.388 199.977 150.91 202.146 150.023 204.161C149.137 206.176 147.861 207.997 146.267 209.522Z" fill="#788392"/>
<path fill-rule="evenodd" clip-rule="evenodd" d="M39.614 258.53H40.9128V261.777H44.1601V263.075H40.9128V266.323H39.614V263.075H37.0166V261.777H39.614V258.53Z" fill="#47E6B1"/>
<path d="M198.223 17.9644C197.864 17.808 197.574 17.5246 197.411 17.1684C197.247 16.8122 197.22 16.4082 197.334 16.0332C197.352 15.9752 197.364 15.9153 197.368 15.8546C197.379 15.6822 197.335 15.5105 197.241 15.3654C197.148 15.2203 197.009 15.1095 196.847 15.0496C196.685 14.9897 196.508 14.9839 196.343 15.0331C196.177 15.0823 196.032 15.1838 195.929 15.3225C195.893 15.3709 195.863 15.4234 195.84 15.4788C195.683 15.8383 195.4 16.1277 195.044 16.2917C194.689 16.4558 194.285 16.4829 193.91 16.3681C193.852 16.3499 193.792 16.3387 193.732 16.3346C193.558 16.3221 193.385 16.3666 193.239 16.4614C193.093 16.5562 192.982 16.6962 192.923 16.8599C192.864 17.0237 192.859 17.2024 192.911 17.3689C192.962 17.5353 193.066 17.6804 193.208 17.7821C193.256 17.8179 193.308 17.8479 193.364 17.8714C193.723 18.0279 194.012 18.3112 194.176 18.6674C194.34 19.0236 194.367 19.4277 194.252 19.8026C194.234 19.8606 194.223 19.9206 194.219 19.9812C194.205 20.156 194.249 20.3305 194.344 20.4779C194.439 20.6253 194.579 20.7374 194.744 20.797C194.909 20.8567 195.088 20.8605 195.255 20.8078C195.423 20.7552 195.568 20.6492 195.669 20.5059C195.705 20.4575 195.734 20.405 195.758 20.3496C195.914 19.9901 196.197 19.7007 196.553 19.5366C196.909 19.3726 197.313 19.3454 197.687 19.4603C197.745 19.4785 197.805 19.4897 197.866 19.4938C198.038 19.5056 198.21 19.4612 198.355 19.3673C198.5 19.2734 198.61 19.135 198.67 18.9729C198.73 18.8108 198.736 18.6336 198.687 18.4679C198.637 18.3022 198.536 18.1569 198.398 18.0537C198.343 18.0166 198.285 17.9866 198.223 17.9644Z" fill="#4D8AF0"/>
<path d="M26.1458 157.597C25.7853 157.44 25.4951 157.156 25.3306 156.799C25.1661 156.441 25.1388 156.036 25.254 155.66C25.2723 155.602 25.2835 155.542 25.2876 155.481C25.2994 155.308 25.2549 155.136 25.1608 154.99C25.0666 154.845 24.9279 154.734 24.7653 154.674C24.6027 154.614 24.425 154.608 24.2589 154.657C24.0927 154.707 23.947 154.808 23.8435 154.947C23.8076 154.996 23.7776 155.049 23.754 155.104C23.5971 155.465 23.3129 155.755 22.9557 155.919C22.5986 156.084 22.1933 156.111 21.8174 155.996C21.7592 155.978 21.6991 155.966 21.6382 155.962C21.4653 155.951 21.2932 155.995 21.1477 156.089C21.0022 156.183 20.8911 156.322 20.831 156.485C20.7709 156.647 20.7651 156.825 20.8144 156.991C20.8638 157.157 20.9656 157.303 21.1047 157.406C21.1532 157.442 21.2058 157.472 21.2614 157.496C21.6219 157.653 21.9121 157.937 22.0766 158.294C22.2411 158.651 22.2683 159.057 22.1532 159.433C22.1349 159.491 22.1237 159.551 22.1196 159.612C22.1078 159.785 22.1523 159.957 22.2464 160.102C22.3406 160.248 22.4794 160.359 22.6419 160.419C22.8045 160.479 22.9822 160.485 23.1483 160.436C23.3145 160.386 23.4602 160.284 23.5637 160.145C23.5996 160.097 23.6296 160.044 23.6532 159.989C23.8101 159.628 24.0943 159.338 24.4515 159.173C24.8086 159.009 25.2139 158.982 25.5898 159.097C25.648 159.115 25.7081 159.126 25.7689 159.13C25.9419 159.142 26.114 159.098 26.2595 159.004C26.405 158.909 26.5161 158.771 26.5762 158.608C26.6363 158.445 26.6421 158.268 26.5928 158.102C26.5434 157.935 26.4416 157.79 26.3025 157.686C26.254 157.65 26.2014 157.62 26.1458 157.597Z" fill="#FDD835"/>
<path d="M274.87 288.128C274.51 287.971 274.22 287.687 274.055 287.33C273.891 286.973 273.863 286.567 273.979 286.191C273.997 286.133 274.008 286.073 274.012 286.012C274.024 285.839 273.98 285.667 273.885 285.522C273.791 285.376 273.652 285.265 273.49 285.205C273.327 285.145 273.15 285.139 272.983 285.188C272.817 285.238 272.672 285.34 272.568 285.479C272.532 285.527 272.502 285.58 272.479 285.635C272.322 285.996 272.038 286.286 271.68 286.451C271.323 286.615 270.918 286.642 270.542 286.527C270.484 286.509 270.424 286.498 270.363 286.494C270.19 286.482 270.018 286.526 269.872 286.62C269.727 286.715 269.616 286.853 269.556 287.016C269.496 287.179 269.49 287.356 269.539 287.522C269.588 287.689 269.69 287.834 269.829 287.938C269.878 287.974 269.93 288.004 269.986 288.027C270.347 288.184 270.637 288.468 270.801 288.825C270.966 289.183 270.993 289.588 270.878 289.964C270.86 290.022 270.848 290.082 270.844 290.143C270.832 290.316 270.877 290.488 270.971 290.634C271.065 290.779 271.204 290.89 271.367 290.95C271.529 291.01 271.707 291.016 271.873 290.967C272.039 290.917 272.185 290.816 272.288 290.677C272.324 290.628 272.354 290.575 272.378 290.52C272.535 290.159 272.819 289.869 273.176 289.705C273.533 289.54 273.938 289.513 274.314 289.628C274.373 289.646 274.433 289.658 274.494 289.662C274.666 289.673 274.839 289.629 274.984 289.535C275.13 289.441 275.241 289.302 275.301 289.139C275.361 288.977 275.367 288.799 275.317 288.633C275.268 288.467 275.166 288.321 275.027 288.218C274.979 288.182 274.926 288.152 274.87 288.128Z" fill="#FDD835"/>
<path d="M100.009 57.8608C101.444 57.8608 102.607 56.6978 102.607 55.2632C102.607 53.8285 101.444 52.6655 100.009 52.6655C98.5746 52.6655 97.4116 53.8285 97.4116 55.2632C97.4116 56.6978 98.5746 57.8608 100.009 57.8608Z" fill="#F55F44"/>
<path d="M306.522 87.0845C307.957 87.0845 309.12 85.9214 309.12 84.4868C309.12 83.0522 307.957 81.8892 306.522 81.8892C305.088 81.8892 303.925 83.0522 303.925 84.4868C303.925 85.9214 305.088 87.0845 306.522 87.0845Z" fill="#F55F44"/>
<path d="M270.155 148.778C271.59 148.778 272.753 147.615 272.753 146.181C272.753 144.746 271.59 143.583 270.155 143.583C268.721 143.583 267.558 144.746 267.558 146.181C267.558 147.615 268.721 148.778 270.155 148.778Z" fill="#4D8AF0"/>
<path opacity="0.5" d="M2.59765 63.0566C4.03229 63.0566 5.19529 61.8936 5.19529 60.459C5.19529 59.0243 4.03229 57.8613 2.59765 57.8613C1.16301 57.8613 0 59.0243 0 60.459C0 61.8936 1.16301 63.0566 2.59765 63.0566Z" fill="#47E6B1"/>
<path fill-rule="evenodd" clip-rule="evenodd" d="M39.614 243.53H40.9128V246.777H44.1601V248.075H40.9128V251.323H39.614V248.075H37.0166V246.777H39.614V243.53Z" fill="#47E6B1"/>
<path d="M198.223 2.96443C197.864 2.80795 197.575 2.52461 197.411 2.16843C197.247 1.81225 197.22 1.40816 197.335 1.03322C197.353 0.975222 197.364 0.915265 197.368 0.854611C197.38 0.682168 197.336 0.510544 197.242 0.365426C197.148 0.220307 197.01 0.109501 196.848 0.0495921C196.686 -0.0103167 196.509 -0.0161061 196.343 0.033091C196.178 0.082288 196.033 0.183825 195.929 0.322504C195.894 0.370912 195.864 0.423369 195.84 0.478788C195.684 0.838344 195.401 1.12773 195.045 1.29175C194.689 1.45577 194.285 1.48295 193.911 1.36811C193.853 1.34991 193.793 1.33866 193.732 1.33462C193.559 1.32208 193.386 1.36659 193.24 1.46141C193.094 1.55622 192.983 1.69616 192.923 1.85994C192.864 2.02373 192.86 2.20242 192.911 2.36886C192.963 2.5353 193.067 2.68039 193.208 2.7821C193.257 2.81791 193.309 2.84788 193.364 2.8714C193.724 3.02788 194.013 3.31123 194.177 3.66741C194.34 4.02359 194.368 4.42768 194.253 4.80262C194.235 4.86061 194.223 4.92057 194.219 4.98123C194.205 5.156 194.249 5.33051 194.344 5.47791C194.439 5.62531 194.58 5.73743 194.744 5.79705C194.909 5.85666 195.089 5.86045 195.256 5.80785C195.423 5.75524 195.568 5.64915 195.669 5.50589C195.705 5.45749 195.735 5.40503 195.758 5.34961C195.915 4.99005 196.198 4.70067 196.554 4.53665C196.91 4.37263 197.313 4.34544 197.688 4.46028C197.746 4.47849 197.806 4.48973 197.866 4.49377C198.039 4.50557 198.21 4.46119 198.355 4.3673C198.5 4.27341 198.611 4.13504 198.671 3.97291C198.73 3.81078 198.736 3.6336 198.687 3.46791C198.638 3.30221 198.537 3.1569 198.398 3.05374C198.344 3.0166 198.285 2.98658 198.223 2.96443Z" fill="#4D8AF0"/>
<path d="M26.1458 142.597C25.7853 142.44 25.4951 142.156 25.3306 141.799C25.1661 141.441 25.1388 141.036 25.254 140.66C25.2723 140.602 25.2835 140.542 25.2876 140.481C25.2994 140.308 25.2549 140.136 25.1608 139.99C25.0666 139.845 24.9279 139.734 24.7653 139.674C24.6027 139.614 24.425 139.608 24.2589 139.657C24.0927 139.707 23.947 139.808 23.8435 139.947C23.8076 139.996 23.7776 140.049 23.754 140.104C23.5971 140.465 23.3129 140.755 22.9557 140.919C22.5986 141.084 22.1933 141.111 21.8174 140.996C21.7592 140.978 21.6991 140.966 21.6382 140.962C21.4653 140.951 21.2932 140.995 21.1477 141.089C21.0022 141.183 20.8911 141.322 20.831 141.485C20.7709 141.647 20.7651 141.825 20.8144 141.991C20.8638 142.157 20.9656 142.303 21.1047 142.406C21.1532 142.442 21.2058 142.472 21.2614 142.496C21.6219 142.653 21.9121 142.937 22.0766 143.294C22.2411 143.651 22.2683 144.057 22.1532 144.433C22.1349 144.491 22.1237 144.551 22.1196 144.612C22.1078 144.785 22.1523 144.957 22.2464 145.102C22.3406 145.248 22.4794 145.359 22.6419 145.419C22.8045 145.479 22.9822 145.485 23.1483 145.436C23.3145 145.386 23.4602 145.284 23.5637 145.145C23.5996 145.097 23.6296 145.044 23.6532 144.989C23.8101 144.628 24.0943 144.338 24.4515 144.173C24.8086 144.009 25.2139 143.982 25.5898 144.097C25.648 144.115 25.7081 144.126 25.7689 144.13C25.9419 144.142 26.114 144.098 26.2595 144.004C26.405 143.909 26.5161 143.771 26.5762 143.608C26.6363 143.445 26.6421 143.268 26.5928 143.102C26.5434 142.935 26.4416 142.79 26.3025 142.686C26.254 142.65 26.2014 142.62 26.1458 142.597Z" fill="#FDD835"/>
<path d="M274.87 273.128C274.51 272.971 274.22 272.687 274.055 272.33C273.891 271.973 273.863 271.567 273.979 271.191C273.997 271.133 274.008 271.073 274.012 271.012C274.024 270.839 273.98 270.667 273.885 270.522C273.791 270.376 273.652 270.265 273.49 270.205C273.327 270.145 273.15 270.139 272.983 270.188C272.817 270.238 272.672 270.34 272.568 270.479C272.532 270.527 272.502 270.58 272.479 270.635C272.322 270.996 272.038 271.286 271.68 271.451C271.323 271.615 270.918 271.642 270.542 271.527C270.484 271.509 270.424 271.498 270.363 271.494C270.19 271.482 270.018 271.526 269.872 271.62C269.727 271.715 269.616 271.853 269.556 272.016C269.496 272.179 269.49 272.356 269.539 272.522C269.588 272.689 269.69 272.834 269.829 272.938C269.878 272.974 269.93 273.004 269.986 273.027C270.347 273.184 270.637 273.468 270.801 273.825C270.966 274.183 270.993 274.588 270.878 274.964C270.86 275.022 270.848 275.082 270.844 275.143C270.832 275.316 270.877 275.488 270.971 275.634C271.065 275.779 271.204 275.89 271.367 275.95C271.529 276.01 271.707 276.016 271.873 275.967C272.039 275.917 272.185 275.816 272.288 275.677C272.324 275.628 272.354 275.575 272.378 275.52C272.535 275.159 272.819 274.869 273.176 274.705C273.533 274.54 273.938 274.513 274.314 274.628C274.373 274.646 274.433 274.658 274.494 274.662C274.666 274.673 274.839 274.629 274.984 274.535C275.13 274.441 275.241 274.302 275.301 274.139C275.361 273.977 275.367 273.799 275.317 273.633C275.268 273.467 275.166 273.321 275.027 273.218C274.979 273.182 274.926 273.152 274.87 273.128Z" fill="#FDD835"/>
<path d="M100.01 42.8608C101.444 42.8608 102.607 41.6978 102.607 40.2632C102.607 38.8285 101.444 37.6655 100.01 37.6655C98.5751 37.6655 97.4121 38.8285 97.4121 40.2632C97.4121 41.6978 98.5751 42.8608 100.01 42.8608Z" fill="#F55F44"/>
<path d="M306.522 72.0845C307.957 72.0845 309.12 70.9214 309.12 69.4868C309.12 68.0522 307.957 66.8892 306.522 66.8892C305.088 66.8892 303.925 68.0522 303.925 69.4868C303.925 70.9214 305.088 72.0845 306.522 72.0845Z" fill="#F55F44"/>
<path d="M270.155 133.778C271.59 133.778 272.753 132.615 272.753 131.181C272.753 129.746 271.59 128.583 270.155 128.583C268.721 128.583 267.558 129.746 267.558 131.181C267.558 132.615 268.721 133.778 270.155 133.778Z" fill="#4D8AF0"/>
<path opacity="0.5" d="M2.59765 48.0566C4.03229 48.0566 5.19529 46.8936 5.19529 45.459C5.19529 44.0243 4.03229 42.8613 2.59765 42.8613C1.16301 42.8613 0 44.0243 0 45.459C0 46.8936 1.16301 48.0566 2.59765 48.0566Z" fill="#47E6B1"/>
<defs>
<filter id="filter0_d" x="87.273" y="47.4063" width="134.876" height="144.097" filterUnits="userSpaceOnUse" color-interpolation-filters="sRGB">
<feFlood flood-opacity="0" result="BackgroundImageFix"/>
<feColorMatrix in="SourceAlpha" type="matrix" values="0 0 0 0 0 0 0 0 0 0 0 0 0 0 0 0 0 0 127 0"/>
<feOffset dy="1.29882"/>
<feGaussianBlur stdDeviation="0.974118"/>
<feColorMatrix type="matrix" values="0 0 0 0 0.5875 0 0 0 0 0.5875 0 0 0 0 0.5875 0 0 0 0.15 0"/>
<feBlend mode="normal" in2="BackgroundImageFix" result="effect1_dropShadow"/>
<feBlend mode="normal" in="SourceGraphic" in2="effect1_dropShadow" result="shape"/>
</filter>
<linearGradient id="paint0_linear" x1="167.914" y1="-133.774" x2="167.914" y2="-90.8652" gradientUnits="userSpaceOnUse">
<stop stop-color="#FFE773"/>
<stop offset="0.22" stop-color="#FFE36E"/>
<stop offset="0.482" stop-color="#FFD960"/>
<stop offset="0.765" stop-color="#FFC748"/>
<stop offset="1" stop-color="#FFB42E"/>
</linearGradient>
<linearGradient id="paint1_linear" x1="139.496" y1="-22.0728" x2="141.919" y2="-13.0307" gradientUnits="userSpaceOnUse">
<stop stop-color="#FFE773"/>
<stop offset="0.22" stop-color="#FFE36E"/>
<stop offset="0.482" stop-color="#FFD960"/>
<stop offset="0.765" stop-color="#FFC748"/>
<stop offset="1" stop-color="#FFB42E"/>
</linearGradient>
<linearGradient id="paint2_linear" x1="217.716" y1="-5.7368" x2="214.248" y2="2.95817" gradientUnits="userSpaceOnUse">
<stop stop-color="#FFE773"/>
<stop offset="0.22" stop-color="#FFE36E"/>
<stop offset="0.482" stop-color="#FFD960"/>
<stop offset="0.765" stop-color="#FFC748"/>
<stop offset="1" stop-color="#FFB42E"/>
</linearGradient>
<radialGradient id="paint3_radial" cx="0" cy="0" r="1" gradientUnits="userSpaceOnUse" gradientTransform="translate(214.205 46.3675) rotate(180) scale(4.96905)">
<stop stop-color="#F7E563"/>
<stop offset="0.095" stop-color="#F4DF5A"/>
<stop offset="0.32" stop-color="#F0D44B"/>
<stop offset="0.588" stop-color="#EECE43"/>
<stop offset="1" stop-color="#EDCC40"/>
</radialGradient>
</defs>
</svg>
