<svg width="336" height="260" viewBox="0 0 336 260" fill="none" xmlns="http://www.w3.org/2000/svg">
<g opacity="0.5">
<path opacity="0.5" d="M189.822 11.0001L163.572 184.911L289.476 203.9L315.726 29.9891L189.822 11.0001Z" fill="url(#paint0_linear)"/>
</g>
<path d="M191.232 12.5232L165.563 182.59L288.264 201.096L313.933 31.029L191.232 12.5232Z" fill="#F5F5F5"/>
<path d="M284.998 102.099L196.437 88.7412L195.627 94.1075L284.188 107.466L284.998 102.099Z" fill="#CCD4DE"/>
<path d="M282.974 115.512L194.413 102.154L193.603 107.521L282.164 120.879L282.974 115.512Z" fill="#CCD4DE"/>
<path d="M291.472 59.1734L245.85 52.292L245.04 57.6583L290.662 64.5397L291.472 59.1734Z" fill="#CCD4DE"/>
<ellipse rx="16.2453" ry="16.4235" transform="matrix(0.988193 0.153151 -0.161221 0.986885 218.278 55.0535)" fill="#EDEDED"/>
<mask id="mask0" mask-type="alpha" maskUnits="userSpaceOnUse" x="202" y="38" width="33" height="34">
<ellipse rx="16.2453" ry="16.4235" transform="matrix(0.988193 0.153151 -0.161221 0.986885 218.278 55.0535)" fill="#808080"/>
</mask>
<g mask="url(#mask0)">
<path d="M211.424 53.6549C211.424 53.6549 210.441 62.0591 207.863 64.4671C205.285 66.875 207.078 70.0238 207.078 70.0238L226.04 73.8966C226.04 73.8966 229.044 69.7317 227.593 67.7698C224.232 63.1958 226.598 56.6906 226.598 56.6906L211.424 53.6549Z" fill="#6A5A54"/>
<path d="M203.92 74.6394L227.527 78.1821C226.683 71.2247 222.872 65.8764 217.488 65.0685C212.105 64.2606 206.687 68.2504 203.613 74.6199C203.693 74.6053 203.819 74.6242 203.92 74.6394Z" fill="#D85A2C"/>
<path d="M203.92 74.6394L227.527 78.1821C226.683 71.2247 222.872 65.8764 217.488 65.0685C212.105 64.2606 206.687 68.2504 203.613 74.6199C203.693 74.6053 203.819 74.6242 203.92 74.6394Z" fill="#F4BB00"/>
<path d="M216.867 69.6383C215.42 69.4196 214.453 68.0392 214.706 66.5544L215.779 60.2568L220.992 61.0448L219.914 67.368C219.69 68.831 218.313 69.857 216.867 69.6383Z" fill="#F7CBB5"/>
<mask id="mask1" mask-type="alpha" maskUnits="userSpaceOnUse" x="214" y="60" width="7" height="10">
<path d="M216.861 69.6393C215.418 69.4212 214.454 68.0409 214.709 66.5558L215.789 60.2568L220.992 61.0429L219.907 67.3675C219.682 68.8308 218.305 69.8574 216.861 69.6393Z" fill="#F7CBB5"/>
</mask>
<g mask="url(#mask1)">
<path d="M214.438 63.6533C214.438 63.6533 216.204 67.0999 221.122 66.2012C224.115 65.6576 222.855 62.5808 222.855 62.5808L214.123 63.5261" fill="#EDA18A"/>
</g>
<path d="M211.267 57.8383C212.781 58.0675 214.221 57 214.483 55.454C214.745 53.9079 213.729 52.4686 212.215 52.2394C210.701 52.0101 209.261 53.0776 208.999 54.6237C208.738 56.1698 209.753 57.609 211.267 57.8383Z" fill="#EDA18A"/>
<path d="M225.531 60.1224C227.045 60.3517 228.485 59.2842 228.747 57.7381C229.008 56.192 227.993 54.7528 226.479 54.5235C224.965 54.2943 223.525 55.3618 223.263 56.9078C223.001 58.4539 224.017 59.8932 225.531 60.1224Z" fill="#EDA18A"/>
<path d="M217.493 64.5302C221.626 65.1562 225.649 61.6902 226.479 56.7886C227.309 51.887 224.631 47.406 220.497 46.78C216.364 46.154 212.341 49.62 211.511 54.5216C210.681 59.4232 213.359 63.9042 217.493 64.5302Z" fill="#F7CBB5"/>
<path d="M215.152 56.9695C215.386 57.0044 215.64 56.6542 215.719 56.1874C215.798 55.7206 215.673 55.3139 215.44 55.279C215.206 55.2441 214.952 55.5942 214.873 56.0611C214.794 56.5279 214.919 56.9346 215.152 56.9695Z" fill="#374656"/>
<path d="M221.943 58.0554C222.176 58.0903 222.43 57.7402 222.509 57.2734C222.589 56.8065 222.464 56.3998 222.23 56.3649C221.997 56.33 221.743 56.6802 221.663 57.147C221.584 57.6138 221.709 58.0205 221.943 58.0554Z" fill="#374656"/>
<path d="M218.19 56.5612C218.19 56.5612 217.402 58.512 217.707 58.9775C218.013 59.443 218.376 59.105 218.73 58.9752" stroke="#EDA18A" stroke-width="0.16772" stroke-miterlimit="10" stroke-linecap="round" stroke-linejoin="round"/>
<path d="M216.704 59.9215C216.704 59.9215 217.084 61.08 218.209 61.0353C219.329 61.0168 219.679 60.3177 219.679 60.3177" stroke="#EDA18A" stroke-width="0.16772" stroke-miterlimit="10" stroke-linecap="round" stroke-linejoin="round"/>
<path d="M213.481 59.2475C214.261 59.3655 214.975 58.9766 215.076 58.3789C215.177 57.7811 214.627 57.2008 213.847 57.0828C213.067 56.9648 212.353 57.3537 212.252 57.9515C212.151 58.5492 212.701 59.1295 213.481 59.2475Z" fill="#F2A0A0"/>
<path d="M223.144 60.7944C223.924 60.9124 224.638 60.5235 224.739 59.9257C224.84 59.328 224.29 58.7477 223.51 58.6297C222.73 58.5117 222.016 58.9006 221.915 59.4984C221.814 60.0961 222.364 60.6764 223.144 60.7944Z" fill="#F2A0A0"/>
<path d="M216.611 53.7494C216.611 53.7494 215.965 53.2379 214.706 53.6252" stroke="#374656" stroke-width="0.16772" stroke-miterlimit="10" stroke-linecap="round" stroke-linejoin="round"/>
<path d="M221.675 54.5752C221.675 54.5752 222.45 54.2798 223.528 55.0222" stroke="#363C43" stroke-width="0.16772" stroke-miterlimit="10" stroke-linecap="round" stroke-linejoin="round"/>
<path d="M211.025 56.1769C211.025 56.1769 215.328 52.4437 216.124 48.6551C216.124 48.6551 224.01 57.9833 225.869 58.608C225.869 58.608 229.407 53.28 227.093 49.0737C226.44 47.8919 223.975 44.4287 220.597 43.9175C217.571 43.4597 216.745 45.2891 216.745 45.2891C216.745 45.2891 215.179 43.3882 213.076 45.5791C208.803 50.0564 211.025 56.1769 211.025 56.1769Z" fill="#6A5A54"/>
</g>
<path d="M285.424 71.9826L247.853 66.3154L247.043 71.6818L284.614 77.3489L285.424 71.9826Z" fill="#B2BAC4"/>
<path d="M280.947 128.927L192.387 115.568L191.577 120.935L280.138 134.293L280.947 128.927Z" fill="#CCD4DE"/>
<path d="M278.921 142.343L190.36 128.984L189.551 134.351L278.111 147.709L278.921 142.343Z" fill="#CCD4DE"/>
<path d="M276.897 155.755L188.336 142.396L187.527 147.763L276.087 161.121L276.897 155.755Z" fill="#CCD4DE"/>
<path d="M274.873 169.17L186.312 155.812L185.503 161.178L274.063 174.536L274.873 169.17Z" fill="#CCD4DE"/>
<path d="M199.509 181.855L169.991 177.402L169.181 182.769L198.699 187.221L199.509 181.855Z" fill="#6C63FF"/>
<g opacity="0.5">
<path opacity="0.5" d="M146.48 44.1094L20.4483 64.5322L48.6799 238.619L174.711 218.196L146.48 44.1094Z" fill="url(#paint1_linear)"/>
</g>
<path d="M144.609 45.183L22.1545 65.25L49.9893 234.976L172.444 214.909L144.609 45.183Z" fill="#F5F5F5"/>
<path d="M138.935 121.683L50.5524 136.168L51.4306 141.524L139.814 127.038L138.935 121.683Z" fill="#CCD4DE"/>
<path d="M141.13 135.071L52.7474 149.556L53.6256 154.911L142.009 140.426L141.13 135.071Z" fill="#CCD4DE"/>
<path d="M131.911 78.8427L86.381 86.3047L87.2592 91.6603L132.79 84.1983L131.911 78.8427Z" fill="#CCD4DE"/>
<path d="M130.088 92.8899L92.5916 99.0352L93.4698 104.391L130.966 98.2455L130.088 92.8899Z" fill="#B2BAC4"/>
<path d="M143.326 148.458L54.9427 162.943L55.821 168.299L144.204 153.814L143.326 148.458Z" fill="#CCD4DE"/>
<path d="M145.521 161.842L57.1377 176.327L58.0159 181.683L146.399 167.198L145.521 161.842Z" fill="#CCD4DE"/>
<path d="M147.716 175.233L59.3331 189.718L60.2113 195.073L148.594 180.588L147.716 175.233Z" fill="#CCD4DE"/>
<path d="M149.912 188.617L61.5288 203.103L62.407 208.458L150.79 193.973L149.912 188.617Z" fill="#CCD4DE"/>
<path d="M93.1853 211.663L63.7262 216.491L64.6044 221.847L94.0635 217.019L93.1853 211.663Z" fill="#788392"/>
<g opacity="0.5">
<path opacity="0.5" d="M238.559 72.3223H111.23V248.202H238.559V72.3223Z" fill="url(#paint2_linear)"/>
</g>
<path d="M236.891 73.6318H112.802V245.624H236.891V73.6318Z" fill="white"/>
<path d="M218.911 148.21H129.348V153.637H218.911V148.21Z" fill="#CCD4DE"/>
<path d="M218.911 161.775H129.348V167.202H218.911V161.775Z" fill="#CCD4DE"/>
<path d="M218.912 104.8H172.774V110.227H218.912V104.8Z" fill="#CCD4DE"/>
<path d="M214.84 118.365H176.843V123.792H214.84V118.365Z" fill="#B2BAC4"/>
<path d="M218.911 175.343H129.348V180.77H218.911V175.343Z" fill="#CCD4DE"/>
<path d="M218.911 188.908H129.348V194.335H218.911V188.908Z" fill="#CCD4DE"/>
<path d="M218.911 202.478H129.348V207.905H218.911V202.478Z" fill="#CCD4DE"/>
<path d="M218.911 216.044H129.348V221.471H218.911V216.044Z" fill="#CCD4DE"/>
<path d="M159.201 229.61H129.348V235.037H159.201V229.61Z" fill="#788392"/>
<ellipse rx="17.0877" ry="17.3235" transform="matrix(0.980651 -0.195666 0.204502 0.9788 62.8323 100.005)" fill="#CCD4DE"/>
<ellipse rx="17.0877" ry="17.3235" transform="matrix(0.980651 -0.195666 0.204502 0.9788 62.8323 100.005)" fill="#EDEDED"/>
<mask id="mask2" mask-type="alpha" maskUnits="userSpaceOnUse" x="45" y="82" width="35" height="36">
<ellipse rx="17.0148" ry="17.3963" transform="matrix(0.981228 -0.192934 0.207189 0.978195 62.8323 100.007)" fill="#C4C4C4"/>
</mask>
<g mask="url(#mask2)">
<path d="M53.5562 124.964L81.7548 119.489C77.6984 111.957 71.0022 107.415 64.5657 108.664C58.1292 109.914 53.8149 116.603 53.1742 125.061C53.2993 125.021 53.4269 124.988 53.5562 124.964Z" fill="#FA5555"/>
<mask id="mask3" mask-type="alpha" maskUnits="userSpaceOnUse" x="53" y="108" width="29" height="18">
<path d="M53.5649 124.964L81.7547 119.511C77.6937 111.963 70.9955 107.409 64.561 108.653C58.1266 109.898 53.8178 116.592 53.1831 125.061C53.3082 125.021 53.4357 124.988 53.5649 124.964Z" fill="#D85A2C"/>
</mask>
<g mask="url(#mask3)">
<path d="M65.7772 114.354C68.2244 113.881 69.7657 111.454 69.2198 108.935C68.6738 106.415 66.2474 104.756 63.8001 105.23C61.3529 105.703 59.8116 108.13 60.3575 110.649C60.9035 113.169 63.3299 114.828 65.7772 114.354Z" stroke="#EDA18A" stroke-width="0.262081" stroke-miterlimit="10"/>
</g>
<path d="M60.1958 102.984L66.437 101.772L68.0675 109.347C68.2499 110.198 68.0964 111.078 67.6408 111.793C67.1851 112.508 66.4645 113 65.6374 113.161C64.8103 113.321 63.9443 113.137 63.2296 112.65C62.515 112.162 62.0103 111.41 61.8263 110.559L60.1958 102.984Z" fill="#F7CBB5"/>
<mask id="mask4" mask-type="alpha" maskUnits="userSpaceOnUse" x="60" y="101" width="9" height="13">
<path d="M60.1959 102.984L66.4363 101.771L68.0674 109.345C68.2499 110.197 68.0965 111.076 67.6409 111.792C67.1854 112.507 66.465 112.999 65.638 113.16C64.8109 113.32 63.945 113.137 63.2304 112.649C62.5158 112.161 62.0111 111.409 61.827 110.559L60.1959 102.984Z" fill="#F7CBB5"/>
</mask>
<g mask="url(#mask4)">
<path d="M60.6517 109.501C60.6517 109.501 64.2012 112.694 69.3525 109.698C72.4926 107.869 69.6752 104.908 69.6752 104.908L60.2345 109.461" fill="#EDA18A"/>
</g>
<path d="M55.0524 104.986C56.8546 104.635 57.9916 102.85 57.592 100.999C57.1923 99.1471 55.4074 97.9298 53.6051 98.28C51.8029 98.6302 50.6659 100.415 51.0655 102.267C51.4652 104.119 53.2502 105.336 55.0524 104.986Z" fill="#EDA18A"/>
<path d="M72.1027 101.477C73.9049 101.127 75.0419 99.3417 74.6423 97.49C74.2426 95.6383 72.4577 94.4211 70.6554 94.7712C68.8532 95.1214 67.7162 96.9064 68.1158 98.7581C68.5155 100.61 70.3005 101.827 72.1027 101.477Z" fill="#EDA18A"/>
<path d="M65.0645 109.902C69.9856 108.946 72.9457 103.402 71.6761 97.5196C70.4066 91.6374 65.3881 87.6442 60.4671 88.6005C55.5461 89.5568 52.5859 95.1005 53.8555 100.983C55.125 106.865 60.1435 110.858 65.0645 109.902Z" fill="#F7CBB5"/>
<path d="M58.8129 101.458C59.0872 101.405 59.2109 100.902 59.0892 100.335C58.9675 99.7685 58.6465 99.3523 58.3722 99.4055C58.098 99.4588 57.9743 99.9614 58.096 100.528C58.2177 101.095 58.5387 101.511 58.8129 101.458Z" fill="#374656"/>
<path d="M66.9548 99.782C67.2291 99.7287 67.3528 99.2261 67.2311 98.6594C67.1094 98.0927 66.7884 97.6765 66.5141 97.7297C66.2398 97.783 66.1161 98.2856 66.2378 98.8523C66.3595 99.419 66.6805 99.8352 66.9548 99.782Z" fill="#374656"/>
<path d="M61.8403 99.0257C61.8403 99.0257 62.1614 102.801 62.7006 103.207C63.2397 103.612 64.1717 102.848 64.4957 102.539" stroke="#EDA18A" stroke-width="0.262081" stroke-linecap="round" stroke-linejoin="round"/>
<path d="M61.9861 104.995C61.9861 104.995 62.9332 106.159 64.1792 105.67C65.4251 105.182 65.5222 104.249 65.5222 104.249" stroke="#EDA18A" stroke-width="0.262081" stroke-linecap="round" stroke-linejoin="round"/>
<path d="M57.926 104.722C58.8531 104.542 59.4796 103.815 59.3254 103.099C59.1712 102.383 58.2947 101.949 57.3676 102.129C56.4405 102.309 55.814 103.035 55.9682 103.751C56.1224 104.467 56.9989 104.902 57.926 104.722Z" fill="#F2A0A0"/>
<path d="M69.4602 102.351C70.3873 102.17 71.0138 101.444 70.8596 100.728C70.7054 100.012 69.8288 99.5779 68.9018 99.758C67.9747 99.938 67.3481 100.664 67.5023 101.38C67.6565 102.096 68.5331 102.531 69.4602 102.351Z" fill="#F2A0A0"/>
<path d="M59.0286 96.9959C59.0286 96.9959 58.0848 96.6806 56.8075 97.6202" stroke="#374656" stroke-width="0.786242" stroke-linecap="round" stroke-linejoin="round"/>
<path d="M65.0832 95.7282C65.0832 95.7282 65.8328 95.0812 67.3778 95.468" stroke="#374656" stroke-width="0.786242" stroke-linecap="round" stroke-linejoin="round"/>
<path d="M53.7377 100.501C53.7377 100.501 53.0691 96.4273 53.3019 93.8464C53.4139 92.6039 53.8254 90.7041 53.8254 90.7041C53.8254 90.7041 55.6817 89.2217 60.9004 88.2085C66.119 87.1953 68.4376 87.8672 68.4376 87.8672L70.1098 91.5442C70.1098 91.5442 71.7518 95.9913 71.8174 97.6287C71.8174 97.6287 69.2396 90.7522 65.813 90.573C63.403 90.4488 60.5036 91.3805 58 91.7275C53.5676 92.3486 53.7377 100.501 53.7377 100.501Z" fill="#374656"/>
</g>
<circle cx="146.001" cy="114.47" r="16.7677" fill="#CCD4DE"/>
<circle cx="146.001" cy="114.47" r="16.7677" fill="#EDEDED"/>
<mask id="mask5" mask-type="alpha" maskUnits="userSpaceOnUse" x="129" y="97" width="34" height="35">
<circle cx="146.001" cy="114.47" r="16.7677" fill="#C4C4C4"/>
</mask>
<g mask="url(#mask5)">
<path d="M132.724 137.18H159.718C157.463 129.782 152.204 124.608 146.048 124.608C139.892 124.608 134.603 129.811 132.378 137.209C132.464 137.18 132.609 137.18 132.724 137.18Z" fill="#374656"/>
<path d="M146.279 129.58C144.603 129.58 143.244 128.221 143.244 126.545V119.436H149.285V126.574C149.314 128.25 147.955 129.58 146.279 129.58Z" fill="#F7CBB5"/>
<mask id="mask6" mask-type="alpha" maskUnits="userSpaceOnUse" x="143" y="119" width="7" height="11">
<path d="M146.279 129.58C144.603 129.58 143.245 128.221 143.245 126.545V119.436H149.285V126.574C149.314 128.25 147.955 129.58 146.279 129.58Z" fill="#F7CBB5"/>
</mask>
<g mask="url(#mask6)">
<path d="M142.435 123.365C142.435 123.365 145.065 126.804 150.383 125.041C153.62 123.972 151.626 120.851 151.626 120.851L142.059 123.278" fill="#EDA18A"/>
</g>
<path d="M137.955 117.501C139.695 117.501 141.106 116.09 141.106 114.35C141.106 112.611 139.695 111.2 137.955 111.2C136.216 111.2 134.805 112.611 134.805 114.35C134.805 116.09 136.216 117.501 137.955 117.501Z" fill="#EDA18A"/>
<path d="M154.169 117.501C155.909 117.501 157.319 116.09 157.319 114.35C157.319 112.611 155.909 111.2 154.169 111.2C152.429 111.2 151.019 112.611 151.019 114.35C151.019 116.09 152.429 117.501 154.169 117.501Z" fill="#EDA18A"/>
<path d="M146.106 123.773C150.862 123.773 154.718 119.296 154.718 113.773C154.718 108.25 150.862 103.773 146.106 103.773C141.349 103.773 137.493 108.25 137.493 113.773C137.493 119.296 141.349 123.773 146.106 123.773Z" fill="#F7CBB5"/>
<path d="M142.088 115.88C142.359 115.88 142.579 115.453 142.579 114.926C142.579 114.4 142.359 113.973 142.088 113.973C141.817 113.973 141.597 114.4 141.597 114.926C141.597 115.453 141.817 115.88 142.088 115.88Z" fill="#374656"/>
<path d="M149.805 115.88C150.076 115.88 150.296 115.453 150.296 114.926C150.296 114.4 150.076 113.973 149.805 113.973C149.533 113.973 149.313 114.4 149.313 114.926C149.313 115.453 149.533 115.88 149.805 115.88Z" fill="#374656"/>
<path d="M145.354 114.9C145.354 114.9 144.834 117.184 145.267 117.646C145.701 118.108 146.048 117.675 146.423 117.473" stroke="#EDA18A" stroke-width="0.225566" stroke-miterlimit="10" stroke-linecap="round" stroke-linejoin="round"/>
<path d="M144.314 118.889C144.314 118.889 144.95 120.074 146.192 119.843C147.435 119.64 147.695 118.831 147.695 118.831" stroke="#EDA18A" stroke-width="0.225566" stroke-miterlimit="10" stroke-linecap="round" stroke-linejoin="round"/>
<path d="M140.643 118.685C141.537 118.685 142.262 118.142 142.262 117.472C142.262 116.801 141.537 116.258 140.643 116.258C139.749 116.258 139.025 116.801 139.025 117.472C139.025 118.142 139.749 118.685 140.643 118.685Z" fill="#F2A0A0"/>
<path d="M151.626 118.685C152.519 118.685 153.244 118.142 153.244 117.472C153.244 116.801 152.519 116.258 151.626 116.258C150.732 116.258 150.007 116.801 150.007 117.472C150.007 118.142 150.732 118.685 151.626 118.685Z" fill="#F2A0A0"/>
<path d="M143.129 112.066C143.129 112.066 142.32 111.633 140.99 112.239" stroke="#374656" stroke-width="0.225566" stroke-miterlimit="10" stroke-linecap="round" stroke-linejoin="round"/>
<path d="M148.88 112.066C148.88 112.066 149.689 111.633 151.019 112.239" stroke="#374656" stroke-width="0.225566" stroke-miterlimit="10" stroke-linecap="round" stroke-linejoin="round"/>
<path d="M140.008 107.298C140.008 107.298 143.129 110.535 146.25 111.171L146.134 109.437C146.134 109.437 151.626 114.177 153.331 116.2C155.036 118.223 151.828 125.332 151.828 125.332C151.828 125.332 157.637 121.46 158.388 114.784C159.14 108.05 153.128 100.044 145.817 100.911C138.505 101.778 140.325 103.917 140.325 103.917C140.325 103.917 138.071 103.281 136.25 105.42C134.43 107.559 133.881 114.061 133.881 115.795C133.881 120.304 140.441 120.94 140.441 120.94C140.441 120.94 136.684 118.888 138.505 113.079C139.458 110.073 140.008 107.298 140.008 107.298Z" fill="#CD454B"/>
</g>
<defs>
<linearGradient id="paint0_linear" x1="437.107" y1="147.192" x2="263.111" y2="120.929" gradientUnits="userSpaceOnUse">
<stop stop-color="#808080" stop-opacity="0.251"/>
<stop offset="0.54" stop-color="#808080" stop-opacity="0.122"/>
<stop offset="1" stop-color="#808080" stop-opacity="0.102"/>
</linearGradient>
<linearGradient id="paint1_linear" x1="117.156" y1="115.323" x2="88.9454" y2="-58.767" gradientUnits="userSpaceOnUse">
<stop stop-color="#808080" stop-opacity="0.251"/>
<stop offset="0.54" stop-color="#808080" stop-opacity="0.122"/>
<stop offset="1" stop-color="#808080" stop-opacity="0.102"/>
</linearGradient>
<linearGradient id="paint2_linear" x1="174.894" y1="248.202" x2="174.894" y2="72.3223" gradientUnits="userSpaceOnUse">
<stop stop-color="#808080" stop-opacity="0.251"/>
<stop offset="0.54" stop-color="#808080" stop-opacity="0.122"/>
<stop offset="1" stop-color="#808080" stop-opacity="0.102"/>
</linearGradient>
</defs>
</svg>
