<svg width="472" height="307" viewBox="0 0 472 307" fill="none" xmlns="http://www.w3.org/2000/svg">
<path opacity="0.2" d="M405.716 294.084V300.014L336.415 300.653L335.676 300.667L309.336 300.909L308.707 300.918L300.701 300.986H300.464L251.663 301.438L171.554 302.182H171.486L151.118 302.373L150.899 302.378L60.3948 303.208V296.365L81.6751 283.59L124.373 283.234L125.285 283.23L125.586 283.225L126.498 283.212L146.999 283.043L147.916 283.038L148.208 283.034L149.12 283.029L155.693 282.974L155.867 282.97L172.084 282.833H172.216L298.758 281.765L301.855 281.743H302.165L304.528 281.72L321.703 281.578L322.615 281.565L323.459 281.556H323.897L329.239 281.514L330.297 281.501L331.716 281.492L336.164 281.451L343.221 281.391L344.133 281.382L345.72 281.373H346.017L380.097 281.081L405.716 294.084Z" fill="black"/>
<path d="M236 24.9824C452 24.9824 452 211.473 452 211.473V303.776H20V211.473C20 211.473 20 24.9824 236 24.9824Z" fill="#E1E4E9"/>
<path d="M236 1C471 1 471 203.533 471 203.533V303.776H1V203.533C1 203.533 1 1 236 1Z" stroke="#CCD4DE" stroke-width="0.649412" stroke-dasharray="6.49 6.49"/>
<path d="M117.188 172.896H108.521V199.202H117.188V172.896Z" fill="#788392"/>
<path d="M350.442 171.528H341.774V199.358H350.442V171.528Z" fill="#788392"/>
<path d="M405.716 294.084V300.986L336.415 300.653L335.676 300.667L309.336 300.909L308.707 300.918L300.701 300.986H300.464L251.663 301.438L171.554 302.182H171.486L151.118 302.373L150.899 302.378L60.3948 303.208V296.365L81.6751 283.59L124.373 283.234L125.285 283.23L125.586 283.225L126.498 283.212L146.999 283.043L147.916 283.038L148.208 283.034L149.12 283.029L155.693 282.974L155.867 282.97L172.084 282.833H172.216L298.758 281.765L301.855 281.743H302.165L304.528 281.72L321.703 281.578L322.615 281.565L323.459 281.556H323.897L329.239 281.514L330.297 281.501L331.716 281.492L336.164 281.451L343.221 281.391L344.133 281.382L345.72 281.373H346.017L380.097 281.081L405.716 294.084Z" fill="#788392"/>
<path d="M147.067 272.276V283.449C147.067 283.979 146.917 284.497 146.635 284.944C146.352 285.392 145.949 285.75 145.471 285.977C145.115 286.149 144.726 286.243 144.33 286.251L128.41 286.588C127.985 286.598 127.563 286.509 127.178 286.328C126.692 286.105 126.28 285.747 125.991 285.297C125.702 284.846 125.549 284.322 125.55 283.787V272.276H147.067Z" fill="#788392"/>
<path d="M147.067 272.276V283.449C147.067 283.979 146.917 284.497 146.635 284.944C146.352 285.392 145.949 285.75 145.471 285.977C145.115 286.149 144.726 286.243 144.33 286.251L128.41 286.588C127.985 286.598 127.563 286.509 127.178 286.328C126.692 286.105 126.28 285.747 125.991 285.297C125.702 284.846 125.549 284.322 125.55 283.787V272.276H147.067Z" fill="#6C7683"/>
<path d="M147.979 272.276V283.449C147.98 283.979 147.83 284.497 147.547 284.944C147.265 285.392 146.861 285.75 146.383 285.977C146.027 286.149 145.638 286.243 145.242 286.251L129.322 286.588C128.897 286.598 128.475 286.509 128.09 286.328C127.604 286.105 127.192 285.747 126.903 285.297C126.615 284.846 126.461 284.322 126.462 283.787V272.276H147.979Z" fill="#788392"/>
<path d="M344.133 272.276H322.615V286.647H344.133V272.276Z" fill="#6C7683"/>
<path opacity="0.1" d="M344.133 272.276H322.615V286.647H344.133V272.276Z" fill="#788392"/>
<path d="M343.22 272.276H321.703V286.647H343.22V272.276Z" fill="#788392"/>
<path opacity="0.1" d="M117.188 172.893V175.507L108.521 175.283V172.893H117.188Z" fill="black"/>
<path d="M174.237 99.2488L163.822 174.07C163.756 174.548 163.516 174.984 163.149 175.297C162.781 175.609 162.311 175.775 161.829 175.762L78.4408 173.6L76.8579 173.559C76.5823 173.552 76.3112 173.488 76.0622 173.369C75.8132 173.251 75.592 173.081 75.4129 172.872C75.2339 172.662 75.101 172.417 75.023 172.153C74.945 171.888 74.9236 171.61 74.9603 171.337L86.6519 93.0122C86.7273 92.527 86.9818 92.0877 87.3652 91.7811C87.7487 91.4745 88.2331 91.3228 88.7229 91.3561L172.412 97.0224C172.682 97.038 172.946 97.1095 173.187 97.2322C173.428 97.355 173.641 97.5264 173.812 97.7356C173.984 97.9448 174.11 98.1872 174.183 98.4477C174.256 98.7081 174.274 98.9809 174.237 99.2488Z" fill="#788392"/>
<path d="M92.2492 96.8574L83.4314 165.898L160.068 168.33L169.493 101.721L92.2492 96.8574Z" fill="#374656"/>
<path d="M278.371 95.79H189.87C188.527 95.79 187.438 96.8787 187.438 98.2217V172.436C187.438 173.779 188.527 174.868 189.87 174.868H278.371C279.714 174.868 280.803 173.779 280.803 172.436V98.2217C280.803 96.8787 279.714 95.79 278.371 95.79Z" fill="#788392"/>
<path d="M276.693 101.114H191.845V166.961H276.693V101.114Z" fill="#374656"/>
<path opacity="0.1" d="M350.442 171.523V173.253L341.774 173.43V171.523H350.442Z" fill="black"/>
<path d="M389.549 170.063C389.561 170.252 389.535 170.442 389.473 170.621C389.41 170.799 389.312 170.964 389.184 171.103C389.056 171.243 388.901 171.356 388.729 171.434C388.556 171.513 388.37 171.555 388.181 171.56L302.785 173.325C302.431 173.333 302.086 173.206 301.822 172.969C301.557 172.733 301.391 172.406 301.358 172.053L294.018 95.7351C294 95.5458 294.02 95.3548 294.078 95.1736C294.136 94.9924 294.23 94.8248 294.355 94.6811C294.479 94.5373 294.632 94.4204 294.803 94.3373C294.974 94.2542 295.16 94.2067 295.35 94.1977L380.097 89.9821L381.01 89.9365C381.372 89.9174 381.728 90.0399 382.002 90.2783C382.276 90.5166 382.447 90.8521 382.478 91.214L389.549 170.063Z" fill="#788392"/>
<path d="M298.895 98.6829L376.293 94.8779L382.83 164.224L306.043 166.049L298.895 98.6829Z" fill="#374656"/>
<path opacity="0.1" d="M389.549 170.063C389.562 170.252 389.536 170.442 389.473 170.621C389.41 170.799 389.312 170.964 389.184 171.103C389.056 171.243 388.901 171.356 388.729 171.434C388.557 171.513 388.37 171.555 388.181 171.56L380.097 89.9821L381.01 89.9365C381.372 89.9174 381.728 90.0399 382.002 90.2783C382.276 90.5166 382.447 90.8521 382.479 91.214L389.549 170.063Z" fill="black"/>
<path opacity="0.1" d="M88.7366 91.3511L78.4408 173.599L76.8579 173.558C76.5823 173.552 76.3112 173.487 76.0622 173.369C75.8132 173.251 75.592 173.081 75.4129 172.871C75.2339 172.662 75.101 172.417 75.023 172.152C74.945 171.888 74.9236 171.61 74.9603 171.337L86.6519 93.0118C86.7264 92.5233 86.9825 92.0809 87.369 91.773C87.7554 91.4651 88.2439 91.3144 88.7366 91.3511Z" fill="black"/>
<path opacity="0.1" d="M117.188 191.41H108.521V199.202H117.188V191.41Z" fill="black"/>
<path opacity="0.1" d="M147.979 272.272V274.54L126.462 275.115V272.272H147.979Z" fill="black"/>
<path d="M185.956 194.125V270.862C185.95 271.331 185.765 271.779 185.438 272.115C185.111 272.45 184.668 272.647 184.2 272.665L96.7744 274.991H96.7516C96.2755 274.985 95.8206 274.794 95.484 274.457C95.1474 274.12 94.9556 273.665 94.9497 273.189V194.125C94.9556 193.649 95.1474 193.194 95.484 192.858C95.8206 192.521 96.2755 192.329 96.7516 192.323H184.154C184.63 192.329 185.085 192.521 185.421 192.858C185.758 193.194 185.95 193.649 185.956 194.125Z" fill="#788392"/>
<path opacity="0.1" d="M96.7744 192.323V274.991H96.7516C96.2755 274.985 95.8206 274.794 95.484 274.457C95.1474 274.12 94.9556 273.665 94.9497 273.189V194.125C94.9556 193.649 95.1474 193.194 95.484 192.858C95.8206 192.521 96.2755 192.329 96.7516 192.323H96.7744Z" fill="black"/>
<path d="M100.766 197.223H181.736V264.858L100.766 266.683V197.223Z" fill="#374656"/>
<path opacity="0.2" d="M160 203.522H157V206.52H160V203.522Z" fill="#3E83C4"/>
<path opacity="0.2" d="M160 231.502H157V234.5H160V231.502Z" fill="#3E83C4"/>
<path opacity="0.2" d="M140 203.522H137V206.52H140V203.522Z" fill="#3E83C4"/>
<path opacity="0.2" d="M165 203.522H162V206.52H165V203.522Z" fill="#3E83C4"/>
<path opacity="0.2" d="M140 231.502H137V234.5H140V231.502Z" fill="#3E83C4"/>
<path opacity="0.2" d="M165 231.502H162V234.5H165V231.502Z" fill="#3E83C4"/>
<path opacity="0.2" d="M145 203.522H142V206.52H145V203.522Z" fill="#3E83C4"/>
<path opacity="0.2" d="M170 203.522H167V206.52H170V203.522Z" fill="#3E83C4"/>
<path opacity="0.2" d="M145 231.502H142V234.5H145V231.502Z" fill="#3E83C4"/>
<path opacity="0.2" d="M170 231.502H167V234.5H170V231.502Z" fill="#3E83C4"/>
<path d="M150 203.522H147V206.52H150V203.522Z" fill="#3E83C4"/>
<path d="M175 203.522H172V206.52H175V203.522Z" fill="#3E83C4"/>
<path d="M150 231.502H147V234.5H150V231.502Z" fill="#3E83C4"/>
<path d="M175 231.502H172V234.5H175V231.502Z" fill="#3E83C4"/>
<path opacity="0.2" d="M155 203.522H152V206.52H155V203.522Z" fill="#3E83C4"/>
<path opacity="0.2" d="M180 203.522H177V206.52H180V203.522Z" fill="#3E83C4"/>
<path opacity="0.2" d="M155 231.502H152V234.5H155V231.502Z" fill="#3E83C4"/>
<path opacity="0.2" d="M180 231.502H177V234.5H180V231.502Z" fill="#3E83C4"/>
<path opacity="0.4" d="M160 207.52H157V210.517H160V207.52Z" fill="#3E83C4"/>
<path opacity="0.4" d="M160 235.499H157V238.497H160V235.499Z" fill="#3E83C4"/>
<path opacity="0.2" d="M140 207.52H137V210.517H140V207.52Z" fill="#3E83C4"/>
<path opacity="0.2" d="M165 207.52H162V210.517H165V207.52Z" fill="#3E83C4"/>
<path opacity="0.2" d="M140 235.499H137V238.497H140V235.499Z" fill="#3E83C4"/>
<path opacity="0.2" d="M165 235.499H162V238.497H165V235.499Z" fill="#3E83C4"/>
<path opacity="0.4" d="M145 207.52H142V210.517H145V207.52Z" fill="#3E83C4"/>
<path opacity="0.4" d="M170 207.52H167V210.517H170V207.52Z" fill="#3E83C4"/>
<path opacity="0.4" d="M145 235.499H142V238.497H145V235.499Z" fill="#3E83C4"/>
<path opacity="0.4" d="M170 235.499H167V238.497H170V235.499Z" fill="#3E83C4"/>
<path d="M150 207.52H147V210.517H150V207.52Z" fill="#3E83C4"/>
<path d="M175 207.52H172V210.517H175V207.52Z" fill="#3E83C4"/>
<path d="M150 235.499H147V238.497H150V235.499Z" fill="#3E83C4"/>
<path d="M175 235.499H172V238.497H175V235.499Z" fill="#3E83C4"/>
<path opacity="0.4" d="M155 207.52H152V210.517H155V207.52Z" fill="#3E83C4"/>
<path opacity="0.4" d="M180 207.52H177V210.517H180V207.52Z" fill="#3E83C4"/>
<path opacity="0.4" d="M155 235.499H152V238.497H155V235.499Z" fill="#3E83C4"/>
<path opacity="0.4" d="M180 235.499H177V238.497H180V235.499Z" fill="#3E83C4"/>
<path d="M160 211.517H157V214.514H160V211.517Z" fill="#3E83C4"/>
<path d="M160 239.496H157V242.494H160V239.496Z" fill="#3E83C4"/>
<path opacity="0.2" d="M140 211.517H137V214.514H140V211.517Z" fill="#3E83C4"/>
<path opacity="0.2" d="M165 211.517H162V214.514H165V211.517Z" fill="#3E83C4"/>
<path opacity="0.2" d="M140 239.496H137V242.494H140V239.496Z" fill="#3E83C4"/>
<path opacity="0.2" d="M165 239.496H162V242.494H165V239.496Z" fill="#3E83C4"/>
<path opacity="0.4" d="M145 211.517H142V214.514H145V211.517Z" fill="#3E83C4"/>
<path opacity="0.4" d="M170 211.517H167V214.514H170V211.517Z" fill="#3E83C4"/>
<path opacity="0.4" d="M145 239.496H142V242.494H145V239.496Z" fill="#3E83C4"/>
<path opacity="0.4" d="M170 239.496H167V242.494H170V239.496Z" fill="#3E83C4"/>
<path d="M150 211.517H147V214.514H150V211.517Z" fill="#3E83C4"/>
<path d="M175 211.517H172V214.514H175V211.517Z" fill="#3E83C4"/>
<path d="M150 239.496H147V242.494H150V239.496Z" fill="#3E83C4"/>
<path d="M175 239.496H172V242.494H175V239.496Z" fill="#3E83C4"/>
<path opacity="0.2" d="M155 211.517H152V214.514H155V211.517Z" fill="#3E83C4"/>
<path opacity="0.2" d="M180 211.517H177V214.514H180V211.517Z" fill="#3E83C4"/>
<path opacity="0.2" d="M155 239.496H152V242.494H155V239.496Z" fill="#3E83C4"/>
<path opacity="0.2" d="M180 239.496H177V242.494H180V239.496Z" fill="#3E83C4"/>
<path opacity="0.4" d="M160 215.514H157V218.511H160V215.514Z" fill="#3E83C4"/>
<path opacity="0.4" d="M160 243.493H157V246.491H160V243.493Z" fill="#3E83C4"/>
<path d="M140 215.514H137V218.511H140V215.514Z" fill="#3E83C4"/>
<path d="M165 215.514H162V218.511H165V215.514Z" fill="#3E83C4"/>
<path d="M140 243.493H137V246.491H140V243.493Z" fill="#3E83C4"/>
<path d="M165 243.493H162V246.491H165V243.493Z" fill="#3E83C4"/>
<path opacity="0.2" d="M145 215.514H142V218.511H145V215.514Z" fill="#3E83C4"/>
<path opacity="0.2" d="M170 215.514H167V218.511H170V215.514Z" fill="#3E83C4"/>
<path opacity="0.2" d="M145 243.493H142V246.491H145V243.493Z" fill="#3E83C4"/>
<path opacity="0.2" d="M170 243.493H167V246.491H170V243.493Z" fill="#3E83C4"/>
<path opacity="0.4" d="M150 215.514H147V218.511H150V215.514Z" fill="#3E83C4"/>
<path opacity="0.4" d="M175 215.514H172V218.511H175V215.514Z" fill="#3E83C4"/>
<path opacity="0.4" d="M150 243.493H147V246.491H150V243.493Z" fill="#3E83C4"/>
<path opacity="0.4" d="M175 243.493H172V246.491H175V243.493Z" fill="#3E83C4"/>
<path opacity="0.4" d="M155 215.514H152V218.511H155V215.514Z" fill="#3E83C4"/>
<path opacity="0.4" d="M180 215.514H177V218.511H180V215.514Z" fill="#3E83C4"/>
<path opacity="0.4" d="M155 243.493H152V246.491H155V243.493Z" fill="#3E83C4"/>
<path opacity="0.4" d="M180 243.493H177V246.491H180V243.493Z" fill="#3E83C4"/>
<path d="M160 219.511H157V222.509H160V219.511Z" fill="#3E83C4"/>
<path opacity="0.2" d="M140 219.511H137V222.509H140V219.511Z" fill="#3E83C4"/>
<path opacity="0.2" d="M165 219.511H162V222.509H165V219.511Z" fill="#3E83C4"/>
<path opacity="0.2" d="M140 247.49H137V250.488H140V247.49Z" fill="#3E83C4"/>
<path opacity="0.2" d="M165 247.49H162V250.488H165V247.49Z" fill="#3E83C4"/>
<path d="M145 219.511H142V222.509H145V219.511Z" fill="#3E83C4"/>
<path d="M170 219.511H167V222.509H170V219.511Z" fill="#3E83C4"/>
<path d="M145 247.49H142V250.488H145V247.49Z" fill="#3E83C4"/>
<path d="M170 247.49H167V250.488H170V247.49Z" fill="#3E83C4"/>
<path d="M150 219.511H147V222.509H150V219.511Z" fill="#3E83C4"/>
<path d="M175 219.511H172V222.509H175V219.511Z" fill="#3E83C4"/>
<path d="M150 247.49H147V250.488H150V247.49Z" fill="#3E83C4"/>
<path d="M175 247.49H172V250.488H175V247.49Z" fill="#3E83C4"/>
<path d="M155 219.511H152V222.509H155V219.511Z" fill="#3E83C4"/>
<path d="M180 219.511H177V222.509H180V219.511Z" fill="#3E83C4"/>
<path d="M155 247.49H152V250.488H155V247.49Z" fill="#3E83C4"/>
<path d="M180 247.49H177V250.488H180V247.49Z" fill="#3E83C4"/>
<path d="M160 223.508H157V226.506H160V223.508Z" fill="#3E83C4"/>
<path d="M160 247.49H157V250.488H160V247.49Z" fill="#3E83C4"/>
<path opacity="0.2" d="M140 223.508H137V226.506H140V223.508Z" fill="#3E83C4"/>
<path opacity="0.2" d="M165 223.508H162V226.506H165V223.508Z" fill="#3E83C4"/>
<path opacity="0.2" d="M140 251.487H137V254.485H140V251.487Z" fill="#3E83C4"/>
<path opacity="0.2" d="M165 251.487H162V254.485H165V251.487Z" fill="#3E83C4"/>
<path d="M145 223.508H142V226.506H145V223.508Z" fill="#3E83C4"/>
<path d="M170 223.508H167V226.506H170V223.508Z" fill="#3E83C4"/>
<path d="M145 251.487H142V254.485H145V251.487Z" fill="#3E83C4"/>
<path d="M170 251.487H167V254.485H170V251.487Z" fill="#3E83C4"/>
<path d="M150 223.508H147V226.506H150V223.508Z" fill="#3E83C4"/>
<path d="M175 223.508H172V226.506H175V223.508Z" fill="#3E83C4"/>
<path d="M150 251.487H147V254.485H150V251.487Z" fill="#3E83C4"/>
<path d="M175 251.487H172V254.485H175V251.487Z" fill="#3E83C4"/>
<path opacity="0.2" d="M155 223.508H152V226.506H155V223.508Z" fill="#3E83C4"/>
<path opacity="0.2" d="M180 223.508H177V226.506H180V223.508Z" fill="#3E83C4"/>
<path opacity="0.2" d="M155 251.487H152V254.485H155V251.487Z" fill="#3E83C4"/>
<path opacity="0.2" d="M180 251.487H177V254.485H180V251.487Z" fill="#3E83C4"/>
<path opacity="0.2" d="M160 227.505H157V230.503H160V227.505Z" fill="#3E83C4"/>
<path opacity="0.2" d="M105 203.522H102V206.52H105V203.522Z" fill="#3E83C4"/>
<path opacity="0.2" d="M105 231.502H102V234.5H105V231.502Z" fill="#3E83C4"/>
<path opacity="0.2" d="M110 203.522H107V206.52H110V203.522Z" fill="#3E83C4"/>
<path opacity="0.2" d="M110 231.502H107V234.5H110V231.502Z" fill="#3E83C4"/>
<path opacity="0.2" d="M115 203.522H112V206.52H115V203.522Z" fill="#3E83C4"/>
<path opacity="0.2" d="M115 231.502H112V234.5H115V231.502Z" fill="#3E83C4"/>
<path opacity="0.2" d="M120 203.522H117V206.52H120V203.522Z" fill="#3E83C4"/>
<path opacity="0.2" d="M120 231.502H117V234.5H120V231.502Z" fill="#3E83C4"/>
<path opacity="0.2" d="M125 203.522H122V206.52H125V203.522Z" fill="#3E83C4"/>
<path opacity="0.2" d="M125 231.502H122V234.5H125V231.502Z" fill="#3E83C4"/>
<path d="M130 203.522H127V206.52H130V203.522Z" fill="#3E83C4"/>
<path d="M130 231.502H127V234.5H130V231.502Z" fill="#3E83C4"/>
<path opacity="0.2" d="M135 203.522H132V206.52H135V203.522Z" fill="#3E83C4"/>
<path opacity="0.2" d="M135 231.502H132V234.5H135V231.502Z" fill="#3E83C4"/>
<path d="M105 207.52H102V210.517H105V207.52Z" fill="#3E83C4"/>
<path d="M105 235.499H102V238.497H105V235.499Z" fill="#3E83C4"/>
<path opacity="0.2" d="M110 207.52H107V210.517H110V207.52Z" fill="#3E83C4"/>
<path opacity="0.2" d="M110 235.499H107V238.497H110V235.499Z" fill="#3E83C4"/>
<path opacity="0.7" d="M115 207.52H112V210.517H115V207.52Z" fill="#3E83C4"/>
<path opacity="0.7" d="M115 235.499H112V238.497H115V235.499Z" fill="#3E83C4"/>
<path opacity="0.2" d="M120 207.52H117V210.517H120V207.52Z" fill="#3E83C4"/>
<path opacity="0.2" d="M120 235.499H117V238.497H120V235.499Z" fill="#3E83C4"/>
<path opacity="0.4" d="M125 207.52H122V210.517H125V207.52Z" fill="#3E83C4"/>
<path opacity="0.4" d="M125 235.499H122V238.497H125V235.499Z" fill="#3E83C4"/>
<path d="M130 207.52H127V210.517H130V207.52Z" fill="#3E83C4"/>
<path d="M130 235.499H127V238.497H130V235.499Z" fill="#3E83C4"/>
<path opacity="0.4" d="M135 207.52H132V210.517H135V207.52Z" fill="#3E83C4"/>
<path opacity="0.4" d="M135 235.499H132V238.497H135V235.499Z" fill="#3E83C4"/>
<path d="M105 211.517H102V214.514H105V211.517Z" fill="#3E83C4"/>
<path d="M105 239.496H102V242.494H105V239.496Z" fill="#3E83C4"/>
<path opacity="0.7" d="M110 211.517H107V214.514H110V211.517Z" fill="#3E83C4"/>
<path opacity="0.7" d="M110 239.496H107V242.494H110V239.496Z" fill="#3E83C4"/>
<path opacity="0.7" d="M115 211.517H112V214.514H115V211.517Z" fill="#3E83C4"/>
<path opacity="0.7" d="M115 239.496H112V242.494H115V239.496Z" fill="#3E83C4"/>
<path opacity="0.2" d="M120 211.517H117V214.514H120V211.517Z" fill="#3E83C4"/>
<path opacity="0.2" d="M120 239.496H117V242.494H120V239.496Z" fill="#3E83C4"/>
<path opacity="0.4" d="M125 211.517H122V214.514H125V211.517Z" fill="#3E83C4"/>
<path opacity="0.4" d="M125 239.496H122V242.494H125V239.496Z" fill="#3E83C4"/>
<path opacity="0.4" d="M130 211.517H127V214.514H130V211.517Z" fill="#3E83C4"/>
<path opacity="0.4" d="M130 239.496H127V242.494H130V239.496Z" fill="#3E83C4"/>
<path d="M135 211.517H132V214.514H135V211.517Z" fill="#3E83C4"/>
<path d="M135 239.496H132V242.494H135V239.496Z" fill="#3E83C4"/>
<path d="M105 215.514H102V218.511H105V215.514Z" fill="#3E83C4"/>
<path d="M105 243.493H102V246.491H105V243.493Z" fill="#3E83C4"/>
<path opacity="0.7" d="M110 215.514H107V218.511H110V215.514Z" fill="#3E83C4"/>
<path opacity="0.7" d="M110 243.493H107V246.491H110V243.493Z" fill="#3E83C4"/>
<path opacity="0.7" d="M115 215.514H112V218.511H115V215.514Z" fill="#3E83C4"/>
<path opacity="0.7" d="M115 243.493H112V246.491H115V243.493Z" fill="#3E83C4"/>
<path opacity="0.2" d="M120 215.514H117V218.511H120V215.514Z" fill="#3E83C4"/>
<path opacity="0.2" d="M120 243.493H117V246.491H120V243.493Z" fill="#3E83C4"/>
<path opacity="0.2" d="M125 215.514H122V218.511H125V215.514Z" fill="#3E83C4"/>
<path opacity="0.2" d="M125 243.493H122V246.491H125V243.493Z" fill="#3E83C4"/>
<path opacity="0.4" d="M130 215.514H127V218.511H130V215.514Z" fill="#3E83C4"/>
<path opacity="0.4" d="M130 243.493H127V246.491H130V243.493Z" fill="#3E83C4"/>
<path opacity="0.4" d="M135 215.514H132V218.511H135V215.514Z" fill="#3E83C4"/>
<path opacity="0.4" d="M135 243.493H132V246.491H135V243.493Z" fill="#3E83C4"/>
<path opacity="0.2" d="M105 219.511H102V222.509H105V219.511Z" fill="#3E83C4"/>
<path opacity="0.2" d="M105 247.49H102V250.488H105V247.49Z" fill="#3E83C4"/>
<path opacity="0.7" d="M110 219.511H107V222.509H110V219.511Z" fill="#3E83C4"/>
<path opacity="0.7" d="M110 247.49H107V250.488H110V247.49Z" fill="#3E83C4"/>
<path opacity="0.7" d="M115 219.511H112V222.509H115V219.511Z" fill="#3E83C4"/>
<path opacity="0.7" d="M115 247.49H112V250.488H115V247.49Z" fill="#3E83C4"/>
<path opacity="0.2" d="M120 219.511H117V222.509H120V219.511Z" fill="#3E83C4"/>
<path opacity="0.2" d="M120 247.49H117V250.488H120V247.49Z" fill="#3E83C4"/>
<path opacity="0.2" d="M125 219.511H122V222.509H125V219.511Z" fill="#3E83C4"/>
<path opacity="0.2" d="M125 247.49H122V250.488H125V247.49Z" fill="#3E83C4"/>
<path opacity="0.4" d="M130 219.511H127V222.509H130V219.511Z" fill="#3E83C4"/>
<path opacity="0.4" d="M130 247.49H127V250.488H130V247.49Z" fill="#3E83C4"/>
<path d="M135 219.511H132V222.509H135V219.511Z" fill="#3E83C4"/>
<path d="M135 247.49H132V250.488H135V247.49Z" fill="#3E83C4"/>
<path opacity="0.2" d="M105 223.508H102V226.506H105V223.508Z" fill="#3E83C4"/>
<path opacity="0.2" d="M105 251.487H102V254.485H105V251.487Z" fill="#3E83C4"/>
<path opacity="0.2" d="M110 223.508H107V226.506H110V223.508Z" fill="#3E83C4"/>
<path opacity="0.2" d="M110 251.487H107V254.485H110V251.487Z" fill="#3E83C4"/>
<path opacity="0.7" d="M115 223.508H112V226.506H115V223.508Z" fill="#3E83C4"/>
<path opacity="0.7" d="M115 251.487H112V254.485H115V251.487Z" fill="#3E83C4"/>
<path opacity="0.2" d="M120 223.508H117V226.506H120V223.508Z" fill="#3E83C4"/>
<path opacity="0.2" d="M120 251.487H117V254.485H120V251.487Z" fill="#3E83C4"/>
<path opacity="0.2" d="M125 223.508H122V226.506H125V223.508Z" fill="#3E83C4"/>
<path opacity="0.2" d="M125 251.487H122V254.485H125V251.487Z" fill="#3E83C4"/>
<path opacity="0.2" d="M130 223.508H127V226.506H130V223.508Z" fill="#3E83C4"/>
<path opacity="0.2" d="M130 251.487H127V254.485H130V251.487Z" fill="#3E83C4"/>
<path d="M135 223.508H132V226.506H135V223.508Z" fill="#3E83C4"/>
<path d="M135 251.487H132V254.485H135V251.487Z" fill="#3E83C4"/>
<path opacity="0.7" d="M105 227.505H102V230.503H105V227.505Z" fill="#3E83C4"/>
<path opacity="0.7" d="M105 255.483H102V258.481H105V255.483Z" fill="#3E83C4"/>
<path opacity="0.2" d="M110 227.505H107V230.503H110V227.505Z" fill="#3E83C4"/>
<path opacity="0.2" d="M110 255.483H107V258.481H110V255.483Z" fill="#3E83C4"/>
<path opacity="0.2" d="M115 227.505H112V230.503H115V227.505Z" fill="#3E83C4"/>
<path opacity="0.2" d="M115 255.483H112V258.481H115V255.483Z" fill="#3E83C4"/>
<path opacity="0.2" d="M120 227.505H117V230.503H120V227.505Z" fill="#3E83C4"/>
<path opacity="0.2" d="M120 255.483H117V258.481H120V255.483Z" fill="#3E83C4"/>
<path opacity="0.2" d="M125 227.505H122V230.503H125V227.505Z" fill="#3E83C4"/>
<path opacity="0.2" d="M125 255.483H122V258.481H125V255.483Z" fill="#3E83C4"/>
<path opacity="0.2" d="M130 227.505H127V230.503H130V227.505Z" fill="#3E83C4"/>
<path opacity="0.2" d="M130 255.483H127V258.481H130V255.483Z" fill="#3E83C4"/>
<path opacity="0.2" d="M135 227.505H132V230.503H135V227.505Z" fill="#3E83C4"/>
<path opacity="0.2" d="M135 255.483H132V258.481H135V255.483Z" fill="#3E83C4"/>
<path opacity="0.2" d="M160 251.487H157V254.485H160V251.487Z" fill="#3E83C4"/>
<path d="M140 227.505H137V230.503H140V227.505Z" fill="#3E83C4"/>
<path d="M165 227.505H162V230.503H165V227.505Z" fill="#3E83C4"/>
<path d="M140 255.483H137V258.481H140V255.483Z" fill="#3E83C4"/>
<path d="M165 255.483H162V258.481H165V255.483Z" fill="#3E83C4"/>
<path opacity="0.2" d="M145 227.505H142V230.503H145V227.505Z" fill="#3E83C4"/>
<path opacity="0.2" d="M170 227.505H167V230.503H170V227.505Z" fill="#3E83C4"/>
<path opacity="0.2" d="M145 255.483H142V258.481H145V255.483Z" fill="#3E83C4"/>
<path opacity="0.2" d="M170 255.483H167V258.481H170V255.483Z" fill="#3E83C4"/>
<path opacity="0.2" d="M150 227.505H147V230.503H150V227.505Z" fill="#3E83C4"/>
<path opacity="0.2" d="M175 227.505H172V230.503H175V227.505Z" fill="#3E83C4"/>
<path opacity="0.2" d="M150 255.483H147V258.481H150V255.483Z" fill="#3E83C4"/>
<path opacity="0.2" d="M175 255.483H172V258.481H175V255.483Z" fill="#3E83C4"/>
<path opacity="0.2" d="M155 227.505H152V230.503H155V227.505Z" fill="#3E83C4"/>
<path opacity="0.2" d="M180 227.505H177V230.503H180V227.505Z" fill="#3E83C4"/>
<path opacity="0.2" d="M155 255.483H152V258.481H155V255.483Z" fill="#3E83C4"/>
<path opacity="0.2" d="M160 255.483H157V258.481H160V255.483Z" fill="#3E83C4"/>
<path opacity="0.2" d="M180 255.483H177V258.481H180V255.483Z" fill="#3E83C4"/>
<path opacity="0.1" d="M350.442 191.41H341.774V199.358H350.442V191.41Z" fill="black"/>
<path opacity="0.1" d="M343.22 272.272V275.197L321.703 274.622V272.272H343.22Z" fill="black"/>
<path d="M371.617 194.125V273.189C371.611 273.669 371.416 274.128 371.075 274.465C370.733 274.802 370.272 274.991 369.792 274.991L282.349 272.665C281.881 272.647 281.438 272.45 281.111 272.115C280.784 271.779 280.598 271.331 280.593 270.862V194.125C280.599 193.649 280.79 193.194 281.127 192.858C281.464 192.521 281.919 192.329 282.395 192.323H369.797C370.276 192.324 370.736 192.514 371.076 192.851C371.417 193.188 371.611 193.646 371.617 194.125Z" fill="#788392"/>
<path opacity="0.1" d="M371.617 194.125V273.189C371.611 273.669 371.416 274.128 371.075 274.465C370.733 274.802 370.272 274.991 369.792 274.991V192.323C370.272 192.323 370.733 192.512 371.075 192.85C371.416 193.187 371.611 193.645 371.617 194.125Z" fill="black"/>
<path d="M365.97 197.526H285V265.162L365.97 266.987V197.526Z" fill="#374656"/>
<path d="M278.33 194.125V270.862C278.325 271.331 278.139 271.779 277.812 272.115C277.485 272.45 277.042 272.647 276.574 272.665L189.149 274.991C188.669 274.991 188.208 274.802 187.867 274.465C187.525 274.128 187.33 273.669 187.324 273.189V194.125C187.33 193.649 187.522 193.194 187.859 192.858C188.195 192.521 188.65 192.329 189.126 192.323H276.528C277.004 192.329 277.459 192.521 277.796 192.858C278.133 193.194 278.324 193.649 278.33 194.125Z" fill="#788392"/>
<path d="M193 197.526H273.97V265.162L193 266.987V197.526Z" fill="#374656"/>
<path opacity="0.2" d="M253 204.521H250V207.519H253V204.521Z" fill="#3E83C4"/>
<path opacity="0.2" d="M253 232.501H250V235.499H253V232.501Z" fill="#3E83C4"/>
<path opacity="0.2" d="M233 204.521H230V207.519H233V204.521Z" fill="#3E83C4"/>
<path opacity="0.2" d="M258 204.521H255V207.519H258V204.521Z" fill="#3E83C4"/>
<path opacity="0.2" d="M233 232.501H230V235.499H233V232.501Z" fill="#3E83C4"/>
<path opacity="0.2" d="M258 232.501H255V235.499H258V232.501Z" fill="#3E83C4"/>
<path opacity="0.2" d="M238 204.521H235V207.519H238V204.521Z" fill="#3E83C4"/>
<path opacity="0.2" d="M263 204.521H260V207.519H263V204.521Z" fill="#3E83C4"/>
<path opacity="0.2" d="M238 232.501H235V235.499H238V232.501Z" fill="#3E83C4"/>
<path opacity="0.2" d="M263 232.501H260V235.499H263V232.501Z" fill="#3E83C4"/>
<path d="M243 204.521H240V207.519H243V204.521Z" fill="#3E83C4"/>
<path d="M268 204.521H265V207.519H268V204.521Z" fill="#3E83C4"/>
<path d="M243 232.501H240V235.499H243V232.501Z" fill="#3E83C4"/>
<path d="M268 232.501H265V235.499H268V232.501Z" fill="#3E83C4"/>
<path opacity="0.2" d="M248 204.521H245V207.519H248V204.521Z" fill="#3E83C4"/>
<path opacity="0.2" d="M273 204.521H270V207.519H273V204.521Z" fill="#3E83C4"/>
<path opacity="0.2" d="M248 232.501H245V235.499H248V232.501Z" fill="#3E83C4"/>
<path opacity="0.2" d="M273 232.501H270V235.499H273V232.501Z" fill="#3E83C4"/>
<path opacity="0.4" d="M253 208.519H250V211.516H253V208.519Z" fill="#3E83C4"/>
<path opacity="0.4" d="M253 236.498H250V239.496H253V236.498Z" fill="#3E83C4"/>
<path opacity="0.2" d="M233 208.519H230V211.516H233V208.519Z" fill="#3E83C4"/>
<path opacity="0.2" d="M258 208.519H255V211.516H258V208.519Z" fill="#3E83C4"/>
<path opacity="0.2" d="M233 236.498H230V239.496H233V236.498Z" fill="#3E83C4"/>
<path opacity="0.2" d="M258 236.498H255V239.496H258V236.498Z" fill="#3E83C4"/>
<path opacity="0.4" d="M238 208.519H235V211.516H238V208.519Z" fill="#3E83C4"/>
<path opacity="0.4" d="M263 208.519H260V211.516H263V208.519Z" fill="#3E83C4"/>
<path opacity="0.4" d="M238 236.498H235V239.496H238V236.498Z" fill="#3E83C4"/>
<path opacity="0.4" d="M263 236.498H260V239.496H263V236.498Z" fill="#3E83C4"/>
<path d="M243 208.519H240V211.516H243V208.519Z" fill="#3E83C4"/>
<path d="M268 208.519H265V211.516H268V208.519Z" fill="#3E83C4"/>
<path d="M243 236.498H240V239.496H243V236.498Z" fill="#3E83C4"/>
<path d="M268 236.498H265V239.496H268V236.498Z" fill="#3E83C4"/>
<path opacity="0.4" d="M248 208.519H245V211.516H248V208.519Z" fill="#3E83C4"/>
<path opacity="0.4" d="M273 208.519H270V211.516H273V208.519Z" fill="#3E83C4"/>
<path opacity="0.4" d="M248 236.498H245V239.496H248V236.498Z" fill="#3E83C4"/>
<path opacity="0.4" d="M273 236.498H270V239.496H273V236.498Z" fill="#3E83C4"/>
<path d="M253 212.516H250V215.513H253V212.516Z" fill="#3E83C4"/>
<path d="M253 240.495H250V243.493H253V240.495Z" fill="#3E83C4"/>
<path opacity="0.2" d="M233 212.516H230V215.513H233V212.516Z" fill="#3E83C4"/>
<path opacity="0.2" d="M258 212.516H255V215.513H258V212.516Z" fill="#3E83C4"/>
<path opacity="0.2" d="M233 240.495H230V243.493H233V240.495Z" fill="#3E83C4"/>
<path opacity="0.2" d="M258 240.495H255V243.493H258V240.495Z" fill="#3E83C4"/>
<path opacity="0.4" d="M238 212.516H235V215.513H238V212.516Z" fill="#3E83C4"/>
<path opacity="0.4" d="M263 212.516H260V215.513H263V212.516Z" fill="#3E83C4"/>
<path opacity="0.4" d="M238 240.495H235V243.493H238V240.495Z" fill="#3E83C4"/>
<path opacity="0.4" d="M263 240.495H260V243.493H263V240.495Z" fill="#3E83C4"/>
<path d="M243 212.516H240V215.513H243V212.516Z" fill="#3E83C4"/>
<path d="M268 212.516H265V215.513H268V212.516Z" fill="#3E83C4"/>
<path d="M243 240.495H240V243.493H243V240.495Z" fill="#3E83C4"/>
<path d="M268 240.495H265V243.493H268V240.495Z" fill="#3E83C4"/>
<path opacity="0.2" d="M248 212.516H245V215.513H248V212.516Z" fill="#3E83C4"/>
<path opacity="0.2" d="M273 212.516H270V215.513H273V212.516Z" fill="#3E83C4"/>
<path opacity="0.2" d="M248 240.495H245V243.493H248V240.495Z" fill="#3E83C4"/>
<path opacity="0.2" d="M273 240.495H270V243.493H273V240.495Z" fill="#3E83C4"/>
<path opacity="0.4" d="M253 216.513H250V219.51H253V216.513Z" fill="#3E83C4"/>
<path opacity="0.4" d="M253 244.492H250V247.49H253V244.492Z" fill="#3E83C4"/>
<path d="M233 216.513H230V219.51H233V216.513Z" fill="#3E83C4"/>
<path d="M258 216.513H255V219.51H258V216.513Z" fill="#3E83C4"/>
<path d="M233 244.492H230V247.49H233V244.492Z" fill="#3E83C4"/>
<path d="M258 244.492H255V247.49H258V244.492Z" fill="#3E83C4"/>
<path opacity="0.2" d="M238 216.513H235V219.51H238V216.513Z" fill="#3E83C4"/>
<path opacity="0.2" d="M263 216.513H260V219.51H263V216.513Z" fill="#3E83C4"/>
<path opacity="0.2" d="M238 244.492H235V247.49H238V244.492Z" fill="#3E83C4"/>
<path opacity="0.2" d="M263 244.492H260V247.49H263V244.492Z" fill="#3E83C4"/>
<path opacity="0.4" d="M243 216.513H240V219.51H243V216.513Z" fill="#3E83C4"/>
<path opacity="0.4" d="M268 216.513H265V219.51H268V216.513Z" fill="#3E83C4"/>
<path opacity="0.4" d="M243 244.492H240V247.49H243V244.492Z" fill="#3E83C4"/>
<path opacity="0.4" d="M268 244.492H265V247.49H268V244.492Z" fill="#3E83C4"/>
<path opacity="0.4" d="M248 216.513H245V219.51H248V216.513Z" fill="#3E83C4"/>
<path opacity="0.4" d="M273 216.513H270V219.51H273V216.513Z" fill="#3E83C4"/>
<path opacity="0.4" d="M248 244.492H245V247.49H248V244.492Z" fill="#3E83C4"/>
<path opacity="0.4" d="M273 244.492H270V247.49H273V244.492Z" fill="#3E83C4"/>
<path d="M253 220.51H250V223.508H253V220.51Z" fill="#3E83C4"/>
<path opacity="0.2" d="M233 220.51H230V223.508H233V220.51Z" fill="#3E83C4"/>
<path opacity="0.2" d="M258 220.51H255V223.508H258V220.51Z" fill="#3E83C4"/>
<path opacity="0.2" d="M233 248.489H230V251.487H233V248.489Z" fill="#3E83C4"/>
<path opacity="0.2" d="M258 248.489H255V251.487H258V248.489Z" fill="#3E83C4"/>
<path d="M238 220.51H235V223.508H238V220.51Z" fill="#3E83C4"/>
<path d="M263 220.51H260V223.508H263V220.51Z" fill="#3E83C4"/>
<path d="M238 248.489H235V251.487H238V248.489Z" fill="#3E83C4"/>
<path d="M263 248.489H260V251.487H263V248.489Z" fill="#3E83C4"/>
<path d="M243 220.51H240V223.508H243V220.51Z" fill="#3E83C4"/>
<path d="M268 220.51H265V223.508H268V220.51Z" fill="#3E83C4"/>
<path d="M243 248.489H240V251.487H243V248.489Z" fill="#3E83C4"/>
<path d="M268 248.489H265V251.487H268V248.489Z" fill="#3E83C4"/>
<path d="M248 220.51H245V223.508H248V220.51Z" fill="#3E83C4"/>
<path d="M273 220.51H270V223.508H273V220.51Z" fill="#3E83C4"/>
<path d="M248 248.489H245V251.487H248V248.489Z" fill="#3E83C4"/>
<path d="M273 248.489H270V251.487H273V248.489Z" fill="#3E83C4"/>
<path d="M253 224.507H250V227.505H253V224.507Z" fill="#3E83C4"/>
<path d="M253 248.489H250V251.487H253V248.489Z" fill="#3E83C4"/>
<path opacity="0.2" d="M233 224.507H230V227.505H233V224.507Z" fill="#3E83C4"/>
<path opacity="0.2" d="M258 224.507H255V227.505H258V224.507Z" fill="#3E83C4"/>
<path opacity="0.2" d="M233 252.486H230V255.484H233V252.486Z" fill="#3E83C4"/>
<path opacity="0.2" d="M258 252.486H255V255.484H258V252.486Z" fill="#3E83C4"/>
<path d="M238 224.507H235V227.505H238V224.507Z" fill="#3E83C4"/>
<path d="M263 224.507H260V227.505H263V224.507Z" fill="#3E83C4"/>
<path d="M238 252.486H235V255.484H238V252.486Z" fill="#3E83C4"/>
<path d="M263 252.486H260V255.484H263V252.486Z" fill="#3E83C4"/>
<path d="M243 224.507H240V227.505H243V224.507Z" fill="#3E83C4"/>
<path d="M268 224.507H265V227.505H268V224.507Z" fill="#3E83C4"/>
<path d="M243 252.486H240V255.484H243V252.486Z" fill="#3E83C4"/>
<path d="M268 252.486H265V255.484H268V252.486Z" fill="#3E83C4"/>
<path opacity="0.2" d="M248 224.507H245V227.505H248V224.507Z" fill="#3E83C4"/>
<path opacity="0.2" d="M273 224.507H270V227.505H273V224.507Z" fill="#3E83C4"/>
<path opacity="0.2" d="M248 252.486H245V255.484H248V252.486Z" fill="#3E83C4"/>
<path opacity="0.2" d="M273 252.486H270V255.484H273V252.486Z" fill="#3E83C4"/>
<path opacity="0.2" d="M253 228.504H250V231.502H253V228.504Z" fill="#3E83C4"/>
<path opacity="0.2" d="M198 204.521H195V207.519H198V204.521Z" fill="#3E83C4"/>
<path opacity="0.2" d="M198 232.501H195V235.499H198V232.501Z" fill="#3E83C4"/>
<path opacity="0.2" d="M203 204.521H200V207.519H203V204.521Z" fill="#3E83C4"/>
<path opacity="0.2" d="M203 232.501H200V235.499H203V232.501Z" fill="#3E83C4"/>
<path opacity="0.2" d="M208 204.521H205V207.519H208V204.521Z" fill="#3E83C4"/>
<path opacity="0.2" d="M208 232.501H205V235.499H208V232.501Z" fill="#3E83C4"/>
<path opacity="0.2" d="M213 204.521H210V207.519H213V204.521Z" fill="#3E83C4"/>
<path opacity="0.2" d="M213 232.501H210V235.499H213V232.501Z" fill="#3E83C4"/>
<path opacity="0.2" d="M218 204.521H215V207.519H218V204.521Z" fill="#3E83C4"/>
<path opacity="0.2" d="M218 232.501H215V235.499H218V232.501Z" fill="#3E83C4"/>
<path d="M223 204.521H220V207.519H223V204.521Z" fill="#3E83C4"/>
<path d="M223 232.501H220V235.499H223V232.501Z" fill="#3E83C4"/>
<path opacity="0.2" d="M228 204.521H225V207.519H228V204.521Z" fill="#3E83C4"/>
<path opacity="0.2" d="M228 232.501H225V235.499H228V232.501Z" fill="#3E83C4"/>
<path d="M198 208.519H195V211.516H198V208.519Z" fill="#3E83C4"/>
<path d="M198 236.498H195V239.496H198V236.498Z" fill="#3E83C4"/>
<path opacity="0.2" d="M203 208.519H200V211.516H203V208.519Z" fill="#3E83C4"/>
<path opacity="0.2" d="M203 236.498H200V239.496H203V236.498Z" fill="#3E83C4"/>
<path opacity="0.7" d="M208 208.519H205V211.516H208V208.519Z" fill="#3E83C4"/>
<path opacity="0.7" d="M208 236.498H205V239.496H208V236.498Z" fill="#3E83C4"/>
<path opacity="0.2" d="M213 208.519H210V211.516H213V208.519Z" fill="#3E83C4"/>
<path opacity="0.2" d="M213 236.498H210V239.496H213V236.498Z" fill="#3E83C4"/>
<path opacity="0.4" d="M218 208.519H215V211.516H218V208.519Z" fill="#3E83C4"/>
<path opacity="0.4" d="M218 236.498H215V239.496H218V236.498Z" fill="#3E83C4"/>
<path d="M223 208.519H220V211.516H223V208.519Z" fill="#3E83C4"/>
<path d="M223 236.498H220V239.496H223V236.498Z" fill="#3E83C4"/>
<path opacity="0.4" d="M228 208.519H225V211.516H228V208.519Z" fill="#3E83C4"/>
<path opacity="0.4" d="M228 236.498H225V239.496H228V236.498Z" fill="#3E83C4"/>
<path d="M198 212.516H195V215.513H198V212.516Z" fill="#3E83C4"/>
<path d="M198 240.495H195V243.493H198V240.495Z" fill="#3E83C4"/>
<path opacity="0.7" d="M203 212.516H200V215.513H203V212.516Z" fill="#3E83C4"/>
<path opacity="0.7" d="M203 240.495H200V243.493H203V240.495Z" fill="#3E83C4"/>
<path opacity="0.7" d="M208 212.516H205V215.513H208V212.516Z" fill="#3E83C4"/>
<path opacity="0.7" d="M208 240.495H205V243.493H208V240.495Z" fill="#3E83C4"/>
<path opacity="0.2" d="M213 212.516H210V215.513H213V212.516Z" fill="#3E83C4"/>
<path opacity="0.2" d="M213 240.495H210V243.493H213V240.495Z" fill="#3E83C4"/>
<path opacity="0.4" d="M218 212.516H215V215.513H218V212.516Z" fill="#3E83C4"/>
<path opacity="0.4" d="M218 240.495H215V243.493H218V240.495Z" fill="#3E83C4"/>
<path opacity="0.4" d="M223 212.516H220V215.513H223V212.516Z" fill="#3E83C4"/>
<path opacity="0.4" d="M223 240.495H220V243.493H223V240.495Z" fill="#3E83C4"/>
<path d="M228 212.516H225V215.513H228V212.516Z" fill="#3E83C4"/>
<path d="M228 240.495H225V243.493H228V240.495Z" fill="#3E83C4"/>
<path d="M198 216.513H195V219.51H198V216.513Z" fill="#3E83C4"/>
<path d="M198 244.492H195V247.49H198V244.492Z" fill="#3E83C4"/>
<path opacity="0.7" d="M203 216.513H200V219.51H203V216.513Z" fill="#3E83C4"/>
<path opacity="0.7" d="M203 244.492H200V247.49H203V244.492Z" fill="#3E83C4"/>
<path opacity="0.7" d="M208 216.513H205V219.51H208V216.513Z" fill="#3E83C4"/>
<path opacity="0.7" d="M208 244.492H205V247.49H208V244.492Z" fill="#3E83C4"/>
<path opacity="0.2" d="M213 216.513H210V219.51H213V216.513Z" fill="#3E83C4"/>
<path opacity="0.2" d="M213 244.492H210V247.49H213V244.492Z" fill="#3E83C4"/>
<path opacity="0.2" d="M218 216.513H215V219.51H218V216.513Z" fill="#3E83C4"/>
<path opacity="0.2" d="M218 244.492H215V247.49H218V244.492Z" fill="#3E83C4"/>
<path opacity="0.4" d="M223 216.513H220V219.51H223V216.513Z" fill="#3E83C4"/>
<path opacity="0.4" d="M223 244.492H220V247.49H223V244.492Z" fill="#3E83C4"/>
<path opacity="0.4" d="M228 216.513H225V219.51H228V216.513Z" fill="#3E83C4"/>
<path opacity="0.4" d="M228 244.492H225V247.49H228V244.492Z" fill="#3E83C4"/>
<path opacity="0.2" d="M198 220.51H195V223.508H198V220.51Z" fill="#3E83C4"/>
<path opacity="0.2" d="M198 248.489H195V251.487H198V248.489Z" fill="#3E83C4"/>
<path opacity="0.7" d="M203 220.51H200V223.508H203V220.51Z" fill="#3E83C4"/>
<path opacity="0.7" d="M203 248.489H200V251.487H203V248.489Z" fill="#3E83C4"/>
<path opacity="0.7" d="M208 220.51H205V223.508H208V220.51Z" fill="#3E83C4"/>
<path opacity="0.7" d="M208 248.489H205V251.487H208V248.489Z" fill="#3E83C4"/>
<path opacity="0.2" d="M213 220.51H210V223.508H213V220.51Z" fill="#3E83C4"/>
<path opacity="0.2" d="M213 248.489H210V251.487H213V248.489Z" fill="#3E83C4"/>
<path opacity="0.2" d="M218 220.51H215V223.508H218V220.51Z" fill="#3E83C4"/>
<path opacity="0.2" d="M218 248.489H215V251.487H218V248.489Z" fill="#3E83C4"/>
<path opacity="0.4" d="M223 220.51H220V223.508H223V220.51Z" fill="#3E83C4"/>
<path opacity="0.4" d="M223 248.489H220V251.487H223V248.489Z" fill="#3E83C4"/>
<path d="M228 220.51H225V223.508H228V220.51Z" fill="#3E83C4"/>
<path d="M228 248.489H225V251.487H228V248.489Z" fill="#3E83C4"/>
<path opacity="0.2" d="M198 224.507H195V227.505H198V224.507Z" fill="#3E83C4"/>
<path opacity="0.2" d="M198 252.486H195V255.484H198V252.486Z" fill="#3E83C4"/>
<path opacity="0.2" d="M203 224.507H200V227.505H203V224.507Z" fill="#3E83C4"/>
<path opacity="0.2" d="M203 252.486H200V255.484H203V252.486Z" fill="#3E83C4"/>
<path opacity="0.7" d="M208 224.507H205V227.505H208V224.507Z" fill="#3E83C4"/>
<path opacity="0.7" d="M208 252.486H205V255.484H208V252.486Z" fill="#3E83C4"/>
<path opacity="0.2" d="M213 224.507H210V227.505H213V224.507Z" fill="#3E83C4"/>
<path opacity="0.2" d="M213 252.486H210V255.484H213V252.486Z" fill="#3E83C4"/>
<path opacity="0.2" d="M218 224.507H215V227.505H218V224.507Z" fill="#3E83C4"/>
<path opacity="0.2" d="M218 252.486H215V255.484H218V252.486Z" fill="#3E83C4"/>
<path opacity="0.2" d="M223 224.507H220V227.505H223V224.507Z" fill="#3E83C4"/>
<path opacity="0.2" d="M223 252.486H220V255.484H223V252.486Z" fill="#3E83C4"/>
<path d="M228 224.507H225V227.505H228V224.507Z" fill="#3E83C4"/>
<path d="M228 252.486H225V255.484H228V252.486Z" fill="#3E83C4"/>
<path opacity="0.7" d="M198 228.504H195V231.502H198V228.504Z" fill="#3E83C4"/>
<path opacity="0.7" d="M198 256.483H195V259.481H198V256.483Z" fill="#3E83C4"/>
<path opacity="0.2" d="M203 228.504H200V231.502H203V228.504Z" fill="#3E83C4"/>
<path opacity="0.2" d="M203 256.483H200V259.481H203V256.483Z" fill="#3E83C4"/>
<path opacity="0.2" d="M208 228.504H205V231.502H208V228.504Z" fill="#3E83C4"/>
<path opacity="0.2" d="M208 256.483H205V259.481H208V256.483Z" fill="#3E83C4"/>
<path opacity="0.2" d="M213 228.504H210V231.502H213V228.504Z" fill="#3E83C4"/>
<path opacity="0.2" d="M213 256.483H210V259.481H213V256.483Z" fill="#3E83C4"/>
<path opacity="0.2" d="M218 228.504H215V231.502H218V228.504Z" fill="#3E83C4"/>
<path opacity="0.2" d="M218 256.483H215V259.481H218V256.483Z" fill="#3E83C4"/>
<path opacity="0.2" d="M223 228.504H220V231.502H223V228.504Z" fill="#3E83C4"/>
<path opacity="0.2" d="M223 256.483H220V259.481H223V256.483Z" fill="#3E83C4"/>
<path opacity="0.2" d="M228 228.504H225V231.502H228V228.504Z" fill="#3E83C4"/>
<path opacity="0.2" d="M228 256.483H225V259.481H228V256.483Z" fill="#3E83C4"/>
<path opacity="0.2" d="M253 252.486H250V255.484H253V252.486Z" fill="#3E83C4"/>
<path d="M233 228.504H230V231.502H233V228.504Z" fill="#3E83C4"/>
<path d="M258 228.504H255V231.502H258V228.504Z" fill="#3E83C4"/>
<path d="M233 256.483H230V259.481H233V256.483Z" fill="#3E83C4"/>
<path d="M258 256.483H255V259.481H258V256.483Z" fill="#3E83C4"/>
<path opacity="0.2" d="M238 228.504H235V231.502H238V228.504Z" fill="#3E83C4"/>
<path opacity="0.2" d="M263 228.504H260V231.502H263V228.504Z" fill="#3E83C4"/>
<path opacity="0.2" d="M238 256.483H235V259.481H238V256.483Z" fill="#3E83C4"/>
<path opacity="0.2" d="M263 256.483H260V259.481H263V256.483Z" fill="#3E83C4"/>
<path opacity="0.2" d="M243 228.504H240V231.502H243V228.504Z" fill="#3E83C4"/>
<path opacity="0.2" d="M268 228.504H265V231.502H268V228.504Z" fill="#3E83C4"/>
<path opacity="0.2" d="M243 256.483H240V259.481H243V256.483Z" fill="#3E83C4"/>
<path opacity="0.2" d="M268 256.483H265V259.481H268V256.483Z" fill="#3E83C4"/>
<path opacity="0.2" d="M248 228.504H245V231.502H248V228.504Z" fill="#3E83C4"/>
<path opacity="0.2" d="M273 228.504H270V231.502H273V228.504Z" fill="#3E83C4"/>
<path opacity="0.2" d="M248 256.483H245V259.481H248V256.483Z" fill="#3E83C4"/>
<path opacity="0.2" d="M253 256.483H250V259.481H253V256.483Z" fill="#3E83C4"/>
<path opacity="0.2" d="M273 256.483H270V259.481H273V256.483Z" fill="#3E83C4"/>
<path opacity="0.2" d="M345 204.521H342V207.519H345V204.521Z" fill="#3E83C4"/>
<path opacity="0.2" d="M345 232.501H342V235.499H345V232.501Z" fill="#3E83C4"/>
<path opacity="0.2" d="M325 204.521H322V207.519H325V204.521Z" fill="#3E83C4"/>
<path opacity="0.2" d="M350 204.521H347V207.519H350V204.521Z" fill="#3E83C4"/>
<path opacity="0.2" d="M325 232.501H322V235.499H325V232.501Z" fill="#3E83C4"/>
<path opacity="0.2" d="M350 232.501H347V235.499H350V232.501Z" fill="#3E83C4"/>
<path opacity="0.2" d="M330 204.521H327V207.519H330V204.521Z" fill="#3E83C4"/>
<path opacity="0.2" d="M355 204.521H352V207.519H355V204.521Z" fill="#3E83C4"/>
<path opacity="0.2" d="M330 232.501H327V235.499H330V232.501Z" fill="#3E83C4"/>
<path opacity="0.2" d="M355 232.501H352V235.499H355V232.501Z" fill="#3E83C4"/>
<path d="M335 204.521H332V207.519H335V204.521Z" fill="#3E83C4"/>
<path d="M360 204.521H357V207.519H360V204.521Z" fill="#3E83C4"/>
<path d="M335 232.501H332V235.499H335V232.501Z" fill="#3E83C4"/>
<path d="M360 232.501H357V235.499H360V232.501Z" fill="#3E83C4"/>
<path opacity="0.2" d="M340 204.521H337V207.519H340V204.521Z" fill="#3E83C4"/>
<path opacity="0.2" d="M365 204.521H362V207.519H365V204.521Z" fill="#3E83C4"/>
<path opacity="0.2" d="M340 232.501H337V235.499H340V232.501Z" fill="#3E83C4"/>
<path opacity="0.2" d="M365 232.501H362V235.499H365V232.501Z" fill="#3E83C4"/>
<path opacity="0.4" d="M345 208.519H342V211.516H345V208.519Z" fill="#3E83C4"/>
<path opacity="0.4" d="M345 236.498H342V239.496H345V236.498Z" fill="#3E83C4"/>
<path opacity="0.2" d="M325 208.519H322V211.516H325V208.519Z" fill="#3E83C4"/>
<path opacity="0.2" d="M350 208.519H347V211.516H350V208.519Z" fill="#3E83C4"/>
<path opacity="0.2" d="M325 236.498H322V239.496H325V236.498Z" fill="#3E83C4"/>
<path opacity="0.2" d="M350 236.498H347V239.496H350V236.498Z" fill="#3E83C4"/>
<path opacity="0.4" d="M330 208.519H327V211.516H330V208.519Z" fill="#3E83C4"/>
<path opacity="0.4" d="M355 208.519H352V211.516H355V208.519Z" fill="#3E83C4"/>
<path opacity="0.4" d="M330 236.498H327V239.496H330V236.498Z" fill="#3E83C4"/>
<path opacity="0.4" d="M355 236.498H352V239.496H355V236.498Z" fill="#3E83C4"/>
<path d="M335 208.519H332V211.516H335V208.519Z" fill="#3E83C4"/>
<path d="M360 208.519H357V211.516H360V208.519Z" fill="#3E83C4"/>
<path d="M335 236.498H332V239.496H335V236.498Z" fill="#3E83C4"/>
<path d="M360 236.498H357V239.496H360V236.498Z" fill="#3E83C4"/>
<path opacity="0.4" d="M340 208.519H337V211.516H340V208.519Z" fill="#3E83C4"/>
<path opacity="0.4" d="M365 208.519H362V211.516H365V208.519Z" fill="#3E83C4"/>
<path opacity="0.4" d="M340 236.498H337V239.496H340V236.498Z" fill="#3E83C4"/>
<path opacity="0.4" d="M365 236.498H362V239.496H365V236.498Z" fill="#3E83C4"/>
<path d="M345 212.516H342V215.513H345V212.516Z" fill="#3E83C4"/>
<path d="M345 240.495H342V243.493H345V240.495Z" fill="#3E83C4"/>
<path opacity="0.2" d="M325 212.516H322V215.513H325V212.516Z" fill="#3E83C4"/>
<path opacity="0.2" d="M350 212.516H347V215.513H350V212.516Z" fill="#3E83C4"/>
<path opacity="0.2" d="M325 240.495H322V243.493H325V240.495Z" fill="#3E83C4"/>
<path opacity="0.2" d="M350 240.495H347V243.493H350V240.495Z" fill="#3E83C4"/>
<path opacity="0.4" d="M330 212.516H327V215.513H330V212.516Z" fill="#3E83C4"/>
<path opacity="0.4" d="M355 212.516H352V215.513H355V212.516Z" fill="#3E83C4"/>
<path opacity="0.4" d="M330 240.495H327V243.493H330V240.495Z" fill="#3E83C4"/>
<path opacity="0.4" d="M355 240.495H352V243.493H355V240.495Z" fill="#3E83C4"/>
<path d="M335 212.516H332V215.513H335V212.516Z" fill="#3E83C4"/>
<path d="M360 212.516H357V215.513H360V212.516Z" fill="#3E83C4"/>
<path d="M335 240.495H332V243.493H335V240.495Z" fill="#3E83C4"/>
<path d="M360 240.495H357V243.493H360V240.495Z" fill="#3E83C4"/>
<path opacity="0.2" d="M340 212.516H337V215.513H340V212.516Z" fill="#3E83C4"/>
<path opacity="0.2" d="M365 212.516H362V215.513H365V212.516Z" fill="#3E83C4"/>
<path opacity="0.2" d="M340 240.495H337V243.493H340V240.495Z" fill="#3E83C4"/>
<path opacity="0.2" d="M365 240.495H362V243.493H365V240.495Z" fill="#3E83C4"/>
<path opacity="0.4" d="M345 216.513H342V219.51H345V216.513Z" fill="#3E83C4"/>
<path opacity="0.4" d="M345 244.492H342V247.49H345V244.492Z" fill="#3E83C4"/>
<path d="M325 216.513H322V219.51H325V216.513Z" fill="#3E83C4"/>
<path d="M350 216.513H347V219.51H350V216.513Z" fill="#3E83C4"/>
<path d="M325 244.492H322V247.49H325V244.492Z" fill="#3E83C4"/>
<path d="M350 244.492H347V247.49H350V244.492Z" fill="#3E83C4"/>
<path opacity="0.2" d="M330 216.513H327V219.51H330V216.513Z" fill="#3E83C4"/>
<path opacity="0.2" d="M355 216.513H352V219.51H355V216.513Z" fill="#3E83C4"/>
<path opacity="0.2" d="M330 244.492H327V247.49H330V244.492Z" fill="#3E83C4"/>
<path opacity="0.2" d="M355 244.492H352V247.49H355V244.492Z" fill="#3E83C4"/>
<path opacity="0.4" d="M335 216.513H332V219.51H335V216.513Z" fill="#3E83C4"/>
<path opacity="0.4" d="M360 216.513H357V219.51H360V216.513Z" fill="#3E83C4"/>
<path opacity="0.4" d="M335 244.492H332V247.49H335V244.492Z" fill="#3E83C4"/>
<path opacity="0.4" d="M360 244.492H357V247.49H360V244.492Z" fill="#3E83C4"/>
<path opacity="0.4" d="M340 216.513H337V219.51H340V216.513Z" fill="#3E83C4"/>
<path opacity="0.4" d="M365 216.513H362V219.51H365V216.513Z" fill="#3E83C4"/>
<path opacity="0.4" d="M340 244.492H337V247.49H340V244.492Z" fill="#3E83C4"/>
<path opacity="0.4" d="M365 244.492H362V247.49H365V244.492Z" fill="#3E83C4"/>
<path d="M345 220.51H342V223.508H345V220.51Z" fill="#3E83C4"/>
<path opacity="0.2" d="M325 220.51H322V223.508H325V220.51Z" fill="#3E83C4"/>
<path opacity="0.2" d="M350 220.51H347V223.508H350V220.51Z" fill="#3E83C4"/>
<path opacity="0.2" d="M325 248.489H322V251.487H325V248.489Z" fill="#3E83C4"/>
<path opacity="0.2" d="M350 248.489H347V251.487H350V248.489Z" fill="#3E83C4"/>
<path d="M330 220.51H327V223.508H330V220.51Z" fill="#3E83C4"/>
<path d="M355 220.51H352V223.508H355V220.51Z" fill="#3E83C4"/>
<path d="M330 248.489H327V251.487H330V248.489Z" fill="#3E83C4"/>
<path d="M355 248.489H352V251.487H355V248.489Z" fill="#3E83C4"/>
<path d="M335 220.51H332V223.508H335V220.51Z" fill="#3E83C4"/>
<path d="M360 220.51H357V223.508H360V220.51Z" fill="#3E83C4"/>
<path d="M335 248.489H332V251.487H335V248.489Z" fill="#3E83C4"/>
<path d="M360 248.489H357V251.487H360V248.489Z" fill="#3E83C4"/>
<path d="M340 220.51H337V223.508H340V220.51Z" fill="#3E83C4"/>
<path d="M365 220.51H362V223.508H365V220.51Z" fill="#3E83C4"/>
<path d="M340 248.489H337V251.487H340V248.489Z" fill="#3E83C4"/>
<path d="M365 248.489H362V251.487H365V248.489Z" fill="#3E83C4"/>
<path d="M345 224.507H342V227.505H345V224.507Z" fill="#3E83C4"/>
<path d="M345 248.489H342V251.487H345V248.489Z" fill="#3E83C4"/>
<path opacity="0.2" d="M325 224.507H322V227.505H325V224.507Z" fill="#3E83C4"/>
<path opacity="0.2" d="M350 224.507H347V227.505H350V224.507Z" fill="#3E83C4"/>
<path opacity="0.2" d="M325 252.486H322V255.484H325V252.486Z" fill="#3E83C4"/>
<path opacity="0.2" d="M350 252.486H347V255.484H350V252.486Z" fill="#3E83C4"/>
<path d="M330 224.507H327V227.505H330V224.507Z" fill="#3E83C4"/>
<path d="M355 224.507H352V227.505H355V224.507Z" fill="#3E83C4"/>
<path d="M330 252.486H327V255.484H330V252.486Z" fill="#3E83C4"/>
<path d="M355 252.486H352V255.484H355V252.486Z" fill="#3E83C4"/>
<path d="M335 224.507H332V227.505H335V224.507Z" fill="#3E83C4"/>
<path d="M360 224.507H357V227.505H360V224.507Z" fill="#3E83C4"/>
<path d="M335 252.486H332V255.484H335V252.486Z" fill="#3E83C4"/>
<path d="M360 252.486H357V255.484H360V252.486Z" fill="#3E83C4"/>
<path opacity="0.2" d="M340 224.507H337V227.505H340V224.507Z" fill="#3E83C4"/>
<path opacity="0.2" d="M365 224.507H362V227.505H365V224.507Z" fill="#3E83C4"/>
<path opacity="0.2" d="M340 252.486H337V255.484H340V252.486Z" fill="#3E83C4"/>
<path opacity="0.2" d="M365 252.486H362V255.484H365V252.486Z" fill="#3E83C4"/>
<path opacity="0.2" d="M345 228.504H342V231.502H345V228.504Z" fill="#3E83C4"/>
<path opacity="0.2" d="M290 204.521H287V207.519H290V204.521Z" fill="#3E83C4"/>
<path opacity="0.2" d="M290 232.501H287V235.499H290V232.501Z" fill="#3E83C4"/>
<path opacity="0.2" d="M295 204.521H292V207.519H295V204.521Z" fill="#3E83C4"/>
<path opacity="0.2" d="M295 232.501H292V235.499H295V232.501Z" fill="#3E83C4"/>
<path opacity="0.2" d="M300 204.521H297V207.519H300V204.521Z" fill="#3E83C4"/>
<path opacity="0.2" d="M300 232.501H297V235.499H300V232.501Z" fill="#3E83C4"/>
<path opacity="0.2" d="M305 204.521H302V207.519H305V204.521Z" fill="#3E83C4"/>
<path opacity="0.2" d="M305 232.501H302V235.499H305V232.501Z" fill="#3E83C4"/>
<path opacity="0.2" d="M310 204.521H307V207.519H310V204.521Z" fill="#3E83C4"/>
<path opacity="0.2" d="M310 232.501H307V235.499H310V232.501Z" fill="#3E83C4"/>
<path d="M315 204.521H312V207.519H315V204.521Z" fill="#3E83C4"/>
<path d="M315 232.501H312V235.499H315V232.501Z" fill="#3E83C4"/>
<path opacity="0.2" d="M320 204.521H317V207.519H320V204.521Z" fill="#3E83C4"/>
<path opacity="0.2" d="M320 232.501H317V235.499H320V232.501Z" fill="#3E83C4"/>
<path d="M290 208.519H287V211.516H290V208.519Z" fill="#3E83C4"/>
<path d="M290 236.498H287V239.496H290V236.498Z" fill="#3E83C4"/>
<path opacity="0.2" d="M295 208.519H292V211.516H295V208.519Z" fill="#3E83C4"/>
<path opacity="0.2" d="M295 236.498H292V239.496H295V236.498Z" fill="#3E83C4"/>
<path opacity="0.7" d="M300 208.519H297V211.516H300V208.519Z" fill="#3E83C4"/>
<path opacity="0.7" d="M300 236.498H297V239.496H300V236.498Z" fill="#3E83C4"/>
<path opacity="0.2" d="M305 208.519H302V211.516H305V208.519Z" fill="#3E83C4"/>
<path opacity="0.2" d="M305 236.498H302V239.496H305V236.498Z" fill="#3E83C4"/>
<path opacity="0.4" d="M310 208.519H307V211.516H310V208.519Z" fill="#3E83C4"/>
<path opacity="0.4" d="M310 236.498H307V239.496H310V236.498Z" fill="#3E83C4"/>
<path d="M315 208.519H312V211.516H315V208.519Z" fill="#3E83C4"/>
<path d="M315 236.498H312V239.496H315V236.498Z" fill="#3E83C4"/>
<path opacity="0.4" d="M320 208.519H317V211.516H320V208.519Z" fill="#3E83C4"/>
<path opacity="0.4" d="M320 236.498H317V239.496H320V236.498Z" fill="#3E83C4"/>
<path d="M290 212.516H287V215.513H290V212.516Z" fill="#3E83C4"/>
<path d="M290 240.495H287V243.493H290V240.495Z" fill="#3E83C4"/>
<path opacity="0.7" d="M295 212.516H292V215.513H295V212.516Z" fill="#3E83C4"/>
<path opacity="0.7" d="M295 240.495H292V243.493H295V240.495Z" fill="#3E83C4"/>
<path opacity="0.7" d="M300 212.516H297V215.513H300V212.516Z" fill="#3E83C4"/>
<path opacity="0.7" d="M300 240.495H297V243.493H300V240.495Z" fill="#3E83C4"/>
<path opacity="0.2" d="M305 212.516H302V215.513H305V212.516Z" fill="#3E83C4"/>
<path opacity="0.2" d="M305 240.495H302V243.493H305V240.495Z" fill="#3E83C4"/>
<path opacity="0.4" d="M310 212.516H307V215.513H310V212.516Z" fill="#3E83C4"/>
<path opacity="0.4" d="M310 240.495H307V243.493H310V240.495Z" fill="#3E83C4"/>
<path opacity="0.4" d="M315 212.516H312V215.513H315V212.516Z" fill="#3E83C4"/>
<path opacity="0.4" d="M315 240.495H312V243.493H315V240.495Z" fill="#3E83C4"/>
<path d="M320 212.516H317V215.513H320V212.516Z" fill="#3E83C4"/>
<path d="M320 240.495H317V243.493H320V240.495Z" fill="#3E83C4"/>
<path d="M290 216.513H287V219.51H290V216.513Z" fill="#3E83C4"/>
<path d="M290 244.492H287V247.49H290V244.492Z" fill="#3E83C4"/>
<path opacity="0.7" d="M295 216.513H292V219.51H295V216.513Z" fill="#3E83C4"/>
<path opacity="0.7" d="M295 244.492H292V247.49H295V244.492Z" fill="#3E83C4"/>
<path opacity="0.7" d="M300 216.513H297V219.51H300V216.513Z" fill="#3E83C4"/>
<path opacity="0.7" d="M300 244.492H297V247.49H300V244.492Z" fill="#3E83C4"/>
<path opacity="0.2" d="M305 216.513H302V219.51H305V216.513Z" fill="#3E83C4"/>
<path opacity="0.2" d="M305 244.492H302V247.49H305V244.492Z" fill="#3E83C4"/>
<path opacity="0.2" d="M310 216.513H307V219.51H310V216.513Z" fill="#3E83C4"/>
<path opacity="0.2" d="M310 244.492H307V247.49H310V244.492Z" fill="#3E83C4"/>
<path opacity="0.4" d="M315 216.513H312V219.51H315V216.513Z" fill="#3E83C4"/>
<path opacity="0.4" d="M315 244.492H312V247.49H315V244.492Z" fill="#3E83C4"/>
<path opacity="0.4" d="M320 216.513H317V219.51H320V216.513Z" fill="#3E83C4"/>
<path opacity="0.4" d="M320 244.492H317V247.49H320V244.492Z" fill="#3E83C4"/>
<path opacity="0.2" d="M290 220.51H287V223.508H290V220.51Z" fill="#3E83C4"/>
<path opacity="0.2" d="M290 248.489H287V251.487H290V248.489Z" fill="#3E83C4"/>
<path opacity="0.7" d="M295 220.51H292V223.508H295V220.51Z" fill="#3E83C4"/>
<path opacity="0.7" d="M295 248.489H292V251.487H295V248.489Z" fill="#3E83C4"/>
<path opacity="0.7" d="M300 220.51H297V223.508H300V220.51Z" fill="#3E83C4"/>
<path opacity="0.7" d="M300 248.489H297V251.487H300V248.489Z" fill="#3E83C4"/>
<path opacity="0.2" d="M305 220.51H302V223.508H305V220.51Z" fill="#3E83C4"/>
<path opacity="0.2" d="M305 248.489H302V251.487H305V248.489Z" fill="#3E83C4"/>
<path opacity="0.2" d="M310 220.51H307V223.508H310V220.51Z" fill="#3E83C4"/>
<path opacity="0.2" d="M310 248.489H307V251.487H310V248.489Z" fill="#3E83C4"/>
<path opacity="0.4" d="M315 220.51H312V223.508H315V220.51Z" fill="#3E83C4"/>
<path opacity="0.4" d="M315 248.489H312V251.487H315V248.489Z" fill="#3E83C4"/>
<path d="M320 220.51H317V223.508H320V220.51Z" fill="#3E83C4"/>
<path d="M320 248.489H317V251.487H320V248.489Z" fill="#3E83C4"/>
<path opacity="0.2" d="M290 224.507H287V227.505H290V224.507Z" fill="#3E83C4"/>
<path opacity="0.2" d="M290 252.486H287V255.484H290V252.486Z" fill="#3E83C4"/>
<path opacity="0.2" d="M295 224.507H292V227.505H295V224.507Z" fill="#3E83C4"/>
<path opacity="0.2" d="M295 252.486H292V255.484H295V252.486Z" fill="#3E83C4"/>
<path opacity="0.7" d="M300 224.507H297V227.505H300V224.507Z" fill="#3E83C4"/>
<path opacity="0.7" d="M300 252.486H297V255.484H300V252.486Z" fill="#3E83C4"/>
<path opacity="0.2" d="M305 224.507H302V227.505H305V224.507Z" fill="#3E83C4"/>
<path opacity="0.2" d="M305 252.486H302V255.484H305V252.486Z" fill="#3E83C4"/>
<path opacity="0.2" d="M310 224.507H307V227.505H310V224.507Z" fill="#3E83C4"/>
<path opacity="0.2" d="M310 252.486H307V255.484H310V252.486Z" fill="#3E83C4"/>
<path opacity="0.2" d="M315 224.507H312V227.505H315V224.507Z" fill="#3E83C4"/>
<path opacity="0.2" d="M315 252.486H312V255.484H315V252.486Z" fill="#3E83C4"/>
<path d="M320 224.507H317V227.505H320V224.507Z" fill="#3E83C4"/>
<path d="M320 252.486H317V255.484H320V252.486Z" fill="#3E83C4"/>
<path opacity="0.7" d="M290 228.504H287V231.502H290V228.504Z" fill="#3E83C4"/>
<path opacity="0.7" d="M290 256.483H287V259.481H290V256.483Z" fill="#3E83C4"/>
<path opacity="0.2" d="M295 228.504H292V231.502H295V228.504Z" fill="#3E83C4"/>
<path opacity="0.2" d="M295 256.483H292V259.481H295V256.483Z" fill="#3E83C4"/>
<path opacity="0.2" d="M300 228.504H297V231.502H300V228.504Z" fill="#3E83C4"/>
<path opacity="0.2" d="M300 256.483H297V259.481H300V256.483Z" fill="#3E83C4"/>
<path opacity="0.2" d="M305 228.504H302V231.502H305V228.504Z" fill="#3E83C4"/>
<path opacity="0.2" d="M305 256.483H302V259.481H305V256.483Z" fill="#3E83C4"/>
<path opacity="0.2" d="M310 228.504H307V231.502H310V228.504Z" fill="#3E83C4"/>
<path opacity="0.2" d="M310 256.483H307V259.481H310V256.483Z" fill="#3E83C4"/>
<path opacity="0.2" d="M315 228.504H312V231.502H315V228.504Z" fill="#3E83C4"/>
<path opacity="0.2" d="M315 256.483H312V259.481H315V256.483Z" fill="#3E83C4"/>
<path opacity="0.2" d="M320 228.504H317V231.502H320V228.504Z" fill="#3E83C4"/>
<path opacity="0.2" d="M320 256.483H317V259.481H320V256.483Z" fill="#3E83C4"/>
<path opacity="0.2" d="M345 252.486H342V255.484H345V252.486Z" fill="#3E83C4"/>
<path d="M325 228.504H322V231.502H325V228.504Z" fill="#3E83C4"/>
<path d="M350 228.504H347V231.502H350V228.504Z" fill="#3E83C4"/>
<path d="M325 256.483H322V259.481H325V256.483Z" fill="#3E83C4"/>
<path d="M350 256.483H347V259.481H350V256.483Z" fill="#3E83C4"/>
<path opacity="0.2" d="M330 228.504H327V231.502H330V228.504Z" fill="#3E83C4"/>
<path opacity="0.2" d="M355 228.504H352V231.502H355V228.504Z" fill="#3E83C4"/>
<path opacity="0.2" d="M330 256.483H327V259.481H330V256.483Z" fill="#3E83C4"/>
<path opacity="0.2" d="M355 256.483H352V259.481H355V256.483Z" fill="#3E83C4"/>
<path opacity="0.2" d="M335 228.504H332V231.502H335V228.504Z" fill="#3E83C4"/>
<path opacity="0.2" d="M360 228.504H357V231.502H360V228.504Z" fill="#3E83C4"/>
<path opacity="0.2" d="M335 256.483H332V259.481H335V256.483Z" fill="#3E83C4"/>
<path opacity="0.2" d="M360 256.483H357V259.481H360V256.483Z" fill="#3E83C4"/>
<path opacity="0.2" d="M340 228.504H337V231.502H340V228.504Z" fill="#3E83C4"/>
<path opacity="0.2" d="M365 228.504H362V231.502H365V228.504Z" fill="#3E83C4"/>
<path opacity="0.2" d="M340 256.483H337V259.481H340V256.483Z" fill="#3E83C4"/>
<path opacity="0.2" d="M345 256.483H342V259.481H345V256.483Z" fill="#3E83C4"/>
<path opacity="0.2" d="M365 256.483H362V259.481H365V256.483Z" fill="#3E83C4"/>
<path opacity="0.1" d="M405.716 294.084V300.015L336.415 300.654L335.676 300.667L309.336 300.909L308.707 300.918L300.701 300.987H300.464L251.663 301.438L171.554 302.182H171.486L151.118 302.374L150.899 302.378L60.3948 303.208V296.365L152.774 295.758H152.993L171.691 295.631H171.778L300.911 294.777H301.043L301.121 294.773H301.335L303.52 294.759H304.186L338.166 294.531L340.173 294.522L340.62 294.517L405.716 294.084Z" fill="black"/>
<path opacity="0.1" d="M231.915 244.447C231.915 244.447 257.232 252.659 265.672 253.8C274.111 254.94 231.915 244.447 231.915 244.447Z" fill="black"/>
<path opacity="0.1" d="M302.589 272.551L302.544 273.203V273.249L302.466 274.298L301.86 282.743L301.125 292.917L300.915 295.782L300.459 301.914V301.991L251.649 302.447L171.55 303.314V303.697H171.486V303.186L171.691 296.635L172.084 283.833L172.421 272.98L172.453 271.898C172.473 271.246 172.626 270.604 172.902 270.012C173.178 269.421 173.572 268.892 174.06 268.458C174.547 268.023 175.118 267.693 175.738 267.487C176.357 267.281 177.012 267.203 177.663 267.259C179.816 267.441 182.612 267.665 185.956 267.902L187.324 268.002C206.634 269.344 242.32 271.077 278.33 268.915C279.087 268.874 279.849 268.828 280.611 268.773C286.195 268.422 291.774 267.97 297.298 267.405C297.996 267.331 298.702 267.412 299.366 267.641C300.03 267.871 300.635 268.242 301.139 268.731C301.644 269.219 302.035 269.812 302.286 270.469C302.536 271.125 302.64 271.828 302.589 272.528V272.551Z" fill="black"/>
<g filter="url(#filter0_d)">
<path d="M265.298 240.579C261.673 243.836 267.702 266.163 284.295 277.577C288.843 280.705 292.82 279.288 295.878 274.353C298.701 269.796 298.71 265.908 299.901 260.682C301.017 255.791 311.972 249.022 310.363 247.012C308.753 245.002 301.108 244.6 295.878 248.621C290.647 252.641 287.026 260.682 287.026 260.682C282.198 259.476 273.748 234.549 265.298 240.579Z" fill="#231F20"/>
<path d="M206.344 241.817C209.793 244.681 204.541 266.033 189.212 277.7C185.011 280.898 181.265 279.785 178.318 275.309C175.597 271.177 175.521 267.517 174.315 262.665C173.185 258.122 162.817 252.36 164.288 250.378C165.759 248.396 172.905 247.593 177.87 251.087C182.834 254.581 186.363 261.949 186.363 261.949C190.86 260.545 198.332 236.61 206.344 241.817Z" fill="#231F20"/>
<path d="M204.762 245.079C205.684 242.24 207.142 240.476 208.14 237.561C206.375 233.572 204.762 227.971 204.762 223.292C204.757 215.024 207.963 207.076 213.706 201.123C219.448 195.17 227.279 191.677 235.548 191.379C235.701 191.379 235.932 191.302 236.085 191.302L236.776 191.302C242.256 191.287 247.647 192.682 252.431 195.352C257.215 198.022 261.231 201.878 264.092 206.548C266.953 211.218 268.563 216.545 268.768 222.017C268.972 227.489 267.763 232.921 265.258 237.791C275.546 259.118 282.148 286.351 282.148 298.012C282.148 298.012 259.604 303.277 234.5 303.277C209.396 303.277 191.097 298.012 191.097 298.012C191.174 287.655 196.394 264.948 204.762 245.079Z" fill="#231F20"/>
<path d="M238.694 192.069C238.694 192.069 232.553 182.787 226.411 181.866C233.09 188.464 232.015 189.845 232.015 189.845C232.015 189.845 228.714 184.781 225.413 183.938C230.096 189.001 228.944 192.069 228.944 192.069C228.693 191.015 228.23 190.022 227.583 189.152C226.936 188.282 226.12 187.552 225.182 187.006C226.746 189.186 227.652 191.769 227.793 194.447" fill="#231F20"/>
<path d="M264.029 215.927L267.33 212.476" stroke="#F78632" stroke-width="1.40728" stroke-miterlimit="10" stroke-linecap="round"/>
<path d="M208.831 215.926L205.529 212.475" stroke="#F78632" stroke-width="1.40728" stroke-miterlimit="10" stroke-linecap="round"/>
</g>
<path d="M171.536 303.696V303.313L251 303.776H300.596V301.985V301.908L301.052 295.776L301.248 293.039L301.996 282.724L302.585 274.557V274.356C302.612 273.98 302.595 273.602 302.535 273.23C302.537 273.214 302.537 273.199 302.535 273.184C302.409 272.414 302.096 271.687 301.622 271.067C301.12 270.423 300.462 269.917 299.71 269.598C298.958 269.279 298.137 269.156 297.325 269.242C291.801 269.808 286.222 270.26 280.638 270.611C279.877 270.666 279.115 270.711 278.358 270.752C242.348 272.892 206.661 271.158 187.352 269.84L185.983 269.739C182.639 269.502 179.843 269.283 177.69 269.096C176.505 268.996 175.326 269.339 174.379 270.057C173.432 270.776 172.785 271.82 172.563 272.988C172.516 273.235 172.489 273.485 172.48 273.736L172.17 283.846L171.746 296.652L171.545 303.204V303.715L171.536 303.696Z" fill="#788392"/>
<path opacity="0.1" d="M302.726 275.749L302.165 282.742L301.33 293.167L301.121 295.777L300.664 301.621L300.486 301.991L251.676 302.447L171.55 303.314V303.186L171.773 296.635L172.23 283.833L172.521 275.324C172.536 274.84 172.671 274.367 172.915 273.949C173.159 273.531 173.503 273.18 173.917 272.929C174.434 272.612 175.038 272.469 175.642 272.518C176.6 272.596 177.777 272.687 179.15 272.788C181.38 272.952 184.131 273.143 187.333 273.344C193.264 273.718 200.704 274.12 209.23 274.448C232.95 275.361 264.974 275.666 295.391 273.002C296.76 272.883 298.174 272.751 299.556 272.619C300.103 272.564 300.654 272.669 301.143 272.92C301.282 272.989 301.413 273.071 301.536 273.166C301.933 273.454 302.247 273.841 302.448 274.289C302.495 274.378 302.533 274.471 302.562 274.567C302.699 274.945 302.755 275.348 302.726 275.749Z" fill="black"/>
<path opacity="0.1" d="M147.979 281.994V283.45C147.98 283.979 147.83 284.497 147.547 284.945C147.265 285.392 146.861 285.75 146.383 285.977L128.09 286.328C127.604 286.105 127.192 285.747 126.903 285.297C126.615 284.846 126.461 284.322 126.462 283.787V282.418L147.979 281.994Z" fill="black"/>
<path d="M148.208 286.834L124.373 287.291V283.335L148.208 282.879V286.834Z" fill="#6C7683"/>
<path d="M148.208 286.834L124.373 287.291V283.335L148.208 282.879V286.834Z" fill="#6C7683"/>
<path d="M149.12 286.834L125.285 287.291V283.335L149.12 282.879V286.834Z" fill="#788392"/>
<path fill-rule="evenodd" clip-rule="evenodd" d="M75.0154 246.818H76.5233V250.36H80.2934V251.776H76.5233V255.317H75.0154V251.776H72V250.36H75.0154V246.818Z" fill="#47E6B1"/>
<path fill-rule="evenodd" clip-rule="evenodd" d="M401.015 184.864H402.523V188.406H406.293V189.822H402.523V193.363H401.015V189.822H398V188.406H401.015V184.864Z" fill="#47E6B1"/>
<path d="M304.209 10.228C303.792 10.0573 303.456 9.74832 303.266 9.35989C303.075 8.97146 303.044 8.53078 303.177 8.12189C303.198 8.05864 303.211 7.99326 303.216 7.92711C303.23 7.73905 303.178 7.55189 303.069 7.39363C302.96 7.23537 302.8 7.11453 302.612 7.0492C302.424 6.98387 302.218 6.97755 302.026 7.0312C301.834 7.08486 301.665 7.19559 301.546 7.34682C301.504 7.39961 301.469 7.45682 301.442 7.51726C301.261 7.90937 300.932 8.22496 300.519 8.40383C300.106 8.5827 299.637 8.61235 299.202 8.48711C299.135 8.46725 299.065 8.455 298.995 8.45059C298.793 8.43691 298.592 8.48545 298.423 8.58885C298.253 8.69225 298.124 8.84486 298.056 9.02347C297.987 9.20209 297.982 9.39696 298.041 9.57847C298.101 9.75998 298.222 9.91822 298.386 10.0291C298.442 10.0682 298.503 10.1009 298.567 10.1265C298.985 10.2972 299.32 10.6062 299.51 10.9946C299.701 11.383 299.732 11.8237 299.599 12.2326C299.578 12.2959 299.565 12.3612 299.56 12.4274C299.544 12.618 299.595 12.8083 299.705 12.969C299.815 13.1298 299.978 13.2521 300.17 13.3171C300.361 13.3821 300.57 13.3862 300.764 13.3289C300.958 13.2715 301.126 13.1558 301.243 12.9996C301.285 12.9468 301.32 12.8896 301.347 12.8291C301.529 12.437 301.857 12.1214 302.27 11.9425C302.683 11.7637 303.152 11.734 303.587 11.8593C303.654 11.8791 303.724 11.8914 303.794 11.8958C303.994 11.9087 304.193 11.8603 304.362 11.7579C304.53 11.6555 304.659 11.5046 304.728 11.3278C304.797 11.151 304.804 10.9577 304.747 10.777C304.69 10.5963 304.572 10.4379 304.411 10.3254C304.349 10.2849 304.28 10.2521 304.209 10.228Z" fill="#4D8AF0"/>
<path d="M107.475 158.292C107.056 158.121 106.719 157.811 106.528 157.421C106.337 157.032 106.306 156.59 106.439 156.18C106.461 156.116 106.474 156.051 106.478 155.984C106.492 155.796 106.441 155.608 106.331 155.449C106.222 155.291 106.061 155.17 105.872 155.104C105.683 155.039 105.477 155.032 105.284 155.086C105.091 155.14 104.922 155.251 104.802 155.402C104.76 155.455 104.725 155.513 104.698 155.573C104.516 155.967 104.186 156.283 103.771 156.462C103.357 156.642 102.886 156.672 102.45 156.546C102.382 156.526 102.312 156.514 102.242 156.509C102.041 156.496 101.841 156.545 101.672 156.648C101.503 156.75 101.374 156.902 101.304 157.079C101.235 157.256 101.228 157.45 101.285 157.631C101.343 157.812 101.461 157.971 101.622 158.084C101.679 158.123 101.74 158.156 101.804 158.182C102.223 158.353 102.56 158.663 102.751 159.052C102.942 159.442 102.973 159.884 102.839 160.294C102.818 160.357 102.805 160.423 102.8 160.489C102.787 160.678 102.838 160.865 102.948 161.024C103.057 161.183 103.218 161.304 103.407 161.37C103.596 161.435 103.802 161.441 103.995 161.388C104.188 161.334 104.357 161.223 104.477 161.071C104.519 161.018 104.554 160.961 104.581 160.9C104.763 160.507 105.093 160.19 105.508 160.011C105.922 159.832 106.393 159.802 106.829 159.928C106.897 159.947 106.967 159.96 107.037 159.964C107.238 159.977 107.438 159.929 107.607 159.826C107.776 159.723 107.905 159.572 107.975 159.395C108.044 159.217 108.051 159.024 107.994 158.842C107.936 158.661 107.818 158.502 107.657 158.389C107.6 158.35 107.539 158.317 107.475 158.292Z" fill="#FDD835"/>
<path d="M431.228 267.048C430.81 266.876 430.473 266.567 430.282 266.177C430.091 265.788 430.059 265.346 430.193 264.936C430.214 264.872 430.227 264.807 430.232 264.74C430.245 264.552 430.194 264.364 430.085 264.205C429.975 264.047 429.814 263.925 429.625 263.86C429.437 263.794 429.23 263.788 429.037 263.842C428.845 263.896 428.675 264.007 428.555 264.158C428.514 264.211 428.479 264.269 428.451 264.329C428.269 264.722 427.939 265.039 427.525 265.218C427.11 265.398 426.639 265.427 426.203 265.302C426.135 265.282 426.066 265.27 425.995 265.265C425.794 265.252 425.594 265.301 425.425 265.404C425.256 265.506 425.127 265.658 425.058 265.835C424.988 266.012 424.981 266.206 425.039 266.387C425.096 266.568 425.214 266.727 425.375 266.84C425.432 266.879 425.493 266.912 425.557 266.938C425.976 267.109 426.313 267.419 426.504 267.808C426.695 268.198 426.726 268.64 426.593 269.05C426.572 269.113 426.558 269.179 426.554 269.245C426.54 269.434 426.592 269.621 426.701 269.78C426.81 269.939 426.971 270.06 427.16 270.125C427.349 270.191 427.555 270.197 427.748 270.143C427.941 270.09 428.11 269.979 428.23 269.827C428.272 269.774 428.307 269.717 428.334 269.656C428.516 269.263 428.846 268.946 429.261 268.767C429.676 268.588 430.146 268.558 430.583 268.683C430.65 268.703 430.72 268.716 430.791 268.72C430.991 268.733 431.191 268.684 431.36 268.582C431.529 268.479 431.658 268.328 431.728 268.15C431.798 267.973 431.804 267.779 431.747 267.598C431.69 267.417 431.572 267.258 431.41 267.145C431.354 267.106 431.293 267.073 431.228 267.048Z" fill="#FDD835"/>
<path d="M196.016 60.6257C197.681 60.6257 199.032 59.3574 199.032 57.7928C199.032 56.2283 197.681 54.96 196.016 54.96C194.35 54.96 193 56.2283 193 57.7928C193 59.3574 194.35 60.6257 196.016 60.6257Z" fill="#F55F44"/>
<path d="M423.016 90.6032C424.681 90.6032 426.032 89.3349 426.032 87.7704C426.032 86.2058 424.681 84.9375 423.016 84.9375C421.35 84.9375 420 86.2058 420 87.7704C420 89.3349 421.35 90.6032 423.016 90.6032Z" fill="#F55F44"/>
<path d="M357.016 126.577C358.681 126.577 360.032 125.309 360.032 123.744C360.032 122.179 358.681 120.911 357.016 120.911C355.35 120.911 354 122.179 354 123.744C354 125.309 355.35 126.577 357.016 126.577Z" fill="#4D8AF0"/>
<path opacity="0.5" d="M44.0158 86.6071C45.6814 86.6071 47.0316 85.3388 47.0316 83.7743C47.0316 82.2097 45.6814 80.9414 44.0158 80.9414C42.3502 80.9414 41 82.2097 41 83.7743C41 85.3388 42.3502 86.6071 44.0158 86.6071Z" fill="#47E6B1"/>
<defs>
<filter id="filter0_d" x="162.197" y="181.217" width="150.275" height="125.307" filterUnits="userSpaceOnUse" color-interpolation-filters="sRGB">
<feFlood flood-opacity="0" result="BackgroundImageFix"/>
<feColorMatrix in="SourceAlpha" type="matrix" values="0 0 0 0 0 0 0 0 0 0 0 0 0 0 0 0 0 0 127 0"/>
<feOffset dy="1.29882"/>
<feGaussianBlur stdDeviation="0.974118"/>
<feColorMatrix type="matrix" values="0 0 0 0 0.5875 0 0 0 0 0.5875 0 0 0 0 0.5875 0 0 0 0.15 0"/>
<feBlend mode="normal" in2="BackgroundImageFix" result="effect1_dropShadow"/>
<feBlend mode="normal" in="SourceGraphic" in2="effect1_dropShadow" result="shape"/>
</filter>
</defs>
</svg>
