<svg width="32" height="32" viewBox="0 0 32 32" fill="none" xmlns="http://www.w3.org/2000/svg">
<mask id="mask0" mask-type="alpha" maskUnits="userSpaceOnUse" x="0" y="0" width="32" height="32">
<circle cx="16" cy="16" r="16" fill="#C4C4C4"/>
</mask>
<g mask="url(#mask0)">
<path d="M2.7027 36.9801H29.6672C27.4172 29.592 22.1578 24.4048 16.003 24.4048C9.84817 24.4048 4.57716 29.6007 2.33301 37.0003C2.45573 36.9863 2.57918 36.9796 2.7027 36.9801Z" fill="#FA5555"/>
<mask id="mask1" mask-type="alpha" maskUnits="userSpaceOnUse" x="2" y="24" width="28" height="14">
<path d="M2.7027 36.9801H29.6672C27.4172 29.592 22.1578 24.4048 16.003 24.4048C9.84817 24.4048 4.57716 29.6007 2.33301 37.0003C2.45573 36.9863 2.57918 36.9796 2.7027 36.9801Z" fill="#D85A2C"/>
</mask>
<g mask="url(#mask1)">
<path d="M15.9484 29.5629C18.3076 29.5629 20.2201 27.6504 20.2201 25.2912C20.2201 22.932 18.3076 21.0195 15.9484 21.0195C13.5893 21.0195 11.6768 22.932 11.6768 25.2912C11.6768 27.6504 13.5893 29.5629 15.9484 29.5629Z" stroke="#EDA18A" stroke-width="0.320418" stroke-miterlimit="10"/>
</g>
<path d="M13.0195 18.3081H19.0675V25.442C19.0667 26.2435 18.7478 27.0119 18.1808 27.5784C17.6137 28.1449 16.845 28.4631 16.0435 28.4631C15.242 28.4631 14.4733 28.1449 13.9063 27.5784C13.3392 27.0119 13.0203 26.2435 13.0195 25.442V18.3081Z" fill="#F7CBB5"/>
<mask id="mask2" mask-type="alpha" maskUnits="userSpaceOnUse" x="13" y="18" width="7" height="11">
<path d="M13.0195 18.3081H19.0675V25.442C19.0667 26.2435 18.7478 27.0119 18.1808 27.5784C17.6137 28.1449 16.845 28.4631 16.0435 28.4631C15.242 28.4631 14.4733 28.1449 13.9063 27.5784C13.3392 27.0119 13.0203 26.2435 13.0195 25.442V18.3081Z" fill="#F7CBB5"/>
</mask>
<g mask="url(#mask2)">
<path d="M12.1875 24.2963C12.1875 24.2963 14.8215 27.7362 20.1417 25.9628C23.3851 24.8797 21.3778 21.772 21.3778 21.772L11.812 24.1894" fill="#EDA18A"/>
</g>
<path d="M7.9417 19.0294C9.6772 19.0294 11.0841 17.6225 11.0841 15.887C11.0841 14.1515 9.6772 12.7446 7.9417 12.7446C6.20621 12.7446 4.79932 14.1515 4.79932 15.887C4.79932 17.6225 6.20621 19.0294 7.9417 19.0294Z" fill="#EDA18A"/>
<path d="M24.1448 19.0294C25.8803 19.0294 27.2872 17.6225 27.2872 15.887C27.2872 14.1515 25.8803 12.7446 24.1448 12.7446C22.4093 12.7446 21.0024 14.1515 21.0024 15.887C21.0024 17.6225 22.4093 19.0294 24.1448 19.0294Z" fill="#EDA18A"/>
<path d="M16.0812 25.2993C20.8283 25.2993 24.6766 20.8226 24.6766 15.3003C24.6766 9.77799 20.8283 5.30127 16.0812 5.30127C11.3341 5.30127 7.48584 9.77799 7.48584 15.3003C7.48584 20.8226 11.3341 25.2993 16.0812 25.2993Z" fill="#F7CBB5"/>
<path d="M12.0546 16.5601C12.321 16.5601 12.5369 16.1269 12.5369 15.5926C12.5369 15.0582 12.321 14.625 12.0546 14.625C11.7882 14.625 11.5723 15.0582 11.5723 15.5926C11.5723 16.1269 11.7882 16.5601 12.0546 16.5601Z" fill="#374656"/>
<path d="M19.7924 16.5601C20.0588 16.5601 20.2747 16.1269 20.2747 15.5926C20.2747 15.0582 20.0588 14.625 19.7924 14.625C19.526 14.625 19.3101 15.0582 19.3101 15.5926C19.3101 16.1269 19.526 16.5601 19.7924 16.5601Z" fill="#374656"/>
<path d="M15.2784 14.9487C15.2784 14.9487 14.8221 18.4233 15.2438 18.8854C15.6655 19.3475 16.6879 18.819 17.0518 18.5966" stroke="#EDA18A" stroke-width="0.320418" stroke-linecap="round" stroke-linejoin="round"/>
<path d="M14.2842 20.427C14.2842 20.427 14.9283 21.6112 16.1644 21.3945C17.4006 21.1779 17.6692 20.375 17.6692 20.375" stroke="#EDA18A" stroke-width="0.320418" stroke-linecap="round" stroke-linejoin="round"/>
<path d="M10.6307 19.3549C11.5208 19.3549 12.2423 18.8131 12.2423 18.1447C12.2423 17.4764 11.5208 16.9346 10.6307 16.9346C9.74059 16.9346 9.01904 17.4764 9.01904 18.1447C9.01904 18.8131 9.74059 19.3549 10.6307 19.3549Z" fill="#F2A0A0"/>
<path d="M21.5916 19.3549C22.4817 19.3549 23.2032 18.8131 23.2032 18.1447C23.2032 17.4764 22.4817 16.9346 21.5916 16.9346C20.7015 16.9346 19.98 17.4764 19.98 18.1447C19.98 18.8131 20.7015 19.3549 21.5916 19.3549Z" fill="#F2A0A0"/>
<path d="M13.1 12.5316C13.1 12.5316 12.2942 12.1042 10.9512 12.6934" stroke="#374656" stroke-width="0.961253" stroke-linecap="round" stroke-linejoin="round"/>
<path d="M18.8506 12.5316C18.8506 12.5316 19.6564 12.1042 20.9994 12.6934" stroke="#374656" stroke-width="0.961253" stroke-linecap="round" stroke-linejoin="round"/>
<path d="M7.48535 14.7316C7.48535 14.7316 7.67449 10.9789 8.39803 8.71541C8.74636 7.62571 9.49986 6.00107 9.49986 6.00107C9.49986 6.00107 11.4999 4.99951 16.4999 4.99951C21.4999 4.99951 23.4999 6.00107 23.4999 6.00107L24.3121 9.57322C24.3121 9.57322 24.9447 13.8276 24.6818 15.3006C24.6818 15.3006 23.6681 8.71541 20.5517 7.96159C18.3595 7.43304 15.5088 7.7623 13.1376 7.6381C8.93813 7.42438 7.48535 14.7316 7.48535 14.7316Z" fill="#374656"/>
</g>
</svg>
