<svg width="32" height="32" viewBox="0 0 32 32" fill="none" xmlns="http://www.w3.org/2000/svg">
<circle cx="16" cy="16" r="16" fill="#CCD4DE"/>
<circle cx="16" cy="16" r="16" fill="#EDEDED"/>
<mask id="mask0" mask-type="alpha" maskUnits="userSpaceOnUse" x="0" y="0" width="32" height="32">
<circle cx="16" cy="16" r="16" fill="#C4C4C4"/>
</mask>
<g mask="url(#mask0)">
<path d="M-0.717292 32.9837H19.9027C18.1821 27.3339 14.1602 23.3672 9.45355 23.3672C4.74691 23.3672 0.716123 27.3406 -1 32.9991C-0.906151 32.9884 -0.811751 32.9832 -0.717292 32.9837Z" fill="#FA5555"/>
<mask id="mask1" mask-type="alpha" maskUnits="userSpaceOnUse" x="-1" y="23" width="21" height="10">
<path d="M-0.717292 32.9837H19.9027C18.1821 27.3339 14.1602 23.3672 9.45355 23.3672C4.74691 23.3672 0.716123 27.3406 -1 32.9991C-0.906151 32.9884 -0.811751 32.9832 -0.717292 32.9837Z" fill="#D85A2C"/>
</mask>
<g mask="url(#mask1)">
<path d="M9.4121 27.312C11.2162 27.312 12.6787 25.8495 12.6787 24.0454C12.6787 22.2413 11.2162 20.7788 9.4121 20.7788C7.60801 20.7788 6.14551 22.2413 6.14551 24.0454C6.14551 25.8495 7.60801 27.312 9.4121 27.312Z" stroke="#EDA18A" stroke-width="0.245026" stroke-miterlimit="10"/>
</g>
<path d="M7.17188 18.7061H11.7968V24.1614C11.7962 24.7743 11.5523 25.362 11.1187 25.7952C10.6851 26.2283 10.0973 26.4717 9.48433 26.4717C8.87141 26.4717 8.28357 26.2283 7.84996 25.7952C7.41635 25.362 7.17246 24.7743 7.17188 24.1614V18.7061Z" fill="#F7CBB5"/>
<mask id="mask2" mask-type="alpha" maskUnits="userSpaceOnUse" x="7" y="18" width="5" height="9">
<path d="M7.17188 18.7061H11.7968V24.1614C11.7962 24.7743 11.5523 25.362 11.1187 25.7952C10.6851 26.2283 10.0973 26.4717 9.48433 26.4717C8.87141 26.4717 8.28357 26.2283 7.84996 25.7952C7.41635 25.362 7.17246 24.7743 7.17188 24.1614V18.7061Z" fill="#F7CBB5"/>
</mask>
<g mask="url(#mask2)">
<path d="M6.53566 23.2888C6.53566 23.2888 8.54995 25.9193 12.6183 24.5632C15.0986 23.7349 13.5636 21.3584 13.5636 21.3584L6.24854 23.207" fill="#EDA18A"/>
</g>
<path d="M3.28876 19.2592C4.6159 19.2592 5.69177 18.1833 5.69177 16.8561C5.69177 15.529 4.6159 14.4531 3.28876 14.4531C1.96161 14.4531 0.885742 15.529 0.885742 16.8561C0.885742 18.1833 1.96161 19.2592 3.28876 19.2592Z" fill="#EDA18A"/>
<path d="M15.6794 19.2592C17.0065 19.2592 18.0824 18.1833 18.0824 16.8561C18.0824 15.529 17.0065 14.4531 15.6794 14.4531C14.3522 14.4531 13.2764 15.529 13.2764 16.8561C13.2764 18.1833 14.3522 19.2592 15.6794 19.2592Z" fill="#EDA18A"/>
<path d="M9.51338 24.0534C13.1435 24.0534 16.0863 20.6301 16.0863 16.4071C16.0863 12.1841 13.1435 8.76074 9.51338 8.76074C5.88324 8.76074 2.94043 12.1841 2.94043 16.4071C2.94043 20.6301 5.88324 24.0534 9.51338 24.0534Z" fill="#F7CBB5"/>
<path d="M6.43427 17.3709C6.63798 17.3709 6.80312 17.0396 6.80312 16.631C6.80312 16.2224 6.63798 15.8911 6.43427 15.8911C6.23057 15.8911 6.06543 16.2224 6.06543 16.631C6.06543 17.0396 6.23057 17.3709 6.43427 17.3709Z" fill="#374656"/>
<path d="M12.3513 17.3709C12.555 17.3709 12.7201 17.0396 12.7201 16.631C12.7201 16.2224 12.555 15.8911 12.3513 15.8911C12.1476 15.8911 11.9824 16.2224 11.9824 16.631C11.9824 17.0396 12.1476 17.3709 12.3513 17.3709Z" fill="#374656"/>
<path d="M8.89959 16.1382C8.89959 16.1382 8.55062 18.7952 8.87308 19.1486C9.19555 19.502 9.97741 19.0978 10.2557 18.9277" stroke="#EDA18A" stroke-width="0.245026" stroke-linecap="round" stroke-linejoin="round"/>
<path d="M8.13867 20.3278C8.13867 20.3278 8.6312 21.2334 9.5765 21.0677C10.5218 20.9021 10.7272 20.2881 10.7272 20.2881" stroke="#EDA18A" stroke-width="0.245026" stroke-linecap="round" stroke-linejoin="round"/>
<path d="M5.34571 19.5066C6.02636 19.5066 6.57814 19.0923 6.57814 18.5812C6.57814 18.0701 6.02636 17.6558 5.34571 17.6558C4.66506 17.6558 4.11328 18.0701 4.11328 18.5812C4.11328 19.0923 4.66506 19.5066 5.34571 19.5066Z" fill="#F2A0A0"/>
<path d="M13.7271 19.5066C14.4077 19.5066 14.9595 19.0923 14.9595 18.5812C14.9595 18.0701 14.4077 17.6558 13.7271 17.6558C13.0464 17.6558 12.4946 18.0701 12.4946 18.5812C12.4946 19.0923 13.0464 19.5066 13.7271 19.5066Z" fill="#F2A0A0"/>
<path d="M7.23406 14.2889C7.23406 14.2889 6.61784 13.962 5.59082 14.4126" stroke="#374656" stroke-width="0.735079" stroke-linecap="round" stroke-linejoin="round"/>
<path d="M11.6313 14.2889C11.6313 14.2889 12.2476 13.962 13.2746 14.4126" stroke="#374656" stroke-width="0.735079" stroke-linecap="round" stroke-linejoin="round"/>
<path d="M2.94005 15.9712C2.94005 15.9712 2.65293 12.8482 3.63799 11.3706L1.8291 9.80905C1.8291 9.80905 6.10505 6.77878 8.73335 7.0129C11.3616 7.24702 12.7619 8.65835 12.7619 8.65835C14.308 8.10839 15.7834 8.12385 16.9584 10.1359L15.8077 12.0265C15.8077 12.0265 16.2914 15.2799 16.0904 16.4063C16.0904 16.4063 15.3151 11.3706 12.932 10.7941C11.2556 10.3899 9.07569 10.6417 7.26239 10.5467C4.05101 10.3833 2.94005 15.9712 2.94005 15.9712Z" fill="#374656"/>
<path d="M16.6786 15.7759C16.6786 15.7759 17.0272 22.4196 15.3047 24.5932C13.5823 26.7667 15.4277 29.0018 15.4277 29.0018L30.9913 29.781C30.9913 29.781 32.8162 26.1926 31.4014 24.8392C28.1205 21.6814 29.1253 16.35 29.1253 16.35L16.6786 15.7759Z" fill="#6A5A54"/>
<path d="M13.5205 32.9789H32.6724C31.073 27.7295 27.3411 24.0591 22.9734 24.0591C18.6058 24.0591 14.8533 27.75 13.2744 32.9994C13.3359 32.9789 13.4385 32.9789 13.5205 32.9789Z" fill="#D85A2C"/>
<path d="M13.5205 32.9789H32.6724C31.073 27.7295 27.3411 24.0591 22.9734 24.0591C18.6058 24.0591 14.8533 27.75 13.2744 32.9994C13.3359 32.9789 13.4385 32.9789 13.5205 32.9789Z" fill="#F4BB00"/>
<path d="M23.1374 27.5885C21.9481 27.5885 20.9844 26.6247 20.9844 25.4354V20.3911H25.27V25.4559C25.2905 26.6247 24.3267 27.5885 23.1374 27.5885Z" fill="#F7CBB5"/>
<mask id="mask3" mask-type="alpha" maskUnits="userSpaceOnUse" x="20" y="20" width="6" height="8">
<path d="M23.1374 27.5885C21.9481 27.5885 20.9844 26.6247 20.9844 25.4354V20.3911H25.27V25.4559C25.2905 26.6247 24.3267 27.5885 23.1374 27.5885Z" fill="#F7CBB5"/>
</mask>
<g mask="url(#mask3)">
<path d="M20.4101 23.1795C20.4101 23.1795 22.2761 25.6196 26.0491 24.3688C28.3457 23.6101 26.9308 21.3955 26.9308 21.3955L20.1436 23.118" fill="#EDA18A"/>
</g>
<path d="M17.2321 19.0175C18.4665 19.0175 19.4672 18.0168 19.4672 16.7824C19.4672 15.548 18.4665 14.5474 17.2321 14.5474C15.9977 14.5474 14.9971 15.548 14.9971 16.7824C14.9971 18.0168 15.9977 19.0175 17.2321 19.0175Z" fill="#EDA18A"/>
<path d="M28.7356 19.0175C29.97 19.0175 30.9706 18.0168 30.9706 16.7824C30.9706 15.548 29.97 14.5474 28.7356 14.5474C27.5012 14.5474 26.5005 15.548 26.5005 16.7824C26.5005 18.0168 27.5012 19.0175 28.7356 19.0175Z" fill="#EDA18A"/>
<path d="M23.0139 23.447C26.3887 23.447 29.1245 20.2705 29.1245 16.3522C29.1245 12.4338 26.3887 9.25732 23.0139 9.25732C19.6391 9.25732 16.9033 12.4338 16.9033 16.3522C16.9033 20.2705 19.6391 23.447 23.0139 23.447Z" fill="#F7CBB5"/>
<path d="M20.1645 17.8651C20.357 17.8651 20.5131 17.5621 20.5131 17.1884C20.5131 16.8147 20.357 16.5117 20.1645 16.5117C19.972 16.5117 19.8159 16.8147 19.8159 17.1884C19.8159 17.5621 19.972 17.8651 20.1645 17.8651Z" fill="#374656"/>
<path d="M25.6396 17.8646C25.8321 17.8646 25.9882 17.5616 25.9882 17.1879C25.9882 16.8142 25.8321 16.5112 25.6396 16.5112C25.4471 16.5112 25.291 16.8142 25.291 17.1879C25.291 17.5616 25.4471 17.8646 25.6396 17.8646Z" fill="#374656"/>
<path d="M22.4813 17.1714C22.4813 17.1714 22.1122 18.7913 22.4198 19.1194C22.7273 19.4475 22.9734 19.1399 23.24 18.9964" stroke="#EDA18A" stroke-width="0.205053" stroke-miterlimit="10" stroke-linecap="round" stroke-linejoin="round"/>
<path d="M21.7427 19.998C21.7427 19.998 22.1938 20.8388 23.0755 20.6747C23.9572 20.5312 24.1418 19.957 24.1418 19.957" stroke="#EDA18A" stroke-width="0.205053" stroke-miterlimit="10" stroke-linecap="round" stroke-linejoin="round"/>
<path d="M19.1385 19.8582C19.7727 19.8582 20.2868 19.4726 20.2868 18.997C20.2868 18.5213 19.7727 18.1357 19.1385 18.1357C18.5043 18.1357 17.9902 18.5213 17.9902 18.997C17.9902 19.4726 18.5043 19.8582 19.1385 19.8582Z" fill="#F2A0A0"/>
<path d="M26.9305 19.8582C27.5647 19.8582 28.0788 19.4726 28.0788 18.997C28.0788 18.5213 27.5647 18.1357 26.9305 18.1357C26.2963 18.1357 25.7822 18.5213 25.7822 18.997C25.7822 19.4726 26.2963 19.8582 26.9305 19.8582Z" fill="#F2A0A0"/>
<path d="M20.9022 15.1611C20.9022 15.1611 20.328 14.8535 19.3848 15.2841" stroke="#374656" stroke-width="0.205053" stroke-miterlimit="10" stroke-linecap="round" stroke-linejoin="round"/>
<path d="M24.9829 15.1611C24.9829 15.1611 25.5571 14.8535 26.5003 15.2841" stroke="#363C43" stroke-width="0.205053" stroke-miterlimit="10" stroke-linecap="round" stroke-linejoin="round"/>
<path d="M16.8008 17.6423C16.8008 17.6423 19.7126 14.2384 19.8356 11.2036C19.8356 11.2036 27.3405 17.5192 28.8989 17.7858C28.8989 17.7858 30.9905 13.2336 28.5914 10.2398C27.9147 9.39912 25.4951 7 22.7473 7C20.2867 7 19.8766 8.51739 19.8766 8.51739C19.8766 8.51739 18.3797 7.22556 17.0059 9.17356C14.2171 13.1516 16.8008 17.6423 16.8008 17.6423Z" fill="#6A5A54"/>
</g>
</svg>
