<svg width="32" height="32" viewBox="0 0 32 32" fill="none" xmlns="http://www.w3.org/2000/svg">
<circle cx="16" cy="16" r="16" fill="#CCD4DE"/>
<circle cx="16" cy="16" r="16" fill="#EDEDED"/>
<mask id="mask0" mask-type="alpha" maskUnits="userSpaceOnUse" x="0" y="0" width="32" height="32">
<circle cx="16" cy="16" r="16" fill="#C4C4C4"/>
</mask>
<g mask="url(#mask0)">
<path d="M3.33093 37.672H29.0883C26.9373 30.6122 21.9182 25.6758 16.0442 25.6758C10.1701 25.6758 5.12347 30.6397 3 37.6996C3.08273 37.672 3.22062 37.672 3.33093 37.672Z" fill="#374656"/>
<path d="M16.2648 30.418C14.6653 30.418 13.3691 29.1218 13.3691 27.5223V20.7383H19.1328V27.5499C19.1604 29.1494 17.8643 30.418 16.2648 30.418Z" fill="#F7CBB5"/>
<mask id="mask1" mask-type="alpha" maskUnits="userSpaceOnUse" x="13" y="20" width="7" height="11">
<path d="M16.2648 30.418C14.6653 30.418 13.3691 29.1218 13.3691 27.5223V20.7383H19.1328V27.5499C19.1604 29.1494 17.8643 30.418 16.2648 30.418Z" fill="#F7CBB5"/>
</mask>
<g mask="url(#mask1)">
<path d="M12.5968 24.4891C12.5968 24.4891 15.1063 27.7708 20.1806 26.0886C23.2693 25.0682 21.3664 22.0898 21.3664 22.0898L12.2383 24.4064" fill="#EDA18A"/>
</g>
<path d="M8.32235 18.8908C9.98249 18.8908 11.3283 17.545 11.3283 15.8849C11.3283 14.2247 9.98249 12.8789 8.32235 12.8789C6.66221 12.8789 5.31641 14.2247 5.31641 15.8849C5.31641 17.545 6.66221 18.8908 8.32235 18.8908Z" fill="#EDA18A"/>
<path d="M23.7935 18.8908C25.4537 18.8908 26.7995 17.545 26.7995 15.8849C26.7995 14.2247 25.4537 12.8789 23.7935 12.8789C22.1334 12.8789 20.7876 14.2247 20.7876 15.8849C20.7876 17.545 22.1334 18.8908 23.7935 18.8908Z" fill="#EDA18A"/>
<path d="M16.0994 24.8766C20.6382 24.8766 24.3175 20.6046 24.3175 15.3348C24.3175 10.065 20.6382 5.79297 16.0994 5.79297C11.5607 5.79297 7.88135 10.065 7.88135 15.3348C7.88135 20.6046 11.5607 24.8766 16.0994 24.8766Z" fill="#F7CBB5"/>
<path d="M12.2657 17.3455C12.5246 17.3455 12.7345 16.9381 12.7345 16.4354C12.7345 15.9328 12.5246 15.5254 12.2657 15.5254C12.0068 15.5254 11.7969 15.9328 11.7969 16.4354C11.7969 16.9381 12.0068 17.3455 12.2657 17.3455Z" fill="#374656"/>
<path d="M19.629 17.3455C19.8879 17.3455 20.0978 16.9381 20.0978 16.4354C20.0978 15.9328 19.8879 15.5254 19.629 15.5254C19.3701 15.5254 19.1602 15.9328 19.1602 16.4354C19.1602 16.9381 19.3701 17.3455 19.629 17.3455Z" fill="#374656"/>
<path d="M15.3821 16.4102C15.3821 16.4102 14.8857 18.5888 15.2994 19.03C15.713 19.4713 16.044 19.0576 16.4025 18.8646" stroke="#EDA18A" stroke-width="0.275775" stroke-miterlimit="10" stroke-linecap="round" stroke-linejoin="round"/>
<path d="M14.3896 20.2153C14.3896 20.2153 14.9964 21.346 16.1822 21.1254C17.368 20.9323 17.6162 20.1602 17.6162 20.1602" stroke="#EDA18A" stroke-width="0.275775" stroke-miterlimit="10" stroke-linecap="round" stroke-linejoin="round"/>
<path d="M10.8871 20.0216C11.74 20.0216 12.4315 19.503 12.4315 18.8633C12.4315 18.2236 11.74 17.7051 10.8871 17.7051C10.0342 17.7051 9.34277 18.2236 9.34277 18.8633C9.34277 19.503 10.0342 20.0216 10.8871 20.0216Z" fill="#F2A0A0"/>
<path d="M21.3666 20.0216C22.2195 20.0216 22.9109 19.503 22.9109 18.8633C22.9109 18.2236 22.2195 17.7051 21.3666 17.7051C20.5137 17.7051 19.8223 18.2236 19.8223 18.8633C19.8223 19.503 20.5137 20.0216 21.3666 20.0216Z" fill="#F2A0A0"/>
<path d="M13.259 13.7056C13.259 13.7056 12.4868 13.292 11.2183 13.8711" stroke="#374656" stroke-width="0.275775" stroke-miterlimit="10" stroke-linecap="round" stroke-linejoin="round"/>
<path d="M18.7466 13.7056C18.7466 13.7056 19.5188 13.292 20.7873 13.8711" stroke="#374656" stroke-width="0.275775" stroke-miterlimit="10" stroke-linecap="round" stroke-linejoin="round"/>
<path d="M10.2805 9.15644C10.2805 9.15644 13.2589 12.2451 16.2372 12.8518L16.1269 11.1972C16.1269 11.1972 21.3667 15.7199 22.9937 17.6503C24.6208 19.5807 21.5597 26.3648 21.5597 26.3648C21.5597 26.3648 27.1028 22.6694 27.8198 16.299C28.5368 9.87345 22.8007 2.23449 15.8236 3.06181C8.84648 3.88914 10.5839 5.92987 10.5839 5.92987C10.5839 5.92987 8.43282 5.32317 6.69544 7.3639C4.95805 9.40464 4.43408 15.6096 4.43408 17.2642C4.43408 21.5663 10.6942 22.173 10.6942 22.173C10.6942 22.173 7.1091 20.215 8.84648 14.6719C9.75654 11.8039 10.2805 9.15644 10.2805 9.15644Z" fill="#CD454B"/>
</g>
</svg>
