<svg width="32" height="32" viewBox="0 0 32 32" fill="none" xmlns="http://www.w3.org/2000/svg">
<circle cx="16" cy="16" r="16" fill="#CCD4DE"/>
<circle cx="16" cy="16" r="16" fill="#EDEDED"/>
<mask id="mask0" mask-type="alpha" maskUnits="userSpaceOnUse" x="0" y="0" width="32" height="32">
<circle cx="16" cy="16" r="16" fill="#C4C4C4"/>
</mask>
<g mask="url(#mask0)">
<path d="M2.39357 36.9702H30.67C28.3086 29.2199 22.7986 23.8008 16.3501 23.8008C9.87139 23.8008 4.36142 29.2199 2 37.0005C2.1211 36.9702 2.27247 36.9702 2.39357 36.9702Z" fill="#3E83C4"/>
<path d="M16.3805 28.0981C14.6246 28.0981 13.2017 26.6751 13.2017 24.9192V17.4414H19.529V24.9192C19.529 26.6751 18.1061 28.0981 16.3805 28.0981Z" fill="#F7CBB5"/>
<mask id="mask1" mask-type="alpha" maskUnits="userSpaceOnUse" x="13" y="17" width="7" height="12">
<path d="M16.3805 28.0981C14.6246 28.0981 13.2017 26.6751 13.2017 24.9192V17.4414H19.529V24.9192C19.529 26.6751 18.1061 28.0981 16.3805 28.0981Z" fill="#F7CBB5"/>
</mask>
<g mask="url(#mask1)">
<path d="M12.3237 23.6788C12.3237 23.6788 15.0787 27.2815 20.6492 25.4347C24.04 24.3146 21.9511 21.0449 21.9511 21.0449L11.9302 23.588" fill="#EDA18A"/>
</g>
<path d="M7.87366 18.1702C9.69616 18.1702 11.1736 16.6927 11.1736 14.8702C11.1736 13.0477 9.69616 11.5703 7.87366 11.5703C6.05116 11.5703 4.57373 13.0477 4.57373 14.8702C4.57373 16.6927 6.05116 18.1702 7.87366 18.1702Z" fill="#EDA18A"/>
<path d="M24.8575 18.1702C26.68 18.1702 28.1575 16.6927 28.1575 14.8702C28.1575 13.0477 26.68 11.5703 24.8575 11.5703C23.035 11.5703 21.5576 13.0477 21.5576 14.8702C21.5576 16.6927 23.035 18.1702 24.8575 18.1702Z" fill="#EDA18A"/>
<path d="M25.4328 14.2338C25.4328 20.0163 21.4063 24.7088 16.411 24.7088C11.4157 24.7088 7.38916 20.0465 7.38916 14.2338C7.38916 8.42109 10.0533 2.88085 16.5926 3.00195C23.2228 3.12305 25.4328 8.45137 25.4328 14.2338Z" fill="#F7CBB5"/>
<path d="M16.2594 17.8066C14.6246 17.8066 13.3228 19.2598 13.3228 21.0763C13.3228 22.8928 14.6246 24.3459 16.2594 24.3459C17.8942 24.3459 19.196 22.8928 19.196 21.0763C19.196 19.2901 17.8639 17.8066 16.2594 17.8066ZM16.2594 21.591C15.0181 21.591 14.0191 20.9552 14.0191 20.1681C14.0191 19.3809 15.0181 18.7452 16.2594 18.7452C17.5006 18.7452 18.4997 19.3809 18.4997 20.1681C18.4997 20.9552 17.4704 21.591 16.2594 21.591Z" fill="#CCD4DE"/>
<path d="M12.2022 15.5352C12.4864 15.5352 12.7168 15.0879 12.7168 14.5362C12.7168 13.9844 12.4864 13.5371 12.2022 13.5371C11.9179 13.5371 11.6875 13.9844 11.6875 14.5362C11.6875 15.0879 11.9179 15.5352 12.2022 15.5352Z" fill="#374656"/>
<path d="M20.2857 15.5352C20.5699 15.5352 20.8003 15.0879 20.8003 14.5362C20.8003 13.9844 20.5699 13.5371 20.2857 13.5371C20.0014 13.5371 19.771 13.9844 19.771 14.5362C19.771 15.0879 20.0014 15.5352 20.2857 15.5352Z" fill="#374656"/>
<path d="M15.9564 12.9004C15.9564 12.9004 14.6849 17.0177 15.139 17.5021C15.5931 17.9865 17.016 17.5324 17.4399 17.3508" stroke="#EDA18A" stroke-width="0.302746" stroke-miterlimit="10" stroke-linecap="round" stroke-linejoin="round"/>
<path d="M14.5337 19.6211C14.5337 19.6211 15.1997 20.8624 16.5015 20.6202C17.8033 20.378 18.0758 19.5605 18.0758 19.5605" stroke="#EDA18A" stroke-width="0.302746" stroke-miterlimit="10" stroke-linecap="round" stroke-linejoin="round"/>
<path d="M10.6885 18.502C11.6249 18.502 12.3839 17.9328 12.3839 17.2305C12.3839 16.5283 11.6249 15.959 10.6885 15.959C9.75221 15.959 8.99316 16.5283 8.99316 17.2305C8.99316 17.9328 9.75221 18.502 10.6885 18.502Z" fill="#F2A0A0"/>
<path d="M22.1929 18.502C23.1293 18.502 23.8883 17.9328 23.8883 17.2305C23.8883 16.5283 23.1293 15.959 22.1929 15.959C21.2566 15.959 20.4976 16.5283 20.4976 17.2305C20.4976 17.9328 21.2566 18.502 22.1929 18.502Z" fill="#F2A0A0"/>
<path d="M13.2921 11.3271C13.2921 11.3271 12.4444 10.8729 11.0518 11.5087" stroke="#CCD4DE" stroke-width="0.908237" stroke-miterlimit="10" stroke-linecap="round" stroke-linejoin="round"/>
<path d="M19.3174 11.3271C19.3174 11.3271 20.1651 10.8729 21.5577 11.5087" stroke="#CCD4DE" stroke-width="0.908237" stroke-miterlimit="10" stroke-linecap="round" stroke-linejoin="round"/>
</g>
</svg>
