<svg width="32" height="32" viewBox="0 0 32 32" fill="none" xmlns="http://www.w3.org/2000/svg">
<path d="M28.5024 11.8438C28.55 11.8438 28.55 11.8438 28.5024 11.8438C27.8836 9.58068 26.4077 7.64083 24.3606 6.25522C23.4086 5.6086 22.266 5.23911 21.3139 5.23911C20.7426 5.23911 20.219 5.37767 19.7905 5.6086C18.6479 6.25522 18.0767 7.17896 18.0767 8.33363C18.0767 10.2273 19.2193 11.3358 20.933 13.0447C21.8375 13.9223 22.8373 14.9384 23.837 16.1854C25.4556 18.2638 25.8365 21.1736 24.8843 23.8063C24.4559 24.9609 23.7894 25.9771 22.9801 26.8084C22.9801 26.8084 22.9801 26.8084 22.9325 26.8546C24.9796 25.7461 26.503 24.1296 27.4551 22.1897C29.3593 18.2177 27.9311 15.4464 27.1219 13.8299C26.6458 12.9061 26.3125 12.3057 26.6458 11.8438C27.0266 11.2896 27.6931 11.2896 28.5024 11.8438Z" fill="#00A0DE"/>
<path d="M19.2191 21.2658C18.0289 19.4645 16.2675 18.8179 14.4584 18.125C12.6494 17.4323 10.8404 16.7857 9.26937 14.9844C7.69837 13.2292 7.07949 10.9661 7.41274 8.65673C7.50795 7.91775 7.74598 7.22494 8.03161 6.62451C8.03161 6.62451 8.03161 6.57832 8.07922 6.57832C7.84119 6.6707 7.65076 6.80926 7.50795 6.94782C4.93722 9.30335 3.46143 12.5365 3.46143 16.0467C3.46143 21.4967 7.22231 26.4388 12.6494 28.0091C13.1731 28.1477 13.6967 28.1938 14.268 28.1938C16.077 28.1938 17.7432 27.4087 18.743 26.0692C19.2666 25.3765 19.5523 24.5912 19.6475 23.8522C19.8379 22.8823 19.6951 22.0048 19.2191 21.2658Z" fill="black"/>
<path d="M22.789 16.8776C21.8369 15.6767 20.8847 14.7068 20.0278 13.8293C18.2188 12.0741 16.8382 10.6424 16.8382 8.28681C16.8382 5.8389 18.6472 4.54567 20.3611 4.12999C20.2658 4.0838 20.1706 4.0838 20.0755 4.0838C18.8853 3.76049 17.5999 3.52956 16.3622 3.52956C14.2674 3.52956 12.6012 3.94524 10.9827 4.86898C9.79251 5.56178 8.88799 7.08595 8.64996 8.79487C8.45954 9.94955 8.45954 12.2127 10.221 14.1987C11.6015 15.7691 13.3154 16.4157 14.934 17.0162C16.8382 17.7552 18.8377 18.4942 20.2658 20.6188C21.218 22.0505 21.218 24.129 20.3135 25.8379C20.2658 25.9764 20.1706 26.0688 20.123 26.1612C20.123 26.2073 20.0755 26.2073 20.0755 26.2536C19.3613 27.362 18.2188 28.1934 17.0287 28.4706C17.6475 28.3782 18.2664 28.2396 18.8377 28.0549C18.8853 28.0549 18.9329 28.0086 19.0281 28.0086C19.1233 27.9625 19.1709 27.9625 19.2661 27.9163C19.4089 27.8701 19.5518 27.8239 19.647 27.7316C19.7422 27.6853 19.8374 27.6392 19.885 27.593C20.0754 27.5006 20.2658 27.362 20.5039 27.2696C20.5515 27.2696 20.5515 27.2235 20.5991 27.2235C20.8371 27.085 21.0275 26.9463 21.218 26.7616L21.2656 26.7154C21.456 26.5769 21.6464 26.3921 21.8369 26.2073C21.8845 26.1612 21.932 26.115 21.9797 26.0688C22.1225 25.9303 22.2177 25.7917 22.3605 25.6531C22.4557 25.5607 22.5509 25.4222 22.6462 25.3298C22.7414 25.1913 22.8366 25.0989 22.9318 24.9603C22.9794 24.9141 23.027 24.8217 23.0746 24.7756C23.0746 24.7756 23.0746 24.7294 23.1222 24.7294C23.4079 24.2675 23.6459 23.8057 23.8363 23.2976C24.5028 21.173 24.1696 18.6789 22.789 16.8776Z" fill="#00A0DE"/>
</svg>
