<svg width="123" height="24" viewBox="0 0 123 24" fill="none" xmlns="http://www.w3.org/2000/svg">
<path d="M4.43473 2.79553C4.25206 2.97298 4.06939 3.15043 3.88672 3.28352C4.06939 3.15043 4.20639 3.01735 4.38906 2.88426C4.38906 2.88426 4.43473 2.83989 4.43473 2.79553Z" fill="white"/>
<path d="M14.9055 23.5573C14.7228 23.6017 14.5401 23.646 14.3574 23.6904C14.5401 23.6904 14.7228 23.646 14.9055 23.5573Z" fill="white"/>
<path d="M24.0519 7.98577C24.0977 7.98577 24.0977 7.98577 24.0519 7.98577C23.4576 5.81202 22.04 3.94881 20.0738 2.61794C19.1594 1.99687 18.0619 1.64197 17.1474 1.64197C16.5987 1.64197 16.0958 1.77505 15.6842 1.99687C14.5868 2.61794 14.0381 3.50518 14.0381 4.61424C14.0381 6.4331 15.1355 7.49778 16.7816 9.13918C17.6504 9.98211 18.6107 10.958 19.5709 12.1558C21.1255 14.1521 21.4913 16.947 20.5768 19.4756C20.1653 20.5846 19.5251 21.5606 18.7478 22.3592C18.7478 22.3592 18.7478 22.3592 18.7021 22.4035C20.6683 21.3388 22.1315 19.7862 23.046 17.9229C24.875 14.1078 23.5032 11.446 22.7259 9.89338C22.2686 9.00611 21.9486 8.42938 22.2686 7.98577C22.6345 7.45344 23.2746 7.45344 24.0519 7.98577Z" fill="white"/>
<path d="M15.1351 17.0356C13.992 15.3054 12.3001 14.6844 10.5625 14.0189C8.82501 13.3535 7.08741 12.7324 5.5785 11.0023C4.06956 9.31649 3.47513 7.14276 3.79521 4.92465C3.88666 4.21485 4.11528 3.54942 4.38964 2.9727C4.38964 2.9727 4.38964 2.92834 4.43536 2.92834C4.20674 3.01707 4.02383 3.15016 3.88666 3.28324C1.41749 5.54572 0 8.65109 0 12.0226C0 17.2574 3.6123 22.0042 8.82501 23.5124C9.328 23.6456 9.83093 23.6899 10.3797 23.6899C12.1172 23.6899 13.7176 22.9358 14.6778 21.6492C15.1808 20.9838 15.4552 20.2296 15.5466 19.5198C15.7295 18.5882 15.5923 17.7454 15.1351 17.0356Z" fill="white"/>
<path d="M18.564 12.8207C17.6496 11.6673 16.735 10.7357 15.912 9.8928C14.1744 8.207 12.8484 6.8318 12.8484 4.56931C12.8484 2.21811 14.5859 0.975973 16.232 0.57671C16.1406 0.532347 16.0491 0.532347 15.9577 0.532347C14.8146 0.221811 13.58 0 12.3912 0C10.3792 0 8.7788 0.399261 7.22419 1.28651C6.08103 1.95194 5.21224 3.41589 4.98361 5.0573C4.80071 6.16636 4.80071 8.34013 6.49255 10.2477C7.81858 11.756 9.46471 12.3771 11.0194 12.9538C12.8484 13.6636 14.7688 14.3734 16.1406 16.4141C17.0551 17.7893 17.0551 19.7856 16.1864 21.427C16.1406 21.5601 16.0491 21.6488 16.0034 21.7375C16.0034 21.7819 15.9577 21.7819 15.9577 21.8263C15.2718 22.8909 14.1744 23.6895 13.0313 23.9557C13.6257 23.8669 14.2201 23.7338 14.7688 23.5564C14.8146 23.5564 14.8603 23.512 14.9517 23.512C15.0432 23.4677 15.0889 23.4677 15.1804 23.4233C15.3175 23.3789 15.4547 23.3346 15.5462 23.2459C15.6376 23.2015 15.7291 23.1571 15.7748 23.1127C15.9577 23.024 16.1406 22.8909 16.3692 22.8022C16.415 22.8022 16.415 22.7579 16.4607 22.7579C16.6893 22.6248 16.8722 22.4917 17.0551 22.3142L17.1008 22.2699C17.2837 22.1368 17.4667 21.9593 17.6496 21.7819C17.6953 21.7375 17.741 21.6931 17.7867 21.6488C17.9239 21.5157 18.0153 21.3826 18.1525 21.2495C18.244 21.1608 18.3354 21.0277 18.4269 20.939C18.5183 20.8059 18.6098 20.7172 18.7013 20.5841C18.747 20.5397 18.7926 20.451 18.8384 20.4067C18.8384 20.4067 18.8384 20.3623 18.8841 20.3623C19.1585 19.9187 19.3871 19.4751 19.57 18.9871C20.2102 16.9464 19.8901 14.5508 18.564 12.8207Z" fill="white"/>
<path d="M36.5347 8.87203H32.6481V13.0421H30.2246V2.70569H32.6481V6.65394H36.5347V2.70569H38.9581V13.0421H36.5347V8.87203Z" fill="white"/>
<path d="M46.5027 2.70569H48.6976L53.1329 13.0421H50.5266L49.6578 10.8684H45.4511L44.5823 13.0421H42.0674L46.5027 2.70569ZM46.3199 8.65023H48.6976L47.5087 5.72233L46.3199 8.65023Z" fill="white"/>
<path d="M59.5807 11.7559C56.7457 11.7115 54.8252 10.2919 54.8252 7.71889C54.8252 5.14588 56.7457 3.72629 59.5807 3.68193V2.57288H62.0041V3.68193C64.7933 3.72629 66.7595 5.19025 66.7595 7.71889C66.7595 10.2919 64.8391 11.7559 62.0041 11.7559V13.1311H59.5807V11.7559ZM59.5807 9.58209V5.81132C58.026 5.85568 57.4316 6.69856 57.4316 7.67456C57.4316 8.91669 58.1175 9.53776 59.5807 9.58209ZM62.0498 5.85568V9.62649C63.6502 9.58209 64.2446 8.96102 64.2446 7.76329C64.1989 6.74296 63.6502 5.90004 62.0498 5.85568Z" fill="white"/>
<path d="M69.0449 2.70569H77.87V4.92381H74.6693V13.0421H72.2464V4.92381H69.0449V2.70569Z" fill="white"/>
<path d="M85.9636 2.52869C89.2104 2.52869 91.6333 4.56935 91.6333 7.85217C91.6333 11.0019 89.2104 13.1756 85.9636 13.1756C82.7168 13.1756 80.2939 11.135 80.2939 7.85217C80.2939 4.87989 82.5341 2.52869 85.9636 2.52869ZM85.9636 11.0019C87.9756 11.0019 89.027 9.62664 89.027 7.85217C89.027 5.94458 87.6554 4.70244 85.9636 4.70244C84.1805 4.70244 82.9003 5.94458 82.9003 7.85217C82.8543 9.62664 84.2258 11.0019 85.9636 11.0019Z" fill="white"/>
<path d="M95.3379 2.70569H101.419V4.92381H97.7615V13.0421H95.3379V2.70569Z" fill="white"/>
<path d="M106.815 2.70569H109.01L113.446 13.0421H110.839L109.97 10.8684H105.763L104.895 13.0421H102.426L106.815 2.70569ZM106.633 8.65023H109.01L107.821 5.72233L106.633 8.65023Z" fill="white"/>
<path d="M115.091 11.3569L116.417 9.7598C117.057 10.4252 117.926 11.0019 118.795 11.0019C119.435 11.0019 120.304 10.7357 120.304 9.89287C120.304 9.2718 119.801 8.8282 118.658 8.8282H117.697V6.61007H118.612C119.298 6.61007 119.938 6.29953 119.938 5.67846C119.938 5.01303 119.435 4.70249 118.749 4.70249C118.063 4.70249 117.423 5.01303 116.874 5.76719L115.457 4.17014C116.143 3.19417 117.514 2.48438 119.069 2.48438C120.989 2.48438 122.362 3.50471 122.362 5.41229C122.362 6.16645 121.995 7.00933 121.035 7.6304V7.67473C122.316 8.074 122.773 8.96127 122.773 10.1591C122.773 12.0666 120.853 13.2201 118.932 13.2201C116.783 13.2201 115.685 12.1553 115.091 11.3569Z" fill="white"/>
<path d="M30.2246 19.1641H32.5566V19.8295H30.9561V23.1567H30.2246V19.1641Z" fill="white"/>
<path d="M33.928 19.1198H34.5681L36.3057 23.1123H35.5283L35.1169 22.092H33.3793L32.922 23.1567H32.1904L33.928 19.1198ZM33.6079 21.4709H34.7967L34.2023 20.0514L33.6079 21.4709Z" fill="white"/>
<path d="M36.5342 22.5358L36.9457 22.0478C37.22 22.314 37.5859 22.5358 37.9059 22.5358C38.3175 22.5358 38.6832 22.3584 38.6832 21.9591C38.6832 21.6486 38.4546 21.4268 37.9516 21.4268H37.5401V20.7613H37.9516C38.2717 20.7613 38.5461 20.5839 38.5461 20.229C38.5461 19.8741 38.2717 19.741 37.9516 19.741C37.6316 19.741 37.3572 19.8741 37.1286 20.1846L36.717 19.6966C36.9914 19.3417 37.4944 19.0756 38.0431 19.0756C38.7747 19.0756 39.2777 19.4748 39.2777 20.1846C39.2777 20.4952 39.0948 20.85 38.729 21.0718C39.2319 21.205 39.4606 21.5598 39.4606 22.0034C39.4606 22.7576 38.7747 23.2012 37.9974 23.2012C37.22 23.2012 36.7628 22.8464 36.5342 22.5358Z" fill="white"/>
<path d="M42.2047 19.0756C43.4393 19.0756 44.3538 19.8741 44.3538 21.1162C44.3538 22.314 43.4393 23.1569 42.2047 23.1569C40.9702 23.1569 40.0557 22.3584 40.0557 21.1162C40.0557 20.0072 40.9244 19.0756 42.2047 19.0756ZM42.2047 22.5358C43.0736 22.5358 43.5765 21.9148 43.5765 21.1162C43.5765 20.2734 42.9821 19.6966 42.2047 19.6966C41.4274 19.6966 40.833 20.2734 40.833 21.1162C40.833 21.9591 41.4274 22.5358 42.2047 22.5358Z" fill="white"/>
<path d="M47.7374 19.7851H45.9084V23.1123H45.1768V19.1198H48.469V23.1123H47.7374V19.7851Z" fill="white"/>
<path d="M51.4411 19.0756C52.6757 19.0756 53.5902 19.8741 53.5902 21.1162C53.5902 22.314 52.6757 23.1569 51.4411 23.1569C50.2065 23.1569 49.292 22.3584 49.292 21.1162C49.292 20.0072 50.1608 19.0756 51.4411 19.0756ZM51.4411 22.5358C52.3098 22.5358 52.8128 21.9148 52.8128 21.1162C52.8128 20.2734 52.2184 19.6966 51.4411 19.6966C50.6638 19.6966 50.0693 20.2734 50.0693 21.1162C50.0693 21.9591 50.6638 22.5358 51.4411 22.5358Z" fill="white"/>
<path d="M57.5681 22.7575C57.2937 23.0236 56.7907 23.2011 56.242 23.2011C54.9617 23.2011 54.1387 22.4025 54.1387 21.1604C54.1387 20.007 54.8703 19.1198 56.242 19.1198C56.7907 19.1198 57.2023 19.2972 57.4766 19.519L57.1566 20.0513C56.928 19.8739 56.6536 19.7851 56.242 19.7851C55.4647 19.7851 54.916 20.3175 54.916 21.2047C54.916 22.0477 55.5104 22.6243 56.3335 22.6243C56.6993 22.6243 57.0193 22.5356 57.2937 22.3138L57.5681 22.7575Z" fill="white"/>
<path d="M57.752 19.1641H61.1356V19.8295H59.8096V23.1567H59.078V19.8295H57.752V19.1641Z" fill="white"/>
<path d="M62.644 19.1198H63.2842L65.0217 23.1123H64.2444L63.8329 22.092H62.0953L61.6838 23.1123H60.9521L62.644 19.1198ZM62.3239 21.4709H63.5128L62.9184 20.0514L62.3239 21.4709Z" fill="white"/>
<path d="M67.9938 23.1567H67.2622V21.5153C67.0793 21.6483 66.7135 21.7815 66.302 21.7815C65.6618 21.7815 65.0674 21.4709 65.0674 20.4949V19.1641H65.799V20.3175C65.799 20.9385 66.1191 21.1603 66.5306 21.1603C66.8507 21.1603 67.1251 21.0273 67.3079 20.8942V19.1641H68.0395V23.1567H67.9938Z" fill="white"/>
<path d="M70.3713 19.1198H71.0117L72.7495 23.1123H71.9717L71.5601 22.092H69.823L69.4114 23.1123H68.6797L70.3713 19.1198ZM70.0518 21.4709H71.2406L70.6462 20.0514L70.0518 21.4709Z" fill="white"/>
<path d="M75.7674 19.7851H74.5326L74.4412 20.5393C74.2124 22.8461 73.664 23.2454 72.8408 23.1123V22.4025C73.161 22.4469 73.5726 22.3138 73.7554 19.9183L73.8008 19.1198H76.4071V23.1123H75.676V19.7851H75.7674Z" fill="white"/>
<path d="M78.3285 20.5393C78.5113 20.4949 78.6941 20.4949 78.7855 20.4949C79.8368 20.4949 80.3398 20.9829 80.3398 21.7815C80.3398 22.6243 79.7454 23.1567 78.648 23.1567C78.2364 23.1567 77.8709 23.1567 77.5967 23.1567V19.1641H78.3285V20.5393ZM78.3285 21.1603V22.4469C78.4652 22.4469 78.6027 22.4469 78.7394 22.4469C79.2884 22.4469 79.6087 22.2251 79.6087 21.7371C79.6087 21.2935 79.2884 21.0717 78.7394 21.0717C78.648 21.1603 78.5113 21.1603 78.3285 21.1603Z" fill="white"/>
<path d="M83.8153 21.4265H81.9401V23.1123H81.209V19.1198H81.9401V20.7611H83.8153V19.1198H84.5465V23.1123H83.8153V21.4265Z" fill="white"/>
<path d="M86.8783 19.1198H87.518L89.2559 23.1123H88.4787L88.0671 22.092H86.3293L85.9177 23.1123H85.1865L86.8783 19.1198ZM86.5581 21.4709H87.7469L87.1525 20.0514L86.5581 21.4709Z" fill="white"/>
<path d="M91.1303 19.1641H91.8621V21.0717L93.4625 19.1641H94.3311L92.6393 21.0273L94.4225 23.1567H93.5079L91.8161 21.116V23.1567H91.085V19.1641H91.1303Z" fill="white"/>
<path d="M96.6634 19.0756C97.8982 19.0756 98.8128 19.8741 98.8128 21.1162C98.8128 22.314 97.8982 23.1569 96.6634 23.1569C95.4292 23.1569 94.5146 22.3584 94.5146 21.1162C94.5146 20.0072 95.3832 19.0756 96.6634 19.0756ZM96.6634 22.5358C97.5326 22.5358 98.0356 21.9148 98.0356 21.1162C98.0356 20.2734 97.4412 19.6966 96.6634 19.6966C95.8862 19.6966 95.2918 20.2734 95.2918 21.1162C95.2918 21.9591 95.8862 22.5358 96.6634 22.5358Z" fill="white"/>
<path d="M99.6357 19.1641H100.368L101.785 21.0273L103.111 19.1641H103.796V23.1567H103.065V20.2731L101.785 22.0476H101.693L100.368 20.2731V23.1567H99.6357V19.1641Z" fill="white"/>
<path d="M107.501 19.7851H105.672V23.1123H104.94V19.1198H108.233V23.1123H107.501V19.7851Z" fill="white"/>
<path d="M110.609 19.1198H111.25L112.987 23.1123H112.21L111.798 22.092H110.061L109.649 23.1123H108.826L110.609 19.1198ZM110.289 21.4709H111.479L110.883 20.0514L110.289 21.4709Z" fill="white"/>
<path d="M116.188 21.4265H114.314V23.1123H113.582V19.1198H114.314V20.7611H116.188V19.1198H116.92V23.1123H116.188V21.4265Z" fill="white"/>
<path d="M118.154 19.1641H118.885V23.1567H118.154V19.1641Z" fill="white"/>
<path d="M121.95 21.7815H121.356L120.441 23.1567H119.618L120.67 21.6483C120.304 21.4709 119.938 21.116 119.938 20.5393C119.938 19.7851 120.441 19.1641 121.63 19.1641C121.904 19.1641 122.407 19.1641 122.636 19.1641V23.1567H121.904V21.7815H121.95ZM121.95 21.116V19.8295C121.859 19.8295 121.63 19.8295 121.493 19.8295C121.036 19.8295 120.716 20.0957 120.716 20.4949C120.716 20.8498 120.99 21.0717 121.31 21.116H121.95Z" fill="white"/>
</svg>
