<svg width="27" height="27" viewBox="0 0 27 27" fill="none" xmlns="http://www.w3.org/2000/svg">
<path d="M13.3333 3.16667C15.2667 3.16667 16.8333 4.73333 16.8333 6.66667C16.8333 8.6 15.2667 10.1667 13.3333 10.1667C11.4 10.1667 9.83333 8.6 9.83333 6.66667C9.83333 4.73333 11.4 3.16667 13.3333 3.16667ZM13.3333 18.1667C18.2833 18.1667 23.5 20.6 23.5 21.6667V23.5H3.16667V21.6667C3.16667 20.6 8.38333 18.1667 13.3333 18.1667ZM13.3333 0C9.65 0 6.66667 2.98333 6.66667 6.66667C6.66667 10.35 9.65 13.3333 13.3333 13.3333C17.0167 13.3333 20 10.35 20 6.66667C20 2.98333 17.0167 0 13.3333 0ZM13.3333 15C8.88333 15 0 17.2333 0 21.6667V26.6667H26.6667V21.6667C26.6667 17.2333 17.7833 15 13.3333 15Z" fill="#4C9D11"/>
</svg>
