<svg width="22" height="30" viewBox="0 0 22 30" fill="none" xmlns="http://www.w3.org/2000/svg">
<path d="M4.48132 16.4425C5.19517 15.836 6.03426 15.2876 6.99859 14.7973C7.97544 14.307 9.22782 13.7715 10.7557 13.1908H0.818115V10.6553H15.1328C15.8091 9.91979 16.1472 8.93912 16.1472 7.71329C16.1472 6.41004 15.6838 5.39711 14.7571 4.67452C13.8428 3.95192 12.5717 3.59063 10.9436 3.59063C9.10258 3.59063 7.13009 4.09386 5.0261 5.10033L3.93653 2.04221C6.12819 0.984121 8.43882 0.455078 10.8684 0.455078C13.4859 0.455078 15.6024 1.1067 17.218 2.40996C18.8335 3.71321 19.6413 5.46808 19.6413 7.67458C19.6413 8.81009 19.4848 9.80365 19.1717 10.6553H21.1818V13.1908H17.5561C16.429 14.3005 14.7633 15.2618 12.5591 16.0747L11.6011 16.4425H21.1818V18.978H6.90466C6.11567 19.7135 5.72117 20.6877 5.72117 21.9007C5.72117 23.3201 6.23464 24.4362 7.26159 25.2491C8.30106 26.062 9.84775 26.4685 11.9016 26.4685C14.2311 26.4685 16.7984 25.8427 19.6038 24.591V28.0169C18.7396 28.4556 17.65 28.8234 16.3351 29.1202C15.0201 29.404 13.5924 29.546 12.0519 29.546C8.98361 29.546 6.57905 28.8363 4.83824 27.4169C3.10996 25.9975 2.24582 24.0556 2.24582 21.591C2.24582 20.6877 2.38985 19.8168 2.67789 18.978H0.818115V16.4425H4.48132Z" fill="#4C9D11"/>
</svg>
