<svg width="32" height="32" viewBox="0 0 32 32" fill="none" xmlns="http://www.w3.org/2000/svg">
<g clip-path="url(#clip0)">
<circle cx="16" cy="16.0019" r="14.5" stroke="#4C9D11" stroke-width="3"/>
<path d="M11.4512 16.974C11.9493 16.5667 12.5349 16.1984 13.2078 15.869C13.8894 15.5397 14.7633 15.1801 15.8295 14.7901H8.89502V13.0871H18.8838C19.3557 12.5931 19.5917 11.9345 19.5917 11.1112C19.5917 10.2359 19.2683 9.55557 18.6216 9.07025C17.9837 8.58493 17.0967 8.34227 15.9606 8.34227C14.6759 8.34227 13.2995 8.68026 11.8314 9.35624L11.0711 7.3023C12.6004 6.59165 14.2128 6.23633 15.9081 6.23633C17.7346 6.23633 19.2115 6.67398 20.3389 7.54929C21.4662 8.4246 22.0299 9.60323 22.0299 11.0852C22.0299 11.8478 21.9206 12.5151 21.7022 13.0871H23.1048V14.7901H20.5748C19.7883 15.5354 18.626 16.181 17.0879 16.727L16.4194 16.974H23.1048V18.677H13.1422C12.5917 19.171 12.3164 19.8253 12.3164 20.6399C12.3164 21.5932 12.6747 22.3429 13.3913 22.8888C14.1166 23.4348 15.1959 23.7078 16.6291 23.7078C18.2546 23.7078 20.0461 23.2875 22.0037 22.4469V24.7478C21.4007 25.0424 20.6404 25.2894 19.7228 25.4888C18.8052 25.6794 17.8089 25.7748 16.734 25.7748C14.5929 25.7748 12.915 25.2981 11.7003 24.3448C10.4943 23.3915 9.89128 22.0872 9.89128 20.4319C9.89128 19.8253 9.99178 19.2403 10.1928 18.677H8.89502V16.974H11.4512Z" fill="#4C9D11"/>
</g>
<defs>
<clipPath id="clip0">
<rect width="32" height="32" fill="white"/>
</clipPath>
</defs>
</svg>
