<svg width="30" height="30" viewBox="0 0 30 30" fill="none" xmlns="http://www.w3.org/2000/svg">
<path d="M20.2297 2.0976C21.4986 5.20286 24.3609 7.49987 27.788 8.21963C27.1174 11.4008 25.7754 15.0707 23.4317 18.3728C21.5062 21.0857 19.1616 23.5913 17.2805 25.4309C16.3694 26.3218 15.5745 27.0494 14.9998 27.5605C14.4251 27.0494 13.6302 26.3218 12.7191 25.4309C10.838 23.5913 8.49336 21.0857 6.56792 18.3728C4.24374 15.0981 2.90459 11.4619 2.22844 8.29917C3.83631 8.02212 5.36063 7.35056 6.65934 6.33267C8.07254 5.22505 9.15137 3.76004 9.79181 2.10055C9.9739 2.12577 10.1596 2.15192 10.3481 2.17848C11.8415 2.38878 13.5143 2.62435 15.0003 2.62435C16.4868 2.62435 18.1602 2.38864 19.6536 2.17828C19.849 2.15076 20.0413 2.12367 20.2297 2.0976Z" stroke="#4C9D11" stroke-width="3" stroke-miterlimit="10" stroke-linecap="round"/>
</svg>
