<svg width="36" height="36" viewBox="0 0 36 36" fill="none" xmlns="http://www.w3.org/2000/svg">
<path fill-rule="evenodd" clip-rule="evenodd" d="M18 34C18 34 3.47698 18.7384 2 9.13841C4.1035 9.16122 6.15197 8.46652 7.80765 7.16885C9.46333 5.87118 10.6274 4.04802 11.1078 2C13.3231 2.24621 15.7847 2.73835 18.0006 2.73835C20.2164 2.73835 22.6782 2.24621 24.8922 2C25.8768 5.93852 29.5691 8.89275 34 9.13841C32.523 18.7384 18 34 18 34Z" fill="url(#paint0_linear)" stroke="#4C9D11" stroke-width="4" stroke-miterlimit="10" stroke-linecap="round" stroke-linejoin="round"/>
<ellipse cx="17.922" cy="16.3998" rx="6.07798" ry="6.19127" fill="url(#paint1_linear)"/>
<path d="M17.9219 13.3047V19.496" stroke="#4C9D11" stroke-width="1.66667" stroke-linecap="round" stroke-linejoin="round"/>
<path d="M20.9604 16.4009L14.8825 16.4009" stroke="#4C9D11" stroke-width="1.66667" stroke-linecap="round" stroke-linejoin="round"/>
<defs>
<linearGradient id="paint0_linear" x1="2" y1="18" x2="34" y2="22.544" gradientUnits="userSpaceOnUse">
<stop stop-color="#4C9D11"/>
<stop offset="1" stop-color="#68B72F"/>
</linearGradient>
<linearGradient id="paint1_linear" x1="16.0256" y1="16.3998" x2="24" y2="16.3998" gradientUnits="userSpaceOnUse">
<stop stop-color="#F4BB00"/>
<stop offset="1" stop-color="#F4DE92"/>
</linearGradient>
</defs>
</svg>
