<svg width="498" height="280" viewBox="0 0 498 280" fill="none" xmlns="http://www.w3.org/2000/svg">
<path d="M211.599 101.775C207.768 95.9407 182.341 103.19 154.807 117.966C127.273 132.743 108.059 149.451 111.891 155.285C115.723 161.118 141.149 153.869 168.683 139.093C196.217 124.316 215.431 107.608 211.599 101.775Z" fill="#231F20"/>
<path d="M384.35 174.534C389.544 169.718 374.881 149.178 351.599 128.656C328.317 108.133 305.233 95.4004 300.039 100.216C294.845 105.031 309.508 125.571 332.79 146.093C356.072 166.616 379.156 179.349 384.35 174.534Z" fill="#231F20"/>
<path d="M308.029 113.421C306.292 108.518 303.609 105.486 301.731 100.451C304.83 93.5085 307.611 83.7768 307.497 75.6679C307.305 61.3403 301.307 47.6234 290.767 37.4064C280.227 27.1894 265.967 21.2699 250.991 20.8949C250.713 20.8975 250.294 20.7685 250.016 20.7712L248.766 20.783C238.846 20.8512 229.121 23.3604 220.526 28.0691C211.931 32.7779 204.756 39.5276 199.691 47.6689C194.626 55.8102 191.841 65.0689 191.605 74.5542C191.369 84.0395 193.69 93.432 198.343 101.828C180.242 138.959 168.956 186.264 169.24 206.469C169.74 241.962 207.113 270.459 252.556 270.029C297.999 269.6 334.559 240.404 334.058 204.911C333.666 186.966 323.662 147.707 308.029 113.421Z" fill="#231F20"/>
<path d="M245.861 25.291C245.861 25.291 256.877 8.93802 268.102 7.22085C256.034 18.8835 258.037 21.2819 258.037 21.2819C258.037 21.2819 263.956 12.363 269.981 10.829C261.531 19.7718 263.716 25.1229 263.716 25.1229C264.151 23.2731 264.974 21.5281 266.137 19.9937C267.299 18.4593 268.776 17.1673 270.479 16.196C267.67 20.0392 266.076 24.5746 265.884 29.2656" fill="#231F20"/>
<path d="M296.987 119.505C295.542 115.53 293.29 113.557 291.842 109.449C294.779 102.968 296.379 96.0015 296.557 88.931C296.389 77.3602 291.538 66.2861 283.024 58.0363C274.511 49.7865 262.997 45.0035 250.903 44.6927C250.625 44.6953 250.345 44.565 250.067 44.5676L248.955 44.5781C236.553 44.7813 224.754 49.6632 216.127 58.161C207.501 66.6587 202.745 78.0842 202.896 89.9498C203.033 97.0191 204.892 103.966 208.325 110.239C193.738 140.29 184.548 178.533 184.778 194.883C185.183 223.596 215.388 246.576 252.075 246.229C288.9 245.881 318.311 222.337 317.906 193.624C317.839 179.001 309.749 147.303 296.987 119.505Z" fill="url(#paint0_radial)"/>
<path d="M250.533 126.676C277.247 126.424 298.634 107.619 298.303 84.6752C297.971 61.7312 276.047 43.3361 249.334 43.5886C222.62 43.8412 201.233 62.6457 201.564 85.5898C201.895 108.534 223.819 126.929 250.533 126.676Z" fill="url(#paint1_linear)"/>
<path d="M250.519 125.007C276.806 124.759 297.827 104.555 297.47 79.8806C297.113 55.2059 275.514 35.4042 249.227 35.6523C222.94 35.9004 201.92 56.1044 202.276 80.7791C202.633 105.454 224.232 125.256 250.519 125.007Z" fill="#231F20"/>
<path d="M200.986 249.636C196.001 248.456 190.704 249.203 186.257 251.715C181.81 254.226 178.576 258.295 177.266 263.03L214.997 272.001C216.245 267.244 215.475 262.234 212.854 258.05C210.233 253.866 205.97 250.845 200.986 249.636V249.636Z" fill="url(#paint2_linear)"/>
<path d="M308.199 248.215C303.044 248.27 298.129 250.249 294.532 253.715C290.934 257.182 288.949 261.854 289.011 266.707L328.04 266.325C327.911 261.466 325.758 256.845 322.047 253.458C318.335 250.07 313.362 248.187 308.199 248.215V248.215Z" fill="url(#paint3_linear)"/>
<path d="M220.944 87.0931C231.584 86.9927 240.093 78.8149 239.948 68.8275C239.804 58.8401 231.062 50.8252 220.422 50.9256C209.782 51.026 201.273 59.2038 201.418 69.1912C201.562 79.1786 210.304 87.1936 220.944 87.0931Z" fill="white"/>
<path d="M224.601 58.5083C222.464 58.5283 220.384 59.1536 218.623 60.3052C216.863 61.4568 215.501 63.083 214.71 64.978C213.919 66.8731 213.735 68.9519 214.18 70.9517C214.626 72.9515 215.681 74.7823 217.213 76.2127C218.744 77.6432 220.684 78.6089 222.785 78.9879C224.887 79.3668 227.056 79.142 229.019 78.3417C230.982 77.5415 232.65 76.2018 233.813 74.492C234.976 72.7823 235.581 70.7794 235.552 68.7364C235.513 65.997 234.337 63.3804 232.283 61.4622C230.23 59.5441 227.466 58.4815 224.601 58.5083V58.5083Z" fill="#231F20"/>
<path d="M232.291 64.726C232.299 65.3097 232.126 65.8818 231.794 66.3703C231.462 66.8587 230.985 67.2414 230.424 67.47C229.863 67.6986 229.243 67.7629 228.643 67.6546C228.042 67.5464 227.488 67.2705 227.05 66.8619C226.613 66.4532 226.311 65.9302 226.184 65.3589C226.057 64.7876 226.109 64.1937 226.335 63.6524C226.561 63.111 226.95 62.6465 227.453 62.3175C227.956 61.9885 228.551 61.8098 229.161 61.8041C229.971 61.8261 230.743 62.1393 231.323 62.681C231.903 63.2228 232.249 63.9532 232.291 64.726V64.726Z" fill="white"/>
<path d="M233.343 70.3325C234.118 70.3252 234.738 69.7189 234.727 68.9781C234.716 68.2373 234.08 67.6427 233.304 67.65C232.529 67.6572 231.91 68.2636 231.92 69.0044C231.931 69.7451 232.568 70.3397 233.343 70.3325Z" fill="white"/>
<path d="M228.443 73.7671C229.218 73.7598 229.838 73.1534 229.827 72.4127C229.816 71.6719 229.18 71.0773 228.404 71.0845C227.629 71.0918 227.01 71.6982 227.02 72.4389C227.031 73.1797 227.668 73.7743 228.443 73.7671Z" fill="white"/>
<path d="M279.046 86.2465C289.686 86.146 298.194 77.9682 298.05 67.9808C297.905 57.9935 289.163 49.9785 278.523 50.0789C267.883 50.1793 259.375 58.3571 259.519 68.3445C259.663 78.3319 268.406 86.3469 279.046 86.2465Z" fill="white"/>
<path d="M274.568 57.8911C276.705 57.8712 278.803 58.4574 280.596 59.5758C282.389 60.6941 283.796 62.2944 284.641 64.1741C285.486 66.0539 285.729 68.1288 285.341 70.1363C284.953 72.1439 283.95 73.994 282.46 75.4527C280.969 76.9113 279.058 77.9131 276.968 78.3313C274.878 78.7494 272.703 78.5652 270.718 77.8019C268.732 77.0385 267.026 75.7304 265.815 74.0429C264.603 72.3554 263.941 70.3643 263.912 68.3213C263.873 65.5819 264.973 62.944 266.972 60.9879C268.97 59.0319 271.703 57.9179 274.568 57.8911V57.8911Z" fill="#231F20"/>
<path d="M278.923 67.0944C280.628 67.0784 281.992 65.7444 281.968 64.1147C281.945 62.485 280.544 61.1769 278.839 61.1928C277.134 61.2088 275.77 62.5428 275.794 64.1725C275.817 65.8021 277.218 67.1103 278.923 67.0944Z" fill="white"/>
<path d="M283.164 69.7173C283.939 69.71 284.559 69.1036 284.549 68.3629C284.538 67.6221 283.901 67.0275 283.126 67.0347C282.351 67.042 281.731 67.6484 281.742 68.3891C281.752 69.1299 282.389 69.7245 283.164 69.7173Z" fill="white"/>
<path d="M278.268 73.1489C279.043 73.1416 279.662 72.5353 279.652 71.7945C279.641 71.0537 279.004 70.4591 278.229 70.4664C277.454 70.4736 276.835 71.08 276.845 71.8208C276.856 72.5615 277.493 73.1561 278.268 73.1489Z" fill="white"/>
<path d="M260.16 86.9522L256.272 92.7137C254.606 95.259 252.388 98.7414 249.977 98.7642C247.708 98.7856 245.389 95.3461 243.509 92.8343L239.456 87.1478C236.997 83.8427 237.522 80.9088 240.193 79.2859L246.983 78.0236L253.506 77.9619C260.738 77.8936 263.632 81.8603 260.16 86.9522Z" fill="#FFD8F4"/>
<path d="M253.865 82.1283L245.894 82.2044C238.919 82.2709 236.117 85.3733 239.588 89.218L243.637 93.5921C245.372 95.4476 247.687 98.0999 250.107 98.0769C252.385 98.0551 254.624 95.3593 256.447 93.4699L260.37 89.0197C263.873 85.1084 260.84 82.0618 253.865 82.1283Z" fill="url(#paint4_radial)"/>
<path d="M221.279 90.3187C233.694 90.2022 243.62 80.5094 243.451 68.6692C243.281 56.8289 233.08 47.325 220.666 47.4414C208.252 47.5579 198.325 57.2507 198.495 69.091C198.664 80.9312 208.865 90.4352 221.279 90.3187Z" fill="#94D6D6" fill-opacity="0.14" stroke="#F78632" stroke-width="2.10292" stroke-miterlimit="10"/>
<path d="M279.527 89.599C291.941 89.4825 301.867 79.7897 301.698 67.9494C301.528 56.1092 291.327 46.6052 278.913 46.7217C266.499 46.8382 256.572 56.531 256.742 68.3713C256.911 80.2115 267.112 89.7155 279.527 89.599Z" fill="#94D6D6" fill-opacity="0.14" stroke="#F78632" stroke-width="2.10292" stroke-miterlimit="10"/>
<path d="M197.885 66.1503L191.762 60.1836" stroke="#F78632" stroke-width="2.10292" stroke-miterlimit="10" stroke-linecap="round"/>
<path d="M302.538 64.8408L308.488 58.7608" stroke="#F78632" stroke-width="2.10292" stroke-miterlimit="10" stroke-linecap="round"/>
<path d="M255.216 68.6389C253.71 67.834 252.017 67.417 250.299 67.4273C248.395 67.4374 246.52 67.8926 244.833 68.7548" stroke="#F78632" stroke-width="2.10292" stroke-miterlimit="10"/>
<path opacity="0.76" d="M229.477 50.7955C220.027 59.0706 210.58 67.4798 200.99 75.7562C201.282 76.639 201.671 77.4901 202.152 78.2951C202.616 79.1314 203.145 79.9339 203.734 80.6959C213.875 71.6091 223.876 62.5236 234.019 53.5711C233.364 52.976 232.649 52.4433 231.886 51.9807C231.111 51.5359 230.306 51.14 229.477 50.7955V50.7955Z" fill="white"/>
<path opacity="0.76" d="M236.12 55.2901C226.275 64.6317 216.289 73.9746 206.442 83.1822C207.071 83.7087 207.735 84.1951 208.431 84.6381C217.993 75.165 227.553 65.558 236.975 56.0863C236.655 55.8571 236.368 55.5894 236.12 55.2901Z" fill="white"/>
<path opacity="0.76" d="M287.726 50.0807C278.277 58.3557 268.829 66.765 259.239 75.0413C259.531 75.9242 259.921 76.7753 260.401 77.5802C260.977 78.5142 261.551 79.3141 261.983 79.981C272.124 70.8943 282.125 61.8088 292.268 52.8562C291.613 52.2611 290.899 51.7285 290.135 51.2658C289.376 50.7939 288.569 50.3968 287.726 50.0807V50.0807Z" fill="white"/>
<path opacity="0.76" d="M294.367 54.5733C284.522 63.9149 274.537 73.2578 264.69 82.4654C265.318 82.9919 265.982 83.4783 266.678 83.9213C276.24 74.4482 285.8 64.8412 295.222 55.3695L294.367 54.5733Z" fill="white"/>
<defs>
<radialGradient id="paint0_radial" cx="0" cy="0" r="1" gradientUnits="userSpaceOnUse" gradientTransform="translate(406.032 260.975) rotate(-0.541904) scale(88.0974 84.2751)">
<stop stop-color="white"/>
<stop offset="0.515" stop-color="#FDFDFD"/>
<stop offset="0.7" stop-color="#F6F6F6"/>
<stop offset="0.832" stop-color="#EBEBEB"/>
<stop offset="0.939" stop-color="#DADADA"/>
<stop offset="1" stop-color="#CCCCCC"/>
</radialGradient>
<linearGradient id="paint1_linear" x1="215.259" y1="-346.406" x2="216.045" y2="-263.231" gradientUnits="userSpaceOnUse">
<stop stop-color="#FFE773"/>
<stop offset="0.22" stop-color="#FFE36E"/>
<stop offset="0.482" stop-color="#FFD960"/>
<stop offset="0.765" stop-color="#FFC748"/>
<stop offset="1" stop-color="#FFB42E"/>
</linearGradient>
<linearGradient id="paint2_linear" x1="279.216" y1="-141.878" x2="274.925" y2="-123.827" gradientUnits="userSpaceOnUse">
<stop stop-color="#FFE773"/>
<stop offset="0.22" stop-color="#FFE36E"/>
<stop offset="0.482" stop-color="#FFD960"/>
<stop offset="0.765" stop-color="#FFC748"/>
<stop offset="1" stop-color="#FFB42E"/>
</linearGradient>
<linearGradient id="paint3_linear" x1="273.933" y1="-145.842" x2="274.112" y2="-127.503" gradientUnits="userSpaceOnUse">
<stop stop-color="#FFE773"/>
<stop offset="0.22" stop-color="#FFE36E"/>
<stop offset="0.482" stop-color="#FFD960"/>
<stop offset="0.765" stop-color="#FFC748"/>
<stop offset="1" stop-color="#FFB42E"/>
</linearGradient>
<radialGradient id="paint4_radial" cx="0" cy="0" r="1" gradientUnits="userSpaceOnUse" gradientTransform="translate(124.278 3.18882) rotate(-0.546772) scale(10.2966 9.67224)">
<stop stop-color="#F7E563"/>
<stop offset="0.095" stop-color="#F4DF5A"/>
<stop offset="0.32" stop-color="#F0D44B"/>
<stop offset="0.588" stop-color="#EECE43"/>
<stop offset="1" stop-color="#EDCC40"/>
</radialGradient>
</defs>
</svg>
