<svg width="32" height="32" viewBox="0 0 32 32" fill="none" xmlns="http://www.w3.org/2000/svg">
<path d="M16 6.5252e-05C24.8365 6.5252e-05 32 7.16352 32 16C32 24.8365 24.8365 32 16 32C7.16352 32 6.63659e-05 24.8365 6.63659e-05 16C-0.0250774 7.18858 7.09757 0.025209 15.9089 6.5252e-05C15.9393 -2.17507e-05 15.9697 -2.17507e-05 16 6.5252e-05Z" fill="url(#paint0_linear)"/>
<path d="M24.8636 11.5923L13.5 22.9559L7.13635 16.6378L9.72729 14.0923L13.5 17.8196L22.2727 9.04688L24.8636 11.5923Z" fill="white"/>
<defs>
<linearGradient id="paint0_linear" x1="2.96235e-08" y1="16" x2="32" y2="20.544" gradientUnits="userSpaceOnUse">
<stop stop-color="#4C9D11"/>
<stop offset="1" stop-color="#68B72F"/>
</linearGradient>
</defs>
</svg>
