<svg width="32" height="32" viewBox="0 0 32 32" fill="none" xmlns="http://www.w3.org/2000/svg">
<circle cx="16" cy="16" r="16" fill="#4C9D11"/>
<path fill-rule="evenodd" clip-rule="evenodd" d="M18.3968 20.0858C18.0022 20.4722 17.9956 21.1054 18.3821 21.4999C18.7685 21.8945 19.4017 21.9011 19.7962 21.5146L24.697 16.7146C24.8891 16.5265 24.9973 16.269 24.9973 16.0002C24.9973 15.7314 24.8891 15.4739 24.697 15.2858L19.7962 10.4858C19.4017 10.0993 18.7685 10.1059 18.3821 10.5005C17.9956 10.895 18.0022 11.5282 18.3968 11.9146L22.5682 16.0002L18.3968 20.0858ZM13.6005 11.9146C13.9951 11.5282 14.0017 10.895 13.6152 10.5005C13.2288 10.1059 12.5956 10.0993 12.2011 10.4858L7.30028 15.2858C7.10823 15.4739 7 15.7314 7 16.0002C7 16.269 7.10823 16.5265 7.30028 16.7146L12.2011 21.5146C12.5956 21.9011 13.2288 21.8945 13.6152 21.4999C14.0017 21.1054 13.9951 20.4722 13.6005 20.0858L9.42914 16.0002L13.6005 11.9146Z" fill="white"/>
</svg>
