<svg width="64" height="64" viewBox="0 0 64 64" fill="none" xmlns="http://www.w3.org/2000/svg">
<path fill-rule="evenodd" clip-rule="evenodd" d="M32 64C32 64 19.5478 53.7168 10.7588 41.3333C4.40541 32.3817 1.2394 22.3326 0 14.2768C4.207 14.3224 8.30394 12.933 11.6153 10.3377C14.9267 7.74235 17.2547 4.09605 18.2156 0C22.6463 0.492418 27.5693 1.4767 32.0011 1.4767C36.4329 1.4767 41.3565 0.492418 45.7844 0C47.7535 7.87703 55.1381 13.7855 64 14.2768C62.7606 22.3326 59.5946 32.3817 53.2412 41.3333C44.4522 53.7168 32 64 32 64Z" fill="#4C9D11"/>
<path d="M18.5703 31H16.3125V22.2969L13.6172 23.1328V21.2969L18.3281 19.6094H18.5703V31ZM29.9297 26.2969C29.9297 27.8698 29.6042 29.0729 28.9531 29.9062C28.3021 30.7396 27.349 31.1562 26.0938 31.1562C24.8542 31.1562 23.9062 30.7474 23.25 29.9297C22.5938 29.112 22.2578 27.9401 22.2422 26.4141V24.3203C22.2422 22.7318 22.5703 21.526 23.2266 20.7031C23.888 19.8802 24.8385 19.4688 26.0781 19.4688C27.3177 19.4688 28.2656 19.8776 28.9219 20.6953C29.5781 21.5078 29.9141 22.6771 29.9297 24.2031V26.2969ZM27.6719 24C27.6719 23.0573 27.5417 22.3724 27.2812 21.9453C27.026 21.513 26.625 21.2969 26.0781 21.2969C25.5469 21.2969 25.1536 21.5026 24.8984 21.9141C24.6484 22.3203 24.5156 22.9583 24.5 23.8281V26.5938C24.5 27.5208 24.625 28.2109 24.875 28.6641C25.1302 29.112 25.5365 29.3359 26.0938 29.3359C26.6458 29.3359 27.0443 29.1198 27.2891 28.6875C27.5339 28.2552 27.6615 27.5938 27.6719 26.7031V24ZM39.1172 26.2969C39.1172 27.8698 38.7917 29.0729 38.1406 29.9062C37.4896 30.7396 36.5365 31.1562 35.2812 31.1562C34.0417 31.1562 33.0938 30.7474 32.4375 29.9297C31.7812 29.112 31.4453 27.9401 31.4297 26.4141V24.3203C31.4297 22.7318 31.7578 21.526 32.4141 20.7031C33.0755 19.8802 34.026 19.4688 35.2656 19.4688C36.5052 19.4688 37.4531 19.8776 38.1094 20.6953C38.7656 21.5078 39.1016 22.6771 39.1172 24.2031V26.2969ZM36.8594 24C36.8594 23.0573 36.7292 22.3724 36.4688 21.9453C36.2135 21.513 35.8125 21.2969 35.2656 21.2969C34.7344 21.2969 34.3411 21.5026 34.0859 21.9141C33.8359 22.3203 33.7031 22.9583 33.6875 23.8281V26.5938C33.6875 27.5208 33.8125 28.2109 34.0625 28.6641C34.3177 29.112 34.724 29.3359 35.2812 29.3359C35.8333 29.3359 36.2318 29.1198 36.4766 28.6875C36.7214 28.2552 36.849 27.5938 36.8594 26.7031V24ZM40.6172 21.8125C40.6172 21.1146 40.8438 20.5495 41.2969 20.1172C41.75 19.6797 42.3438 19.4609 43.0781 19.4609C43.8229 19.4609 44.4219 19.6771 44.875 20.1094C45.3281 20.5365 45.5547 21.1172 45.5547 21.8516V22.4141C45.5547 23.1172 45.3281 23.6823 44.875 24.1094C44.4219 24.5365 43.8281 24.75 43.0938 24.75C42.3542 24.75 41.7552 24.5365 41.2969 24.1094C40.8438 23.6771 40.6172 23.0964 40.6172 22.3672V21.8125ZM42.1172 22.4141C42.1172 22.7266 42.2057 22.9792 42.3828 23.1719C42.5651 23.3594 42.8021 23.4531 43.0938 23.4531C43.3854 23.4531 43.6172 23.3568 43.7891 23.1641C43.9609 22.9714 44.0469 22.7135 44.0469 22.3906V21.8125C44.0469 21.5 43.9609 21.2474 43.7891 21.0547C43.6172 20.862 43.3802 20.7656 43.0781 20.7656C42.7917 20.7656 42.5599 20.862 42.3828 21.0547C42.2057 21.2422 42.1172 21.5052 42.1172 21.8438V22.4141ZM46.0547 28.2109C46.0547 27.5078 46.2839 26.9427 46.7422 26.5156C47.2005 26.0833 47.7943 25.8672 48.5234 25.8672C49.263 25.8672 49.8594 26.0807 50.3125 26.5078C50.7708 26.9297 51 27.513 51 28.2578V28.8203C51 29.5182 50.776 30.0833 50.3281 30.5156C49.8802 30.9427 49.2839 31.1562 48.5391 31.1562C47.7891 31.1562 47.1875 30.9401 46.7344 30.5078C46.2812 30.0755 46.0547 29.5026 46.0547 28.7891V28.2109ZM47.5547 28.8203C47.5547 29.1068 47.6484 29.3516 47.8359 29.5547C48.0234 29.7578 48.2578 29.8594 48.5391 29.8594C49.1745 29.8594 49.4922 29.5078 49.4922 28.8047V28.2109C49.4922 27.8984 49.4036 27.6484 49.2266 27.4609C49.0495 27.2682 48.8151 27.1719 48.5234 27.1719C48.2318 27.1719 47.9974 27.2682 47.8203 27.4609C47.6432 27.6484 47.5547 27.9062 47.5547 28.2344V28.8203ZM43.5391 30.1484L42.4375 29.5547L47.9922 20.6641L49.0938 21.2578L43.5391 30.1484Z" fill="white"/>
</svg>
