<svg width="64" height="64" viewBox="0 0 64 64" fill="none" xmlns="http://www.w3.org/2000/svg">
<path fill-rule="evenodd" clip-rule="evenodd" d="M32 64C32 64 19.5478 53.7168 10.7588 41.3333C4.40541 32.3817 1.2394 22.3326 0 14.2768C4.207 14.3224 8.30394 12.933 11.6153 10.3377C14.9267 7.74235 17.2547 4.09605 18.2156 0C22.6463 0.492418 27.5693 1.4767 32.0011 1.4767C36.4329 1.4767 41.3565 0.492418 45.7844 0C47.7535 7.87703 55.1381 13.7855 64 14.2768C62.7606 22.3326 59.5946 32.3817 53.2412 41.3333C44.4522 53.7168 32 64 32 64Z" fill="#CCD4DE"/>
<path fill-rule="evenodd" clip-rule="evenodd" d="M32 64C32 64 19.5478 53.7168 10.7588 41.3333C4.40541 32.3817 1.2394 22.3326 0 14.2768C4.207 14.3224 8.30394 12.933 11.6153 10.3377C14.9267 7.74235 17.2547 4.09605 18.2156 0C22.6463 0.492418 27.5693 1.4767 32.0011 1.4767C36.4329 1.4767 41.3565 0.492418 45.7844 0C47.7535 7.87703 55.1381 13.7855 64 14.2768C62.7606 22.3326 59.5946 32.3817 53.2412 41.3333C44.4522 53.7168 32 64 32 64Z" fill="#DCE1E8"/>
<path fill-rule="evenodd" clip-rule="evenodd" d="M32 64C32 64 19.6893 54.0193 11 42H53C44.3107 54.0193 32 64 32 64Z" fill="#4C9D11"/>
<path d="M20.4766 30.3125H21.6797C22.2526 30.3125 22.6771 30.1693 22.9531 29.8828C23.2292 29.5964 23.3672 29.2161 23.3672 28.7422C23.3672 28.2839 23.2292 27.9271 22.9531 27.6719C22.6823 27.4167 22.3073 27.2891 21.8281 27.2891C21.3958 27.2891 21.0339 27.4089 20.7422 27.6484C20.4505 27.8828 20.3047 28.1901 20.3047 28.5703H18.0469C18.0469 27.9766 18.2057 27.4453 18.5234 26.9766C18.8464 26.5026 19.2943 26.1328 19.8672 25.8672C20.4453 25.6016 21.0807 25.4688 21.7734 25.4688C22.9766 25.4688 23.9193 25.7578 24.6016 26.3359C25.2839 26.9089 25.625 27.7005 25.625 28.7109C25.625 29.2318 25.4661 29.7109 25.1484 30.1484C24.8307 30.5859 24.4141 30.9219 23.8984 31.1562C24.5391 31.3854 25.0156 31.7292 25.3281 32.1875C25.6458 32.6458 25.8047 33.1875 25.8047 33.8125C25.8047 34.8229 25.4349 35.6328 24.6953 36.2422C23.9609 36.8516 22.987 37.1562 21.7734 37.1562C20.638 37.1562 19.7083 36.8568 18.9844 36.2578C18.2656 35.6589 17.9062 34.8672 17.9062 33.8828H20.1641C20.1641 34.3099 20.3229 34.6589 20.6406 34.9297C20.9635 35.2005 21.3594 35.3359 21.8281 35.3359C22.3646 35.3359 22.7839 35.1953 23.0859 34.9141C23.3932 34.6276 23.5469 34.25 23.5469 33.7812C23.5469 32.6458 22.9219 32.0781 21.6719 32.0781H20.4766V30.3125ZM35.0234 32.2969C35.0234 33.8698 34.6979 35.0729 34.0469 35.9062C33.3958 36.7396 32.4427 37.1562 31.1875 37.1562C29.9479 37.1562 29 36.7474 28.3438 35.9297C27.6875 35.112 27.3516 33.9401 27.3359 32.4141V30.3203C27.3359 28.7318 27.6641 27.526 28.3203 26.7031C28.9818 25.8802 29.9323 25.4688 31.1719 25.4688C32.4115 25.4688 33.3594 25.8776 34.0156 26.6953C34.6719 27.5078 35.0078 28.6771 35.0234 30.2031V32.2969ZM32.7656 30C32.7656 29.0573 32.6354 28.3724 32.375 27.9453C32.1198 27.513 31.7188 27.2969 31.1719 27.2969C30.6406 27.2969 30.2474 27.5026 29.9922 27.9141C29.7422 28.3203 29.6094 28.9583 29.5938 29.8281V32.5938C29.5938 33.5208 29.7188 34.2109 29.9688 34.6641C30.224 35.112 30.6302 35.3359 31.1875 35.3359C31.7396 35.3359 32.138 35.1198 32.3828 34.6875C32.6276 34.2552 32.7552 33.5938 32.7656 32.7031V30ZM36.5234 27.8125C36.5234 27.1146 36.75 26.5495 37.2031 26.1172C37.6562 25.6797 38.25 25.4609 38.9844 25.4609C39.7292 25.4609 40.3281 25.6771 40.7812 26.1094C41.2344 26.5365 41.4609 27.1172 41.4609 27.8516V28.4141C41.4609 29.1172 41.2344 29.6823 40.7812 30.1094C40.3281 30.5365 39.7344 30.75 39 30.75C38.2604 30.75 37.6615 30.5365 37.2031 30.1094C36.75 29.6771 36.5234 29.0964 36.5234 28.3672V27.8125ZM38.0234 28.4141C38.0234 28.7266 38.112 28.9792 38.2891 29.1719C38.4714 29.3594 38.7083 29.4531 39 29.4531C39.2917 29.4531 39.5234 29.3568 39.6953 29.1641C39.8672 28.9714 39.9531 28.7135 39.9531 28.3906V27.8125C39.9531 27.5 39.8672 27.2474 39.6953 27.0547C39.5234 26.862 39.2865 26.7656 38.9844 26.7656C38.6979 26.7656 38.4661 26.862 38.2891 27.0547C38.112 27.2422 38.0234 27.5052 38.0234 27.8438V28.4141ZM41.9609 34.2109C41.9609 33.5078 42.1901 32.9427 42.6484 32.5156C43.1068 32.0833 43.7005 31.8672 44.4297 31.8672C45.1693 31.8672 45.7656 32.0807 46.2188 32.5078C46.6771 32.9297 46.9062 33.513 46.9062 34.2578V34.8203C46.9062 35.5182 46.6823 36.0833 46.2344 36.5156C45.7865 36.9427 45.1901 37.1562 44.4453 37.1562C43.6953 37.1562 43.0938 36.9401 42.6406 36.5078C42.1875 36.0755 41.9609 35.5026 41.9609 34.7891V34.2109ZM43.4609 34.8203C43.4609 35.1068 43.5547 35.3516 43.7422 35.5547C43.9297 35.7578 44.1641 35.8594 44.4453 35.8594C45.0807 35.8594 45.3984 35.5078 45.3984 34.8047V34.2109C45.3984 33.8984 45.3099 33.6484 45.1328 33.4609C44.9557 33.2682 44.7214 33.1719 44.4297 33.1719C44.138 33.1719 43.9036 33.2682 43.7266 33.4609C43.5495 33.6484 43.4609 33.9062 43.4609 34.2344V34.8203ZM39.4453 36.1484L38.3438 35.5547L43.8984 26.6641L45 27.2578L39.4453 36.1484Z" fill="#374656"/>
</svg>
