<svg width="24" height="25" viewBox="0 0 24 25" fill="none" xmlns="http://www.w3.org/2000/svg">
<path d="M3 6.5H21V18.5H3V6.5ZM12 9.5C12.7956 9.5 13.5587 9.81607 14.1213 10.3787C14.6839 10.9413 15 11.7044 15 12.5C15 13.2956 14.6839 14.0587 14.1213 14.6213C13.5587 15.1839 12.7956 15.5 12 15.5C11.2044 15.5 10.4413 15.1839 9.87868 14.6213C9.31607 14.0587 9 13.2956 9 12.5C9 11.7044 9.31607 10.9413 9.87868 10.3787C10.4413 9.81607 11.2044 9.5 12 9.5ZM7 8.5C7 9.03043 6.78929 9.53914 6.41421 9.91421C6.03914 10.2893 5.53043 10.5 5 10.5V14.5C5.53043 14.5 6.03914 14.7107 6.41421 15.0858C6.78929 15.4609 7 15.9696 7 16.5H17C17 15.9696 17.2107 15.4609 17.5858 15.0858C17.9609 14.7107 18.4696 14.5 19 14.5V10.5C18.4696 10.5 17.9609 10.2893 17.5858 9.91421C17.2107 9.53914 17 9.03043 17 8.5H7Z" fill="#4C9D11"/>
</svg>
