<svg width="24" height="25" viewBox="0 0 24 25" fill="none" xmlns="http://www.w3.org/2000/svg">
<path d="M20.3909 5.47815H3.66667C2.75833 5.51213 2.03333 6.20002 2 7.12604V18.8251C2.03333 19.7511 2.75833 20.4902 3.66667 20.5242H20.3333C21.2417 20.4902 21.9667 19.7511 22 18.8251V7.12604C21.9667 6.20002 21.2992 5.51213 20.3909 5.47815ZM20.0114 18.531H4.00896V7.48326H20.0114V18.531ZM13.6667 17.126V16.064C13.6667 14.6538 10.8833 13.9401 9.5 13.9401C8.11667 13.9401 5.33333 14.6538 5.33333 16.064V17.126H13.6667ZM9.5 8.6304C8.94747 8.6304 8.41756 8.85417 8.02686 9.25247C7.63616 9.65078 7.41667 10.191 7.41667 10.7543C7.41667 11.0332 7.47055 11.3094 7.57525 11.5671C7.67995 11.8248 7.83341 12.0589 8.02686 12.2561C8.41756 12.6544 8.94747 12.8782 9.5 12.8782C9.77359 12.8782 10.0445 12.8233 10.2973 12.7165C10.55 12.6098 10.7797 12.4533 10.9731 12.2561C11.1666 12.0589 11.3201 11.8248 11.4247 11.5671C11.5294 11.3094 11.5833 11.0332 11.5833 10.7543C11.5833 10.4754 11.5294 10.1992 11.4247 9.94152C11.3201 9.68383 11.1666 9.4497 10.9731 9.25247C10.7797 9.05525 10.55 8.89881 10.2973 8.79207C10.0445 8.68534 9.77359 8.6304 9.5 8.6304ZM13.6667 8.6304V9.80514H18.6667V8.6304H13.6667ZM13.6667 10.3295V11.5671H18.6667V10.3295H13.6667ZM13.6667 12.0286V13.1577H17V12.0286H13.6667Z" fill="#374656"/>
</svg>
