<svg width="24" height="25" viewBox="0 0 24 25" fill="none" xmlns="http://www.w3.org/2000/svg">
<path d="M22 12.5V20.5C22 21.0304 21.7893 21.5391 21.4142 21.9142C21.0391 22.2893 20.5304 22.5 20 22.5H4C3.46957 22.5 2.96086 22.2893 2.58579 21.9142C2.21071 21.5391 2 21.0304 2 20.5V12.5C1.73478 12.5 1.48043 12.3946 1.29289 12.2071C1.10536 12.0196 1 11.7652 1 11.5V8.5C1 7.96957 1.21071 7.46086 1.58579 7.08579C1.96086 6.71071 2.46957 6.5 3 6.5H6.17C6.06 6.19 6 5.85 6 5.5C6 4.70435 6.31607 3.94129 6.87868 3.37868C7.44129 2.81607 8.20435 2.5 9 2.5C10 2.5 10.88 3 11.43 3.74V3.73L12 4.5L12.57 3.73V3.74C13.12 3 14 2.5 15 2.5C15.7956 2.5 16.5587 2.81607 17.1213 3.37868C17.6839 3.94129 18 4.70435 18 5.5C18 5.85 17.94 6.19 17.83 6.5H21C21.5304 6.5 22.0391 6.71071 22.4142 7.08579C22.7893 7.46086 23 7.96957 23 8.5V11.5C23 11.7652 22.8946 12.0196 22.7071 12.2071C22.5196 12.3946 22.2652 12.5 22 12.5ZM4 20.5H11V12.5H4V20.5ZM20 20.5V12.5H13V20.5H20ZM9 4.5C8.73478 4.5 8.48043 4.60536 8.29289 4.79289C8.10536 4.98043 8 5.23478 8 5.5C8 5.76522 8.10536 6.01957 8.29289 6.20711C8.48043 6.39464 8.73478 6.5 9 6.5C9.26522 6.5 9.51957 6.39464 9.70711 6.20711C9.89464 6.01957 10 5.76522 10 5.5C10 5.23478 9.89464 4.98043 9.70711 4.79289C9.51957 4.60536 9.26522 4.5 9 4.5ZM15 4.5C14.7348 4.5 14.4804 4.60536 14.2929 4.79289C14.1054 4.98043 14 5.23478 14 5.5C14 5.76522 14.1054 6.01957 14.2929 6.20711C14.4804 6.39464 14.7348 6.5 15 6.5C15.2652 6.5 15.5196 6.39464 15.7071 6.20711C15.8946 6.01957 16 5.76522 16 5.5C16 5.23478 15.8946 4.98043 15.7071 4.79289C15.5196 4.60536 15.2652 4.5 15 4.5ZM3 8.5V10.5H11V8.5H3ZM13 8.5V10.5H21V8.5H13Z" fill="#4C9D11"/>
</svg>
