<svg width="24" height="25" viewBox="0 0 24 25" fill="none" xmlns="http://www.w3.org/2000/svg">
<path d="M18.6 7.12C21.58 7.12 24 9.5 24 12.5C24 15.46 21.58 17.87 18.6 17.87C17.15 17.87 15.8 17.31 14.78 16.3L12 13.84L9.17 16.35C8.2 17.32 6.84 17.88 5.4 17.88C2.42 17.88 0 15.46 0 12.5C0 9.54 2.42 7.12 5.4 7.12C6.84 7.12 8.2 7.68 9.22 8.7L12 11.16L14.83 8.64999C15.8 7.67999 17.16 7.12 18.6 7.12ZM7.8 14.89L10.5 12.5L7.84 10.15C7.16 9.46999 6.31 9.12 5.4 9.12C3.53 9.12 2 10.63 2 12.5C2 14.37 3.53 15.88 5.4 15.88C6.31 15.88 7.16 15.53 7.8 14.89ZM16.2 10.11L13.5 12.5L16.16 14.85C16.84 15.53 17.7 15.88 18.6 15.88C20.47 15.88 22 14.37 22 12.5C22 10.63 20.47 9.12 18.6 9.12C17.69 9.12 16.84 9.47 16.2 10.11Z" fill="#374656"/>
</svg>
