<svg width="24" height="25" viewBox="0 0 24 25" fill="none" xmlns="http://www.w3.org/2000/svg">
<path d="M9 14.2501C6.66 14.2501 2 15.4201 2 17.7501V19.5001H16V17.7501C16 15.4201 11.34 14.2501 9 14.2501ZM4.34 17.5001C5.18 16.9201 7.21 16.2501 9 16.2501C10.79 16.2501 12.82 16.9201 13.66 17.5001H4.34ZM9 12.5001C10.93 12.5001 12.5 10.9301 12.5 9.00012C12.5 7.07012 10.93 5.50012 9 5.50012C7.07 5.50012 5.5 7.07012 5.5 9.00012C5.5 10.9301 7.07 12.5001 9 12.5001ZM9 7.50012C9.83 7.50012 10.5 8.17012 10.5 9.00012C10.5 9.83012 9.83 10.5001 9 10.5001C8.17 10.5001 7.5 9.83012 7.5 9.00012C7.5 8.17012 8.17 7.50012 9 7.50012ZM16.04 14.3101C17.2 15.1501 18 16.2701 18 17.7501V19.5001H22V17.7501C22 15.7301 18.5 14.5801 16.04 14.3101ZM15 12.5001C16.93 12.5001 18.5 10.9301 18.5 9.00012C18.5 7.07012 16.93 5.50012 15 5.50012C14.46 5.50012 13.96 5.63012 13.5 5.85012C14.13 6.74012 14.5 7.83012 14.5 9.00012C14.5 10.1701 14.13 11.2601 13.5 12.1501C13.96 12.3701 14.46 12.5001 15 12.5001Z" fill="#374656"/>
</svg>
