<svg width="24" height="24" viewBox="0 0 24 24" fill="none" xmlns="http://www.w3.org/2000/svg">
<path d="M9.74983 20.8499C11.5298 20.1499 11.1398 18.2199 10.2398 16.9999C9.34983 15.7499 8.11983 14.8899 6.87983 14.0599C5.99983 13.4999 5.18983 12.7999 4.53983 11.9999C4.25983 11.6699 3.68983 11.0599 4.26983 10.9399C4.85983 10.8199 5.87983 11.3999 6.39983 11.6199C7.30983 11.9999 8.20983 12.4399 9.04983 12.9599L10.0598 11.2599C8.49983 10.2299 6.49983 9.31994 4.63983 9.04994C3.57983 8.88994 2.45983 9.10994 2.09983 10.2599C1.77983 11.2499 2.28983 12.2499 2.86983 13.0299C4.23983 14.8599 6.36983 15.7399 7.95983 17.3199C8.29983 17.6499 8.70983 18.0399 8.90983 18.4999C9.11983 18.9399 9.06983 18.9699 8.59983 18.9699C7.35983 18.9699 5.80983 17.9999 4.79983 17.3599L3.78983 19.0599C5.31983 19.9999 7.87983 21.4699 9.74983 20.8499ZM20.8398 5.24994C21.0598 5.02994 21.0598 4.66994 20.8398 4.45994L19.5398 3.15994C19.3298 2.94994 18.9698 2.94994 18.7598 3.15994L17.7398 4.17994L19.8198 6.25994L20.8398 5.24994ZM10.9998 10.9199V12.9999H13.0798L19.2298 6.84994L17.1498 4.76994L10.9998 10.9199Z" fill="#374656"/>
</svg>
