<svg width="57" height="56" viewBox="0 0 57 56" fill="none" xmlns="http://www.w3.org/2000/svg">
<path d="M19.8147 28.075C20.2883 27.4371 21.017 27.0002 22.1162 26.7629L22.1163 26.7629C23.728 26.4152 25.0437 26.9526 26.0027 27.6262C26.483 27.9635 26.8594 28.3264 27.115 28.6049C27.2421 28.7434 27.3372 28.8587 27.3983 28.9363C27.4288 28.975 27.4507 29.0041 27.4637 29.0217L27.4765 29.0393C27.4768 29.0397 27.4771 29.0401 27.4773 29.0404C27.4777 29.041 27.4779 29.0412 27.4778 29.0411L28.265 30.1735L29.0946 29.0702L29.0948 29.0699L29.0948 29.0699L29.0953 29.0693L29.0957 29.0688L29.0971 29.067L29.1137 29.0457C29.13 29.0252 29.1563 28.9924 29.1922 28.9495C29.2641 28.8635 29.3738 28.7375 29.517 28.5875C29.8053 28.2855 30.2196 27.8969 30.7262 27.5421C31.7568 26.8203 33.0241 26.332 34.3757 26.7423L34.415 26.7542L34.4552 26.7629C35.5555 27.0004 36.2911 27.4382 36.7703 28.0782C37.2594 28.7314 37.5809 29.7277 37.5809 31.272C37.5809 32.3903 37.058 33.7131 36.1345 35.1404C35.2232 36.5488 33.991 37.9537 32.7318 39.2129C31.4765 40.4682 30.2176 41.5558 29.2705 42.3307C28.8863 42.645 28.5546 42.9069 28.2968 43.1067C28.039 42.9069 27.7073 42.645 27.3232 42.3307C26.3761 41.5558 25.1171 40.4682 23.8619 39.2129C22.6027 37.9537 21.3704 36.5488 20.4592 35.1404C19.5356 33.7131 19.0127 32.3903 19.0127 31.272C19.0127 29.7246 19.3301 28.7277 19.8147 28.075Z" stroke="#788392" stroke-width="2"/>
<path d="M11.7959 34.329C11.7959 34.329 5.61275 38.1271 5.24618 38.3426C4.87961 38.5581 3.17258 39.4896 1.93265 37.8348C0.692723 36.18 1.39307 34.8711 1.93265 33.9495C2.47223 33.028 15.0627 20.1321 18.2776 21.5365C21.4925 22.9409 22.1509 26.3323 22.1509 26.3323" stroke="#788392" stroke-width="2"/>
<path d="M8.60945 36.4698C8.50871 37.1709 8.63157 38.0154 9.26429 38.8599C10.5042 40.5147 12.2112 39.5832 12.5778 39.3677C12.9444 39.1522 19.1275 35.3541 19.1275 35.3541L20.0945 34.7656" stroke="#788392" stroke-width="2"/>
<path d="M13.8848 38.7074C13.7841 39.4085 13.907 40.2531 14.5397 41.0975C15.7796 42.7523 17.4866 41.8208 17.8532 41.6053C18.1006 41.4599 20.9965 39.6832 22.8539 38.543" stroke="#788392" stroke-width="2"/>
<path d="M44.7792 34.329C44.7792 34.329 50.9527 38.1271 51.3187 38.3426C51.6847 38.5581 53.389 39.4896 54.627 37.8348C55.865 36.18 55.1658 34.8711 54.627 33.9495C54.0883 33.028 41.5175 20.1321 38.3076 21.5365C35.0977 22.9409 34.4403 26.3323 34.4403 26.3323" stroke="#788392" stroke-width="2"/>
<path d="M47.9609 36.4698C48.0615 37.1709 47.9388 38.0154 47.3071 38.8599C46.0691 40.5147 44.3647 39.5832 43.9987 39.3677C43.6327 39.1522 37.4593 35.3541 37.4593 35.3541L36.4938 34.7656" stroke="#788392" stroke-width="2"/>
<path d="M42.6933 38.7074C42.7939 39.4085 42.6712 40.2531 42.0395 41.0975C40.8015 42.7523 39.0972 41.8208 38.7312 41.6053C38.4842 41.4599 35.5928 39.6832 33.7383 38.543" stroke="#788392" stroke-width="2"/>
<path d="M36.6023 16.1262C36.6023 16.7668 36.0359 17.6337 34.4575 18.3997C32.9477 19.1324 30.7917 19.6137 28.3558 19.6137C25.92 19.6137 23.764 19.1324 22.2542 18.3997C20.6758 17.6337 20.1094 16.7668 20.1094 16.1262C20.1094 15.4855 20.6758 14.6187 22.2542 13.8527C23.764 13.1199 25.92 12.6387 28.3558 12.6387C30.7917 12.6387 32.9477 13.1199 34.4575 13.8527C36.0359 14.6187 36.6023 15.4855 36.6023 16.1262Z" stroke="#788392" stroke-width="2"/>
</svg>
