<svg width="57" height="56" viewBox="0 0 57 56" fill="none" xmlns="http://www.w3.org/2000/svg">
<circle cx="27.4014" cy="17.4209" r="9.77446" stroke="#788392" stroke-width="2"/>
<path d="M50.5127 36.209H42.1145M4.29144 36.209H39.4086" stroke="#788392" stroke-width="2"/>
<path d="M18.5124 36.2078V36.2078C18.5124 33.7566 16.5253 31.7695 14.0741 31.7695H12.327C9.87576 31.7695 7.88867 33.7566 7.88867 36.2078V36.2078" stroke="#788392" stroke-width="2"/>
<path d="M14.9443 35.1934V40.1647C14.9443 41.8215 16.2875 43.1647 17.9443 43.1647H35.6107M49.8939 43.1647H46.1972" stroke="#788392" stroke-width="2"/>
<path d="M25.6611 16.0303V13.1309C25.6611 12.5786 26.1088 12.1309 26.6611 12.1309H28.1428C28.6951 12.1309 29.1428 12.5786 29.1428 13.1309V16.0761M25.6611 18.925V21.7093C25.6611 22.2616 26.1088 22.7093 26.6611 22.7093H28.1428C28.6951 22.7093 29.1428 22.2616 29.1428 21.7093V18.8137" stroke="#788392" stroke-width="2"/>
<path d="M26.6623 15.6797L23.112 15.6797C22.5597 15.6797 22.112 16.1274 22.112 16.6797L22.112 18.1614C22.112 18.7136 22.5597 19.1614 23.112 19.1614L26.6568 19.1614M28.145 15.6797L31.6904 15.6797C32.2427 15.6797 32.6904 16.1274 32.6904 16.6797L32.6904 18.1614C32.6904 18.7136 32.2427 19.1614 31.6904 19.1614L28.145 19.1614" stroke="#788392" stroke-width="2"/>
<path d="M4.29102 26.0859V47.4257C4.29102 47.978 4.73873 48.4257 5.29102 48.4257H32.1452M50.5119 26.0859V47.4257C50.5119 47.978 50.0642 48.4257 49.5119 48.4257H49.3481" stroke="#788392" stroke-width="2"/>
<path d="M30.0427 51.7956L40.6956 34.3242L51.3931 51.7956L40.7199 51.7956L30.0427 51.7956Z" stroke="#788392" stroke-width="2" stroke-linejoin="round"/>
<path d="M40.7188 40.6641L40.7188 46.3973" stroke="#788392" stroke-width="2" stroke-linejoin="round"/>
<path d="M40.7188 47.5723V49.2245" stroke="#788392" stroke-width="2" stroke-linejoin="round"/>
</svg>
