<svg width="57" height="56" viewBox="0 0 57 56" fill="none" xmlns="http://www.w3.org/2000/svg">
<circle cx="28.295" cy="17.4209" r="9.77446" stroke="#788392" stroke-width="2"/>
<path d="M51.4053 36.209H5.18503" stroke="#788392" stroke-width="2"/>
<path d="M19.4057 36.2077V36.2077C19.4057 33.7566 17.4186 31.7695 14.9675 31.7695H13.2204C10.7693 31.7695 8.78223 33.7566 8.78223 36.2077V36.2077" stroke="#788392" stroke-width="2"/>
<path d="M15.8379 35.1914V40.1625C15.8379 41.8194 17.181 43.1625 18.8379 43.1625H50.7867" stroke="#788392" stroke-width="2"/>
<path d="M26.5547 16.0303V13.1309C26.5547 12.5786 27.0024 12.1309 27.5547 12.1309H29.0364C29.5886 12.1309 30.0364 12.5786 30.0364 13.1309V16.0761M26.5547 18.925V21.7093C26.5547 22.2616 27.0024 22.7093 27.5547 22.7093H29.0364C29.5886 22.7093 30.0364 22.2616 30.0364 21.7093V18.8137" stroke="#788392" stroke-width="2"/>
<path d="M27.5559 15.6797L24.0055 15.6797C23.4532 15.6797 23.0055 16.1274 23.0055 16.6797L23.0055 18.1614C23.0055 18.7136 23.4532 19.1614 24.0055 19.1614L27.5503 19.1614M29.0386 15.6797L32.584 15.6797C33.1363 15.6797 33.584 16.1274 33.584 16.6797L33.584 18.1614C33.584 18.7136 33.1363 19.1614 32.584 19.1614L29.0386 19.1614" stroke="#788392" stroke-width="2"/>
<path d="M5.18457 26.0859V47.4252C5.18457 47.9775 5.63229 48.4252 6.18457 48.4252H50.4045C50.9568 48.4252 51.4045 47.9775 51.4045 47.4252V26.0859" stroke="#788392" stroke-width="2"/>
</svg>
