<svg width="57" height="56" viewBox="0 0 57 56" fill="none" xmlns="http://www.w3.org/2000/svg">
<path d="M11.3584 27.1465L4.83322 27.1464" stroke="#788392" stroke-width="2"/>
<path d="M51.7578 27.1465L45.2326 27.1464" stroke="#788392" stroke-width="2"/>
<path d="M27.4424 11.0625L27.4424 4.53732" stroke="#788392" stroke-width="2"/>
<path d="M27.4424 51.4629L27.4424 44.9377" stroke="#788392" stroke-width="2"/>
<path d="M19.6445 13.0801L16.4811 7.37301" stroke="#788392" stroke-width="2"/>
<path d="M39.2305 48.4141L36.067 42.707" stroke="#788392" stroke-width="2"/>
<path d="M41.5107 19.3496L47.2178 16.1862" stroke="#788392" stroke-width="2"/>
<path d="M6.17676 38.9375L11.8838 35.7741" stroke="#788392" stroke-width="2"/>
<path d="M13.374 19.3516L7.66699 16.1881" stroke="#788392" stroke-width="2"/>
<path d="M48.708 38.9375L43.001 35.774" stroke="#788392" stroke-width="2"/>
<path d="M35.2402 13.082L38.4037 7.375" stroke="#788392" stroke-width="2"/>
<path d="M15.6543 48.416L18.8178 42.709" stroke="#788392" stroke-width="2"/>
<circle cx="30.491" cy="34.1883" r="3.74883" stroke="#788392" stroke-width="2"/>
<circle cx="21.1868" cy="23.1956" r="2.95141" stroke="#788392" stroke-width="2"/>
<circle cx="34.2298" cy="22.3548" r="2.00521" stroke="#788392" stroke-width="2"/>
<circle cx="27.5555" cy="27.8592" r="16.701" stroke="#788392" stroke-width="2"/>
</svg>
