<svg width="57" height="56" viewBox="0 0 57 56" fill="none" xmlns="http://www.w3.org/2000/svg">
<path d="M18.1445 13.6172V23.3646C18.1445 28.4747 22.2871 32.6172 27.3971 32.6172V32.6172C32.5072 32.6172 36.6497 28.4747 36.6497 23.3646V13.6172" stroke="#788392" stroke-width="2"/>
<path d="M7.85742 48.2871L9.98724 43.5884C12.1507 38.8155 16.9065 35.7496 22.1469 35.7496V35.7496C22.1469 35.7496 24.5535 38.7496 27.3978 38.7496C30.242 38.7496 32.6216 35.7496 32.6216 35.7496C33.9502 35.7496 35.0842 35.778 36.6123 36.1159C38.168 36.46 39.3991 37.0417 39.3991 37.0417" stroke="#788392" stroke-width="2"/>
<path d="M15.5956 13.85L14.6371 14.1352C14.7289 14.4437 14.9636 14.6892 15.2678 14.7948C15.5719 14.9003 15.9082 14.853 16.1714 14.6676L15.5956 13.85ZM19.6683 13.1099L19.3168 14.0461L19.3168 14.0461L19.6683 13.1099ZM27.5516 14.2813L27.1686 13.3576L27.1686 13.3576L27.5516 14.2813ZM22.6248 5.77347L22.466 4.78616L22.6248 5.77347ZM34.0156 15.8386L33.2245 16.4503L33.2245 16.4503L34.0156 15.8386ZM36.6497 17.3828L36.539 18.3766C36.8218 18.4081 37.1045 18.3177 37.3165 18.128C37.5285 17.9383 37.6497 17.6673 37.6497 17.3828L36.6497 17.3828ZM16.1714 14.6676C16.4328 14.4835 16.9507 14.2033 17.5632 14.0385C18.1769 13.8734 18.7909 13.8486 19.3168 14.0461L20.0199 12.1737C18.9689 11.7791 17.8968 11.8776 17.0435 12.1072C16.1889 12.3372 15.4589 12.7231 15.0197 13.0325L16.1714 14.6676ZM19.3168 14.0461C20.2078 14.3806 21.6023 15.0172 23.0448 15.3819C24.5219 15.7554 26.2435 15.9063 27.9347 15.205L27.1686 13.3576C26.035 13.8276 24.8006 13.7629 23.535 13.4429C22.2348 13.1141 21.1 12.5793 20.0199 12.1737L19.3168 14.0461ZM27.9347 15.205C30.3151 14.2178 32.6284 12.5647 33.5043 11.8509L32.2409 10.3005C31.4527 10.9428 29.3077 12.4705 27.1686 13.3576L27.9347 15.205ZM33.2557 6.17954C32.2288 5.75369 30.5099 5.25539 28.5853 4.937C26.6623 4.61889 24.4528 4.46654 22.466 4.78616L22.7837 6.76078C24.4755 6.48861 26.4484 6.61069 28.2588 6.91018C30.0676 7.2094 31.6333 7.6719 32.4895 8.02698L33.2557 6.17954ZM22.466 4.78616C19.8797 5.20223 17.7172 6.71707 16.3104 8.46904C14.9439 10.1707 14.1053 12.3476 14.6371 14.1352L16.554 13.5649C16.2973 12.7018 16.6741 11.2103 17.8698 9.7213C19.0251 8.28258 20.7716 7.08446 22.7837 6.76078L22.466 4.78616ZM32.8726 7.10326C31.8785 6.99478 31.8785 6.99497 31.8785 6.99517C31.8785 6.99527 31.8784 6.99551 31.8784 6.99571C31.8784 6.99611 31.8783 6.99662 31.8783 6.99722C31.8781 6.99841 31.878 7 31.8777 7.00196C31.8773 7.0059 31.8767 7.01135 31.876 7.01829C31.8746 7.03218 31.8726 7.052 31.8701 7.07746C31.8651 7.12837 31.8581 7.20182 31.8501 7.29528C31.834 7.48212 31.8133 7.7494 31.7945 8.07672C31.757 8.72986 31.7265 9.62931 31.7557 10.6096C31.7848 11.5861 31.8736 12.6668 32.083 13.6747C32.2886 14.6646 32.6295 15.6806 33.2245 16.4503L34.8068 15.227C34.4833 14.8086 34.2221 14.1386 34.0412 13.2679C33.864 12.4152 33.7819 11.4606 33.7548 10.5502C33.7279 9.64368 33.756 8.80481 33.7912 8.19133C33.8088 7.88533 33.828 7.63723 33.8427 7.46702C33.85 7.38195 33.8562 7.31646 33.8605 7.27305C33.8626 7.25135 33.8643 7.23518 33.8653 7.22486C33.8659 7.21969 33.8663 7.21599 33.8665 7.21379C33.8666 7.21269 33.8667 7.21197 33.8667 7.21162C33.8667 7.21145 33.8668 7.21137 33.8668 7.21139C33.8668 7.2114 33.8667 7.21149 33.8667 7.21149C33.8667 7.2116 33.8667 7.21174 32.8726 7.10326ZM33.2245 16.4503C33.8899 17.3109 34.7119 17.7885 35.3513 18.0497C35.6725 18.1809 35.9551 18.2607 36.1625 18.3085C36.2665 18.3324 36.3527 18.3486 36.4167 18.3592C36.4487 18.3644 36.4752 18.3684 36.4958 18.3712C36.5061 18.3726 36.5148 18.3737 36.5221 18.3746C36.5257 18.3751 36.5289 18.3755 36.5317 18.3758C36.5332 18.376 36.5345 18.3761 36.5357 18.3763C36.5363 18.3763 36.5369 18.3764 36.5374 18.3765C36.5377 18.3765 36.5381 18.3765 36.5383 18.3765C36.5386 18.3766 36.539 18.3766 36.6497 17.3828C36.7604 16.3889 36.7607 16.389 36.7611 16.389C36.7612 16.389 36.7616 16.3891 36.7618 16.3891C36.7623 16.3891 36.7627 16.3892 36.7631 16.3892C36.764 16.3893 36.7647 16.3894 36.7654 16.3895C36.7667 16.3896 36.7676 16.3898 36.7682 16.3898C36.7694 16.39 36.7692 16.39 36.7677 16.3898C36.7646 16.3893 36.7563 16.3881 36.7431 16.386C36.7168 16.3816 36.6716 16.3734 36.6114 16.3595C36.4902 16.3316 36.3127 16.282 36.1076 16.1982C35.6945 16.0295 35.1995 15.735 34.8068 15.227L33.2245 16.4503ZM36.6497 17.3828C37.6497 17.3828 37.6497 17.3828 37.6497 17.3827C37.6497 17.3826 37.6497 17.3826 37.6497 17.3825C37.6497 17.3824 37.6497 17.3822 37.6497 17.3821C37.6497 17.3819 37.6497 17.3817 37.6497 17.3815C37.6497 17.3813 37.6497 17.3811 37.6497 17.3808C37.6497 17.3806 37.6497 17.3803 37.6497 17.38C37.6497 17.3797 37.6497 17.3793 37.6497 17.379C37.6497 17.3786 37.6497 17.3782 37.6497 17.3778C37.6497 17.3724 37.6497 17.3718 37.6497 17.3632C37.6497 17.3567 37.6497 17.3486 37.6497 17.3391C37.6497 17.276 37.6497 17.3719 37.6497 17.3059C37.6497 17.2556 37.6497 17.1818 37.6497 17.0875C37.6497 16.8568 37.6497 16.6701 37.6497 16.3001C37.6497 15.6441 37.6497 14.7585 37.6497 13.8405C37.6497 12.0047 37.6497 10.0392 37.6497 9.52092L35.6497 9.52092C35.6497 10.0392 35.6497 12.0047 35.6497 13.8405C35.6497 14.7585 35.6497 15.6441 35.6497 16.3001C35.6497 16.6701 35.6497 16.8568 35.6497 17.0875C35.6497 17.1174 35.6497 17.1271 35.6497 17.1543C35.6497 17.1591 35.6497 17.2111 35.6497 17.2132C35.6497 17.2497 35.6497 17.2808 35.6497 17.3059C35.6497 17.3214 35.6497 17.3088 35.6497 17.3236C35.6497 17.3307 35.6497 17.3327 35.6497 17.3391C35.6497 17.3486 35.6497 17.3567 35.6497 17.3632C35.6497 17.3718 35.6497 17.3724 35.6497 17.3778C35.6497 17.3782 35.6497 17.3786 35.6497 17.379C35.6497 17.3793 35.6497 17.3797 35.6497 17.38C35.6497 17.3803 35.6497 17.3806 35.6497 17.3808C35.6497 17.3811 35.6497 17.3813 35.6497 17.3815C35.6497 17.3817 35.6497 17.3819 35.6497 17.3821C35.6497 17.3822 35.6497 17.3824 35.6497 17.3825C35.6497 17.3826 35.6497 17.3826 35.6497 17.3827C35.6497 17.3828 35.6497 17.3828 36.6497 17.3828ZM37.6497 9.52092C37.6497 9.08799 37.4563 8.74344 37.2858 8.51737C37.1095 8.28349 36.8875 8.08289 36.6732 7.91634C36.2431 7.58203 35.7037 7.27805 35.2104 7.02999C34.7082 6.77746 34.2113 6.56189 33.8432 6.41046C33.6583 6.33436 33.5037 6.27357 33.3944 6.23149C33.3398 6.21043 33.2963 6.194 33.266 6.18264C33.2508 6.17695 33.2389 6.17253 33.2305 6.16942C33.2263 6.16786 33.223 6.16664 33.2206 6.16574C33.2194 6.1653 33.2184 6.16494 33.2176 6.16466C33.2172 6.16452 33.2169 6.1644 33.2167 6.1643C33.2165 6.16426 33.2164 6.1642 33.2163 6.16418C33.2162 6.16412 33.216 6.16408 32.8726 7.10326C32.5292 8.04244 32.5291 8.04241 32.529 8.04238C32.529 8.04237 32.5289 8.04235 32.5289 8.04234C32.5289 8.04233 32.5289 8.04234 32.529 8.04237C32.5291 8.04242 32.5295 8.04256 32.5301 8.04279C32.5313 8.04323 32.5334 8.044 32.5364 8.04509C32.5423 8.04727 32.5516 8.05073 32.5641 8.05541C32.5891 8.06478 32.6268 8.07904 32.6754 8.09777C32.7727 8.13527 32.9132 8.19048 33.0823 8.26005C33.4224 8.39998 33.8698 8.59447 34.3119 8.81679C34.7629 9.04358 35.1677 9.27923 35.4458 9.49541C35.5857 9.6041 35.6587 9.68145 35.689 9.72151C35.725 9.76937 35.6497 9.69472 35.6497 9.52092L37.6497 9.52092Z" fill="#788392"/>
<path d="M18.1446 24.6167C16.6085 24.6167 15.3633 23.4096 15.3633 21.9207C15.3633 20.4317 16.6085 19.2246 18.1446 19.2246" stroke="#788392" stroke-width="2"/>
<path d="M36.6493 24.6167C38.1854 24.6167 39.4307 23.4096 39.4307 21.9207C39.4307 20.4317 38.1854 19.2246 36.6493 19.2246" stroke="#788392" stroke-width="2"/>
<path d="M38.2598 44.2852L35.568 44.2851" stroke="#788392" stroke-width="2"/>
<path d="M39.5361 41.1504L37.6328 39.247" stroke="#788392" stroke-width="2"/>
<path d="M45.957 41.1504L47.8604 39.247" stroke="#788392" stroke-width="2"/>
<path d="M37.6592 49.3301L39.5625 47.4267" stroke="#788392" stroke-width="2"/>
<path d="M47.834 49.3301L45.9306 47.4267" stroke="#788392" stroke-width="2"/>
<path d="M49.9248 44.2852L47.233 44.2851" stroke="#788392" stroke-width="2"/>
<path d="M42.7461 39.7988L42.7461 37.1071" stroke="#788392" stroke-width="2"/>
<path d="M42.7461 51.4629L42.7461 48.7711" stroke="#788392" stroke-width="2"/>
<circle cx="42.746" cy="44.2851" r="4.48628" stroke="#788392" stroke-width="2"/>
<circle cx="41.8494" cy="42.7449" r="0.897257" fill="#788392"/>
<circle cx="44.5779" cy="43.9266" r="0.897257" fill="#788392"/>
<circle cx="41.5066" cy="45.7215" r="0.897257" fill="#788392"/>
<path d="M24.1381 32.6172V36.3593H22.3809" stroke="#788392" stroke-width="2"/>
<path d="M30.6445 32.6172V36.3013H32.6774" stroke="#788392" stroke-width="2"/>
<path d="M18.1445 22.8516C18.1445 22.8516 23.8289 24.2559 27.5411 24.239C31.1423 24.2226 36.65 22.8516 36.65 22.8516" stroke="#788392" stroke-width="2"/>
</svg>
