<svg width="57" height="56" viewBox="0 0 57 56" fill="none" xmlns="http://www.w3.org/2000/svg">
<path d="M23.543 23.8373C23.5759 23.2754 23.6819 21.657 24.8305 20.5083C25.9792 19.3597 27.013 19.2188 28.5505 19.2188C29.398 19.2187 30.9829 19.5139 32.2364 20.9623C33.0587 21.9124 33.2113 23.3367 32.8867 24.4876C32.6057 25.4839 32.0942 26.019 31.3675 26.4084" stroke="#788392" stroke-width="2"/>
<path d="M33.5146 32.1627C33.4785 32.7246 33.3621 34.343 32.1002 35.4917C30.8383 36.6403 29.7026 36.7812 28.0136 36.7813C27.0825 36.7813 25.3415 36.4861 23.9644 35.0377C23.0611 34.0876 22.8934 32.6633 23.25 31.5124C23.4191 30.9664 23.8513 30.4597 24.3961 30.0097L25.362 29.4341" stroke="#788392" stroke-width="2"/>
<path d="M20.9375 26.4316H35.6506" stroke="#788392" stroke-width="2"/>
<path d="M20.9375 29.4355H35.6506" stroke="#788392" stroke-width="2"/>
<path d="M29.2725 8.11719C40.2552 8.11719 49.1585 17.0205 49.1585 28.0032C49.1585 37.4496 42.572 45.3575 33.741 47.3852" stroke="#788392" stroke-width="2"/>
<path d="M27.3145 47.8867C16.3317 47.8867 7.42841 38.9834 7.42841 28.0007C7.42841 18.5543 14.0149 10.6464 22.8459 8.61866" stroke="#788392" stroke-width="2"/>
<path d="M33.4299 2.35742L27.6719 8.11542L33.4299 13.8734" stroke="#788392" stroke-width="2"/>
<path d="M23.159 53.6445L28.917 47.8865L23.159 42.1285" stroke="#788392" stroke-width="2"/>
</svg>
