<svg width="57" height="56" viewBox="0 0 57 56" fill="none" xmlns="http://www.w3.org/2000/svg">
<path d="M52.0654 24.4922L4.52577 24.4922" stroke="#788392" stroke-width="2"/>
<path d="M19.1533 24.4893V24.4893C19.1533 21.7899 16.9649 19.6016 14.2655 19.6016H13.1143C10.4149 19.6016 8.22656 21.7899 8.22656 24.4893V24.4893" stroke="#788392" stroke-width="2"/>
<path d="M15.4834 24.8867V31.9919C15.4834 33.6487 16.8265 34.9919 18.4834 34.9919H38.0955M51.4299 34.9919H49.4727" stroke="#788392" stroke-width="2"/>
<path d="M4.52637 13.3438V40.6638C4.52637 41.216 4.97408 41.6638 5.52637 41.6638H33.887M52.0657 39.6915V13.3438" stroke="#788392" stroke-width="2"/>
<path d="M32.3366 43.9471L43.5082 25.625L54.7267 43.9471H43.5336H32.3366Z" stroke="#788392" stroke-width="2" stroke-linejoin="round"/>
<path d="M43.5332 32.3105L43.5332 38.283" stroke="#788392" stroke-width="2" stroke-linejoin="round"/>
<path d="M43.5322 39.5078V41.229" stroke="#788392" stroke-width="2" stroke-linejoin="round"/>
</svg>
