<svg width="57" height="56" viewBox="0 0 57 56" fill="none" xmlns="http://www.w3.org/2000/svg">
<path d="M19.5324 14.3776L18.7095 13.5911C18.0384 13.0105 17.3686 12.6113 16.5625 12.6113C15.7564 12.6113 15.2122 12.8959 14.6226 13.5911C13.8176 14.5404 14.0566 15.9513 14.0566 16.8665C14.0566 17.7817 14.0566 39.6666 14.0566 40.147C14.0566 40.6275 14.2028 41.3008 14.6896 41.7385C15.1186 42.1241 15.5064 42.1802 16.072 42.1802C16.6375 42.1802 17.055 42.1802 17.055 42.1802V51.4182H31.5232V41.0289" stroke="#788392" stroke-width="2"/>
<path d="M24.4131 8.40203L24.021 7.7747C23.3499 7.1941 22.6801 6.79492 21.874 6.79492C21.068 6.79492 20.5237 7.07949 19.9342 7.7747C19.1292 8.72402 19.3681 10.1349 19.3681 11.0501C19.3682 11.5225 19.3681 17.5834 19.3681 23.403" stroke="#788392" stroke-width="2"/>
<path d="M24.456 23.3423C24.456 17.5227 24.4561 9.30964 24.456 8.8372C24.456 7.92201 24.217 6.51113 25.022 5.56181C25.6116 4.8666 26.1559 4.58203 26.9619 4.58203C27.768 4.58203 28.3166 4.89457 29.0148 5.56181C29.7129 6.22905 29.7129 7.5223 29.7129 8.8372V23.3423" stroke="#788392" stroke-width="2"/>
<path d="M29.4598 10.0807L30.2827 9.29423C30.9538 8.71363 31.6236 8.31445 32.4297 8.31445C33.2358 8.31445 33.78 8.59902 34.3696 9.29423C35.1746 10.2435 34.9356 11.6544 34.9356 12.5696C34.9356 13.0421 34.9356 21.2551 34.9356 27.0747" stroke="#788392" stroke-width="2"/>
<path d="M41.8557 24.2078L42.3861 23.3647L42.3861 23.3647L41.8557 24.2078ZM43.2455 25.3299L42.4877 25.995L42.4877 25.9951L43.2455 25.3299ZM43.2606 25.3458L44.1613 25.7946C44.3631 25.4283 44.3059 24.983 44.0183 24.6806L43.2606 25.3458ZM36.423 25.3463L35.6038 24.7728L35.6038 24.7728L36.423 25.3463ZM39.3273 23.6521L39.4717 24.6196L39.3273 23.6521ZM35.7217 39.0296L34.8211 38.5808L34.8114 38.5982L34.8025 38.6161L35.7217 39.0296ZM32.0968 42.1915L32.0835 43.1707L32.0835 43.1707L32.0968 42.1915ZM33.8221 41.7687L34.467 42.5194L34.467 42.5194L33.8221 41.7687ZM34.5273 27.7399L34.514 28.7191L35.0355 28.7191L35.3465 28.3134L34.5273 27.7399ZM41.3253 25.0509C41.9004 25.3795 42.2383 25.7327 42.4877 25.995L44.0033 24.6647C43.725 24.372 43.225 23.844 42.3861 23.3647L41.3253 25.0509ZM42.4877 25.9951L42.5029 26.011L44.0183 24.6806L44.0032 24.6647L42.4877 25.9951ZM37.2422 25.9198C37.6798 25.3488 38.4082 24.7787 39.4717 24.6196L39.1829 22.6846C37.4768 22.9399 36.2979 23.8672 35.6038 24.7728L37.2422 25.9198ZM39.4717 24.6196C39.8659 24.5606 40.1405 24.5775 40.3847 24.6365C40.6432 24.6989 40.9248 24.822 41.3253 25.0509L42.3861 23.3647C41.9171 23.0967 41.4415 22.866 40.9068 22.7369C40.3576 22.6043 39.8029 22.5918 39.1829 22.6846L39.4717 24.6196ZM42.3599 24.8969L34.8211 38.5808L36.6224 39.4785L44.1613 25.7946L42.3599 24.8969ZM32.1101 41.2123L31.5829 41.2123L31.5563 43.1707L32.0835 43.1707L32.1101 41.2123ZM35.7217 39.0296C34.8025 38.6161 34.8026 38.616 34.8026 38.6159C34.8026 38.6159 34.8026 38.6159 34.8026 38.6158C34.8027 38.6158 34.8027 38.6157 34.8027 38.6157C34.8027 38.6157 34.8026 38.6159 34.8025 38.6161C34.8023 38.6166 34.8018 38.6176 34.801 38.619C34.7996 38.6219 34.7972 38.6266 34.7939 38.6331C34.7873 38.6461 34.7771 38.6661 34.7635 38.6923C34.7364 38.7448 34.696 38.8219 34.6446 38.9171C34.5413 39.1082 34.3954 39.369 34.2246 39.6489C33.8558 40.2529 33.4611 40.7923 33.1773 41.018L34.467 42.5194C35.0666 42.0427 35.6217 41.2126 35.9819 40.6226C36.1754 40.3055 36.3388 40.0133 36.4537 39.8006C36.5114 39.6939 36.5573 39.6063 36.5892 39.5447C36.6051 39.5138 36.6176 39.4894 36.6263 39.4722C36.6307 39.4636 36.6341 39.4568 36.6366 39.4519C36.6378 39.4495 36.6388 39.4475 36.6395 39.4461C36.6399 39.4453 36.6402 39.4447 36.6404 39.4442C36.6405 39.444 36.6407 39.4438 36.6407 39.4436C36.6408 39.4435 36.6408 39.4434 36.6409 39.4433C36.6409 39.4432 36.641 39.4431 35.7217 39.0296ZM33.1773 41.018C33.0223 41.1412 32.788 41.2123 32.1101 41.2123L32.0835 43.1707C32.7771 43.1707 33.6945 43.1337 34.467 42.5194L33.1773 41.018ZM35.3465 28.3134C36.1668 27.2431 36.5988 26.6994 36.8402 26.4037C36.9596 26.2573 37.0329 26.1711 37.0849 26.1102C37.1328 26.0542 37.187 25.9917 37.2422 25.9198L35.6038 24.7728C35.589 24.7921 35.5771 24.806 35.5136 24.8803C35.4543 24.9497 35.3711 25.0478 35.2399 25.2085C34.9799 25.527 34.534 26.0889 33.7081 27.1664L35.3465 28.3134ZM34.5406 26.7607L14.2998 26.7607L14.2732 28.7191L34.514 28.7191L34.5406 26.7607Z" fill="#788392"/>
<path d="M13.6885 23.9414H35.1031" stroke="#788392" stroke-width="2"/>
<path d="M13.5547 37.6309L34.194 40.9765" stroke="#788392" stroke-width="2"/>
<path d="M14.1025 33.9609L36.1659 37.5956" stroke="#788392" stroke-width="2"/>
<path d="M14.1494 30.2598L38.273 34.2836" stroke="#788392" stroke-width="2"/>
</svg>
