<svg width="56" height="56" viewBox="0 0 56 56" fill="none" xmlns="http://www.w3.org/2000/svg">
<circle cx="18.0682" cy="36.1483" r="11.9999" stroke="#788392" stroke-width="2"/>
<circle cx="18.0687" cy="36.1498" r="2.10292" stroke="#788392" stroke-width="2"/>
<circle cx="38.4907" cy="44.4321" r="4.06882" stroke="#788392" stroke-width="2"/>
<path d="M16.523 24.1494V6.50092L7.27817 6.50079C7.27817 6.50079 6.56167 6.47041 6.21651 6.7858C5.86392 7.10798 5.74902 7.2531 5.74902 7.93314C5.74902 8.61318 5.74902 9.71748 5.74902 10.0786C5.74902 10.4398 5.91389 10.8191 6.21657 11.1198C6.57201 11.4728 7.27817 11.3761 7.27817 11.3761H16.0001" stroke="#788392" stroke-width="2"/>
<path d="M19.5933 24.1497V9.19192C19.5933 9.19192 19.5782 7.72373 19.0077 7.09594C18.3292 6.34937 17.1318 6.51583 17.1318 6.51583" stroke="#788392" stroke-width="2"/>
<path d="M20.5554 17.44L35.5132 17.44C35.5132 17.44 36.9814 17.4551 37.6092 18.0256C38.3558 18.7041 38.5459 19.9015 38.5459 19.9015L38.5459 40.5586" stroke="#788392" stroke-width="2"/>
<path d="M19.5605 21.4141H38.5858" stroke="#788392" stroke-width="2"/>
<path d="M32.1123 36.1504L38.587 36.1504" stroke="#788392" stroke-width="2" stroke-linejoin="round"/>
<path d="M43.3969 33.7955L44.3814 33.6203L43.3969 33.7955ZM45.5122 44.4322L44.5318 44.6291C44.6256 45.0962 45.0358 45.4322 45.5122 45.4322L45.5122 44.4322ZM50.9319 41.684L51.9319 41.684C51.9319 41.4188 51.8266 41.1644 51.639 40.9769C51.4515 40.7894 51.1971 40.684 50.9319 40.684L50.9319 41.684ZM50.9319 44.4322L50.9319 45.4322C51.4842 45.4322 51.9319 44.9845 51.9319 44.4322L50.9319 44.4322ZM42.4589 31.8664L43.1631 31.1563L43.1631 31.1563L42.4589 31.8664ZM29.5518 31.9473L36.0265 31.9473L36.0265 29.9473L29.5518 29.9473L29.5518 31.9473ZM36.0265 31.9473L40.5486 31.9473L40.5486 29.9473L36.0265 29.9473L36.0265 31.9473ZM42.4123 33.9707C42.4961 34.4412 43.0283 37.1169 43.5349 39.6525C43.7892 40.9252 44.0384 42.1694 44.224 43.0953C44.3169 43.5583 44.3938 43.9417 44.4475 44.2094C44.4744 44.3433 44.4954 44.4482 44.5098 44.5197C44.517 44.5554 44.5224 44.5828 44.5262 44.6012C44.528 44.6104 44.5294 44.6174 44.5303 44.6221C44.5308 44.6244 44.5312 44.6262 44.5314 44.6274C44.5315 44.628 44.5316 44.6284 44.5317 44.6287C44.5317 44.6288 44.5317 44.629 44.5317 44.629C44.5318 44.6291 44.5318 44.6291 45.5122 44.4322C46.4926 44.2353 46.4926 44.2353 46.4926 44.2352C46.4926 44.2352 46.4926 44.235 46.4925 44.2349C46.4925 44.2346 46.4924 44.2342 46.4923 44.2336C46.492 44.2324 46.4917 44.2306 46.4912 44.2283C46.4903 44.2236 46.4889 44.2167 46.487 44.2075C46.4833 44.189 46.4778 44.1617 46.4707 44.126C46.4563 44.0546 46.4353 43.9497 46.4084 43.8159C46.3547 43.5483 46.2778 43.165 46.185 42.7022C45.9994 41.7765 45.7503 40.5328 45.4961 39.2606C44.9857 36.7062 44.4603 34.0635 44.3814 33.6203L42.4123 33.9707ZM50.9319 40.684L45.5122 40.684L45.5122 42.684L50.9319 42.684L50.9319 40.684ZM51.9319 44.4322L51.9319 41.684L49.9319 41.684L49.9319 44.4322L51.9319 44.4322ZM45.5122 45.4322L50.9319 45.4322L50.9319 43.4322L45.5122 43.4322L45.5122 45.4322ZM40.5486 31.9473C40.6336 31.9473 40.8179 31.9793 41.0643 32.0943C41.3011 32.2049 41.5464 32.3698 41.7547 32.5764L43.1631 31.1563C42.4379 30.4371 41.4192 29.9473 40.5486 29.9473L40.5486 31.9473ZM41.7547 32.5764C41.9993 32.819 42.1116 32.9805 42.1867 33.1386C42.2685 33.3108 42.3358 33.5407 42.4123 33.9707L44.3814 33.6203C44.2953 33.1366 44.191 32.6968 43.9932 32.2804C43.7887 31.8499 43.5132 31.5036 43.1631 31.1563L41.7547 32.5764Z" fill="#788392"/>
<path d="M35.2705 5.51172V12.29" stroke="#788392" stroke-width="2"/>
<path d="M38.5605 5.51172V12.29" stroke="#788392" stroke-width="2"/>
<path d="M29.4512 5.51172V12.29" stroke="#788392" stroke-width="2"/>
<path d="M33.2705 8.90039L31.4513 8.90039" stroke="#788392" stroke-width="2"/>
</svg>
