<svg width="57" height="56" viewBox="0 0 57 56" fill="none" xmlns="http://www.w3.org/2000/svg">
<circle cx="17.8111" cy="36.3922" r="12.107" stroke="#788392" stroke-width="2"/>
<circle cx="17.8121" cy="36.3941" r="2.12851" stroke="#788392" stroke-width="2"/>
<path d="M16.2525 24.2949V6.50093L6.9314 6.5008C6.9314 6.5008 6.209 6.47016 5.86099 6.78815C5.50549 7.11299 5.38965 7.25931 5.38965 7.94496C5.38965 8.6306 5.38965 9.74401 5.38965 10.1081C5.38965 10.4723 5.55588 10.8547 5.86105 11.1579C6.21942 11.5138 6.9314 11.4163 6.9314 11.4163H15.7252" stroke="#788392" stroke-width="2"/>
<path d="M19.349 24.2952V9.21412C19.349 9.21412 19.3337 7.73382 18.7585 7.10085C18.0744 6.34813 16.8672 6.51596 16.8672 6.51596" stroke="#788392" stroke-width="2"/>
<path d="M20.3182 17.5307L35.3993 17.5307C35.3993 17.5307 36.8796 17.546 37.5126 18.1212C38.2653 18.8052 38.457 20.0125 38.457 20.0125L38.2753 37.4824" stroke="#788392" stroke-width="2"/>
<path d="M19.3164 21.5371H38.4985" stroke="#788392" stroke-width="2"/>
<path d="M31.9707 36.3945L38.4988 36.3945" stroke="#788392" stroke-width="2" stroke-linejoin="round"/>
<path d="M29.3887 31.1504L35.9168 31.1504C35.9168 31.1504 39.9277 31.1504 40.4762 31.1504C41.0247 31.1504 41.8096 31.4893 42.4022 32.0771L42.7568 33.055" stroke="#788392" stroke-width="2"/>
<path d="M32.5114 48.4991L42.2857 32.4687L52.1009 48.4991H42.3081H32.5114Z" stroke="#788392" stroke-width="2" stroke-linejoin="round"/>
<path d="M42.3066 38.2266L42.3066 43.5546" stroke="#788392" stroke-width="2" stroke-linejoin="round"/>
<path d="M42.3066 44.6484V46.1839" stroke="#788392" stroke-width="2" stroke-linejoin="round"/>
</svg>
