<svg width="57" height="56" viewBox="0 0 57 56" fill="none" xmlns="http://www.w3.org/2000/svg">
<circle cx="18.3648" cy="36.147" r="11.9986" stroke="#788392" stroke-width="2"/>
<circle cx="18.3653" cy="36.1475" r="2.10262" stroke="#788392" stroke-width="2"/>
<circle cx="38.7851" cy="44.4296" r="4.06832" stroke="#788392" stroke-width="2"/>
<path d="M16.8188 24.1496V6.50287L7.5749 6.50275C7.5749 6.50275 6.85847 6.47236 6.51334 6.78772C6.16078 7.10987 6.0459 7.25498 6.0459 7.93495C6.0459 8.61492 6.0459 9.71912 6.0459 10.0802C6.0459 10.4414 6.21075 10.8207 6.5134 11.1213C6.8688 11.4743 7.5749 11.3776 7.5749 11.3776H16.296" stroke="#788392" stroke-width="2"/>
<path d="M19.89 24.1499V9.19361C19.89 9.19361 19.8748 7.72556 19.3043 7.09784C18.626 6.35134 17.4287 6.51779 17.4287 6.51779" stroke="#788392" stroke-width="2"/>
<path d="M20.8511 17.4422L35.8074 17.4422C35.8074 17.4422 37.2755 17.4574 37.9032 18.0278C38.6497 18.7062 38.8398 19.9035 38.8398 19.9035L38.8398 40.5586" stroke="#788392" stroke-width="2"/>
<path d="M19.8574 21.4141H38.8808" stroke="#788392" stroke-width="2"/>
<path d="M32.4072 36.1484L38.8813 36.1484" stroke="#788392" stroke-width="2" stroke-linejoin="round"/>
<path d="M43.6904 33.7952L44.675 33.62L44.675 33.62L43.6904 33.7952ZM45.8055 44.4309L44.8251 44.6278C44.9189 45.0949 45.3292 45.4309 45.8055 45.4309L45.8055 44.4309ZM51.2248 41.683L52.2248 41.683C52.2248 41.4177 52.1194 41.1634 51.9319 40.9758C51.7443 40.7883 51.49 40.683 51.2248 40.683L51.2248 41.683ZM51.2248 44.4309L51.2248 45.4309C51.777 45.4309 52.2248 44.9832 52.2248 44.4309L51.2248 44.4309ZM42.7525 31.8663L42.0483 32.5763L42.0483 32.5763L42.7525 31.8663ZM29.8467 31.9473L36.3207 31.9473L36.3207 29.9473L29.8467 29.9473L29.8467 31.9473ZM36.3207 31.9473L40.8425 31.9473L40.8425 29.9473L36.3207 29.9473L36.3207 31.9473ZM42.7059 33.9704C42.7896 34.4409 43.3218 37.1164 43.8283 39.6516C44.0826 40.9243 44.3318 42.1683 44.5174 43.0941C44.6102 43.5571 44.6872 43.9405 44.7409 44.2081C44.7677 44.342 44.7888 44.4469 44.8031 44.5183C44.8103 44.5541 44.8158 44.5814 44.8195 44.5999C44.8214 44.6091 44.8228 44.6161 44.8237 44.6208C44.8242 44.6231 44.8245 44.6249 44.8248 44.626C44.8249 44.6266 44.825 44.6271 44.825 44.6274C44.8251 44.6275 44.8251 44.6276 44.8251 44.6277C44.8251 44.6278 44.8251 44.6278 45.8055 44.4309C46.786 44.234 46.786 44.234 46.7859 44.2339C46.7859 44.2338 46.7859 44.2337 46.7859 44.2336C46.7858 44.2333 46.7857 44.2328 46.7856 44.2323C46.7854 44.2311 46.785 44.2293 46.7846 44.227C46.7836 44.2223 46.7822 44.2153 46.7804 44.2061C46.7767 44.1877 46.7712 44.1604 46.764 44.1247C46.7497 44.0533 46.7286 43.9484 46.7018 43.8146C46.6481 43.5471 46.5712 43.1638 46.4784 42.701C46.2928 41.7754 46.0437 40.5318 45.7896 39.2597C45.2792 36.7056 44.7538 34.0632 44.675 33.62L42.7059 33.9704ZM51.2248 40.683L45.8055 40.683L45.8055 42.683L51.2248 42.683L51.2248 40.683ZM52.2248 44.4309L52.2248 41.683L50.2248 41.683L50.2248 44.4309L52.2248 44.4309ZM45.8055 45.4309L51.2248 45.4309L51.2248 43.4309L45.8055 43.4309L45.8055 45.4309ZM40.8425 31.9473C40.9275 31.9473 41.1117 31.9793 41.3581 32.0943C41.5949 32.2048 41.8401 32.3697 42.0483 32.5763L43.4567 31.1562C42.7316 30.4371 41.713 29.9473 40.8425 29.9473L40.8425 31.9473ZM42.0483 32.5763C42.293 32.8189 42.4052 32.9803 42.4803 33.1384C42.5621 33.3106 42.6294 33.5404 42.7059 33.9704L44.675 33.62C44.5889 33.1364 44.4846 32.6966 44.2868 32.2802C44.0823 31.8497 43.8068 31.5035 43.4567 31.1562L42.0483 32.5763Z" fill="#788392"/>
</svg>
