<svg width="57" height="56" viewBox="0 0 57 56" fill="none" xmlns="http://www.w3.org/2000/svg">
<circle cx="18.3631" cy="36.1483" r="11.9999" stroke="#788392" stroke-width="2"/>
<circle cx="18.3637" cy="36.1498" r="2.10292" stroke="#788392" stroke-width="2"/>
<circle cx="38.7856" cy="44.4321" r="4.06882" stroke="#788392" stroke-width="2"/>
<path d="M16.8179 24.1494V6.50092L7.57309 6.50079C7.57309 6.50079 6.8566 6.47041 6.51143 6.7858C6.15884 7.10798 6.04395 7.2531 6.04395 7.93314C6.04395 8.61318 6.04395 9.71748 6.04395 10.0786C6.04395 10.4398 6.20881 10.8191 6.51149 11.1198C6.86693 11.4728 7.57309 11.3761 7.57309 11.3761H16.295" stroke="#788392" stroke-width="2"/>
<path d="M19.8883 24.1497V9.19192C19.8883 9.19192 19.8731 7.72373 19.3026 7.09594C18.6241 6.34937 17.4268 6.51583 17.4268 6.51583" stroke="#788392" stroke-width="2"/>
<path d="M20.8504 17.44L35.8081 17.44C35.8081 17.44 37.2763 17.4551 37.9041 18.0256C38.6507 18.7041 38.8408 19.9015 38.8408 19.9015L38.8408 40.5586" stroke="#788392" stroke-width="2"/>
<path d="M19.8555 21.4141H38.8807" stroke="#788392" stroke-width="2"/>
<path d="M32.4072 36.1504L38.8819 36.1504" stroke="#788392" stroke-width="2" stroke-linejoin="round"/>
<path d="M43.6918 33.7955L44.6763 33.6203L43.6918 33.7955ZM45.8071 44.4322L44.8267 44.6291C44.9205 45.0962 45.3307 45.4322 45.8071 45.4322L45.8071 44.4322ZM51.2269 41.684L52.2269 41.684C52.2269 41.4188 52.1215 41.1644 51.934 40.9769C51.7464 40.7894 51.4921 40.684 51.2269 40.684L51.2269 41.684ZM51.2269 44.4322L51.2269 45.4322C51.7791 45.4322 52.2269 44.9845 52.2269 44.4322L51.2269 44.4322ZM42.7538 31.8664L43.458 31.1563L43.458 31.1563L42.7538 31.8664ZM29.8467 31.9473L36.3214 31.9473L36.3214 29.9473L29.8467 29.9473L29.8467 31.9473ZM36.3214 31.9473L40.8436 31.9473L40.8436 29.9473L36.3214 29.9473L36.3214 31.9473ZM42.7073 33.9707C42.791 34.4412 43.3232 37.1169 43.8298 39.6525C44.0841 40.9252 44.3333 42.1694 44.519 43.0953C44.6118 43.5583 44.6887 43.9417 44.7424 44.2094C44.7693 44.3433 44.7904 44.4482 44.8047 44.5197C44.8119 44.5554 44.8174 44.5828 44.8211 44.6012C44.8229 44.6104 44.8243 44.6174 44.8253 44.6221C44.8257 44.6244 44.8261 44.6262 44.8263 44.6274C44.8264 44.628 44.8265 44.6284 44.8266 44.6287C44.8266 44.6288 44.8266 44.629 44.8267 44.629C44.8267 44.6291 44.8267 44.6291 45.8071 44.4322C46.7875 44.2353 46.7875 44.2353 46.7875 44.2352C46.7875 44.2352 46.7875 44.235 46.7874 44.2349C46.7874 44.2346 46.7873 44.2342 46.7872 44.2336C46.7869 44.2324 46.7866 44.2306 46.7861 44.2283C46.7852 44.2236 46.7838 44.2167 46.7819 44.2075C46.7782 44.189 46.7727 44.1617 46.7656 44.126C46.7512 44.0546 46.7302 43.9497 46.7033 43.8159C46.6496 43.5483 46.5727 43.165 46.4799 42.7022C46.2944 41.7765 46.0452 40.5328 45.791 39.2606C45.2806 36.7062 44.7552 34.0635 44.6763 33.6203L42.7073 33.9707ZM51.2269 40.684L45.8071 40.684L45.8071 42.684L51.2269 42.684L51.2269 40.684ZM52.2269 44.4322L52.2269 41.684L50.2269 41.684L50.2269 44.4322L52.2269 44.4322ZM45.8071 45.4322L51.2269 45.4322L51.2269 43.4322L45.8071 43.4322L45.8071 45.4322ZM40.8436 31.9473C40.9286 31.9473 41.1128 31.9793 41.3592 32.0943C41.5961 32.2049 41.8413 32.3698 42.0496 32.5764L43.458 31.1563C42.7328 30.4371 41.7142 29.9473 40.8436 29.9473L40.8436 31.9473ZM42.0496 32.5764C42.2943 32.819 42.4065 32.9805 42.4816 33.1386C42.5634 33.3108 42.6307 33.5407 42.7073 33.9707L44.6763 33.6203C44.5903 33.1366 44.486 32.6968 44.2881 32.2804C44.0836 31.8499 43.8081 31.5036 43.458 31.1563L42.0496 32.5764Z" fill="#788392"/>
<path d="M37.7793 5.69922V12.4775" stroke="#788392" stroke-width="2"/>
</svg>
