<svg width="57" height="56" viewBox="0 0 57 56" fill="none" xmlns="http://www.w3.org/2000/svg">
<circle cx="28.2555" cy="10.9606" r="4.16957" stroke="#788392" stroke-width="2"/>
<path d="M26.2803 15.1445L27.0624 50.2107H29.4074L30.0774 15.1445" stroke="#788392" stroke-width="2" stroke-linejoin="round"/>
<path d="M27.1262 41.2212C25.4315 41.2212 24.0576 40.3366 24.0576 39.2454C24.0576 38.1541 25.4315 37.2695 27.1262 37.2695" stroke="#788392" stroke-width="2" stroke-linejoin="round"/>
<path d="M29.5027 41.2212C31.1974 41.2212 32.5713 40.3366 32.5713 39.2454C32.5713 38.1541 31.1974 37.2695 29.5027 37.2695" stroke="#788392" stroke-width="2" stroke-linejoin="round"/>
<path d="M27.1262 48.1118C25.4315 48.1118 24.0576 47.2272 24.0576 46.136C24.0576 45.0448 25.4315 44.1602 27.1262 44.1602" stroke="#788392" stroke-width="2" stroke-linejoin="round"/>
<path d="M29.5027 48.1118C31.1974 48.1118 32.5713 47.2272 32.5713 46.136C32.5713 45.0448 31.1974 44.1602 29.5027 44.1602" stroke="#788392" stroke-width="2" stroke-linejoin="round"/>
<path d="M27.1262 35.3927C25.4315 35.3927 24.0576 34.2236 24.0576 32.7814C24.0576 31.3392 24.495 30.9082 24.495 30.9082" stroke="#788392" stroke-width="2" stroke-linejoin="round"/>
<path d="M29.1658 35.3927C30.8605 35.3927 32.2344 34.2236 32.2344 32.7814C32.2344 31.3392 31.797 30.9082 31.797 30.9082" stroke="#788392" stroke-width="2" stroke-linejoin="round"/>
<path d="M26.5101 23.9097C25.7612 24.3517 23.8078 24.654 23.6694 22.9021C23.4963 20.7122 24.1878 20.2801 23.6694 18.5514C23.151 16.8227 21.1099 17.0247 19.8999 17.0247C18.9318 17.0247 12.3597 17.4347 10.8435 17.0247C9.32721 16.6148 8.01869 16.2411 6.95842 14.9503C5.63308 13.3369 6.03658 19.445 8.86012 21.1735C11.119 22.5564 12.5206 22.5598 12.5206 22.5598C12.5206 22.5598 12.0344 24.0826 12.951 24.8607C13.8676 25.6388 15.7439 25.6388 15.7439 25.6388C15.7439 25.6388 15.4271 27.0445 16.5237 27.8571C17.6202 28.6697 19.0153 28.1886 19.0153 28.1886C19.0153 28.1886 20.3008 29.7594 21.7101 30.3697C23.3058 31.0607 26.0891 30.8204 26.0891 30.8204" stroke="#788392" stroke-width="2" stroke-linejoin="round"/>
<path d="M30.0778 23.9097C30.8267 24.3517 32.7801 24.654 32.9185 22.9021C33.0916 20.7122 32.4001 20.2801 32.9185 18.5514C33.4369 16.8227 35.4779 17.0247 36.688 17.0247C37.6561 17.0247 44.2282 17.4347 45.7444 17.0247C47.2607 16.6148 48.5692 16.2411 49.6295 14.9503C50.9548 13.3369 50.5513 19.445 47.7278 21.1735C45.4689 22.5564 44.0673 22.5598 44.0673 22.5598C44.0673 22.5598 44.5535 24.0826 43.6369 24.8607C42.7203 25.6388 40.844 25.6388 40.844 25.6388C40.844 25.6388 41.1608 27.0445 40.0642 27.8571C38.9677 28.6697 37.5725 28.1886 37.5725 28.1886C37.5725 28.1886 36.2871 29.7594 34.8778 30.3697C33.2821 31.0607 30.4987 30.8204 30.4987 30.8204" stroke="#788392" stroke-width="2" stroke-linejoin="round"/>
</svg>
