<svg width="57" height="57" viewBox="0 0 57 57" fill="none" xmlns="http://www.w3.org/2000/svg">
<path d="M31.7054 37.2454C31.7054 39.5247 30.1253 41.1274 28.4581 41.1274C26.791 41.1274 25.2109 39.5247 25.2109 37.2454C25.2109 34.966 26.791 33.3633 28.4581 33.3633C30.1253 33.3633 31.7054 34.966 31.7054 37.2454Z" stroke="#788392" stroke-width="2"/>
<path d="M25.2255 25.6215C25.2255 29.3592 22.4187 32.2665 19.1025 32.2665C15.7863 32.2665 12.9795 29.3592 12.9795 25.6215C12.9795 21.8838 15.7863 18.9766 19.1025 18.9766C22.4187 18.9766 25.2255 21.8838 25.2255 25.6215Z" stroke="#788392" stroke-width="2"/>
<path d="M15.8027 20.4805V18.2496C15.8027 16.8349 17.2805 15.6881 19.1033 15.6881C20.9262 15.6881 22.4039 16.8349 22.4039 18.2496V20.4805" stroke="#788392" stroke-width="2"/>
<path d="M22.0552 19.7364C20.7449 23.7501 16.651 26.0142 12.9113 24.7933" stroke="#788392" stroke-width="2"/>
<path d="M32.2327 24.7209C34.9651 25.613 37.8865 24.6446 39.7732 22.4927L45.5718 24.7209" stroke="#788392" stroke-width="2"/>
<path d="M45.0741 25.6215C45.0741 29.3592 42.2673 32.2665 38.9511 32.2665C35.6349 32.2665 32.8281 29.3592 32.8281 25.6215C32.8281 21.8838 35.6349 18.9766 38.9511 18.9766C42.2673 18.9766 45.0741 21.8838 45.0741 25.6215Z" stroke="#788392" stroke-width="2"/>
<path d="M25.9692 34.5296C24.6522 33.0809 22.2695 32.3627 21.2802 32.3633C20.298 32.3639 18.8274 32.3633 18.8062 32.3633C18.8056 32.3633 18.8064 32.3633 18.8057 32.3633C18.7846 32.3633 17.6087 32.364 16.3318 32.3633C15.0434 32.3626 13.5322 33.2329 12.2507 34.5296C10.8573 35.9397 10.2773 37.3772 10.2773 38.9496C10.2773 40.522 10.2773 41.9974 10.2773 41.9974C10.2773 41.9974 10.2773 41.9974 10.2773 41.9974V49.6315C10.2773 50.7361 11.1728 51.6315 12.2773 51.6315H22.9589" stroke="#788392" stroke-width="2"/>
<path d="M30.9438 34.5296C32.2609 33.0809 34.6436 32.3627 35.6329 32.3633C36.6151 32.3639 38.0856 32.3633 38.1068 32.3633C38.1075 32.3633 38.1067 32.3633 38.1074 32.3633C38.1284 32.3633 39.3044 32.364 40.5813 32.3633C41.8697 32.3626 43.3809 33.2329 44.6624 34.5296C46.0558 35.9397 46.6357 37.3772 46.6357 38.9496C46.6357 40.522 46.6357 41.9974 46.6357 41.9974C46.6357 41.9974 46.6357 41.9974 46.6357 41.9974V49.6315C46.6357 50.7361 45.7403 51.6315 44.6357 51.6315H33.9541" stroke="#788392" stroke-width="2"/>
<path d="M23.2842 46.3922V51.6308H30.9767H33.631V46.4248C33.631 43.5676 31.3148 41.2188 28.4576 41.2188C25.6004 41.2188 23.2842 43.535 23.2842 46.3922Z" stroke="#788392" stroke-width="2"/>
<path d="M22.8786 9.35694C23.3799 11.9923 28.3629 13.4933 28.3629 13.4933L27.7728 9.04561L26.3761 8.40387L26.9773 5.63502C26.9773 5.63502 25.5574 4.65885 24.1448 5.57476C22.7322 6.49066 22.6052 7.91922 22.8786 9.35694Z" stroke="#788392" stroke-width="2" stroke-linecap="round" stroke-linejoin="round"/>
<path d="M36.0354 9.35694C35.5342 11.9923 30.5512 13.4933 30.5512 13.4933L31.1858 10.0185L32.8473 8.40452L31.9368 5.63502C31.9368 5.63502 33.3566 4.65885 34.7693 5.57476C36.1819 6.49066 36.3089 7.91922 36.0354 9.35694Z" stroke="#788392" stroke-width="2" stroke-linecap="round" stroke-linejoin="round"/>
</svg>
