<svg width="57" height="56" viewBox="0 0 57 56" fill="none" xmlns="http://www.w3.org/2000/svg">
<circle cx="22.0523" cy="12.4058" r="3.90584" stroke="#788392" stroke-width="2"/>
<path d="M7.29492 30.0469H16.8621M49.0539 30.0469H23.2645" stroke="#788392" stroke-width="2"/>
<path d="M11.2422 30.0469V48.5484" stroke="#788392" stroke-width="2"/>
<path d="M45.1299 30.0469V42.7416" stroke="#788392" stroke-width="2"/>
<mask id="path-5-inside-1" fill="white">
<path d="M22.1437 22.046C20.9424 23.8929 18.9437 25.8883 17.2525 27.4164C15.6882 28.8299 15.5395 31.3042 17.0373 32.788C18.3723 34.1104 20.5158 34.1344 21.8801 32.8423L27.2859 27.7227C27.8758 27.164 28.2892 26.4449 28.4753 25.6541L28.6296 24.998L29.0219 27.4263L29.0219 29.7381L29.0215 48.8966L30.3134 47.3292L35.2743 39.2174L36.9247 36.4688C37.3132 35.8217 37.5185 35.0811 37.5185 34.3264L37.5185 30.1608C37.5185 30.0427 37.5137 29.927 37.5024 29.8094C37.4193 28.9478 37.0077 25.0971 36.1076 22.9528C34.5194 19.1692 33.0069 16.4394 30.1313 15.3043C29.8217 15.182 29.5203 15.0284 29.1992 14.9404C27.8059 14.5588 25.7401 15.6023 24.9155 16.4727C23.2436 18.2372 23.4691 20.0083 22.1437 22.046Z"/>
</mask>
<path d="M17.2525 27.4164L18.5934 28.9004L18.5934 28.9004L17.2525 27.4164ZM22.1437 22.046L20.4671 20.9556L20.4671 20.9556L22.1437 22.046ZM24.9155 16.4727L26.3674 17.8482L24.9155 16.4727ZM30.1313 15.3043L30.8657 13.444L30.8657 13.444L30.1313 15.3043ZM36.1076 22.9528L34.2635 23.7269L34.2635 23.7269L36.1076 22.9528ZM37.5024 29.8094L39.4931 29.6174L39.4931 29.6173L37.5024 29.8094ZM37.5185 30.1608L39.5185 30.1608V30.1608H37.5185ZM37.5185 34.3264L35.5185 34.3264V34.3264H37.5185ZM36.9247 36.4688L35.2101 35.4392L35.21 35.4392L36.9247 36.4688ZM35.2743 39.2174L36.9805 40.2609L36.9847 40.254L36.9889 40.247L35.2743 39.2174ZM29.0219 29.7381L31.0219 29.7381L31.0219 29.7381L29.0219 29.7381ZM29.0219 27.4263L31.0219 27.4263C31.0219 27.3195 31.0133 27.2128 30.9963 27.1073L29.0219 27.4263ZM28.6296 24.998L30.604 24.6791C30.4518 23.7366 29.6546 23.0331 28.7005 22.9993C27.7464 22.9655 26.9014 23.6107 26.6828 24.54L28.6296 24.998ZM28.4753 25.6541L26.5284 25.196L26.5284 25.196L28.4753 25.6541ZM27.2859 27.7227L25.9106 26.2705L25.9106 26.2705L27.2859 27.7227ZM21.8801 32.8423L23.2554 34.2945L23.2554 34.2945L21.8801 32.8423ZM29.1992 14.9404L29.7275 13.0114L29.7275 13.0114L29.1992 14.9404ZM29.0215 48.8966L27.0215 48.8966L27.0214 54.4676L30.5648 50.1687L29.0215 48.8966ZM30.3134 47.3292L31.8567 48.6013L31.9462 48.4927L32.0196 48.3727L30.3134 47.3292ZM17.0373 32.788L18.4448 31.3671L18.4448 31.3671L17.0373 32.788ZM18.5934 28.9004C20.3059 27.353 22.4693 25.2135 23.8202 23.1365L20.4671 20.9556C19.4155 22.5724 17.5815 24.4237 15.9116 25.9325L18.5934 28.9004ZM23.8202 23.1365C24.6479 21.864 25.0054 20.6308 25.2893 19.8121C25.5775 18.9808 25.826 18.4196 26.3674 17.8482L23.4637 15.0971C22.3331 16.2903 21.8584 17.4969 21.51 18.5017C21.1573 19.5191 20.9649 20.1903 20.4671 20.9556L23.8202 23.1365ZM29.397 17.1646C31.4065 17.9578 32.6543 19.8934 34.2635 23.7269L37.9517 22.1787C36.3844 18.4449 34.6072 14.9209 30.8657 13.444L29.397 17.1646ZM34.2635 23.7269C34.6191 24.5741 34.9176 25.8808 35.1392 27.1948C35.3542 28.4689 35.4725 29.5956 35.5116 30.0014L39.4931 29.6173C39.4492 29.1616 39.3202 27.9322 39.0835 26.5294C38.8536 25.1666 38.4962 23.4758 37.9517 22.1787L34.2635 23.7269ZM35.5185 30.1608L35.5185 34.3264L39.5185 34.3264L39.5185 30.1608L35.5185 30.1608ZM35.21 35.4392L33.5596 38.1879L36.9889 40.247L38.6393 37.4984L35.21 35.4392ZM31.0219 29.7381L31.0219 27.4263L27.0219 27.4263L27.0219 29.7381L31.0219 29.7381ZM30.9963 27.1073L30.604 24.6791L26.6552 25.317L27.0475 27.7452L30.9963 27.1073ZM26.6828 24.54L26.5284 25.196L30.4221 26.1121L30.5765 25.4561L26.6828 24.54ZM25.9106 26.2705L20.5048 31.3902L23.2554 34.2945L28.6611 29.1748L25.9106 26.2705ZM26.3674 17.8482C26.539 17.6671 27.0003 17.332 27.5959 17.0904C28.2273 16.8343 28.5963 16.8489 28.6709 16.8694L29.7275 13.0114C28.4089 12.6503 27.0483 12.9959 26.0923 13.3838C25.1005 13.7861 24.1166 14.408 23.4637 15.0971L26.3674 17.8482ZM31.0215 48.8967L31.0219 29.7381L27.0219 29.738L27.0215 48.8966L31.0215 48.8967ZM33.568 38.174L28.6072 46.2858L32.0196 48.3727L36.9805 40.2609L33.568 38.174ZM28.7701 46.0572L27.4782 47.6245L30.5648 50.1687L31.8567 48.6013L28.7701 46.0572ZM26.5284 25.196C26.4318 25.6068 26.217 25.9804 25.9106 26.2705L28.6611 29.1748C29.5345 28.3477 30.1467 27.283 30.4221 26.1121L26.5284 25.196ZM35.5116 30.0014C35.516 30.0465 35.5185 30.0974 35.5185 30.1608H39.5185C39.5185 29.988 39.5115 29.8075 39.4931 29.6174L35.5116 30.0014ZM35.5185 34.3264C35.5185 34.7184 35.4119 35.1031 35.2101 35.4392L38.6393 37.4984C39.2146 36.5403 39.5185 35.4439 39.5185 34.3264H35.5185ZM15.6298 34.2089C17.7319 36.2911 21.1071 36.329 23.2554 34.2945L20.5048 31.3902C19.9245 31.9398 19.0127 31.9296 18.4448 31.3671L15.6298 34.2089ZM30.8657 13.444C30.8068 13.4207 30.1777 13.1347 29.7275 13.0114L28.6709 16.8694C28.8629 16.922 28.8365 16.9433 29.397 17.1646L30.8657 13.444ZM18.4448 31.3671C17.8264 30.7545 17.8127 29.6058 18.5934 28.9004L15.9116 25.9325C13.5636 28.0541 13.2525 31.854 15.6298 34.2089L18.4448 31.3671Z" fill="#788392" mask="url(#path-5-inside-1)"/>
<path d="M28.739 47.9952L38.5132 31.9648L48.3285 47.9952H38.5357H28.739Z" stroke="#788392" stroke-width="2" stroke-linejoin="round"/>
<path d="M38.5342 37.7227L38.5342 43.0507" stroke="#788392" stroke-width="2" stroke-linejoin="round"/>
<path d="M38.5342 44.1445V45.68" stroke="#788392" stroke-width="2" stroke-linejoin="round"/>
</svg>
