<svg width="57" height="56" viewBox="0 0 57 56" fill="none" xmlns="http://www.w3.org/2000/svg">
<circle cx="22.0523" cy="12.4058" r="3.90584" stroke="#788392" stroke-width="2"/>
<path d="M7.29492 30.0469H16.8621M49.0539 30.0469H23.2645" stroke="#788392" stroke-width="2"/>
<path d="M11.2422 30.0469V48.5484" stroke="#788392" stroke-width="2"/>
<path d="M45.1299 30.0469V48.5484" stroke="#788392" stroke-width="2"/>
<mask id="path-5-inside-1" fill="white">
<path d="M22.1435 22.0453C20.9422 23.8922 18.9435 25.8876 17.2523 27.4157C15.6879 28.8292 15.5392 31.3035 17.0371 32.7872C18.3721 34.1096 20.5156 34.1336 21.8799 32.8416L27.2857 27.7219C27.8755 27.1632 28.289 26.4442 28.4751 25.6533L28.6294 24.9973L29.0217 27.4255L29.0217 29.7373L29.0217 44.5134C29.0217 46.8033 30.8778 48.6597 33.1677 48.6601C35.4355 48.6605 37.283 46.8389 37.3146 44.5713L37.5154 30.1891C37.5173 30.0516 37.5125 29.9144 37.4992 29.7775C37.4095 28.8583 36.9971 25.0715 36.1074 22.952C34.5192 19.1684 33.0066 16.4386 30.1311 15.3035C29.8215 15.1813 29.5201 15.0276 29.199 14.9396C27.8057 14.558 25.7399 15.6016 24.9153 16.4719C23.2434 18.2365 23.4689 20.0075 22.1435 22.0453Z"/>
</mask>
<path d="M17.2523 27.4157L18.5931 28.8996L17.2523 27.4157ZM22.1435 22.0453L20.4669 20.9548L20.4669 20.9548L22.1435 22.0453ZM24.9153 16.4719L23.4635 15.0963L24.9153 16.4719ZM30.1311 15.3035L30.8655 13.4432L30.8655 13.4432L30.1311 15.3035ZM36.1074 22.952L37.9515 22.1779L37.9515 22.1779L36.1074 22.952ZM37.4992 29.7775L35.5086 29.9717L35.5086 29.9717L37.4992 29.7775ZM37.5154 30.1891L39.5152 30.217L39.5152 30.217L37.5154 30.1891ZM37.3146 44.5713L35.3148 44.5434L35.3148 44.5434L37.3146 44.5713ZM29.0217 44.5134L31.0217 44.5134L31.0217 44.5134L29.0217 44.5134ZM29.0217 29.7373L31.0217 29.7373L31.0217 29.7373L29.0217 29.7373ZM29.0217 27.4255L31.0217 27.4255C31.0217 27.3187 31.0131 27.212 30.9961 27.1066L29.0217 27.4255ZM28.6294 24.9973L30.6038 24.6783C30.4516 23.7358 29.6544 23.0324 28.7003 22.9985C27.7462 22.9647 26.9012 23.6099 26.6826 24.5392L28.6294 24.9973ZM28.4751 25.6533L30.4219 26.1114L30.4219 26.1114L28.4751 25.6533ZM27.2857 27.7219L28.6609 29.174L28.6609 29.174L27.2857 27.7219ZM21.8799 32.8416L20.5046 31.3895L20.5046 31.3895L21.8799 32.8416ZM29.199 14.9396L29.7273 13.0107L29.7273 13.0107L29.199 14.9396ZM33.1677 48.6601L33.1673 50.6601L33.1673 50.6601L33.1677 48.6601ZM17.0371 32.7872L18.4446 31.3663L18.4446 31.3663L17.0371 32.7872ZM18.5931 28.8996C20.3057 27.3522 22.4691 25.2127 23.82 23.1357L20.4669 20.9548C19.4153 22.5716 17.5812 24.4229 15.9114 25.9317L18.5931 28.8996ZM23.82 23.1357C24.6477 21.8632 25.0052 20.63 25.2891 19.8113C25.5773 18.98 25.8258 18.4188 26.3671 17.8475L23.4635 15.0963C22.3329 16.2896 21.8582 17.4961 21.5098 18.501C21.1571 19.5184 20.9646 20.1895 20.4669 20.9548L23.82 23.1357ZM29.3968 17.1638C31.4062 17.957 32.6541 19.8926 34.2633 23.7261L37.9515 22.1779C36.3842 18.4442 34.607 14.9202 30.8655 13.4432L29.3968 17.1638ZM34.2633 23.7261C34.6145 24.5627 34.9104 25.8489 35.1316 27.1501C35.3461 28.4121 35.4662 29.5372 35.5086 29.9717L39.4897 29.5834C39.4424 29.0986 39.3115 27.8707 39.075 26.4797C38.8452 25.1278 38.4901 23.4609 37.9515 22.1779L34.2633 23.7261ZM35.5156 30.1612L35.3148 44.5434L39.3144 44.5992L39.5152 30.217L35.5156 30.1612ZM31.0217 44.5134L31.0217 29.7373L27.0217 29.7373L27.0217 44.5134L31.0217 44.5134ZM31.0217 29.7373L31.0217 27.4255L27.0217 27.4255L27.0217 29.7373L31.0217 29.7373ZM30.9961 27.1066L30.6038 24.6783L26.655 25.3162L27.0473 27.7445L30.9961 27.1066ZM26.6826 24.5392L26.5282 25.1953L30.4219 26.1114L30.5763 25.4553L26.6826 24.5392ZM25.9104 26.2698L20.5046 31.3895L23.2551 34.2937L28.6609 29.174L25.9104 26.2698ZM26.3671 17.8475C26.5388 17.6663 27.0001 17.3312 27.5957 17.0896C28.2271 16.8335 28.596 16.8482 28.6707 16.8686L29.7273 13.0107C28.4086 12.6495 27.0481 12.9952 26.0921 13.383C25.1003 13.7853 24.1164 14.4072 23.4635 15.0963L26.3671 17.8475ZM26.5282 25.1953C26.4316 25.6061 26.2168 25.9796 25.9104 26.2698L28.6609 29.174C29.5343 28.3469 30.1464 27.2822 30.4219 26.1114L26.5282 25.1953ZM33.168 46.6601C31.9826 46.6599 31.0217 45.6988 31.0217 44.5134L27.0217 44.5134C27.0217 47.9077 29.773 50.6595 33.1673 50.6601L33.168 46.6601ZM35.5086 29.9717C35.5139 30.0263 35.5166 30.0888 35.5156 30.1612L39.5152 30.217C39.518 30.0144 39.5111 29.8025 39.4897 29.5834L35.5086 29.9717ZM35.3148 44.5434C35.2984 45.7173 34.342 46.6603 33.168 46.6601L33.1673 50.6601C36.529 50.6606 39.2675 47.9605 39.3144 44.5992L35.3148 44.5434ZM15.6296 34.2081C17.7316 36.2903 21.1069 36.3282 23.2551 34.2937L20.5046 31.3895C19.9243 31.9391 19.0125 31.9288 18.4446 31.3663L15.6296 34.2081ZM30.8655 13.4432C30.8066 13.42 30.1775 13.134 29.7273 13.0107L28.6707 16.8686C28.8627 16.9212 28.8363 16.9426 29.3968 17.1638L30.8655 13.4432ZM18.4446 31.3663C17.8262 30.7537 17.8125 29.605 18.5931 28.8996L15.9114 25.9317C13.5634 28.0534 13.2523 31.8532 15.6296 34.2081L18.4446 31.3663Z" fill="#788392" mask="url(#path-5-inside-1)"/>
</svg>
