<svg width="57" height="56" viewBox="0 0 57 56" fill="none" xmlns="http://www.w3.org/2000/svg">
<path d="M37.4101 41.1332H14.9117L5.44531 36.2562V24.7051L16.4946 30.8018H45.1471V41.1332H42.6357" stroke="#788392" stroke-width="2" stroke-linejoin="round"/>
<path d="M32.4061 49.0762L20.3701 49.0766V53.0001H30.9258" stroke="#788392" stroke-width="2" stroke-linejoin="round"/>
<path d="M24.0371 41.2422V49.0757" stroke="#788392" stroke-width="2" stroke-linejoin="round"/>
<path d="M31.0088 41.2422V49.0757" stroke="#788392" stroke-width="2" stroke-linejoin="round"/>
<circle cx="39.0132" cy="8.64326" r="2.54181" transform="rotate(-30 39.0132 8.64326)" stroke="#788392" stroke-width="2" stroke-linejoin="round"/>
<path d="M36.6602 8.91797C35.449 9.9974 31.4678 13.5454 30.2788 14.6051M38.782 11.2988C37.5012 12.4402 34.7723 14.8723 33.2148 16.2604" stroke="#788392" stroke-width="2" stroke-linejoin="round"/>
<path d="M34.191 22.047C35.3107 19.1454 33.7032 15.8225 30.6005 14.6251C27.4977 13.4277 24.0747 14.8092 22.9549 17.7108" stroke="#788392" stroke-width="2" stroke-linejoin="round"/>
<path d="M19.5312 16.3906L37.612 23.3683" stroke="#788392" stroke-width="2" stroke-linejoin="round"/>
<path d="M37.7908 6.52461L35.7559 3" stroke="#788392" stroke-width="2" stroke-linejoin="round"/>
<path d="M40.1475 42.7363L40.1475 48.0644" stroke="#788392" stroke-width="2" stroke-linejoin="round"/>
<path d="M40.1475 49.1582V50.6937" stroke="#788392" stroke-width="2" stroke-linejoin="round"/>
<path d="M30.3523 53.0088L40.1265 36.9785L49.9417 53.0088H40.1489H30.3523Z" stroke="#788392" stroke-width="2" stroke-linejoin="round"/>
</svg>
