<svg width="57" height="56" viewBox="0 0 57 56" fill="none" xmlns="http://www.w3.org/2000/svg">
<path d="M17.9111 41.1321L8.44531 36.2555V24.7051L19.4939 30.8014H48.1444V41.1321H17.9111Z" stroke="#788392" stroke-width="2" stroke-linejoin="round"/>
<path d="M23.3691 52.9974V49.0742H37.6767V52.9974H23.3691Z" stroke="#788392" stroke-width="2" stroke-linejoin="round"/>
<path d="M27.0342 41.2422V49.0752" stroke="#788392" stroke-width="2" stroke-linejoin="round"/>
<path d="M34.0068 41.2441V49.0771" stroke="#788392" stroke-width="2" stroke-linejoin="round"/>
<circle cx="42.012" cy="8.64515" r="2.54164" transform="rotate(-30 42.012 8.64515)" stroke="#788392" stroke-width="2" stroke-linejoin="round"/>
<path d="M39.6592 8.91992C38.4481 9.99928 34.4672 13.5471 33.2782 14.6067M41.7809 11.3006C40.5002 12.442 37.7714 14.8739 36.214 16.2618" stroke="#788392" stroke-width="2" stroke-linejoin="round"/>
<path d="M37.1894 22.0483C38.3091 19.1469 36.7017 15.8243 33.5991 14.6269C30.4966 13.4296 27.0738 14.811 25.9541 17.7124" stroke="#788392" stroke-width="2" stroke-linejoin="round"/>
<path d="M22.5293 16.3926L40.6088 23.3698" stroke="#788392" stroke-width="2" stroke-linejoin="round"/>
<path d="M40.7897 6.52632L38.7549 3.00195" stroke="#788392" stroke-width="2" stroke-linejoin="round"/>
</svg>
