<svg width="57" height="56" viewBox="0 0 57 56" fill="none" xmlns="http://www.w3.org/2000/svg">
<path d="M43.4406 32.3214V26.3301C43.4406 25.7778 42.9929 25.3301 42.4406 25.3301H11.3779C10.8256 25.3301 10.3779 25.7778 10.3779 26.3301V46.2698C10.3779 46.8221 10.8256 47.2698 11.3779 47.2698H42.4406C42.9929 47.2698 43.4406 46.8221 43.4406 46.2698V39.6627" stroke="#788392" stroke-width="2"/>
<mask id="path-2-inside-1" fill="white">
<path d="M33.3389 36.2558C33.3389 33.7231 35.392 31.6699 37.9248 31.6699H45.2119C45.7641 31.6699 46.2119 32.1176 46.2119 32.6699V39.8417C46.2119 40.394 45.7641 40.8417 45.2119 40.8417H37.9248C35.392 40.8417 33.3389 38.7885 33.3389 36.2558V36.2558Z"/>
</mask>
<path d="M33.3389 36.2558C33.3389 33.7231 35.392 31.6699 37.9248 31.6699H45.2119C45.7641 31.6699 46.2119 32.1176 46.2119 32.6699V39.8417C46.2119 40.394 45.7641 40.8417 45.2119 40.8417H37.9248C35.392 40.8417 33.3389 38.7885 33.3389 36.2558V36.2558Z" stroke="#788392" stroke-width="4" mask="url(#path-2-inside-1)"/>
<path d="M18.5723 25.0254L21.1235 21.2619L29.0569 9.5587C29.3668 9.10155 29.9886 8.98218 30.4457 9.29207L44.1867 18.6069C44.6439 18.9168 44.7632 19.5386 44.4533 19.9957L41.0438 25.0254" stroke="#788392" stroke-width="2"/>
<path d="M18.5723 25.0254L21.1235 21.2619L29.0569 9.5587C29.3668 9.10155 29.9886 8.98218 30.4457 9.29207L44.1867 18.6069C44.6439 18.9168 44.7632 19.5386 44.4533 19.9957L41.0438 25.0254" stroke="#788392" stroke-width="2"/>
<path d="M22.498 25.6289L24.277 23.0046L27.2386 18.6358L27.6382 18.0578C27.8808 17.707 28.3192 17.5499 28.7384 17.6285C29.2667 17.7275 29.9927 17.8184 30.5353 17.7122C31.1922 17.5837 31.9428 17.0955 32.4542 16.7111C32.8228 16.434 33.3316 16.3964 33.714 16.654L34.9278 17.4716L36.7446 18.7032C37.0763 18.9281 37.2411 19.3291 37.1848 19.7258C37.1068 20.2762 37.0238 21.0672 37.0815 21.661C37.1178 22.0343 37.2787 22.4135 37.4432 22.7159C37.6515 23.099 37.6772 23.5758 37.4352 23.9385L36.8866 24.7607L36.2701 25.6289" stroke="#788392" stroke-width="2"/>
<path d="M17.0723 25.666L17.2632 24.4422L17.8989 20.3673L17.9631 19.9794C18.0328 19.5586 18.3629 19.2309 18.7732 19.1144C19.1557 19.0057 19.6138 18.8408 19.9205 18.6152C20.2953 18.3395 20.6277 17.8377 20.8607 17.4189C21.0849 17.016 21.5277 16.7636 21.9834 16.8334L22.944 16.9804L24.0155 17.1894" stroke="#788392" stroke-width="2"/>
<path d="M14.2939 25.0938L16.1011 14.0663C16.1902 13.5225 16.7023 13.1533 17.2463 13.2406L25.4451 14.5561" stroke="#788392" stroke-width="2"/>
<path d="M33.9689 24.8719C33.9689 23.0096 32.4218 21.5 30.5133 21.5C28.6048 21.5 27.0576 23.0096 27.0576 24.8719" stroke="#788392" stroke-width="2"/>
</svg>
