<svg width="57" height="56" viewBox="0 0 57 56" fill="none" xmlns="http://www.w3.org/2000/svg">
<circle cx="14.8885" cy="29.4618" r="4.64145" stroke="#788392" stroke-width="2"/>
<circle cx="41.1444" cy="29.4618" r="4.64145" stroke="#788392" stroke-width="2"/>
<path d="M7.97001 28.3926V27.3926H7.58523L7.2997 27.6505L7.97001 28.3926ZM5.27734 30.8248L4.60703 30.0827L4.27734 30.3805V30.8248H5.27734ZM5.27734 39.8581H4.27734V40.8581H5.27734V39.8581ZM9.53303 39.8581L10.1758 39.0921L9.89698 38.8581H9.53303V39.8581ZM36.894 39.8581L36.8102 38.8617L36.4942 38.8882L36.2512 39.0921L36.894 39.8581ZM46.1879 39.0764L46.2717 40.0729C46.6082 40.0446 46.9077 39.8484 47.068 39.5512L46.1879 39.0764ZM49.7491 32.4751V31.4751H49.1523L48.869 32.0003L49.7491 32.4751ZM51.3126 32.4751V33.4751C51.8649 33.4751 52.3126 33.0274 52.3126 32.4751H51.3126ZM51.3126 28.3926H52.3126C52.3126 27.8403 51.8649 27.3926 51.3126 27.3926V28.3926ZM10.7355 27.3926H7.97001V29.3926H10.7355V27.3926ZM7.2997 27.6505L4.60703 30.0827L5.94765 31.5669L8.64032 29.1347L7.2997 27.6505ZM4.27734 30.8248V39.8581H6.27734V30.8248H4.27734ZM5.27734 40.8581H9.53303V38.8581H5.27734V40.8581ZM36.9778 40.8546L46.2717 40.0729L46.1041 38.0799L36.8102 38.8617L36.9778 40.8546ZM47.068 39.5512L50.6292 32.9499L48.869 32.0003L45.3078 38.6016L47.068 39.5512ZM49.7491 33.4751H51.3126V31.4751H49.7491V33.4751ZM52.3126 32.4751V28.3926H50.3126V32.4751H52.3126ZM51.3126 27.3926H45.5065V29.3926H51.3126V27.3926ZM9.53303 39.8581C8.89026 40.6242 8.89054 40.6244 8.89084 40.6247C8.89097 40.6248 8.89129 40.6251 8.89155 40.6253C8.89207 40.6257 8.89267 40.6262 8.89337 40.6268C8.89475 40.628 8.89649 40.6294 8.89858 40.6311C8.90276 40.6346 8.90834 40.6392 8.91531 40.6449C8.92926 40.6564 8.94876 40.6723 8.97371 40.6923C9.02361 40.7323 9.09535 40.7889 9.18806 40.8597C9.37344 41.0012 9.64296 41.1997 9.98975 41.436C10.6828 41.9084 11.6876 42.5342 12.9488 43.1592C15.466 44.4065 19.0401 45.6682 23.2135 45.6682V43.6682C19.4391 43.6682 16.173 42.5248 13.8369 41.3671C12.6715 40.7896 11.7464 40.2129 11.1161 39.7834C10.8013 39.5688 10.5609 39.3915 10.4017 39.27C10.3221 39.2092 10.2629 39.1625 10.225 39.132C10.206 39.1168 10.1924 39.1057 10.1841 39.0989C10.18 39.0956 10.1772 39.0933 10.1758 39.0921C10.1752 39.0915 10.1748 39.0912 10.1748 39.0912C10.1748 39.0912 10.1749 39.0913 10.175 39.0914C10.1751 39.0915 10.1753 39.0917 10.1754 39.0917C10.1756 39.0919 10.1758 39.0921 9.53303 39.8581ZM23.2135 45.6682C27.3869 45.6682 30.961 44.4065 33.4782 43.1592C34.7395 42.5342 35.7442 41.9084 36.4373 41.436C36.7841 41.1997 37.0536 41.0012 37.239 40.8597C37.3317 40.7889 37.4034 40.7323 37.4533 40.6923C37.4783 40.6723 37.4978 40.6564 37.5117 40.6449C37.5187 40.6392 37.5243 40.6346 37.5285 40.6311C37.5305 40.6294 37.5323 40.628 37.5337 40.6268C37.5344 40.6262 37.535 40.6257 37.5355 40.6253C37.5357 40.6251 37.5361 40.6248 37.5362 40.6247C37.5365 40.6244 37.5368 40.6242 36.894 39.8581C36.2512 39.0921 36.2515 39.0919 36.2517 39.0917C36.2517 39.0917 36.2519 39.0915 36.252 39.0914C36.2522 39.0913 36.2522 39.0912 36.2522 39.0912C36.2522 39.0912 36.2519 39.0915 36.2512 39.0921C36.2498 39.0933 36.247 39.0956 36.2429 39.0989C36.2347 39.1057 36.221 39.1168 36.202 39.132C36.1641 39.1625 36.1049 39.2092 36.0253 39.27C35.8662 39.3915 35.6257 39.5688 35.3109 39.7834C34.6807 40.2129 33.7556 40.7896 32.5902 41.3671C30.254 42.5248 26.9879 43.6682 23.2135 43.6682V45.6682Z" fill="#788392"/>
<path d="M19.7832 28.4805H36.2002" stroke="#788392" stroke-width="2"/>
<path d="M14.7754 42.9521L23.2998 39.8027H37.3172" stroke="#788392" stroke-width="2"/>
<path d="M21.5795 11.3301C20.5753 11.3301 19.5225 13.0249 19.5225 14.3029C19.5225 15.5809 20.725 17.3465 20.725 17.3465C20.725 17.3465 21.9275 19.112 21.9275 20.39C21.9275 21.668 20.725 23.2763 20.0732 23.2763" stroke="#788392" stroke-width="2"/>
<path d="M29.1508 11.3301C28.1466 11.3301 27.0938 13.0249 27.0938 14.3029C27.0938 15.5809 28.2963 17.3465 28.2963 17.3465C28.2963 17.3465 29.4988 19.112 29.4988 20.39C29.4988 21.668 28.2963 23.2763 27.6445 23.2763" stroke="#788392" stroke-width="2"/>
<path d="M36.7201 11.3301C35.7159 11.3301 34.6631 13.0249 34.6631 14.3029C34.6631 15.5809 35.8656 17.3465 35.8656 17.3465C35.8656 17.3465 37.0681 19.112 37.0681 20.39C37.0681 21.668 35.8656 23.2763 35.2138 23.2763" stroke="#788392" stroke-width="2"/>
<circle cx="41.1459" cy="29.4642" r="1.2025" fill="#788392"/>
<circle cx="14.889" cy="29.4642" r="1.2025" fill="#788392"/>
</svg>
