<svg width="57" height="56" viewBox="0 0 57 56" fill="none" xmlns="http://www.w3.org/2000/svg">
<path d="M8.44434 49.9651L10.9691 36.0346L21.7655 32.4648L28.2953 48.7461L34.7381 32.4648L45.7953 36.0346L48.146 49.9651" stroke="#788392" stroke-width="2" stroke-linejoin="round"/>
<path d="M18.2842 35.6858V33.5097C18.2842 30.8352 20.3376 28.5042 23.3769 27.2812M38.2216 37.7753V33.5097C38.2216 30.9311 36.3127 28.6717 33.4517 27.417" stroke="#788392" stroke-width="2" stroke-linejoin="round"/>
<circle cx="38.2216" cy="40.8017" r="2.63376" stroke="#788392" stroke-width="2" stroke-linejoin="round"/>
<path d="M16.7688 46.5615C17.3211 46.5615 17.7688 46.1138 17.7688 45.5615C17.7688 45.0092 17.3211 44.5615 16.7688 44.5615V46.5615ZM15.0312 45.5615L14.0375 45.4501C14.0058 45.7329 14.0961 46.0159 14.2858 46.228C14.4755 46.4402 14.7466 46.5615 15.0312 46.5615V45.5615ZM15.9303 37.5442L14.9415 37.3948C14.9396 37.4074 14.9379 37.4201 14.9365 37.4328L15.9303 37.5442ZM20.6474 37.5442L21.6406 37.4274L21.639 37.4151L20.6474 37.5442ZM21.5908 45.5615V46.5615C21.8764 46.5615 22.1483 46.4394 22.3381 46.226C22.5278 46.0126 22.6173 45.7282 22.5839 45.4446L21.5908 45.5615ZM19.8792 44.5615C19.3269 44.5615 18.8792 45.0092 18.8792 45.5615C18.8792 46.1138 19.3269 46.5615 19.8792 46.5615V44.5615ZM16.7688 44.5615H15.0312V46.5615H16.7688V44.5615ZM16.025 45.6729L16.924 37.6557L14.9365 37.4328L14.0375 45.4501L16.025 45.6729ZM19.6542 37.6611L20.5977 45.6784L22.5839 45.4446L21.6405 37.4274L19.6542 37.6611ZM21.5908 44.5615H19.8792V46.5615H21.5908V44.5615ZM16.919 37.6937C16.9067 37.7751 16.8501 37.6994 17.1481 37.5776C17.4324 37.4614 17.8499 37.3945 18.2888 37.3945V35.3945C17.6936 35.3945 16.9959 35.4793 16.3914 35.7263C15.8006 35.9677 15.0817 36.4669 14.9415 37.3948L16.919 37.6937ZM18.2888 37.3945C18.6778 37.3945 19.1043 37.4836 19.4141 37.622C19.5679 37.6907 19.6534 37.754 19.6896 37.7891C19.7239 37.8224 19.6704 37.7858 19.6557 37.6733L21.639 37.4151C21.5219 36.5157 20.7423 36.0248 20.2298 35.7959C19.6415 35.5331 18.934 35.3945 18.2888 35.3945V37.3945Z" fill="#788392"/>
<path d="M20.1396 18.7288C20.1396 21.2751 20.1642 21.6184 20.6464 23.2541C21.1287 24.8898 22.8549 29.4765 28.2721 29.4765C33.6894 29.4765 35.6753 24.0679 35.8585 23.2541C36.0417 22.4403 36.301 21.0244 36.301 18.7285" stroke="#788392" stroke-width="2" stroke-linejoin="round"/>
<path d="M18.3779 17.7795L21.4253 19.2429V12.952C21.4253 11.8474 22.3208 10.952 23.4253 10.952H25.7742C25.7742 10.952 27.4036 11.8798 28.3345 11.8461C29.193 11.815 30.529 10.952 30.529 10.952H33.3245C34.4291 10.952 35.3245 11.8474 35.3245 12.952V19.2429L37.9658 17.7795V9.77372C37.9658 8.31041 36.3405 6.44099 34.2272 6.03516H28.3345H22.4417C20.2878 6.48163 18.3779 8.47297 18.3779 10.0989V17.7795Z" stroke="#788392" stroke-width="2" stroke-linecap="round" stroke-linejoin="round"/>
<path d="M36.9951 21.7953C38.0679 21.7953 38.9376 20.7325 38.9376 19.4215C38.9376 18.6034 38.5989 17.8819 38.0835 17.4551" stroke="#788392" stroke-width="2" stroke-linecap="round" stroke-linejoin="round"/>
<path d="M19.4443 21.7953C18.3715 21.7953 17.5018 20.7325 17.5018 19.4215C17.5018 18.6034 17.8405 17.8819 18.3559 17.4551" stroke="#788392" stroke-width="2" stroke-linecap="round" stroke-linejoin="round"/>
<path d="M23.9241 28.166V31.9976L22.4551 33.4158" stroke="#788392" stroke-width="2" stroke-linejoin="round"/>
<path d="M32.6658 28.166V31.9976L34.1348 33.4158" stroke="#788392" stroke-width="2" stroke-linejoin="round"/>
<path d="M23.502 32.8652L31.5052 40.723" stroke="#788392" stroke-width="2" stroke-linejoin="round"/>
<path d="M32.666 32.8652L24.9763 40.4151" stroke="#788392" stroke-width="2" stroke-linejoin="round"/>
</svg>
