<svg width="57" height="56" viewBox="0 0 57 56" fill="none" xmlns="http://www.w3.org/2000/svg">
<path d="M23.9072 24.891C23.9338 24.4376 24.0193 23.1316 24.9462 22.2047C25.8731 21.2778 26.7074 21.1641 27.948 21.1641C28.6319 21.1641 29.9108 21.4022 30.9224 22.571C31.5859 23.3377 31.709 24.487 31.4471 25.4158C31.2204 26.2197 30.8076 26.6515 30.2212 26.9658" stroke="#788392" stroke-width="2"/>
<path d="M31.8887 31.8632C31.8595 32.3166 31.8312 33.3684 30.8129 34.2953C29.7947 35.2222 28.8782 35.3359 27.5153 35.3359C26.764 35.3359 25.359 35.0978 24.2478 33.929C23.5189 33.1623 23.3836 32.013 23.6713 31.0842C23.8078 30.6436 24.1565 30.2348 24.5962 29.8716" stroke="#788392" stroke-width="2"/>
<path d="M21.8057 26.9648H33.6784" stroke="#788392" stroke-width="2"/>
<path d="M21.8057 29.7676H33.6784" stroke="#788392" stroke-width="2"/>
<path d="M48.5575 29.9607V23.3765V15.8125C48.5575 15.2602 48.1098 14.8125 47.5575 14.8125H7.92578C7.3735 14.8125 6.92578 15.2602 6.92578 15.8125V40.6877C6.92578 41.24 7.3735 41.6877 7.92578 41.6877H36.3201" stroke="#788392" stroke-width="2"/>
<path d="M41.1475 34.2734L49.6361 42.7621" stroke="#788392" stroke-width="2"/>
<path d="M49.6357 34.2734L41.1471 42.7621" stroke="#788392" stroke-width="2"/>
</svg>
