<svg width="32" height="32" viewBox="0 0 32 32" fill="none" xmlns="http://www.w3.org/2000/svg">
<path d="M19 8C20.0609 8 21.0783 8.42143 21.8284 9.17157C22.5786 9.92172 23 10.9391 23 12C23 13.0609 22.5786 14.0783 21.8284 14.8284C21.0783 15.5786 20.0609 16 19 16C17.9391 16 16.9217 15.5786 16.1716 14.8284C15.4214 14.0783 15 13.0609 15 12C15 10.9391 15.4214 9.92172 16.1716 9.17157C16.9217 8.42143 17.9391 8 19 8ZM19 9.9C18.443 9.9 17.9089 10.1212 17.5151 10.5151C17.1212 10.9089 16.9 11.443 16.9 12C16.9 12.557 17.1212 13.0911 17.5151 13.4849C17.9089 13.8788 18.443 14.1 19 14.1C20.16 14.1 21.1 13.16 21.1 12C21.1 10.84 20.16 9.9 19 9.9ZM19 17C21.67 17 27 18.33 27 21V24H11V21C11 18.33 16.33 17 19 17ZM19 18.9C16 18.9 12.9 20.36 12.9 21V22.1H25.1V21C25.1 20.36 21.97 18.9 19 18.9ZM9 17.28L6.5 18.77L7.18 15.96L5 14.08L7.87 13.83L9 11.19L10.11 13.83L13 14.08L10.8 15.96L11.45 18.77L9 17.28Z"/>
</svg>
