<svg width="32" height="32" viewBox="0 0 32 32" fill="none" xmlns="http://www.w3.org/2000/svg">
<path d="M13 17.75C10.66 17.75 6 18.92 6 21.25V23H20V21.25C20 18.92 15.34 17.75 13 17.75ZM8.34 21C9.18 20.42 11.21 19.75 13 19.75C14.79 19.75 16.82 20.42 17.66 21H8.34ZM13 16C14.93 16 16.5 14.43 16.5 12.5C16.5 10.57 14.93 9 13 9C11.07 9 9.5 10.57 9.5 12.5C9.5 14.43 11.07 16 13 16ZM13 11C13.83 11 14.5 11.67 14.5 12.5C14.5 13.33 13.83 14 13 14C12.17 14 11.5 13.33 11.5 12.5C11.5 11.67 12.17 11 13 11ZM20.04 17.81C21.2 18.65 22 19.77 22 21.25V23H26V21.25C26 19.23 22.5 18.08 20.04 17.81ZM19 16C20.93 16 22.5 14.43 22.5 12.5C22.5 10.57 20.93 9 19 9C18.46 9 17.96 9.13 17.5 9.35C18.13 10.24 18.5 11.33 18.5 12.5C18.5 13.67 18.13 14.76 17.5 15.65C17.96 15.87 18.46 16 19 16Z"/>
</svg>
