<svg width="32" height="32" viewBox="0 0 32 32" fill="none" xmlns="http://www.w3.org/2000/svg">
<path d="M16 6C10.48 6 6 10.48 6 16C6 21.52 10.48 26 16 26C21.52 26 26 21.52 26 16C26 10.48 21.52 6 16 6ZM16 24C11.59 24 8 20.41 8 16C8 11.59 11.59 8 16 8C20.41 8 24 11.59 24 16C24 20.41 20.41 24 16 24ZM16.31 15.14C14.54 14.69 13.97 14.2 13.97 13.47C13.97 12.63 14.76 12.04 16.07 12.04C17.45 12.04 17.97 12.7 18.01 13.68H19.72C19.67 12.34 18.85 11.11 17.23 10.71V9H14.9V10.69C13.39 11.01 12.18 11.99 12.18 13.5C12.18 15.29 13.67 16.19 15.84 16.71C17.79 17.17 18.18 17.86 18.18 18.58C18.18 19.11 17.79 19.97 16.08 19.97C14.48 19.97 13.85 19.25 13.76 18.33H12.04C12.14 20.03 13.4 20.99 14.9 21.3V23H17.24V21.33C18.76 21.04 19.96 20.17 19.97 18.56C19.96 16.36 18.07 15.6 16.31 15.14Z"/>
</svg>
