<svg width="32" height="32" viewBox="0 0 32 32" fill="none" xmlns="http://www.w3.org/2000/svg">
<path d="M17 11H15V14H12V16H15V19H17V16H20V14H17V11Z" fill="#374656"/>
<path d="M16.3033 6.68724L16.3033 6.68725L22.9375 8.48656L22.8983 8.63133L22.9375 8.48656C23.3898 8.60924 23.7179 9.00192 23.718 9.45507V9.45509V14.2516C23.718 16.82 22.8729 19.2828 21.2764 21.373C20.0389 22.9933 18.3863 24.33 16.4975 25.2397C16.3411 25.315 16.1703 25.3524 16 25.3524C15.8297 25.3524 15.6589 25.315 15.5025 25.2397M16.3033 6.68724L15.5676 25.1046M16.3033 6.68724C16.1049 6.63348 15.8952 6.63335 15.6966 6.68725C15.6966 6.68725 15.6966 6.68726 15.6966 6.68726L9.06255 8.48656L9.06253 8.48656C8.61025 8.60928 8.28207 9.002 8.28207 9.45509V14.2516C8.28207 16.82 9.1271 19.2828 10.7236 21.373M16.3033 6.68724L10.8428 21.2819M15.5025 25.2397L15.5676 25.1046M15.5025 25.2397C15.5025 25.2397 15.5025 25.2397 15.5025 25.2397L15.5676 25.1046M15.5025 25.2397C13.6137 24.33 11.9611 22.9933 10.7236 21.373M15.5676 25.1046C13.6994 24.2048 12.0655 22.883 10.8428 21.2819M10.7236 21.373C10.7236 21.373 10.7236 21.373 10.7236 21.373L10.8428 21.2819M10.7236 21.373L10.8428 21.2819M22.1729 14.2516C22.1729 16.5156 21.4289 18.6873 20.0193 20.5327C18.9709 21.9053 17.585 23.0492 16 23.8512C14.4151 23.0492 13.0291 21.9053 11.9808 20.5327L11.8616 20.6238L11.9808 20.5327C10.5711 18.6873 9.82713 16.5156 9.82713 14.2516V9.78385L16 8.10961L22.1729 9.78385V14.2516Z" stroke="#374656" stroke-width="0.3"/>
<path d="M22.8983 8.63133L16.264 6.83202C16.0913 6.78521 15.9087 6.78511 15.7359 6.83202L9.10181 8.63133C8.70752 8.73832 8.43207 9.07705 8.43207 9.45509V14.2516C8.43207 16.7862 9.26574 19.2172 10.8428 21.2819C12.0655 22.883 13.6994 24.2048 15.5676 25.1046C15.703 25.1698 15.8515 25.2024 16 25.2024C16.1485 25.2024 16.297 25.1698 16.4324 25.1046C18.3006 24.2048 19.9344 22.8829 21.1572 21.2819C22.7343 19.2172 23.568 16.7862 23.568 14.2516V9.45509C23.5679 9.07696 23.2925 8.73827 22.8983 8.63133ZM22.3229 14.2516C22.3229 16.5494 21.5675 18.7528 20.1385 20.6238C19.061 22.0344 17.6327 23.2057 16 24.019C14.3673 23.2056 12.939 22.0344 11.8616 20.6238C10.4325 18.7528 9.67713 16.5494 9.67713 14.2516V9.66911L16 7.95419L22.3229 9.66911V14.2516Z" fill="#374656"/>
</svg>
