<svg width="32" height="32" viewBox="0 0 32 32" fill="none" xmlns="http://www.w3.org/2000/svg">
<path fill-rule="evenodd" clip-rule="evenodd" d="M9.82861 18.2388V9.80348L16.0522 8.07545L22.1715 9.7979V18.2388C22.1715 18.2388 22.0685 18.8248 21.5521 19.5729C21.0717 20.2689 20.3739 21.0234 19.5721 21.7302C18.7737 22.4339 17.9293 23.0402 17.1948 23.4596C16.4173 23.9038 16.0469 23.9936 16.0469 23.9936H16.0078C16.0078 23.9936 15.4959 23.8687 14.8112 23.4744C14.0803 23.0536 13.2365 22.4399 12.4362 21.7265C11.6331 21.0107 10.9317 20.2462 10.4482 19.5455C9.92413 18.786 9.82861 18.2388 9.82861 18.2388ZM15.7865 6.07356L8.56108 8.07976C8.1282 8.19995 7.82861 8.59069 7.82861 9.03994V18.2388C7.82861 21.1448 13.8429 26.0276 16 26.0001C18.157 25.9727 24.1715 21.2289 24.1715 18.2388V9.03711C24.1715 8.58918 23.8737 8.19929 23.4425 8.07792L16.325 6.07452C16.149 6.02497 15.9627 6.02464 15.7865 6.07356ZM15 11H17V14H20V16H17V19H15V16H12V14H15V11Z"/>
</svg>
