<svg xmlns="http://www.w3.org/2000/svg" width="32" height="32" viewBox="0 0 32 32" fill="none" class="sgv_lg sgv_stroke"><path d="M19.563 7.1873C20.4434 9.30485 22.3949 10.8721 24.7307 11.3792C24.2673 13.549 23.3489 16.0439 21.7548 18.2899C20.4335 20.1515 18.824 21.8716 17.5318 23.1353C16.9241 23.7296 16.3917 24.218 16 24.5671C15.6083 24.218 15.0759 23.7296 14.4682 23.1353C13.176 21.8716 11.5665 20.1515 10.2452 18.2899C8.66493 16.0633 7.74868 13.5922 7.28148 11.4357C8.37575 11.2383 9.41246 10.7768 10.2978 10.0828C11.2659 9.3241 12.0074 8.32326 12.4528 7.18944C12.5634 7.20481 12.6759 7.22066 12.79 7.23672C13.8182 7.3815 14.9749 7.54438 16.0003 7.54438C17.0261 7.54438 18.1833 7.3814 19.2115 7.23659C19.3305 7.21982 19.4478 7.2033 19.563 7.1873Z" stroke-width="2.16583" stroke-miterlimit="10" stroke-linecap="round"></path></svg>
