<svg width="32" height="32" viewBox="0 0 32 32" fill="none" xmlns="http://www.w3.org/2000/svg">
<g clip-path="url(#clip0)">
<path fill-rule="evenodd" clip-rule="evenodd" d="M16.9999 11.3235C18.1637 10.9118 18.9974 9.80175 18.9974 8.49695C18.9974 6.84151 17.6554 5.49951 16 5.49951C14.3446 5.49951 13.0026 6.84151 13.0026 8.49695C13.0026 9.80171 13.8362 10.9118 14.9999 11.3235L14.9999 15.06C11.8999 15.4 9.27994 17.32 7.94994 20C6.30994 20.04 4.99994 21.36 4.99994 23C4.99994 24.66 6.33994 26 7.99994 26C9.65994 26 10.9999 24.66 10.9999 23C10.9999 22.05 10.5499 21.22 9.85994 20.67C10.8999 18.77 12.7699 17.4 14.9999 17.08L14.9999 20.18C13.8399 20.6 12.9999 21.7 12.9999 23C12.9999 24.66 14.3399 26 15.9999 26C17.6599 26 18.9999 24.66 18.9999 23C18.9999 21.7 18.1599 20.6 16.9999 20.18L16.9999 17.08C19.2299 17.4 21.0999 18.77 22.1399 20.66C21.4499 21.22 20.9999 22.05 20.9999 23C20.9999 24.66 22.3399 26 23.9999 26C25.6599 26 26.9999 24.66 26.9999 23C26.9999 21.36 25.6899 20.04 24.0499 20.01C22.7199 17.33 20.0999 15.41 16.9999 15.07L16.9999 11.3235Z"/>
</g>
<defs>
<clipPath id="clip0">
<rect width="24" height="24" fill="white" transform="translate(4 4)"/>
</clipPath>
</defs>
</svg>
