<svg width="32" height="32" viewBox="0 0 32 32" fill="none" xmlns="http://www.w3.org/2000/svg">
<path fill-rule="evenodd" clip-rule="evenodd" d="M24 10H16L14 8H8C6.9 8 6.01 8.9 6.01 10L6 22C6 23.1 6.9 24 8 24H24C25.1 24 26 23.1 26 22V12C26 10.9 25.1 10 24 10ZM8 22V10H13.17L15.17 12H24V22H8ZM19.5889 21C20.0798 21 20.4778 20.602 20.4778 20.1111C20.4778 19.6202 20.0798 19.2222 19.5889 19.2222C19.098 19.2222 18.7 19.6202 18.7 20.1111C18.7 20.602 19.098 21 19.5889 21ZM20.4778 13H18.7V18.3333H20.4778V13Z"/>
</svg>
