<svg width="60" height="48" viewBox="0 0 60 48" fill="none" xmlns="http://www.w3.org/2000/svg">
<path d="M14.0691 39.5585C14.3327 38.6887 14.3052 37.0077 13.9752 35.9502C13.9138 35.9291 13.8523 35.9081 13.7908 35.8871C13.291 36.3107 12.9966 36.8124 12.762 37.3442C11.9775 39.2475 12.7588 39.7778 12.7717 41.28C11.4873 39.7042 10.3906 38.0322 9.48144 36.2927C9.62056 34.3037 10.6283 35.1134 11.2544 32.4139C11.3692 31.8656 11.4598 31.3068 11.4016 30.6533C11.3466 30.6203 11.2916 30.5872 11.2382 30.5557C10.6672 30.8366 10.2757 31.2302 9.93114 31.6643C8.72924 33.2687 9.41835 33.823 8.99938 35.3252C8.17277 33.5872 7.53057 31.786 7.07439 29.9503C7.45777 28.4886 7.83792 28.762 8.79071 27.8757C9.35041 27.3424 10.0169 26.0415 10.1398 24.9734C10.0929 24.9314 10.0476 24.8878 10.0023 24.8442C9.40541 24.9764 8.95085 25.2559 8.53674 25.5803C6.8463 26.9699 7.86703 27.2313 6.82204 28.8341C6.44836 27.0165 6.25425 25.1702 6.24131 23.3195C7.21351 21.2089 7.81527 22.6465 9.45879 20.5464C9.76129 20.1378 10.0428 19.7097 10.232 19.1268C10.1981 19.0742 10.1625 19.0231 10.1285 18.9706C9.54129 18.9586 9.06247 19.1223 8.60953 19.3326C6.68454 20.3 7.65512 20.8483 6.2591 22.0787C6.32704 20.2715 6.56645 18.4658 6.98218 16.6842C8.10806 15.0918 7.90748 15.7708 9.52512 15.2811C10.3436 15.0257 11.3045 14.0733 11.7154 13.3372C11.6976 13.2802 11.6766 13.2216 11.6555 13.163C10.7481 12.9181 9.54291 13.2156 8.91041 13.7939C8.18733 14.4714 8.29247 14.8725 7.33483 15.3337C7.83953 13.5641 8.52218 11.826 9.38115 10.1405C9.39732 10.1601 9.41512 10.1796 9.43129 10.2006C11.51 8.22369 11.2883 10.0534 13.4495 8.82308C13.8523 8.57972 14.2486 8.30481 14.6401 7.84363C14.6352 7.78054 14.6288 7.71745 14.6239 7.65435C13.8636 7.22021 12.6989 7.24575 11.9872 7.67388C11.2188 8.15159 11.0845 8.66685 10.1317 8.85012C10.1382 8.81106 10.1398 8.77351 10.1479 8.73445C11.5407 6.3354 13.3104 4.06555 15.4602 2C13.4236 3.8282 11.6895 5.84418 10.2611 7.99385C10.3582 6.55473 10.3453 5.21024 9.23071 4.07907C9.15791 4.10461 9.08512 4.12864 9.01232 4.15418C7.88645 5.9914 7.70042 8.08849 9.13041 9.83708C8.31189 11.2822 7.62439 12.7799 7.06792 14.3107C6.80101 12.8806 6.22513 11.458 4.99734 10.5807C4.93263 10.6182 4.86793 10.6573 4.80322 10.6963C4.19984 12.798 4.61558 15.0483 6.37557 16.4739C5.95498 17.9926 5.65734 19.5384 5.48748 21.0962C4.81455 19.7352 3.90058 18.4117 2.44794 17.7057C2.39456 17.7553 2.34117 17.8063 2.28617 17.8559C2.24735 20.1213 3.26323 22.292 5.32572 23.4427C5.28204 24.9809 5.36131 26.5222 5.56351 28.0575C4.53955 26.8407 3.25514 25.6645 1.62294 25.1777C1.5825 25.2378 1.54044 25.2979 1.5 25.358C2.05809 27.6339 3.58999 29.6138 5.98248 30.4656C6.30925 31.9633 6.75572 33.446 7.32189 34.8986C5.29175 33.3949 3.7744 32.8616 2.56603 32.7114C2.54014 32.779 2.51426 32.8466 2.49 32.9142C3.65146 35.0864 5.65572 36.7839 8.36365 37.2571C9.05438 38.6556 9.86159 40.0182 10.7885 41.3341C8.26659 40.215 6.5616 39.9611 5.32087 40.0122C5.31278 40.0843 5.30469 40.1579 5.2966 40.23C7.0663 42.1994 9.5235 43.5063 12.4822 43.5289C13.202 44.3791 13.9752 45.2038 14.8051 46C15.2419 45.5944 15.6786 45.1888 16.1154 44.7832C15.1642 43.9299 14.2794 43.0331 13.4641 42.1017C13.2748 40.7933 13.7083 40.7047 14.0691 39.5585Z" fill="#CCD4DE"/>
<path d="M52.6794 34.9012C53.2471 33.4485 53.6918 31.9658 54.0185 30.468C56.1533 29.7079 57.879 27.8916 58.5 25.3603C58.4596 25.3002 58.4191 25.2401 58.3771 25.18C56.7436 25.6668 55.4611 26.8461 54.4374 28.0599C54.6395 26.5261 54.7188 24.9832 54.6751 23.4449C56.7404 22.2912 57.7528 20.1189 57.714 17.858C57.6606 17.8084 57.6073 17.7573 57.5523 17.7077C56.1097 18.4093 55.1943 19.7238 54.5134 21.0984C54.3436 19.5405 54.046 17.9947 53.6255 16.4759C55.0891 15.3146 55.9043 13.1574 55.1975 10.6966C55.1328 10.6576 55.0681 10.62 55.0034 10.581C53.7694 11.4628 53.1969 12.893 52.9333 14.3111C52.377 12.7788 51.6896 11.2825 50.8713 9.83584C52.2993 8.07969 52.1214 6.00205 50.9877 4.15275C50.9149 4.12722 50.8422 4.10318 50.7694 4.07764C49.6567 5.20885 49.6421 6.55338 49.7392 7.99406C48.3111 5.84431 46.5774 3.82826 44.5412 2C46.6906 4.06562 48.4599 6.33555 49.8524 8.73468C49.8605 8.77374 49.8621 8.80979 49.8686 8.85035C48.916 8.66557 48.7817 8.1503 48.0119 7.67408C47.3003 7.24593 46.1359 7.22039 45.3757 7.65455C45.3709 7.71764 45.3644 7.78074 45.3596 7.84383C45.8852 8.46577 46.972 9.21841 47.7952 9.28301C49.2621 9.38065 49.0437 8.7512 50.5672 10.2009C50.5834 10.1814 50.5996 10.1603 50.6174 10.1408C51.4761 11.8248 52.1586 13.5645 52.6632 15.3342C51.0508 14.556 51.8724 13.6832 49.8152 13.1694C49.3559 13.0687 48.882 13.0177 48.3435 13.1619C48.3224 13.2205 48.3014 13.279 48.2804 13.3376C48.5747 13.8664 48.9224 14.2195 49.2831 14.5455C51.3112 16.2806 51.4729 14.5304 53.0142 16.6862C53.4298 18.4679 53.6708 20.2736 53.7371 22.0809C52.1619 20.6912 53.3716 20.3307 51.3872 19.3347C50.9343 19.1244 50.4572 18.9591 49.8702 18.9727C49.8362 19.0252 49.8006 19.0763 49.7667 19.1289C50.0934 20.1414 50.9748 21.2065 51.6007 21.5686C52.8007 22.2491 53.0643 21.8195 53.7565 23.3217C53.7436 25.1725 53.5495 27.0203 53.1759 28.8366C52.1958 27.3343 53.129 26.9527 51.4616 25.5826C51.0476 25.2566 50.5931 24.9787 49.9963 24.8465C49.951 24.8901 49.9041 24.9337 49.8589 24.9757C49.93 25.6022 50.1289 26.0994 50.3489 26.5847C51.536 29.0288 52.377 27.8661 52.9236 29.9527C52.4675 31.7885 51.8255 33.5897 50.999 35.3279C50.6432 34.0494 50.9845 34.3274 50.7856 33.1661C50.6093 32.1926 49.7505 31.0449 48.7607 30.5582C48.7057 30.5912 48.6507 30.6243 48.5958 30.6558C48.2852 34.1892 50.3667 34.1576 50.5155 36.2953C49.6066 38.035 48.51 39.707 47.2259 41.2829C47.2389 39.7806 48.02 39.2518 47.2356 37.3469C47.0011 36.8151 46.7068 36.3134 46.207 35.8897C46.1456 35.9108 46.0841 35.9318 46.0227 35.9528C45.6927 37.0089 45.6652 38.69 45.9289 39.5613C46.2911 40.712 46.7229 40.7961 46.5353 42.1016C45.7186 43.0345 44.8356 43.9299 43.8846 44.7832C44.3213 45.1888 44.7579 45.5944 45.1946 46C46.0227 45.2038 46.7973 44.3791 47.5154 43.5288C48.7882 43.5198 49.8459 43.3094 50.8147 42.9444C52.1489 42.381 53.4864 41.5818 54.6994 40.2343C54.6913 40.1622 54.6832 40.0886 54.6751 40.0165C53.4347 39.9669 51.7301 40.2193 49.2087 41.3385C50.1354 40.0225 50.9424 38.6599 51.633 37.2613C54.3549 36.7866 56.3522 35.077 57.5054 32.9182C57.4795 32.8506 57.4552 32.783 57.4294 32.7154C56.2261 32.8641 54.7091 33.396 52.6794 34.9012Z" fill="#CCD4DE"/>
<path d="M25.3848 25.1836H26.835V27.2314H25.3848V30H22.8447V27.2314H17.5977L17.4834 25.6318L22.8184 17.2031H25.3848V25.1836ZM20.0146 25.1836H22.8447V20.666L22.6777 20.9561L20.0146 25.1836ZM28.4434 28.752C28.4434 28.3477 28.5781 28.0195 28.8477 27.7676C29.123 27.5156 29.4658 27.3896 29.876 27.3896C30.292 27.3896 30.6348 27.5156 30.9043 27.7676C31.1797 28.0195 31.3174 28.3477 31.3174 28.752C31.3174 29.1504 31.1826 29.4756 30.9131 29.7275C30.6436 29.9736 30.2979 30.0967 29.876 30.0967C29.46 30.0967 29.1172 29.9736 28.8477 29.7275C28.5781 29.4756 28.4434 29.1504 28.4434 28.752ZM33.8223 23.707L34.5605 17.2031H41.7324V19.3213H36.6436L36.3271 22.0723C36.9307 21.75 37.5723 21.5889 38.252 21.5889C39.4707 21.5889 40.4258 21.9668 41.1172 22.7227C41.8086 23.4785 42.1543 24.5361 42.1543 25.8955C42.1543 26.7217 41.9785 27.4629 41.627 28.1191C41.2812 28.7695 40.7832 29.2764 40.1328 29.6396C39.4824 29.9971 38.7148 30.1758 37.8301 30.1758C37.0566 30.1758 36.3389 30.0205 35.6768 29.71C35.0146 29.3936 34.4902 28.9512 34.1035 28.3828C33.7227 27.8145 33.5205 27.167 33.4971 26.4404H36.0107C36.0635 26.9736 36.248 27.3896 36.5645 27.6885C36.8867 27.9814 37.3057 28.1279 37.8213 28.1279C38.3955 28.1279 38.8379 27.9229 39.1484 27.5127C39.459 27.0967 39.6143 26.5107 39.6143 25.7549C39.6143 25.0283 39.4355 24.4717 39.0781 24.085C38.7207 23.6982 38.2139 23.5049 37.5576 23.5049C36.9541 23.5049 36.4648 23.6631 36.0898 23.9795L35.8438 24.208L33.8223 23.707Z" fill="#CCD4DE"/>
</svg>
