<svg xmlns="http://www.w3.org/2000/svg" width="40" height="40" viewBox="0 0 40 40" fill="none">
<circle cx="20" cy="20" r="20" fill="#CCD4DE"/>
<circle cx="20" cy="20" r="20" fill="#EDEDED"/>
<mask id="mask0" mask-type="alpha" maskUnits="userSpaceOnUse" x="0" y="0" width="40" height="40">
<circle cx="20" cy="20" r="20" fill="#C4C4C4"/>
</mask>
<g mask="url(#mask0)">
<path d="M3.37838 46.225H37.084C34.2715 36.9899 27.6972 30.5059 20.0037 30.5059C12.3102 30.5059 5.72145 37.0008 2.91626 46.2503C3.06967 46.2328 3.22397 46.2243 3.37838 46.225Z" fill="#FA5555"/>
<mask id="mask1" mask-type="alpha" maskUnits="userSpaceOnUse" x="2" y="30" width="36" height="17">
<path d="M3.37838 46.225H37.084C34.2715 36.9899 27.6972 30.5059 20.0037 30.5059C12.3102 30.5059 5.72145 37.0008 2.91626 46.2503C3.06967 46.2328 3.22397 46.2243 3.37838 46.225Z" fill="#D85A2C"/>
</mask>
<g mask="url(#mask1)">
<path d="M19.9353 36.9526C22.8843 36.9526 25.2749 34.562 25.2749 31.613C25.2749 28.6641 22.8843 26.2734 19.9353 26.2734C16.9863 26.2734 14.5957 28.6641 14.5957 31.613C14.5957 34.562 16.9863 36.9526 19.9353 36.9526Z" stroke="#EDA18A" stroke-width="0.320418" stroke-miterlimit="10"/>
</g>
<path d="M16.2744 22.8857H23.8343V31.8031C23.8334 32.805 23.4347 33.7655 22.7259 34.4736C22.0172 35.1817 21.0563 35.5795 20.0544 35.5795C19.0525 35.5795 18.0916 35.1817 17.3828 34.4736C16.674 33.7655 16.2754 32.805 16.2744 31.8031V22.8857Z" fill="#F7CBB5"/>
<mask id="mask2" mask-type="alpha" maskUnits="userSpaceOnUse" x="16" y="22" width="8" height="14">
<path d="M16.2744 22.8857H23.8343V31.8031C23.8334 32.805 23.4347 33.7655 22.7259 34.4736C22.0172 35.1817 21.0563 35.5795 20.0544 35.5795C19.0525 35.5795 18.0916 35.1817 17.3828 34.4736C16.674 33.7655 16.2754 32.805 16.2744 31.8031V22.8857Z" fill="#F7CBB5"/>
</mask>
<g mask="url(#mask2)">
<path d="M15.2345 30.3712C15.2345 30.3712 18.527 34.6711 25.1772 32.4543C29.2315 31.1005 26.7224 27.2158 26.7224 27.2158L14.7651 30.2376" fill="#EDA18A"/>
</g>
<path d="M9.9275 23.7886C12.0969 23.7886 13.8555 22.03 13.8555 19.8606C13.8555 17.6912 12.0969 15.9326 9.9275 15.9326C7.75813 15.9326 5.99951 17.6912 5.99951 19.8606C5.99951 22.03 7.75813 23.7886 9.9275 23.7886Z" fill="#EDA18A"/>
<path d="M30.1814 23.7886C32.3508 23.7886 34.1094 22.03 34.1094 19.8606C34.1094 17.6912 32.3508 15.9326 30.1814 15.9326C28.012 15.9326 26.2534 17.6912 26.2534 19.8606C26.2534 22.03 28.012 23.7886 30.1814 23.7886Z" fill="#EDA18A"/>
<path d="M20.1011 31.6226C26.035 31.6226 30.8453 26.0267 30.8453 19.1238C30.8453 12.2209 26.035 6.625 20.1011 6.625C14.1673 6.625 9.35693 12.2209 9.35693 19.1238C9.35693 26.0267 14.1673 31.6226 20.1011 31.6226Z" fill="#F7CBB5"/>
<path d="M15.0682 20.7001C15.4012 20.7001 15.6712 20.1587 15.6712 19.4907C15.6712 18.8227 15.4012 18.2812 15.0682 18.2812C14.7353 18.2812 14.4653 18.8227 14.4653 19.4907C14.4653 20.1587 14.7353 20.7001 15.0682 20.7001Z" fill="#374656"/>
<path d="M24.7401 20.7001C25.0731 20.7001 25.343 20.1587 25.343 19.4907C25.343 18.8227 25.0731 18.2812 24.7401 18.2812C24.4071 18.2812 24.1372 18.8227 24.1372 19.4907C24.1372 20.1587 24.4071 20.7001 24.7401 20.7001Z" fill="#374656"/>
<path d="M19.0977 18.6865C19.0977 18.6865 18.5272 23.0297 19.0544 23.6073C19.5815 24.185 20.8595 23.5243 21.3144 23.2463" stroke="#EDA18A" stroke-width="0.320418" stroke-linecap="round" stroke-linejoin="round"/>
<path d="M17.8555 25.5337C17.8555 25.5337 18.6606 27.0139 20.2058 26.7432C21.751 26.4724 22.0867 25.4688 22.0867 25.4688" stroke="#EDA18A" stroke-width="0.320418" stroke-linecap="round" stroke-linejoin="round"/>
<path d="M13.2885 24.1953C14.4011 24.1953 15.303 23.5181 15.303 22.6826C15.303 21.8472 14.4011 21.1699 13.2885 21.1699C12.1759 21.1699 11.2739 21.8472 11.2739 22.6826C11.2739 23.5181 12.1759 24.1953 13.2885 24.1953Z" fill="#F2A0A0"/>
<path d="M26.9896 24.1953C28.1022 24.1953 29.0042 23.5181 29.0042 22.6826C29.0042 21.8472 28.1022 21.1699 26.9896 21.1699C25.877 21.1699 24.9751 21.8472 24.9751 22.6826C24.9751 23.5181 25.877 24.1953 26.9896 24.1953Z" fill="#F2A0A0"/>
<path d="M16.375 15.6658C16.375 15.6658 15.3677 15.1315 13.689 15.868" stroke="#374656" stroke-width="0.961253" stroke-linecap="round" stroke-linejoin="round"/>
<path d="M23.5635 15.6658C23.5635 15.6658 24.5707 15.1315 26.2495 15.868" stroke="#374656" stroke-width="0.961253" stroke-linecap="round" stroke-linejoin="round"/>
<path d="M9.35693 18.4151C9.35693 18.4151 9.59336 13.7243 10.4978 10.8949C10.9332 9.53275 11.8751 7.50194 11.8751 7.50194C11.8751 7.50194 14.3751 6.25 20.6251 6.25C26.8751 6.25 29.3751 7.50194 29.3751 7.50194L30.3904 11.9671C30.3904 11.9671 31.1811 17.2851 30.8525 19.1263C30.8525 19.1263 29.5853 10.8949 25.6898 9.95259C22.9496 9.29191 19.3863 9.70348 16.4223 9.54824C11.1729 9.28108 9.35693 18.4151 9.35693 18.4151Z" fill="#374656"/>
</g>
</svg>
