<svg xmlns="http://www.w3.org/2000/svg" width="40" height="40" viewBox="0 0 40 40" fill="none">
<circle cx="20" cy="20" r="20" fill="#CCD4DE"/>
<circle cx="20" cy="20" r="20" fill="#EDEDED"/>
<mask id="mask0" mask-type="alpha" maskUnits="userSpaceOnUse" x="0" y="0" width="40" height="40">
<circle cx="20" cy="20" r="20" fill="#C4C4C4"/>
</mask>
<g mask="url(#mask0)">
<path d="M11.2373 19.7002C11.2373 19.7002 11.7736 29.9217 9.12356 33.2658C6.47353 36.6099 9.31285 40.0486 9.31285 40.0486L33.2577 41.2474C33.2577 41.2474 36.0655 35.7266 33.8887 33.6444C28.841 28.786 30.3869 20.5835 30.3869 20.5835L11.2373 19.7002Z" fill="#6A5A54"/>
<path d="M6.37858 46.1687H35.8444C33.3836 38.0924 27.6419 32.4453 20.9222 32.4453C14.2025 32.4453 8.42919 38.1239 6 46.2002C6.09464 46.1687 6.25238 46.1687 6.37858 46.1687Z" fill="#D85A2C"/>
<path d="M6.37858 46.1687H35.8444C33.3836 38.0924 27.6419 32.4453 20.9222 32.4453C14.2025 32.4453 8.42919 38.1239 6 46.2002C6.09464 46.1687 6.25238 46.1687 6.37858 46.1687Z" fill="#F4BB00"/>
<path d="M21.1744 37.8741C19.3446 37.8741 17.8618 36.3914 17.8618 34.5616V26.8008H24.4553V34.5931C24.4869 36.3914 23.0041 37.8741 21.1744 37.8741Z" fill="#F7CBB5"/>
<mask id="mask1" mask-type="alpha" maskUnits="userSpaceOnUse" x="17" y="26" width="8" height="12">
<path d="M21.1744 37.8741C19.3446 37.8741 17.8618 36.3914 17.8618 34.5616V26.8008H24.4553V34.5931C24.4869 36.3914 23.0041 37.8741 21.1744 37.8741Z" fill="#F7CBB5"/>
</mask>
<g mask="url(#mask1)">
<path d="M16.9782 31.0894C16.9782 31.0894 19.8491 34.8436 25.6539 32.9192C29.1873 31.7519 27.0105 28.3447 27.0105 28.3447L16.5681 30.9948" fill="#EDA18A"/>
</g>
<path d="M12.0894 24.689C13.9885 24.689 15.5281 23.1494 15.5281 21.2503C15.5281 19.3511 13.9885 17.8115 12.0894 17.8115C10.1902 17.8115 8.65063 19.3511 8.65063 21.2503C8.65063 23.1494 10.1902 24.689 12.0894 24.689Z" fill="#EDA18A"/>
<path d="M29.7869 24.689C31.686 24.689 33.2256 23.1494 33.2256 21.2503C33.2256 19.3511 31.686 17.8115 29.7869 17.8115C27.8877 17.8115 26.3481 19.3511 26.3481 21.2503C26.3481 23.1494 27.8877 24.689 29.7869 24.689Z" fill="#EDA18A"/>
<path d="M20.9848 31.506C26.177 31.506 30.3861 26.6189 30.3861 20.5904C30.3861 14.5619 26.177 9.6748 20.9848 9.6748C15.7926 9.6748 11.5835 14.5619 11.5835 20.5904C11.5835 26.6189 15.7926 31.506 20.9848 31.506Z" fill="#F7CBB5"/>
<path d="M16.6008 22.9142C16.897 22.9142 17.1371 22.4481 17.1371 21.8731C17.1371 21.2981 16.897 20.832 16.6008 20.832C16.3046 20.832 16.0645 21.2981 16.0645 21.8731C16.0645 22.4481 16.3046 22.9142 16.6008 22.9142Z" fill="#374656"/>
<path d="M25.0246 22.9142C25.3208 22.9142 25.5609 22.4481 25.5609 21.8731C25.5609 21.2981 25.3208 20.832 25.0246 20.832C24.7284 20.832 24.4883 21.2981 24.4883 21.8731C24.4883 22.4481 24.7284 22.9142 25.0246 22.9142Z" fill="#374656"/>
<path d="M20.165 21.8506C20.165 21.8506 19.5972 24.3429 20.0704 24.8476C20.5436 25.3524 20.9222 24.8792 21.3323 24.6584" stroke="#EDA18A" stroke-width="0.205053" stroke-miterlimit="10" stroke-linecap="round" stroke-linejoin="round"/>
<path d="M19.0288 26.1959C19.0288 26.1959 19.7229 27.4894 21.0794 27.237C22.436 27.0162 22.7199 26.1328 22.7199 26.1328" stroke="#EDA18A" stroke-width="0.205053" stroke-miterlimit="10" stroke-linecap="round" stroke-linejoin="round"/>
<path d="M15.0221 25.985C15.9978 25.985 16.7887 25.3918 16.7887 24.66C16.7887 23.9282 15.9978 23.335 15.0221 23.335C14.0463 23.335 13.2554 23.9282 13.2554 24.66C13.2554 25.3918 14.0463 25.985 15.0221 25.985Z" fill="#F2A0A0"/>
<path d="M27.0106 25.985C27.9863 25.985 28.7773 25.3918 28.7773 24.66C28.7773 23.9282 27.9863 23.335 27.0106 23.335C26.0349 23.335 25.2439 23.9282 25.2439 24.66C25.2439 25.3918 26.0349 25.985 27.0106 25.985Z" fill="#F2A0A0"/>
<path d="M17.7352 18.7565C17.7352 18.7565 16.8518 18.2833 15.4006 18.9458" stroke="#374656" stroke-width="0.205053" stroke-miterlimit="10" stroke-linecap="round" stroke-linejoin="round"/>
<path d="M24.0139 18.7565C24.0139 18.7565 24.8973 18.2833 26.3485 18.9458" stroke="#363C43" stroke-width="0.205053" stroke-miterlimit="10" stroke-linecap="round" stroke-linejoin="round"/>
<path d="M11.4253 22.5726C11.4253 22.5726 15.9051 17.3356 16.0944 12.6666C16.0944 12.6666 27.641 22.3833 30.0386 22.7934C30.0386 22.7934 33.2565 15.7898 29.5654 11.1838C28.5243 9.89033 24.8017 6.19922 20.5742 6.19922C16.7885 6.19922 16.1575 8.53377 16.1575 8.53377C16.1575 8.53377 13.8545 6.54625 11.7408 9.5433C7.45029 15.6636 11.4253 22.5726 11.4253 22.5726Z" fill="#6A5A54"/>
</g>
</svg>
