<svg xmlns="http://www.w3.org/2000/svg" width="22" height="16" viewBox="0 0 22 16" fill="none">
<path d="M14 0.000488281C15.0609 0.000488281 16.0783 0.421915 16.8284 1.17206C17.5786 1.92221 18 2.93962 18 4.00049C18 5.06135 17.5786 6.07877 16.8284 6.82892C16.0783 7.57906 15.0609 8.00049 14 8.00049C12.9391 8.00049 11.9217 7.57906 11.1716 6.82892C10.4214 6.07877 10 5.06135 10 4.00049C10 2.93962 10.4214 1.92221 11.1716 1.17206C11.9217 0.421915 12.9391 0.000488281 14 0.000488281ZM14 1.90049C13.443 1.90049 12.9089 2.12174 12.5151 2.51556C12.1212 2.90939 11.9 3.44353 11.9 4.00049C11.9 4.55744 12.1212 5.09159 12.5151 5.48541C12.9089 5.87924 13.443 6.10049 14 6.10049C15.16 6.10049 16.1 5.16049 16.1 4.00049C16.1 2.84049 15.16 1.90049 14 1.90049ZM14 9.00049C16.67 9.00049 22 10.3305 22 13.0005V16.0005H6V13.0005C6 10.3305 11.33 9.00049 14 9.00049ZM14 10.9005C11 10.9005 7.9 12.3605 7.9 13.0005V14.1005H20.1V13.0005C20.1 12.3605 16.97 10.9005 14 10.9005ZM4 9.28049L1.5 10.7705L2.18 7.96049L0 6.08049L2.87 5.83049L4 3.19049L5.11 5.83049L8 6.08049L5.8 7.96049L6.45 10.7705L4 9.28049Z" fill="#374656"/>
</svg>
