<svg width="152" height="40" viewBox="0 0 152 40" fill="none" xmlns="http://www.w3.org/2000/svg">
<path d="M0 0.5H149C150.657 0.5 152 1.84315 152 3.5V36.5C152 38.1569 150.657 39.5 149 39.5H0V0.5Z" fill="#F4BB00"/>
<path d="M40.9375 14.3594H37.2812V24.5H35.7891V14.3594H32.1406V13.125H40.9375V14.3594ZM41.2344 20.1953C41.2344 19.3672 41.3958 18.6224 41.7188 17.9609C42.0469 17.2995 42.5 16.7891 43.0781 16.4297C43.6615 16.0703 44.3255 15.8906 45.0703 15.8906C46.2214 15.8906 47.151 16.2891 47.8594 17.0859C48.5729 17.8828 48.9297 18.9427 48.9297 20.2656V20.3672C48.9297 21.1901 48.7708 21.9297 48.4531 22.5859C48.1406 23.237 47.6901 23.7448 47.1016 24.1094C46.5182 24.474 45.8464 24.6562 45.0859 24.6562C43.9401 24.6562 43.0104 24.2578 42.2969 23.4609C41.5885 22.6641 41.2344 21.6094 41.2344 20.2969V20.1953ZM42.6875 20.3672C42.6875 21.3047 42.9036 22.0573 43.3359 22.625C43.7734 23.1927 44.3568 23.4766 45.0859 23.4766C45.8203 23.4766 46.4036 23.1901 46.8359 22.6172C47.2682 22.0391 47.4844 21.2318 47.4844 20.1953C47.4844 19.2682 47.263 18.5182 46.8203 17.9453C46.3828 17.3672 45.7995 17.0781 45.0703 17.0781C44.3568 17.0781 43.7812 17.362 43.3438 17.9297C42.9062 18.4974 42.6875 19.3099 42.6875 20.3672ZM57.6562 24.5H56.2109V17.2422H52.3203V24.5H50.8672V16.0469H57.6562V24.5ZM70.8594 24.5H69.4141V17.2422H65.5234V24.5H64.0703V16.0469H70.8594V24.5ZM80.3203 20.3672C80.3203 21.6536 80.026 22.6901 79.4375 23.4766C78.849 24.263 78.0521 24.6562 77.0469 24.6562C76.0208 24.6562 75.2135 24.3307 74.625 23.6797V27.75H73.1797V16.0469H74.5L74.5703 16.9844C75.1589 16.2552 75.9766 15.8906 77.0234 15.8906C78.0391 15.8906 78.8411 16.2734 79.4297 17.0391C80.0234 17.8047 80.3203 18.8698 80.3203 20.2344V20.3672ZM78.875 20.2031C78.875 19.25 78.6719 18.4974 78.2656 17.9453C77.8594 17.3932 77.3021 17.1172 76.5938 17.1172C75.7188 17.1172 75.0625 17.5052 74.625 18.2812V22.3203C75.0573 23.0911 75.7188 23.4766 76.6094 23.4766C77.3021 23.4766 77.8516 23.2031 78.2578 22.6562C78.6693 22.1042 78.875 21.2865 78.875 20.2031ZM81.7812 20.1953C81.7812 19.3672 81.9427 18.6224 82.2656 17.9609C82.5938 17.2995 83.0469 16.7891 83.625 16.4297C84.2083 16.0703 84.8724 15.8906 85.6172 15.8906C86.7682 15.8906 87.6979 16.2891 88.4062 17.0859C89.1198 17.8828 89.4766 18.9427 89.4766 20.2656V20.3672C89.4766 21.1901 89.3177 21.9297 89 22.5859C88.6875 23.237 88.237 23.7448 87.6484 24.1094C87.0651 24.474 86.3932 24.6562 85.6328 24.6562C84.487 24.6562 83.5573 24.2578 82.8438 23.4609C82.1354 22.6641 81.7812 21.6094 81.7812 20.2969V20.1953ZM83.2344 20.3672C83.2344 21.3047 83.4505 22.0573 83.8828 22.625C84.3203 23.1927 84.9036 23.4766 85.6328 23.4766C86.3672 23.4766 86.9505 23.1901 87.3828 22.6172C87.8151 22.0391 88.0312 21.2318 88.0312 20.1953C88.0312 19.2682 87.8099 18.5182 87.3672 17.9453C86.9297 17.3672 86.3464 17.0781 85.6172 17.0781C84.9036 17.0781 84.3281 17.362 83.8906 17.9297C83.4531 18.4974 83.2344 19.3099 83.2344 20.3672ZM90.6562 23.3203L91.1562 22.7031C91.7188 21.974 92.0391 20.8802 92.1172 19.4219L92.25 16.0469H97.6953V23.3203H98.7812V26.9844H97.3359V24.5H91.4375V26.9844H89.9922L90 23.3203H90.6562ZM92.3672 23.3203H96.25V17.3828H93.6484L93.5625 19.3984C93.474 21.0807 93.0755 22.388 92.3672 23.3203ZM105.602 24.5C105.518 24.3333 105.451 24.0365 105.398 23.6094C104.727 24.3073 103.924 24.6562 102.992 24.6562C102.159 24.6562 101.474 24.4219 100.938 23.9531C100.406 23.4792 100.141 22.8802 100.141 22.1562C100.141 21.276 100.474 20.5938 101.141 20.1094C101.812 19.6198 102.755 19.375 103.969 19.375H105.375V18.7109C105.375 18.2057 105.224 17.8047 104.922 17.5078C104.62 17.2057 104.174 17.0547 103.586 17.0547C103.07 17.0547 102.638 17.1849 102.289 17.4453C101.94 17.7057 101.766 18.0208 101.766 18.3906H100.312C100.312 17.9688 100.461 17.5625 100.758 17.1719C101.06 16.776 101.466 16.4635 101.977 16.2344C102.492 16.0052 103.057 15.8906 103.672 15.8906C104.646 15.8906 105.409 16.1354 105.961 16.625C106.513 17.1094 106.799 17.7786 106.82 18.6328V22.5234C106.82 23.2995 106.919 23.9167 107.117 24.375V24.5H105.602ZM103.203 23.3984C103.656 23.3984 104.086 23.2812 104.492 23.0469C104.898 22.8125 105.193 22.5078 105.375 22.1328V20.3984H104.242C102.471 20.3984 101.586 20.9167 101.586 21.9531C101.586 22.4062 101.737 22.7604 102.039 23.0156C102.341 23.2708 102.729 23.3984 103.203 23.3984ZM115.828 20.8281H114.812V24.5H113.367V20.8281H112.352L109.984 24.5H108.156L111.18 20.125L108.445 16.0469H110.195L112.375 19.5469H113.367V16.0469H114.812V19.5469H115.797L117.992 16.0469H119.742L117 20.1328L120.023 24.5H118.195L115.828 20.8281Z" fill="#374656"/>
</svg>
