<svg width="152" height="40" viewBox="0 0 152 40" fill="none" xmlns="http://www.w3.org/2000/svg">
<path d="M0 0.5H149C150.657 0.5 152 1.84315 152 3.5V36.5C152 38.1569 150.657 39.5 149 39.5H0V0.5Z" fill="#4C9D11"/>
<path d="M40.1328 24.5H38.625V14.3594H33.0156V24.5H31.5156V13.125H40.1328V24.5ZM42.2578 20.1953C42.2578 19.3672 42.4193 18.6224 42.7422 17.9609C43.0703 17.2995 43.5234 16.7891 44.1016 16.4297C44.6849 16.0703 45.349 15.8906 46.0938 15.8906C47.2448 15.8906 48.1745 16.2891 48.8828 17.0859C49.5964 17.8828 49.9531 18.9427 49.9531 20.2656V20.3672C49.9531 21.1901 49.7943 21.9297 49.4766 22.5859C49.1641 23.237 48.7135 23.7448 48.125 24.1094C47.5417 24.474 46.8698 24.6562 46.1094 24.6562C44.9635 24.6562 44.0339 24.2578 43.3203 23.4609C42.612 22.6641 42.2578 21.6094 42.2578 20.2969V20.1953ZM43.7109 20.3672C43.7109 21.3047 43.9271 22.0573 44.3594 22.625C44.7969 23.1927 45.3802 23.4766 46.1094 23.4766C46.8438 23.4766 47.4271 23.1901 47.8594 22.6172C48.2917 22.0391 48.5078 21.2318 48.5078 20.1953C48.5078 19.2682 48.2865 18.5182 47.8438 17.9453C47.4062 17.3672 46.8229 17.0781 46.0938 17.0781C45.3802 17.0781 44.8047 17.362 44.3672 17.9297C43.9297 18.4974 43.7109 19.3099 43.7109 20.3672ZM58.6797 24.5H57.2344V17.2422H53.3438V24.5H51.8906V16.0469H58.6797V24.5ZM63.7656 22.3828L65.7344 16.0469H67.2812L63.8828 25.8047C63.3568 27.2109 62.5208 27.9141 61.375 27.9141L61.1016 27.8906L60.5625 27.7891V26.6172L60.9531 26.6484C61.4427 26.6484 61.8229 26.5495 62.0938 26.3516C62.3698 26.1536 62.5964 25.7917 62.7734 25.2656L63.0938 24.4062L60.0781 16.0469H61.6562L63.7656 22.3828ZM75.1797 16.0469V24.5H73.7266V17.2422H70.8516L70.6797 20.4062C70.5859 21.8594 70.3411 22.8984 69.9453 23.5234C69.5547 24.1484 68.9323 24.474 68.0781 24.5H67.5V23.2266L67.9141 23.1953C68.3828 23.1432 68.7188 22.8724 68.9219 22.3828C69.125 21.8932 69.2552 20.987 69.3125 19.6641L69.4688 16.0469H75.1797ZM83.9609 16.0469V24.5H82.5078V21.2109H80.3281L78.3359 24.5H76.7734L78.8984 20.9922C78.3568 20.7943 77.9401 20.4896 77.6484 20.0781C77.362 19.6615 77.2188 19.1771 77.2188 18.625C77.2188 17.8542 77.5078 17.2344 78.0859 16.7656C78.6641 16.2917 79.4375 16.0521 80.4062 16.0469H83.9609ZM78.6719 18.6406C78.6719 19.0521 78.8125 19.3854 79.0938 19.6406C79.375 19.8906 79.7474 20.0182 80.2109 20.0234H82.5078V17.2188H80.4297C79.8932 17.2188 79.4661 17.3516 79.1484 17.6172C78.8307 17.8776 78.6719 18.2188 78.6719 18.6406ZM93.4219 20.3672C93.4219 21.6536 93.1276 22.6901 92.5391 23.4766C91.9505 24.263 91.1536 24.6562 90.1484 24.6562C89.1224 24.6562 88.3151 24.3307 87.7266 23.6797V27.75H86.2812V16.0469H87.6016L87.6719 16.9844C88.2604 16.2552 89.0781 15.8906 90.125 15.8906C91.1406 15.8906 91.9427 16.2734 92.5312 17.0391C93.125 17.8047 93.4219 18.8698 93.4219 20.2344V20.3672ZM91.9766 20.2031C91.9766 19.25 91.7734 18.4974 91.3672 17.9453C90.9609 17.3932 90.4036 17.1172 89.6953 17.1172C88.8203 17.1172 88.1641 17.5052 87.7266 18.2812V22.3203C88.1589 23.0911 88.8203 23.4766 89.7109 23.4766C90.4036 23.4766 90.9531 23.2031 91.3594 22.6562C91.7708 22.1042 91.9766 21.2865 91.9766 20.2031ZM102.172 24.5H100.727V20.8906H96.8438V24.5H95.3906V16.0469H96.8438V19.7109H100.727V16.0469H102.172V24.5ZM109.969 16.0469H111.414V24.5H109.969V18.3359L106.07 24.5H104.625V16.0469H106.07V22.2188L109.969 16.0469ZM119.203 16.0469H120.648V24.5H119.203V18.3359L115.305 24.5H113.859V16.0469H115.305V22.2188L119.203 16.0469ZM119.594 12.9688C119.594 13.599 119.378 14.1068 118.945 14.4922C118.518 14.8724 117.956 15.0625 117.258 15.0625C116.56 15.0625 115.995 14.8698 115.562 14.4844C115.13 14.099 114.914 13.5938 114.914 12.9688H116.094C116.094 13.3333 116.193 13.6198 116.391 13.8281C116.589 14.0312 116.878 14.1328 117.258 14.1328C117.622 14.1328 117.906 14.0312 118.109 13.8281C118.318 13.625 118.422 13.3385 118.422 12.9688H119.594Z" fill="white"/>
</svg>
