<svg width="152" height="40" viewBox="0 0 152 40" fill="none" xmlns="http://www.w3.org/2000/svg">
<path d="M0 0.5H149C150.657 0.5 152 1.84315 152 3.5V36.5C152 38.1569 150.657 39.5 149 39.5H0V0.5Z" fill="#3E83C4"/>
<path d="M47.6797 20.8906C47.5391 22.0938 47.0938 23.0234 46.3438 23.6797C45.599 24.3307 44.6068 24.6562 43.3672 24.6562C42.0234 24.6562 40.9453 24.1745 40.1328 23.2109C39.3255 22.2474 38.9219 20.9583 38.9219 19.3438V18.25C38.9219 17.1927 39.1094 16.263 39.4844 15.4609C39.8646 14.6589 40.401 14.0443 41.0938 13.6172C41.7865 13.1849 42.5885 12.9688 43.5 12.9688C44.7083 12.9688 45.6771 13.3073 46.4062 13.9844C47.1354 14.6562 47.5599 15.5885 47.6797 16.7812H46.1719C46.0417 15.875 45.7578 15.2188 45.3203 14.8125C44.888 14.4062 44.2812 14.2031 43.5 14.2031C42.5417 14.2031 41.7891 14.5573 41.2422 15.2656C40.7005 15.974 40.4297 16.9818 40.4297 18.2891V19.3906C40.4297 20.625 40.6875 21.6068 41.2031 22.3359C41.7188 23.0651 42.4401 23.4297 43.3672 23.4297C44.2005 23.4297 44.8385 23.2422 45.2812 22.8672C45.7292 22.487 46.026 21.8281 46.1719 20.8906H47.6797ZM52.2734 22.3828L54.2422 16.0469H55.7891L52.3906 25.8047C51.8646 27.2109 51.0286 27.9141 49.8828 27.9141L49.6094 27.8906L49.0703 27.7891V26.6172L49.4609 26.6484C49.9505 26.6484 50.3307 26.5495 50.6016 26.3516C50.8776 26.1536 51.1042 25.7917 51.2812 25.2656L51.6016 24.4062L48.5859 16.0469H50.1641L52.2734 22.3828ZM64 24.5H62.5547V17.2422H58.6641V24.5H57.2109V16.0469H64V24.5ZM69.8281 24.6562C68.6823 24.6562 67.75 24.2812 67.0312 23.5312C66.3125 22.776 65.9531 21.7682 65.9531 20.5078V20.2422C65.9531 19.4036 66.112 18.6562 66.4297 18C66.7526 17.3385 67.2005 16.8229 67.7734 16.4531C68.3516 16.0781 68.9766 15.8906 69.6484 15.8906C70.7474 15.8906 71.6016 16.2526 72.2109 16.9766C72.8203 17.7005 73.125 18.737 73.125 20.0859V20.6875H67.3984C67.4193 21.5208 67.6615 22.1953 68.125 22.7109C68.5938 23.2214 69.1875 23.4766 69.9062 23.4766C70.4167 23.4766 70.849 23.3724 71.2031 23.1641C71.5573 22.9557 71.8672 22.6797 72.1328 22.3359L73.0156 23.0234C72.3073 24.112 71.2448 24.6562 69.8281 24.6562ZM69.6484 17.0781C69.0651 17.0781 68.5755 17.2917 68.1797 17.7188C67.7839 18.1406 67.5391 18.7344 67.4453 19.5H71.6797V19.3906C71.638 18.6562 71.4401 18.0885 71.0859 17.6875C70.7318 17.2812 70.2526 17.0781 69.6484 17.0781ZM81.9453 20.3672C81.9453 21.6536 81.651 22.6901 81.0625 23.4766C80.474 24.263 79.6771 24.6562 78.6719 24.6562C77.6458 24.6562 76.8385 24.3307 76.25 23.6797V27.75H74.8047V16.0469H76.125L76.1953 16.9844C76.7839 16.2552 77.6016 15.8906 78.6484 15.8906C79.6641 15.8906 80.4661 16.2734 81.0547 17.0391C81.6484 17.8047 81.9453 18.8698 81.9453 20.2344V20.3672ZM80.5 20.2031C80.5 19.25 80.2969 18.4974 79.8906 17.9453C79.4844 17.3932 78.9271 17.1172 78.2188 17.1172C77.3438 17.1172 76.6875 17.5052 76.25 18.2812V22.3203C76.6823 23.0911 77.3438 23.4766 78.2344 23.4766C78.9271 23.4766 79.4766 23.2031 79.8828 22.6562C80.2943 22.1042 80.5 21.2865 80.5 20.2031ZM83.9141 16.0469H85.3672V23.3203H89.2578V16.0469H90.7031V23.3203H91.7109L91.5703 27.0078H90.2734V24.5H83.9141V16.0469ZM94.8438 24.5H93.3984V16.0469H94.8438V24.5ZM93.2812 13.8047C93.2812 13.5703 93.3516 13.3724 93.4922 13.2109C93.638 13.0495 93.8516 12.9688 94.1328 12.9688C94.4141 12.9688 94.6276 13.0495 94.7734 13.2109C94.9193 13.3724 94.9922 13.5703 94.9922 13.8047C94.9922 14.0391 94.9193 14.2344 94.7734 14.3906C94.6276 14.5469 94.4141 14.625 94.1328 14.625C93.8516 14.625 93.638 14.5469 93.4922 14.3906C93.3516 14.2344 93.2812 14.0391 93.2812 13.8047ZM104.07 24.5H102.625V20.8906H98.7422V24.5H97.2891V16.0469H98.7422V19.7109H102.625V16.0469H104.07V24.5ZM111.617 24.5C111.534 24.3333 111.466 24.0365 111.414 23.6094C110.742 24.3073 109.94 24.6562 109.008 24.6562C108.174 24.6562 107.49 24.4219 106.953 23.9531C106.422 23.4792 106.156 22.8802 106.156 22.1562C106.156 21.276 106.49 20.5938 107.156 20.1094C107.828 19.6198 108.771 19.375 109.984 19.375H111.391V18.7109C111.391 18.2057 111.24 17.8047 110.938 17.5078C110.635 17.2057 110.19 17.0547 109.602 17.0547C109.086 17.0547 108.654 17.1849 108.305 17.4453C107.956 17.7057 107.781 18.0208 107.781 18.3906H106.328C106.328 17.9688 106.477 17.5625 106.773 17.1719C107.076 16.776 107.482 16.4635 107.992 16.2344C108.508 16.0052 109.073 15.8906 109.688 15.8906C110.661 15.8906 111.424 16.1354 111.977 16.625C112.529 17.1094 112.815 17.7786 112.836 18.6328V22.5234C112.836 23.2995 112.935 23.9167 113.133 24.375V24.5H111.617ZM109.219 23.3984C109.672 23.3984 110.102 23.2812 110.508 23.0469C110.914 22.8125 111.208 22.5078 111.391 22.1328V20.3984H110.258C108.487 20.3984 107.602 20.9167 107.602 21.9531C107.602 22.4062 107.753 22.7604 108.055 23.0156C108.357 23.2708 108.745 23.3984 109.219 23.3984Z" fill="white"/>
</svg>
